<?xml version="1.0" standalone="no"?>
<!DOCTYPE svg PUBLIC "-//W3C//DTD SVG 1.1//EN" "http://www.w3.org/Graphics/SVG/1.1/DTD/svg11.dtd" >
<svg xmlns="http://www.w3.org/2000/svg" xmlns:xlink="http://www.w3.org/1999/xlink" version="1.1">
<metadata>
Created by FontForge 20161003 at Sun May  6 08:15:26 2018
 By www-data
Copyright (c) 2017 by Worachet Deeyai. All rights reserved.
</metadata>
<defs>
<font id="EkkamaiStandardLight" horiz-adv-x="0" >
  <font-face 
    font-family="EkkamaiStandardLight"
    font-weight="400"
    font-stretch="normal"
    units-per-em="1000"
    panose-1="2 0 5 6 0 0 0 2 0 3"
    ascent="800"
    descent="-200"
    x-height="520"
    cap-height="783"
    bbox="-557 -399 1022.08 1120"
    underline-thickness="48"
    underline-position="-148"
    unicode-range="U+0020-25CC"
  />
<missing-glyph horiz-adv-x="562" 
d="M60 806h442v-814v-24h-442v838zM92 776v-778h378v778h-378z" />
    <glyph glyph-name="uni0093" unicode="&#x91;&#x91;" horiz-adv-x="412" 
d="M136 485q-32 33 -41 76.5t-4 87.5l8 61l53 -6l-7 -61q-4 -32 1.5 -64.5t28.5 -55.5zM297 485q-32 33 -41 76.5t-4 87.5l8 61l53 -6l-7 -61q-4 -32 1.5 -64.5t28.5 -55.5z" />
    <glyph glyph-name="uni0094" unicode="&#x92;&#x92;" horiz-adv-x="383" 
d="M103 710q32 -33 41 -76.5t4 -87.5l-8 -61l-53 6l7 61q4 32 -1.5 64.5t-28.5 55.5zM263 710q32 -33 41 -76.5t4 -87.5l-8 -61l-53 6l7 61q4 32 -1.5 64.5t-28.5 55.5z" />
    <glyph glyph-name="Imacron" unicode="&#x3b;&#x3b;For&#x20;Education&#x20;Used&#x20;Only&#x3b;&#x3b;" horiz-adv-x="815" 
d="M288 446q-2 -5 -2 -9v-5v-94q1 -20 10 -34.5t22.5 -25t30.5 -17t34 -8.5q18 -2 38.5 -2t40 4.5t36.5 13.5t29 25l43 -31q-17 -24 -41.5 -38t-52 -21t-56.5 -7t-56 5q-25 4 -49 15.5t-42.5 29t-29.5 40.5t-11 51v94q0 28 11.5 51.5t31 41t43.5 29t50 15.5q27 4 55.5 4
t55.5 -7t51 -21.5t41 -37.5l-44 -31q-22 29 -59 36.5t-72 5.5t-66.5 -18.5t-41.5 -53.5zM764 537q27 -65 29.5 -133t-17 -132t-59.5 -119.5t-98 -94.5q-53 -35 -112.5 -50.5t-120.5 -12.5t-119 24t-107 60q-48 38 -81 88.5t-49.5 107.5t-16 117.5t20.5 118.5
q19 57 54.5 104.5t82 82t102 55t115.5 23.5q60 2 117.5 -14t107 -47.5t88.5 -76.5t63 -101zM715 254q23 55 25 114.5t-15 114.5t-51.5 103t-85.5 81q-45 30 -96.5 43t-103.5 11t-102 -20.5t-92 -51.5q-41 -33 -69.5 -76.5t-43 -92t-14.5 -100.5t17 -102q16 -49 46.5 -90
t70.5 -71.5t88 -48t100 -20.5q52 -2 102 11.5t92.5 40.5t76.5 66.5t55 87.5z" />
    <glyph glyph-name="imacron" unicode="&#x3b;&#x3b;Registered&#x3b;&#x3b;" horiz-adv-x="815" 
d="M554 505q10 -34 0.5 -69.5t-40.5 -55.5l70 -160h-59l-63 144h-130v-144h-54v356h183q33 0 59 -20t34 -51zM504 451q1 4 1.5 8.5t0.5 10.5q0 18 -11 35t-33 17h-130v-104h131q14 0 25 9.5t16 23.5zM765 543q31 -73 31 -152q0 -62 -18 -116q-16 -55 -49 -103
q-32 -47 -75.5 -83t-96.5 -58q-73 -31 -152 -31q-60 0 -116 17q-56 18 -103 50t-83 75t-58 97q-31 71 -31 152q0 59 17 116q17 53 50 103q32 47 75 82.5t97 58.5q71 31 152 31q60 0 116 -18q28 -8 53.5 -20.5t49.5 -28.5q47 -32 82.5 -75.5t58.5 -96.5zM715 260q13 30 20 63
t7 68q0 52 -15 100t-43 88q-27 41 -65 72t-83 50q-30 13 -63 20t-68 7q-54 0 -100 -15q-50 -16 -89 -43q-40 -27 -71 -65t-51 -83q-26 -61 -26 -131q0 -54 15 -100q15 -49 42 -89q28 -40 65.5 -71t83.5 -51q61 -26 131 -26q52 0 100 15q47 15 88 42q41 28 72 65.5t50 83.5z
" />
    <glyph glyph-name="Ibreve" unicode="&#x3b;&#x3b;Trademark&#x3b;&#x3b;" horiz-adv-x="608" 
 />
    <glyph glyph-name="ibreve" unicode="&#x3b;&#x3b;Multiply&#x3b;&#x3b;" horiz-adv-x="435" 
d="M341 480l34 -34l-123 -123l123 -123l-34 -34l-123 123l-124 -123l-34 34l124 123l-124 123l34 34l124 -123z" />
    <glyph glyph-name="Iogonek" unicode="&#x3b;&#x3b;Divide&#x3b;&#x3b;" horiz-adv-x="433" 
d="M252 412q0 -15 -10.5 -25.5t-25.5 -10.5t-25.5 10.5t-10.5 25.5t10.5 25.5t25.5 10.5t25.5 -10.5t10.5 -25.5zM252 234q0 -15 -10.5 -25.5t-25.5 -10.5t-25.5 10.5t-10.5 25.5t10.5 25.5t25.5 10.5t25.5 -10.5t10.5 -25.5zM60 299v48h313v-48h-313z" />
    <glyph glyph-name="rulakkhangyao" unicode="&#xc4;&#xd2;" horiz-adv-x="962" 
 />
    <glyph glyph-name="lulakkhangyao" unicode="&#xc6;&#xd2;" horiz-adv-x="953" 
 />
    <glyph glyph-name=".notdef" horiz-adv-x="562" 
d="M60 806h442v-814v-24h-442v838zM92 776v-778h378v778h-378z" />
    <glyph glyph-name=".null" 
 />
    <glyph glyph-name="nonmarkingreturn" horiz-adv-x="283" 
 />
    <glyph glyph-name="space" unicode=" " horiz-adv-x="337" 
 />
    <glyph glyph-name="exclam" unicode="!" horiz-adv-x="215" 
d="M81 0v74h54v-74h-54zM134 783v-644h-54v644h54z" />
    <glyph glyph-name="quotedbl" unicode="&#x22;" horiz-adv-x="263" 
d="M78 542h-48v132h48v-132zM203 542h-48v132h48v-132z" />
    <glyph glyph-name="numbersign" unicode="#" horiz-adv-x="722" 
d="M657 481h-119l-75 -218h120l-19 -54h-120l-72 -209h-57l72 209h-153l-72 -209h-57l72 209h-114l19 54h114l74 218h-113l18 54h114l57 165h57l-57 -165h153l56 164h57l-56 -164h120zM406 263l74 218h-152l-75 -218h153z" />
    <glyph glyph-name="dollar" unicode="$" horiz-adv-x="623" 
d="M460 409q27 -8 48 -24t35.5 -36t22.5 -41.5t10 -40.5q5 -50 -10.5 -96t-52.5 -81q-35 -34 -81.5 -50t-94.5 -20v-83h-54v82q-30 1 -63 3.5t-65 10t-61.5 21.5t-51.5 37l39 38q23 -24 57 -34.5t66 -15.5q33 -5 70 -7t73 2.5t69.5 17.5t59.5 38q27 25 38.5 58.5t8.5 69.5
q-4 35 -23 62t-54 37l-203 49q-36 8 -71 22.5t-62 40.5q-28 26 -39 61t-5 73q7 39 28 67.5t51 47.5t66 29t72 13v78h54v-77q30 -1 59.5 -4t58.5 -10q26 -6 51 -16.5t44 -29.5l-38 -38q-10 10 -24 17t-29 11.5t-31 6.5t-29 4q-31 4 -67.5 6t-72 -3t-67 -19t-52.5 -42
q-20 -26 -22.5 -61.5t17.5 -61.5q21 -27 54 -41t65 -21h1z" />
    <glyph glyph-name="percent" unicode="%" horiz-adv-x="349" 
d="M201 250q13 28 40.5 38.5t55.5 -2.5q27 -12 37.5 -40t-2.5 -55q-12 -27 -40 -37.5t-55 1.5t-37.5 40t1.5 55zM288 211q4 9 0.5 18t-12.5 14q-9 4 -18 0.5t-14 -12.5q-4 -9 -0.5 -18t12.5 -14q9 -4 18 -0.5t14 12.5zM17 490q13 28 40.5 38.5t55.5 -2.5q27 -12 37.5 -40
t-2.5 -55q-12 -27 -40 -37.5t-55 1.5t-37.5 40t1.5 55zM104 451q4 9 0.5 18t-12.5 14q-9 4 -18 0.5t-14 -12.5q-4 -9 -0.5 -18t12.5 -14q9 -4 18 -0.5t14 12.5zM316 595l-43 19l-240 -527l44 -20z" />
    <glyph glyph-name="ampersand" unicode="&#x26;" horiz-adv-x="696" 
d="M592 19l-49 58q-35 -38 -81 -57.5t-96 -24.5q-42 -5 -87 1t-84 24t-67.5 50t-36.5 80q-8 42 1.5 82.5t30.5 76.5t52.5 67t67.5 55l-73 86q-32 43 -33 97.5t28 99.5q25 39 65 58t82 18t81 -21t63 -59q23 -38 25.5 -83t-20.5 -84q-12 -20 -28 -36.5t-34.5 -31t-38.5 -28
t-38 -26.5l215 -254q12 28 16.5 58t4.5 60h54q0 -42 -8 -83.5t-29 -79.5l88 -102zM287 462q30 22 63 44t56 53q21 28 21 59.5t-16 58t-43.5 44t-61.5 16.5q-35 -1 -61.5 -19.5t-40.5 -46.5t-13 -60.5t22 -60.5zM232 62q35 -13 74 -15t76 5t68 22.5t51 36.5l7 7l-230 271
q-30 -18 -56.5 -43.5t-45.5 -54.5q-20 -29 -29.5 -65t-1.5 -71q7 -35 31 -58t56 -35z" />
    <glyph glyph-name="quotesingle" unicode="'" horiz-adv-x="168" 
d="M108 542h-48v132h48v-132z" />
    <glyph glyph-name="parenleft" unicode="(" horiz-adv-x="447" 
d="M328 -67q-45 29 -78.5 74t-57.5 92q-28 53 -45 111t-24 118t-5.5 120.5t11.5 119.5q10 57 28 110t47 103q23 41 54 80t70 65l30 -45q-42 -29 -73.5 -74t-53.5 -90q-46 -97 -56 -206.5t8 -214.5q9 -50 25 -97t40 -91q20 -36 47.5 -72t62.5 -59z" />
    <glyph glyph-name="parenright" unicode=")" horiz-adv-x="498" 
d="M147 926q45 -29 78.5 -74t57.5 -92q28 -53 45 -111t24 -118t5.5 -121t-11.5 -119q-10 -57 -28 -110t-47 -103q-23 -41 -54 -80t-70 -65l-30 45q42 29 73.5 74t53.5 90q46 97 56 206.5t-8 214.5q-9 50 -25 97t-40 91q-20 36 -47.5 72t-62.5 59z" />
    <glyph glyph-name="asterisk" unicode="*" horiz-adv-x="452" 
d="M403 574l-135 -44l83 -115l-43 -32l-84 116l-84 -116l-44 32l84 115l-135 44l16 52l136 -44v142h54v-142l136 44z" />
    <glyph glyph-name="plus" unicode="+" horiz-adv-x="433" 
d="M373 347v-48h-133v-133h-48v133h-132v48h132v132h48v-132h133z" />
    <glyph glyph-name="comma" unicode="," horiz-adv-x="193" 
d="M94 83q32 -33 41 -76.5t4 -87.5l-8 -61l-53 6l7 61q4 32 -1.5 64.5t-28.5 55.5z" />
    <glyph glyph-name="hyphen" unicode="-" horiz-adv-x="467" 
d="M60 257v48h347v-48h-347z" />
    <glyph glyph-name="period" unicode="." horiz-adv-x="192" 
d="M132 36q0 -15 -10.5 -25.5t-25.5 -10.5t-25.5 10.5t-10.5 25.5t10.5 25.5t25.5 10.5t25.5 -10.5t10.5 -25.5z" />
    <glyph glyph-name="slash" unicode="/" horiz-adv-x="376" 
d="M297 783h57l-269 -783h-57z" />
    <glyph glyph-name="zero" unicode="0" horiz-adv-x="664" 
d="M584 182v-1q-2 -64 -36 -104t-84.5 -61t-108.5 -24.5t-107 7.5q-32 7 -62.5 23t-54 40t-37.5 54t-14 66v420q0 36 16.5 70.5t42.5 58.5q27 24 60.5 38.5t70.5 20t74 3.5t71 -9q33 -7 63 -23t53.5 -39t37.5 -53.5t15 -66.5v-420zM311 45q37 -2 76 3.5t70.5 21t52 43
t20.5 69.5v420q-1 32 -19.5 60t-44.5 45q-30 19 -65 25.5t-69 6.5q-35 0 -69.5 -6.5t-63.5 -24.5q-27 -17 -46 -45.5t-19 -60.5v-420q0 -35 17 -60t42.5 -41.5t57 -25.5t60.5 -10z" />
    <glyph glyph-name="one" unicode="1" horiz-adv-x="220" 
d="M140 783v-783h-54v715q-19 -11 -40 -19.5t-44 -8.5v54q23 0 47.5 14.5t43.5 27.5h47z" />
    <glyph glyph-name="two" unicode="2" horiz-adv-x="570" 
d="M510 54v-54h-449v56q0 21 -0.5 46t3.5 42q6 25 22 46t33 40q7 8 18.5 18.5t41.5 37.5t87 76t155 134q14 14 23.5 33.5t10.5 40.5v45q0 28 -13.5 49.5t-33.5 36t-45.5 23t-49.5 11.5q-26 3 -53.5 1t-53 -9.5t-48.5 -21t-40 -35.5l-42 34q23 28 53 46.5t64 28.5t70 11.5
t71 -3.5q33 -5 64 -19t55.5 -36t40 -51.5t15.5 -65.5v-45q0 -32 -14 -61.5t-37 -52.5l-242 -210q-23 -18 -44 -38.5t-38 -43.5q-10 -14 -14.5 -27t-4.5 -30v-53h395z" />
    <glyph glyph-name="three" unicode="3" horiz-adv-x="562" 
d="M502 182v-1q0 -36 -15 -67t-39.5 -54.5t-56 -39t-64.5 -22.5q-73 -15 -148.5 0t-138.5 56l32 44q23 -18 51.5 -29.5t59.5 -17.5t62 -6.5t59 4.5q25 4 50.5 14t46.5 27t34 40t13 52v46q-1 31 -18.5 59t-43.5 45q-29 20 -64 26t-73 7h-52v54h52q28 0 59 6t57.5 20.5
t44 37.5t18.5 58v75q-1 28 -14 49.5t-33.5 36t-45.5 23t-49 11.5q-26 3 -53.5 1t-53 -9.5t-48.5 -21t-40 -35.5l-42 34q23 28 53 46.5t64 28.5t70 11.5t71 -3.5q33 -5 64 -19t55.5 -36t39.5 -51.5t16 -65.5v-75q-1 -47 -29 -87t-68 -60q24 -11 45 -28t37 -39t25.5 -47
t9.5 -52v-46z" />
    <glyph glyph-name="four" unicode="4" horiz-adv-x="609" 
d="M476 199h73v-54h-73v-145h-52v145h-384v42l394 605h42v-593zM101 199h323v480z" />
    <glyph glyph-name="five" unicode="5" horiz-adv-x="596" 
d="M516 181q0 -36 -14.5 -66.5t-38.5 -54t-55 -39t-64 -22.5q-73 -15 -145 0q-35 8 -71.5 19.5t-67.5 31.5l29 46q24 -15 52.5 -26t58.5 -17t60.5 -7t57.5 3q25 4 51 14t46.5 27t33.5 40t13 52v119q-1 32 -18.5 59.5t-43.5 44.5q-30 20 -65.5 26.5t-70.5 6.5
q-16 0 -35.5 -1.5t-37.5 -6.5t-33 -14.5t-22 -25.5h-54v393h415v-54h-361v-273q32 19 71.5 28t80 7.5t79 -12.5t69.5 -33q34 -24 56.5 -63t23.5 -82v-120z" />
    <glyph glyph-name="six" unicode="6" horiz-adv-x="644" 
d="M584 183v-1q-1 -35 -17.5 -69.5t-42.5 -58.5t-59.5 -38.5t-70.5 -20t-74 -4t-71 8.5q-33 7 -63 23t-53.5 39.5t-38 54t-14.5 66.5v408q0 31 12 60.5t31 52.5q20 26 47 43t57 27t62 14t64 4q62 -1 122 -21.5t98 -72.5l-43 -32q-20 27 -48 42.5t-60 23t-65.5 7.5t-63.5 -4
q-28 -4 -56 -15t-51 -29t-37.5 -43t-14.5 -57v-166q26 26 59.5 41t70.5 22t74.5 5.5t72.5 -8.5q33 -7 64 -22.5t55 -39t39 -54.5t15 -67v-119zM312 46q36 -2 71 4.5t64.5 20.5t50.5 36t28 53q2 5 2 9t1 7q0 4 1 7v119q-1 32 -19.5 60t-44.5 45q-29 19 -64 25.5t-70 6.5
q-34 0 -69 -6.5t-64 -24.5q-26 -17 -45.5 -45.5t-19.5 -60.5v-119q1 -35 17.5 -60t42.5 -41.5t57 -25.5t61 -10z" />
    <glyph glyph-name="seven" unicode="7" horiz-adv-x="528" 
d="M176 0l253 728h-409v55h468v-53l-255 -730h-57z" />
    <glyph glyph-name="eight" unicode="8" horiz-adv-x="624" 
d="M564 181q-1 -37 -18.5 -71.5t-45.5 -58.5q-27 -24 -60.5 -37.5t-69.5 -18.5t-73 -3.5t-70 9.5q-32 7 -61 22.5t-51.5 39t-37 54t-17.5 66.5v46q0 27 9.5 52t25 46.5t36 38.5t44.5 28q-40 21 -67.5 60.5t-27.5 86.5v76q0 32 14.5 62.5t37.5 53.5q24 23 55.5 36.5t65 19.5
t68 4.5t66.5 -8.5q30 -6 58 -20.5t49.5 -36t35 -49.5t14.5 -61v-80q-2 -46 -28.5 -84.5t-66.5 -59.5q48 -22 80.5 -66t34.5 -98v-49zM155 481q23 -33 60.5 -48.5t75.5 -15.5h42q29 0 57 9t51 26q20 15 34.5 39t14.5 50v75q-1 30 -18 56t-42 40q-29 17 -61.5 22.5t-64.5 4.5
q-29 -1 -59 -7t-56 -23q-23 -15 -39 -39.5t-16 -53.5v-75q0 -16 6 -31.5t15 -28.5zM506 160q2 5 2 9.5t1 7.5q0 4 1 6v46q-1 34 -17.5 60.5t-42 43.5t-56.5 25.5t-61 8.5h-42q-32 1 -64.5 -9t-58.5 -30q-23 -17 -38.5 -43.5t-15.5 -55.5v-46q0 -35 17 -60t43 -41.5t57 -25.5
t61 -10q32 -2 66 2.5t64 17.5t52.5 35.5t31.5 58.5z" />
    <glyph glyph-name="nine" unicode="9" horiz-adv-x="644" 
d="M60 600v1q1 35 17.5 69.5t42.5 58.5t59.5 38.5t70.5 20t74 4t71 -8.5q33 -7 63 -23t53.5 -39.5t38 -54t14.5 -66.5v-408q0 -31 -12 -60.5t-31 -52.5q-20 -26 -47 -43t-57 -27t-62.5 -14t-63.5 -4q-62 1 -122 21.5t-98 72.5l43 32q19 -27 47.5 -42.5t60.5 -23t65.5 -7.5
t63.5 4q28 4 56 15t51 29t37.5 43t14.5 57v166q-26 -26 -59.5 -41t-70.5 -22t-75 -5.5t-72 8.5q-33 7 -64 22.5t-55 39t-39 54.5t-15 67v119zM332 737q-36 1 -71 -5t-64.5 -20t-50.5 -36t-28 -53q-2 -5 -3 -9t-1 -7q-1 -4 0 -7v-119q1 -32 19.5 -60t44.5 -45
q29 -19 64 -25.5t70 -6.5q34 0 69 6.5t64 24.5q26 17 45.5 45.5t19.5 60.5v119q-1 35 -17.5 60t-42.5 41.5t-57 25t-61 10.5z" />
    <glyph glyph-name="colon" unicode=":" horiz-adv-x="192" 
d="M132 456q0 -15 -10.5 -25.5t-25.5 -10.5t-25.5 10.5t-10.5 25.5t10.5 25.5t25.5 10.5t25.5 -10.5t10.5 -25.5zM132 159q0 -15 -10.5 -25.5t-25.5 -10.5t-25.5 10.5t-10.5 25.5t10.5 25.5t25.5 10.5t25.5 -10.5t10.5 -25.5z" />
    <glyph glyph-name="semicolon" unicode=";" horiz-adv-x="193" 
d="M132 456q0 15 -10.5 25.5t-25.5 10.5t-25.5 -10.5t-10.5 -25.5t10.5 -25.5t25.5 -10.5t25.5 10.5t10.5 25.5zM93 237q32 -33 41 -76.5t4 -87.5l-8 -61l-53 6l7 61q4 32 -1.5 64.5t-28.5 55.5z" />
    <glyph glyph-name="less" unicode="&#x3c;" horiz-adv-x="375" 
d="M60 319v0v0l34 34v0l187 187l34 -34l-187 -187l187 -188l-34 -34l-187 188v0z" />
    <glyph glyph-name="equal" unicode="=" horiz-adv-x="433" 
d="M60 249v48h313v-48h-313zM60 348v48h313v-48h-313z" />
    <glyph glyph-name="greater" unicode="&#x3e;" horiz-adv-x="375" 
d="M315 319v0v0l-221 -222l-34 34l187 188l-187 187l34 34z" />
    <glyph glyph-name="question" unicode="?" horiz-adv-x="472" 
d="M422 662q17 -39 17 -82q0 -32 -10.5 -60.5t-26.5 -54.5t-35.5 -50.5t-37.5 -47.5q-40 -51 -61 -110q-7 -19 -12 -40t-5 -42v-33h-54v33q0 33 8.5 66.5t23 64.5t33.5 60t40 53q14 15 25.5 31t22.5 33q14 22 24.5 46.5t10.5 50.5q0 32 -12.5 61t-34 50.5t-50.5 34t-61 12.5
t-61 -12.5t-50.5 -34t-34 -50.5t-12.5 -61h-54q0 37 13 71.5t35.5 62t53.5 47t67 27.5q37 7 73 1.5t68 -22.5t57 -44t40 -61zM197 74h54v-74h-54v74z" />
    <glyph glyph-name="at" unicode="@" horiz-adv-x="956" 
d="M871 393q1 -23 -1.5 -48t-10 -48.5t-20 -44t-31.5 -34.5t-43 -19.5t-49.5 -4t-49.5 10t-42 22.5q-23 -23 -53 -38.5t-62.5 -20.5t-65.5 0.5t-62 24.5t-44.5 48t-14.5 64q2 35 20.5 62t53.5 37l113 28q20 4 41.5 15t23.5 34q2 20 -11 34t-30 21q-22 8 -45 8t-45 -2
q-14 -1 -33.5 -4t-30.5 -14l-39 37q14 14 34 22t42.5 12t46 4t43.5 -2q23 -3 45 -11t39 -22t28 -34t11 -45v-125q0 -23 4 -47t21 -41q16 -15 39.5 -19.5t45.5 -3.5q25 1 40.5 16t24.5 36t11.5 45.5t1.5 44.5v1q0 60 -21 117t-61 102q-34 40 -78 66.5t-93.5 39.5t-101 10.5
t-100.5 -21.5q-48 -18 -88 -50t-68.5 -73.5t-44.5 -90t-16 -100.5q0 -46 12 -90t36 -84q38 -63 100.5 -105t136.5 -53q80 -12 156.5 13.5t133.5 82.5l38 -38q-44 -44 -98.5 -72t-113.5 -38t-120 -1.5t-116 35.5q-46 22 -84.5 56t-66.5 75t-45.5 89t-21.5 99q-4 53 6 104.5
t33 98t57.5 86t78.5 68.5q45 30 97 46t105.5 17.5t106.5 -11.5t100 -40q45 -26 81 -62.5t61.5 -80t39 -93t13.5 -101.5zM420 233q24 -12 50 -13t49 6t42 18.5t30 25.5q-10 21 -13 43.5t-3 45.5v50q0 -5 -6 -9.5t-14 -8.5t-17.5 -7.5t-16.5 -4.5l-111 -27q-20 -6 -28 -23
t-6 -37t14 -35t30 -24z" />
    <glyph glyph-name="A" unicode="A" horiz-adv-x="655" 
d="M298 783h58l279 -783h-57l-106 297h-289l-106 -297h-57zM202 351h250l-125 362z" />
    <glyph glyph-name="B" unicode="B" horiz-adv-x="625" 
d="M578 273q9 -45 5.5 -94t-24.5 -91q-19 -38 -55.5 -63t-78.5 -25h-345v783h318q31 0 57.5 -13t46 -34.5t32.5 -49t18 -55.5q5 -30 5 -62t-6.5 -63t-21.5 -58.5t-40 -47.5q37 -19 59 -53t30 -74zM134 729v-310h264q30 1 50 16.5t32 38t17.5 49.5t5.5 51t-5.5 51t-17.5 50
t-32.5 38t-50.5 16h-263zM525 153q7 33 5.5 69t-13.5 68q-11 29 -36 50.5t-57 22.5h-290v-310h290q21 1 38 9.5t29.5 22.5t21 32t12.5 36z" />
    <glyph glyph-name="C" unicode="C" horiz-adv-x="614" 
d="M138 615q-3 -11 -3.5 -17t-0.5 -7v-398q1 -34 16 -59.5t39 -43.5t54 -28.5t59 -13.5t61 -2t63 8.5t58 22.5t46 41l43 -32q-21 -29 -50.5 -48.5t-64.5 -30.5q-30 -9 -62 -13t-65 -3t-65 7.5t-60 18.5q-26 11 -49 29t-40 41t-27 50t-10 56v399q0 31 12.5 61.5t32.5 54.5
q21 25 48 41.5t57 26.5t62 13.5t64 2.5q30 -1 61 -6t59.5 -16t53.5 -28.5t44 -43.5l-44 -32q-18 25 -44 40t-55.5 22.5t-60.5 9t-59 -0.5q-29 -3 -56.5 -11t-51 -22.5t-41 -36.5t-24.5 -52z" />
    <glyph glyph-name="D" unicode="D" horiz-adv-x="630" 
d="M547 668q10 -18 16.5 -39.5t6.5 -42.5v-389q0 -43 -22.5 -82.5t-56.5 -64.5q-39 -29 -86 -39.5t-95 -10.5h-230v783h230q34 0 69 -6t66.5 -19.5t58 -35.5t43.5 -54zM498 138q8 13 13 28.5t5 30.5v389q-1 33 -19.5 62t-44.5 47q-32 20 -68.5 27t-73.5 7h-176v-675h176
q27 0 54.5 3.5t52.5 13t46 26t35 41.5z" />
    <glyph glyph-name="E" unicode="E" horiz-adv-x="598" 
d="M80 0v783h478v-54h-424v-310h400v-54h-400v-311h424v-54h-478z" />
    <glyph glyph-name="F" unicode="F" horiz-adv-x="598" 
d="M80 0v783h478v-54h-424v-310h400v-54h-400v-365h-54z" />
    <glyph glyph-name="G" unicode="G" horiz-adv-x="651" 
d="M325 402h266v-209q0 -38 -18 -74.5t-46 -61.5q-28 -26 -64 -41t-75 -21t-78.5 -4t-75.5 10q-33 8 -64.5 25t-55.5 41.5t-39 56.5t-15 69v399q0 32 13.5 63t33.5 54q21 25 48.5 41.5t57.5 25.5t62 12.5t64 3.5q31 0 63 -4.5t61.5 -15.5t55 -29t45.5 -45l-44 -32
q-20 27 -48.5 42.5t-61.5 22.5t-67 7t-65 -3q-29 -3 -58 -13.5t-52.5 -28.5t-38.5 -43.5t-15 -58.5v-398q1 -31 17 -59t39 -46q23 -17 50.5 -27t57 -13.5t59.5 -2t57 6.5q26 5 51.5 16.5t45.5 29.5t33 42t13 53v155h-212v54z" />
    <glyph glyph-name="H" unicode="H" horiz-adv-x="664" 
d="M530 419v364h54v-783h-54v365h-396v-365h-54v783h54v-364h396z" />
    <glyph glyph-name="I" unicode="I" horiz-adv-x="214" 
d="M80 0v783h54v-783h-54z" />
    <glyph glyph-name="J" unicode="J" horiz-adv-x="360" 
d="M226 783h54v-595q0 -43 -22.5 -82.5t-56.5 -64.5q-39 -29 -86 -39.5t-95 -10.5v54q35 0 71.5 6.5t67.5 25.5q27 17 47 47t20 64v595z" />
    <glyph glyph-name="K" unicode="K" horiz-adv-x="630" 
d="M610 783l-338 -337l333 -446h-68l-303 408l-100 -99v-309h-54v783h54v-398l399 398h77z" />
    <glyph glyph-name="L" unicode="L" horiz-adv-x="578" 
d="M134 783v-729h424v-54h-478v783h54z" />
    <glyph glyph-name="M" unicode="M" horiz-adv-x="772" 
d="M386 79l250 704h56v-783h-54v629l-227 -629h-50l-227 629v-629h-54v783h56z" />
    <glyph glyph-name="N" unicode="N" horiz-adv-x="664" 
d="M530 100v682h54v-782h-59l-391 681v-681h-54v782h58z" />
    <glyph glyph-name="O" unicode="O" horiz-adv-x="691" 
d="M588 676q10 -19 16.5 -40.5t6.5 -42.5v-400q0 -38 -18 -74.5t-46 -61.5q-28 -26 -64 -41t-75 -21t-78.5 -4t-75.5 10q-33 8 -64.5 25t-56 41.5t-39 56.5t-14.5 69v400q0 32 13.5 63.5t34.5 55.5q22 26 51 42.5t61 25.5t65.5 11.5t66.5 0.5q32 -2 63.5 -9t60 -21t52.5 -35
t40 -51zM539 132q8 14 13 29.5t5 31.5v399q-1 31 -17 59t-39 46q-23 17 -51 27t-57.5 13.5t-59 2t-56.5 -6.5q-26 -5 -51.5 -16.5t-45.5 -29.5t-33 -42t-13 -53v-399q1 -35 16.5 -60.5t40.5 -43.5t55 -28t60 -13q31 -3 65 -1.5t65.5 10.5t58.5 27t44 48z" />
    <glyph glyph-name="P" unicode="P" horiz-adv-x="599" 
d="M536 685q21 -48 22 -105t-17 -105q-8 -22 -22 -42t-33 -35t-41 -24t-47 -9h-264v-365h-54v783h318q45 0 82.5 -28.5t55.5 -69.5zM498 519q7 33 5.5 69t-13.5 68q-11 29 -35.5 50.5t-57.5 22.5h-263v-310h264q42 2 67 32.5t33 67.5z" />
    <glyph glyph-name="Q" unicode="Q" horiz-adv-x="691" 
d="M611 192q0 -38 -18 -74t-46 -62q-2 -1 -5 -4q8 -2 15 -2.5t15 -1.5q10 -2 19.5 -2h19.5v-55q-23 0 -46 2.5t-45 7.5l-20 6t-20 7q-53 -21 -113 -23t-113 10q-33 8 -64.5 25t-55.5 41.5t-39 56t-15 68.5v399q0 32 13.5 63.5t34.5 55.5q22 26 51 42.5t61 25.5t65.5 11.5
t66.5 0.5q32 -2 63.5 -9t60 -21t52.5 -35t40 -51q-2 2 -2 3.5t2 -3.5q5 -8 3.5 -6t-3.5 6q10 -19 16.5 -40.5t6.5 -42.5v-399zM400 189q2 -41 24.5 -69t55.5 -45q18 10 33 23.5t26 33.5q8 14 13 29.5t5 30.5v398q-1 31 -17 59t-39 46q-23 17 -51 27t-57.5 13.5t-59 2
t-56.5 -6.5q-26 -5 -51.5 -16.5t-45.5 -29.5t-33 -42t-13 -53v-398q1 -34 16.5 -60t40.5 -43.5t55 -27.5t60 -13q26 -3 54.5 -2t56.5 6q-31 26 -50 60.5t-21 76.5h54z" />
    <glyph glyph-name="R" unicode="R" horiz-adv-x="621" 
d="M498 408q-17 -15 -33 -24l136 -384h-57l-130 366q-3 0 -10 -0.5t-34 -0.5h-82h-154v-365h-54v783h318q30 0 56 -12.5t45.5 -33t32.5 -46.5t19 -54q6 -29 6.5 -60t-5.5 -62t-19 -58.5t-35 -48.5zM397 419q30 1 50.5 16.5t32.5 38t17.5 49.5t5.5 51t-5.5 51t-17.5 50
t-32.5 38t-50.5 16h-263v-310h263z" />
    <glyph glyph-name="S" unicode="S" horiz-adv-x="630" 
d="M458 409q21 -7 38.5 -20.5t30 -29.5t21 -32t12.5 -28q12 -42 9 -86.5t-20 -83.5q-16 -36 -41.5 -61.5t-57.5 -42.5t-68 -25.5t-73 -8.5q-32 0 -66.5 2.5t-68 11t-63 24t-51.5 41.5l41 35q22 -26 55 -37.5t65 -16.5q33 -5 69 -6.5t70.5 5t65 22t52.5 44.5q19 24 29.5 60.5
t8 73t-20 66.5t-53.5 41l-192 54q-24 6 -47 15.5t-44 23t-37.5 32t-26.5 41.5q-17 38 -14 81.5t22 79.5q20 38 55.5 62t77.5 35t86.5 10.5t87.5 -6.5q35 -6 72.5 -18.5t61.5 -41.5l-41 -35q-20 23 -54 31.5t-63 11.5q-30 4 -65 4t-68 -7.5t-60.5 -25t-43.5 -48.5
q-14 -29 -14.5 -63.5t17.5 -62.5q19 -28 49.5 -43.5t62.5 -23.5l193 -54h1z" />
    <glyph glyph-name="T" unicode="T" horiz-adv-x="530" 
d="M490 783v-54h-198v-729h-54v729h-198v54h450z" />
    <glyph glyph-name="U" unicode="U" horiz-adv-x="691" 
d="M557 783h54v-591q0 -38 -18 -74.5t-46 -61.5q-28 -26 -64 -41t-75 -21t-78.5 -4t-75.5 10q-33 8 -64.5 25t-56 41.5t-39 56.5t-14.5 69v591h54v-591q1 -31 17 -59t39 -46q23 -17 51 -27t57.5 -13.5t59 -2t56.5 6.5q26 5 51.5 16.5t46 29.5t33 42t12.5 53v591z" />
    <glyph glyph-name="V" unicode="V" horiz-adv-x="655" 
d="M635 783l-282 -783h-50l-283 783h57l251 -704l250 704h57z" />
    <glyph glyph-name="W" unicode="W" horiz-adv-x="943" 
d="M867 782h56l-214 -783h-52l-186 689l-185 -689h-52l-214 783h56l184 -673l184 673h55l184 -673z" />
    <glyph glyph-name="X" unicode="X" horiz-adv-x="608" 
d="M588 783l-252 -392l252 -391h-64l-220 352l-220 -352h-64l252 391l-252 392h64l220 -352l220 352h64z" />
    <glyph glyph-name="Y" unicode="Y" horiz-adv-x="609" 
d="M524 783h65l-259 -399v-384h-54v384l-256 399h64l219 -351z" />
    <glyph glyph-name="Z" unicode="Z" horiz-adv-x="630" 
d="M589 741l-475 -687h476v-54h-550v42l475 687h-475v54h549v-42z" />
    <glyph glyph-name="bracketleft" unicode="[" horiz-adv-x="258" 
d="M215 812v-49h-123v-805h124v-49h-178v903h177z" />
    <glyph glyph-name="backslash" unicode="\" horiz-adv-x="438" 
d="M297 0l-269 783h57l269 -783h-57z" />
    <glyph glyph-name="bracketright" unicode="]" horiz-adv-x="258" 
d="M39 812h177v-903h-178v49h124v805h-123v49z" />
    <glyph glyph-name="asciicircum" unicode="^" horiz-adv-x="463" 
d="M231 446v0v0l34 -34v0l188 -187l-34 -34l-188 187l-187 -187l-34 34l187 187v0z" />
    <glyph glyph-name="underscore" unicode="_" horiz-adv-x="441" 
d="M0 -72v48h441v-48h-441z" />
    <glyph glyph-name="grave" unicode="`" horiz-adv-x="248" 
d="M40 707q46 -1 83.5 -25t64.5 -59l37 -49l-41 -33l-39 48q-20 25 -46.5 44.5t-59.5 19.5z" />
    <glyph glyph-name="a" unicode="a" horiz-adv-x="479" 
d="M419 96q0 -9 -2 -18.5t-9 -17.5q-38 -42 -88 -58t-105 -11q-27 2 -53 10t-48.5 22t-39.5 34.5t-26 47.5q-9 26 -8 54t11.5 52t30 42.5t47.5 26.5l145 35q26 6 53.5 19t35.5 41q7 31 -11 54.5t-45 33.5q-28 11 -59 12t-61 -2q-20 -2 -46 -6.5t-41 -20.5l-38 38
q17 18 41.5 26t48.5 13q58 9 112 5q29 -3 56.5 -13t49.5 -27t35.5 -41t13.5 -56v-295zM216 45q19 -2 39.5 0.5t38.5 8t32.5 12t21.5 12.5q5 4 9 7.5t8 7.5v211q-16 -16 -37 -26t-42 -15l-143 -35q-17 -5 -28 -16.5t-16 -26.5t-5 -31.5t5 -31.5q13 -38 46.5 -55.5t70.5 -21.5
z" />
    <glyph glyph-name="b" unicode="b" horiz-adv-x="505" 
d="M429 449q7 -14 11.5 -29t4.5 -30v-260q0 -25 -9.5 -46.5t-26 -39t-37.5 -29.5t-43 -18q-48 -12 -101.5 -1.5t-93.5 41.5v-37h-54v783h54v-300q34 26 76.5 38t84.5 8q41 -5 77.5 -23.5t56.5 -56.5zM380 95q9 16 11 35v260q-1 24 -13 40.5t-30.5 26.5t-40.5 14.5t-42 4.5
t-43 -4t-42 -13.5t-32 -26.5t-14 -42v-260q1 -20 10.5 -35t23.5 -25.5t32 -16.5t35 -8q19 -2 40 -1.5t41 6t36.5 16.5t27.5 29z" />
    <glyph glyph-name="c" unicode="c" horiz-adv-x="438" 
d="M116 404q-2 -8 -2 -10v-4v-260q1 -19 10 -33.5t22.5 -25t30.5 -17t34 -8.5q18 -2 38 -2t39.5 4t37 13.5t29.5 25.5l43 -32q-17 -24 -41.5 -38t-52 -21t-57 -7t-56.5 5q-25 4 -48.5 16t-42 29.5t-29.5 40.5t-11 50v260q0 28 11.5 51.5t31 41t43.5 29t50 15.5
q27 4 55.5 3.5t55.5 -7.5t50.5 -21t40.5 -37l-43 -32q-11 15 -26.5 24t-33 13.5t-36 5.5t-35.5 0q-35 -3 -66.5 -19t-41.5 -53z" />
    <glyph glyph-name="d" unicode="d" horiz-adv-x="505" 
d="M371 783h54v-783h-54v37q-25 -21 -57.5 -32.5t-67 -13.5t-68 6t-59.5 25.5t-42.5 44t-16.5 63.5v260q0 37 16.5 64t43.5 44.5t60.5 25.5t68.5 6t67 -14t55 -33v300zM114 131q1 -29 17 -48t40.5 -29t53.5 -11.5t56 4.5t48.5 18t30.5 30q4 7 7.5 17t3.5 19v259
q-1 30 -20 49.5t-47.5 29.5t-61 10t-61 -10t-47.5 -29.5t-20 -49.5v-259z" />
    <glyph glyph-name="e" unicode="e" horiz-adv-x="485" 
d="M409 448q7 -14 11.5 -29t4.5 -30v-157l-311 -2v-98q1 -27 17.5 -45.5t41 -29.5t55 -14t59 1.5t53 15.5t37.5 29l43 -32q-20 -27 -54.5 -43.5t-74.5 -22t-81 0.5t-74 23.5t-54.5 46.5t-21.5 70v257q0 42 21 71.5t54 46.5t73.5 22t79.5 -2.5t71.5 -27t49.5 -51.5zM371 286
v103q-1 30 -20 49.5t-47.5 29.5t-61 10t-61 -10t-47.5 -29.5t-20 -49.5v-105z" />
    <glyph glyph-name="f" unicode="f" horiz-adv-x="307" 
d="M178 520h83v-54h-83v-466h-54v466h-84v54h84v122q0 36 17 63t43.5 44t59 25.5t63.5 8.5v-54q-20 0 -42.5 -4.5t-41 -14.5t-31.5 -27t-14 -41v-122z" />
    <glyph glyph-name="g" unicode="g" horiz-adv-x="485" 
d="M371 520h54v-556q0 -41 -21.5 -70.5t-54.5 -47t-74.5 -23.5t-81.5 -0.5t-74.5 22t-54.5 44.5l44 32q13 -18 37 -29.5t53 -15.5t59 -1t55 14t41.5 29.5t17.5 45.5v73q-25 -21 -57.5 -32.5t-67 -13.5t-68 5.5t-59.5 25t-42.5 44.5t-16.5 64v260q0 36 16.5 63.5t43.5 45
t60.5 25t68.5 6t67 -13.5t55 -33v37zM114 130q1 -29 17.5 -48t40.5 -28.5t53.5 -11t56.5 4.5t48 18t30 29q4 8 7.5 17.5t3.5 18.5v259q-1 30 -20 49.5t-47.5 29.5t-61 10t-61 -10t-47.5 -29.5t-20 -49.5v-259z" />
    <glyph glyph-name="h" unicode="h" horiz-adv-x="505" 
d="M445 0h-54v391q-1 30 -20 49.5t-47.5 29.5t-61 10t-61 -10t-47.5 -29.5t-20 -49.5v-391h-54v783h54v-299q24 21 56 32.5t66.5 13t68 -6t60.5 -24.5t43.5 -44t16.5 -64v-391z" />
    <glyph glyph-name="i" unicode="i" horiz-adv-x="174" 
d="M114 520v-520h-54v520h54zM114 709v-79h-54v79h54z" />
    <glyph glyph-name="j" unicode="j" horiz-adv-x="253" 
d="M139 709h54v-79h-54v79zM139 520h54v-559q0 -36 -17 -63t-43.5 -44t-59 -25.5t-63.5 -8.5v54q20 0 42.5 4.5t41.5 14.5t31.5 27t13.5 41v559z" />
    <glyph glyph-name="k" unicode="k" horiz-adv-x="474" 
d="M454 520l-225 -223l221 -297h-67l-193 258l-56 -56v-202h-54v783h54v-505l244 242h76z" />
    <glyph glyph-name="l" unicode="l" horiz-adv-x="276" 
d="M127 132q0 -15 6.5 -27t15 -21.5t17.5 -16t15 -9.5q18 -8 37 -10.5t38 -2.5v-54q-31 0 -63.5 8.5t-59 25.5t-43.5 44t-17 63v651h54v-651z" />
    <glyph glyph-name="m" unicode="m" horiz-adv-x="656" 
d="M596 0h-54v414q-1 21 -15 35t-34.5 21.5t-45 7.5t-45 -7t-34.5 -21.5t-15 -35.5v-414h-50v414q-1 21 -15 35t-34.5 21.5t-44.5 7.5t-45 -7t-35 -21.5t-15 -35.5v-414h-54v520h54v-34q27 25 57 35.5t59 9t54.5 -14t43.5 -33.5q17 20 43.5 31.5t56.5 14.5t59.5 -2.5
t53.5 -20t39.5 -37.5t15.5 -54v-415z" />
    <glyph glyph-name="n" unicode="n" horiz-adv-x="485" 
d="M422 413q2 -10 2.5 -16t0.5 -8v-389h-54v389q-1 30 -20 49.5t-47.5 29.5t-61 10t-61 -10t-47.5 -29.5t-20 -49.5v-388h-54v519h54v-38q23 20 52.5 32t61.5 14.5t63.5 -3t58 -20t46 -38t26.5 -54.5z" />
    <glyph glyph-name="o" unicode="o" horiz-adv-x="485" 
d="M409 448q7 -14 11.5 -29t4.5 -30v-260q0 -47 -27 -78.5t-67.5 -47.5t-88 -16t-88 16t-67.5 47.5t-27 78.5v260q0 42 21.5 71.5t54.5 46.5t73 22t79 -2.5t71.5 -27t49.5 -51.5zM114 130q1 -29 17 -48t40.5 -29t54 -11.5t56.5 4.5t48 18t30 30q4 7 7.5 17t3.5 18v260
q-1 30 -20 49.5t-47.5 29.5t-61 10t-61 -10t-47.5 -29.5t-20 -49.5v-259z" />
    <glyph glyph-name="p" unicode="p" horiz-adv-x="485" 
d="M409 448q7 -13 11.5 -28t4.5 -30v-260q0 -37 -16.5 -64t-43 -45t-60.5 -26t-68.5 -6t-66.5 14t-56 34v-217h-54v700h54v-37q31 27 73.5 38.5t85.5 7t79.5 -24.5t56.5 -56zM114 130q1 -29 20.5 -49t48 -30t61.5 -10t61 9.5t47 29.5t19 50v259v1q-1 29 -20 49t-47.5 29.5
t-61 10t-61 -9.5t-47.5 -30t-20 -49v-260z" />
    <glyph glyph-name="q" unicode="q" horiz-adv-x="485" 
d="M371 520h54v-700h-54v217q-23 -22 -55.5 -33.5t-67 -13.5t-68 6t-60.5 25.5t-43.5 44.5t-16.5 64v260q0 36 16.5 63t43 44.5t60.5 25.5t68.5 6t66.5 -13.5t56 -32.5v37zM360 94q4 8 7.5 17.5t3.5 18.5v260q-1 29 -20 49t-47.5 29.5t-61 10t-61 -9.5t-47.5 -30t-20 -49
v-260q1 -27 16.5 -45.5t39 -29t52 -13t55.5 2.5t49.5 17t33.5 32z" />
    <glyph glyph-name="r" unicode="r" horiz-adv-x="283" 
d="M263 476q-23 0 -49 -8.5t-48.5 -21.5t-37.5 -29t-15 -31v-386l-53 -1v521h52v-49q32 27 71 43t80 16v-54z" />
    <glyph glyph-name="s" unicode="s" horiz-adv-x="411" 
d="M302 280q20 -6 34.5 -19t23.5 -28.5t13.5 -31.5t6.5 -29q3 -33 -5 -62.5t-25 -53t-42.5 -40.5t-57.5 -24q-31 -6 -63 -5t-62 7q-26 5 -52 16t-43 32l41 35q15 -18 40 -25t47 -9q27 -3 55.5 -1.5t53.5 12.5q26 12 41.5 35t18.5 51q1 12 -0.5 26t-6 26.5t-13 22t-22.5 14.5
l-125 35q-37 9 -69.5 31t-43.5 60q-11 35 -1 73t38 63q30 27 69.5 34.5t78.5 5.5q16 -1 34.5 -3t36 -7t33 -14t27.5 -22l-41 -35q-7 8 -17.5 13t-22.5 8t-24 4t-22 2q-27 2 -55.5 -0.5t-51.5 -18.5q-20 -14 -29 -37.5t-3 -46.5q7 -26 30 -39.5t46 -18.5l128 -36h1z" />
    <glyph glyph-name="t" unicode="t" horiz-adv-x="302" 
d="M211 58q33 -13 75 -13v-54q-31 0 -63.5 8.5t-59 25.5t-43.5 44t-17 63v334h-83v54h83v189h54v-189h84v-54h-84v-334q1 -24 17 -44t37 -30z" />
    <glyph glyph-name="u" unicode="u" horiz-adv-x="485" 
d="M371 520h54v-520h-54v38q-23 -22 -55.5 -34t-67 -14t-68 6t-60.5 26t-43.5 45t-16.5 64v389h54v-389q1 -30 20 -49.5t47.5 -29.5t61 -10t61 10t47.5 29.5t20 49.5v389z" />
    <glyph glyph-name="v" unicode="v" horiz-adv-x="486" 
d="M399 520h57l-188 -520h-51l-187 520h57l156 -441z" />
    <glyph glyph-name="w" unicode="w" horiz-adv-x="698" 
d="M612 520h56l-148 -520h-52l-119 432l-120 -432h-52l-147 520h55l118 -425l117 425h57l118 -425z" />
    <glyph glyph-name="x" unicode="x" horiz-adv-x="494" 
d="M397 521h66l-183 -260l184 -261h-65l-152 224l-151 -224h-66l184 261l-184 260h67l150 -223z" />
    <glyph glyph-name="y" unicode="y" horiz-adv-x="486" 
d="M243 78l156 442h57l-252 -700h-58l68 188l-184 512h57z" />
    <glyph glyph-name="z" unicode="z" horiz-adv-x="426" 
d="M381 458l-280 -404h285v-54h-346v60l281 406h-276v54h336v-62z" />
    <glyph glyph-name="braceleft" unicode="{" horiz-adv-x="389" 
d="M167 460l-39 -39l39 -39l25 -25l23 -23v-36v-169h1q0 -36 13.5 -67.5t37 -55t54.5 -37t67 -13.5h1v-48q-46 0 -86 17.5t-70 47.5t-47.5 70t-17.5 86h-1v117v68l-107 107l107 107v67v117h1q0 46 17.5 86t47.5 70t70 47.5t86 17.5v-48q-36 0 -67.5 -13.5t-55 -37t-37 -55
t-13.5 -67.5h-1v-168v-36l-23 -23z" />
    <glyph glyph-name="bar" unicode="|" horiz-adv-x="168" 
d="M108 -41h-48v926h48v-926z" />
    <glyph glyph-name="braceright" unicode="}" horiz-adv-x="389" 
d="M222 382l39 39l-39 39l-25 25l-23 23v36v169h-1q0 36 -13.5 67.5t-37 55t-55 37t-67.5 13.5v-1v48v1q46 0 86 -17.5t70 -47.5t47.5 -70t17.5 -86h1v-118v-67l107 -107l-107 -108v-67v-116h-1q0 -46 -17.5 -86.5t-47.5 -70.5t-70 -47.5t-86 -17.5v48v1q36 0 67.5 13.5
t55 37t37 55t13.5 67.5h1v168v36l23 23z" />
    <glyph glyph-name="asciitilde" unicode="~" horiz-adv-x="533" 
d="M166 351q31 0 57.5 -11.5t46.5 -31.5l28 -26q27 -29 69 -29q41 0 69.5 28.5t28.5 69.5h48q0 -30 -11.5 -57t-31.5 -46.5t-46.5 -31t-56.5 -11.5q-31 0 -57.5 11.5t-46.5 31.5l-28 26q-27 29 -69 29q-41 0 -69.5 -28.5t-28.5 -69.5h-48q0 30 11.5 57t31.5 46.5t46.5 31
t56.5 11.5z" />
    <glyph glyph-name="uni0080" horiz-adv-x="502" 
d="M452 0h-54v180q-2 33 -18.5 55.5t-41 36t-54.5 19.5t-57 6v54q46 0 91 -12t80 -44v173q-1 28 -14.5 49t-34 35t-46 22t-49.5 10q-26 2 -54 1t-54 -5q-21 -3 -44.5 -9.5t-39.5 -22.5l-38 38q16 16 37.5 26t44.5 15.5t47 8t46 3.5q25 1 50 -0.5t49.5 -6.5t47 -14.5
t42.5 -25.5q6 11 8 23t2 24h54q0 -23 -6 -46t-21 -42q12 -18 19.5 -39.5t7.5 -43.5v-468z" />
    <glyph glyph-name="uni0080" unicode="&#xf700;" horiz-adv-x="502" 
d="M452 0h-54v180q-2 33 -18.5 55.5t-41 36t-54.5 19.5t-57 6v54q46 0 91 -12t80 -44v173q-1 28 -14.5 49t-34 35t-46 22t-49.5 10q-26 2 -54 1t-54 -5q-21 -3 -44.5 -9.5t-39.5 -22.5l-38 38q16 16 37.5 26t44.5 15.5t47 8t46 3.5q25 1 50 -0.5t49.5 -6.5t47 -14.5
t42.5 -25.5q6 11 8 23t2 24h54q0 -23 -6 -46t-21 -42q12 -18 19.5 -39.5t7.5 -43.5v-468z" />
    <glyph glyph-name="uni0080" unicode="&#x20ac;" horiz-adv-x="502" 
d="M452 0h-54v180q-2 33 -18.5 55.5t-41 36t-54.5 19.5t-57 6v54q46 0 91 -12t80 -44v173q-1 28 -14.5 49t-34 35t-46 22t-49.5 10q-26 2 -54 1t-54 -5q-21 -3 -44.5 -9.5t-39.5 -22.5l-38 38q16 16 37.5 26t44.5 15.5t47 8t46 3.5q25 1 50 -0.5t49.5 -6.5t47 -14.5
t42.5 -25.5q6 11 8 23t2 24h54q0 -23 -6 -46t-21 -42q12 -18 19.5 -39.5t7.5 -43.5v-468z" />
    <glyph glyph-name="uni0081" 
d="M-556 764h396v-54h-396v54z" />
    <glyph glyph-name="uni0081" unicode="&#xf701;" 
d="M-556 764h396v-54h-396v54z" />
    <glyph glyph-name="uni0082" 
d="M-160 890v-81q0 -42 -28.5 -70t-70.5 -29h-297v54h297q20 1 32.5 13t12.5 32v81h54z" />
    <glyph glyph-name="uni0082" unicode="&#xf702;" 
d="M-160 890v-81q0 -42 -28.5 -70t-70.5 -29h-297v54h297q20 1 32.5 13t12.5 32v81h54z" />
    <glyph glyph-name="uni0082" unicode="&#x201a;" 
d="M-160 890v-81q0 -42 -28.5 -70t-70.5 -29h-297v54h297q20 1 32.5 13t12.5 32v81h54z" />
    <glyph glyph-name="uni0083" 
d="M-199 875q27 -18 34.5 -46t-0.5 -54.5t-30 -45.5t-54 -19h-308v54h225q-13 30 -4 58t30 46t50.5 21.5t56.5 -14.5zM-209 783q6 14 2 27.5t-13.5 22.5t-23 11t-26.5 -5t-18.5 -19.5t-4 -25t10 -23t23.5 -13.5q15 -4 29.5 3.5t20.5 21.5z" />
    <glyph glyph-name="uni0083" unicode="&#xf703;" 
d="M-199 875q27 -18 34.5 -46t-0.5 -54.5t-30 -45.5t-54 -19h-308v54h225q-13 30 -4 58t30 46t50.5 21.5t56.5 -14.5zM-209 783q6 14 2 27.5t-13.5 22.5t-23 11t-26.5 -5t-18.5 -19.5t-4 -25t10 -23t23.5 -13.5q15 -4 29.5 3.5t20.5 21.5z" />
    <glyph glyph-name="uni0083" unicode="&#x192;" 
d="M-199 875q27 -18 34.5 -46t-0.5 -54.5t-30 -45.5t-54 -19h-308v54h225q-13 30 -4 58t30 46t50.5 21.5t56.5 -14.5zM-209 783q6 14 2 27.5t-13.5 22.5t-23 11t-26.5 -5t-18.5 -19.5t-4 -25t10 -23t23.5 -13.5q15 -4 29.5 3.5t20.5 21.5z" />
    <glyph glyph-name="uni0084" 
d="M-160 890v-81q0 -42 -28.5 -70t-70.5 -29h-297v54h186q20 1 32.5 13t12.5 32v81h52v-81q0 -25 -10 -45h24q20 1 32.5 13t12.5 32v81h54z" />
    <glyph glyph-name="uni0084" unicode="&#xf704;" 
d="M-160 890v-81q0 -42 -28.5 -70t-70.5 -29h-297v54h186q20 1 32.5 13t12.5 32v81h52v-81q0 -25 -10 -45h24q20 1 32.5 13t12.5 32v81h54z" />
    <glyph glyph-name="uni0084" unicode="&#x201e;" 
d="M-160 890v-81q0 -42 -28.5 -70t-70.5 -29h-297v54h186q20 1 32.5 13t12.5 32v81h52v-81q0 -25 -10 -45h24q20 1 32.5 13t12.5 32v81h54z" />
    <glyph glyph-name="uni0085" unicode="&#x85;" horiz-adv-x="480" 
d="M132 36q0 -15 -10.5 -25.5t-25.5 -10.5t-25.5 10.5t-10.5 25.5t10.5 25.5t25.5 10.5t25.5 -10.5t10.5 -25.5zM276 36q0 -15 -10.5 -25.5t-25.5 -10.5t-25.5 10.5t-10.5 25.5t10.5 25.5t25.5 10.5t25.5 -10.5t10.5 -25.5zM420 36q0 -15 -10.5 -25.5t-25.5 -10.5
t-25.5 10.5t-10.5 25.5t10.5 25.5t25.5 10.5t25.5 -10.5t10.5 -25.5z" />
    <glyph glyph-name="uni0085" unicode="&#x2026;" horiz-adv-x="480" 
d="M132 36q0 -15 -10.5 -25.5t-25.5 -10.5t-25.5 10.5t-10.5 25.5t10.5 25.5t25.5 10.5t25.5 -10.5t10.5 -25.5zM276 36q0 -15 -10.5 -25.5t-25.5 -10.5t-25.5 10.5t-10.5 25.5t10.5 25.5t25.5 10.5t25.5 -10.5t10.5 -25.5zM420 36q0 -15 -10.5 -25.5t-25.5 -10.5
t-25.5 10.5t-10.5 25.5t10.5 25.5t25.5 10.5t25.5 -10.5t10.5 -25.5z" />
    <glyph glyph-name="uni0086" 
d="M-206 891h46v-181h-46v181z" />
    <glyph glyph-name="uni0086" unicode="&#xf705;" 
d="M-206 891h46v-181h-46v181z" />
    <glyph glyph-name="uni0086" unicode="&#x2020;" 
d="M-206 891h46v-181h-46v181z" />
    <glyph glyph-name="uni0087" 
d="M-266 757q5 -1 6.5 -1h2.5h217v-46h-217q-41 1 -68 28t-27 67v31h-70v46h93q9 0 16 -6.5t7 -16.5v-54q0 -40 40 -48z" />
    <glyph glyph-name="uni0087" unicode="&#xf706;" 
d="M-266 757q5 -1 6.5 -1h2.5h217v-46h-217q-41 1 -68 28t-27 67v31h-70v46h93q9 0 16 -6.5t7 -16.5v-54q0 -40 40 -48z" />
    <glyph glyph-name="uni0087" unicode="&#x2021;" 
d="M-266 757q5 -1 6.5 -1h2.5h217v-46h-217q-41 1 -68 28t-27 67v31h-70v46h93q9 0 16 -6.5t7 -16.5v-54q0 -40 40 -48z" />
    <glyph glyph-name="uni0088" 
d="M-218 778q1 -7 1 -12t1 -10h96v-46h-119q-10 0 -16.5 7t-6.5 16q0 18 -1.5 35t-6.5 31.5t-14 24t-22 11.5l-48 -47q-7 -7 -16.5 -7t-16.5 7l-48 49q-17 -3 -26 -17.5t-12 -33t-2 -37.5t4 -32l-45 -9q-1 6 -1.5 11.5t-1.5 11.5q-3 25 0 51.5t14 49.5q6 13 15 24t22 18
q11 6 29 10t29 -7l40 -40l38 38q8 7 19 7.5t22.5 -3.5t22 -10.5t16.5 -12.5q16 -15 23.5 -36t10.5 -42z" />
    <glyph glyph-name="uni0088" unicode="&#xf707;" 
d="M-218 778q1 -7 1 -12t1 -10h96v-46h-119q-10 0 -16.5 7t-6.5 16q0 18 -1.5 35t-6.5 31.5t-14 24t-22 11.5l-48 -47q-7 -7 -16.5 -7t-16.5 7l-48 49q-17 -3 -26 -17.5t-12 -33t-2 -37.5t4 -32l-45 -9q-1 6 -1.5 11.5t-1.5 11.5q-3 25 0 51.5t14 49.5q6 13 15 24t22 18
q11 6 29 10t29 -7l40 -40l38 38q8 7 19 7.5t22.5 -3.5t22 -10.5t16.5 -12.5q16 -15 23.5 -36t10.5 -42z" />
    <glyph glyph-name="uni0088" unicode="&#x2c6;" 
d="M-218 778q1 -7 1 -12t1 -10h96v-46h-119q-10 0 -16.5 7t-6.5 16q0 18 -1.5 35t-6.5 31.5t-14 24t-22 11.5l-48 -47q-7 -7 -16.5 -7t-16.5 7l-48 49q-17 -3 -26 -17.5t-12 -33t-2 -37.5t4 -32l-45 -9q-1 6 -1.5 11.5t-1.5 11.5q-3 25 0 51.5t14 49.5q6 13 15 24t22 18
q11 6 29 10t29 -7l40 -40l38 38q8 7 19 7.5t22.5 -3.5t22 -10.5t16.5 -12.5q16 -15 23.5 -36t10.5 -42z" />
    <glyph glyph-name="uni0089" 
d="M-186 824h68v-46h-68v-68h-46v68h-67v46h67v67h46v-67z" />
    <glyph glyph-name="uni0089" unicode="&#xf708;" 
d="M-186 824h68v-46h-68v-68h-46v68h-67v46h67v67h46v-67z" />
    <glyph glyph-name="uni0089" unicode="&#x2030;" 
d="M-186 824h68v-46h-68v-68h-46v68h-67v46h67v67h46v-67z" />
    <glyph glyph-name="uni008A" 
d="M-255 835q-24 -5 -29.5 -22.5t-5.5 -38.5v-64h-54v81q0 29 15.5 53.5t41.5 36.5q14 7 28.5 8t29.5 1h206v-54h-222q-6 0 -10 -1z" />
    <glyph glyph-name="uni008A" unicode="&#xf709;" 
d="M-255 835q-24 -5 -29.5 -22.5t-5.5 -38.5v-64h-54v81q0 29 15.5 53.5t41.5 36.5q14 7 28.5 8t29.5 1h206v-54h-222q-6 0 -10 -1z" />
    <glyph glyph-name="uni008A" unicode="&#x160;" 
d="M-255 835q-24 -5 -29.5 -22.5t-5.5 -38.5v-64h-54v81q0 29 15.5 53.5t41.5 36.5q14 7 28.5 8t29.5 1h206v-54h-222q-6 0 -10 -1z" />
    <glyph glyph-name="uni008B" 
d="M-126 891h46v-181h-46v181z" />
    <glyph glyph-name="uni008B" unicode="&#xf70a;" 
d="M-126 891h46v-181h-46v181z" />
    <glyph glyph-name="uni008B" unicode="&#x2039;" 
d="M-126 891h46v-181h-46v181z" />
    <glyph glyph-name="uni008C" 
d="M-175 757q5 -1 6.5 -1h2.5h217v-46h-217q-41 1 -68 28t-27 67v31h-70v46h93q9 0 16 -6.5t7 -16.5v-54q0 -40 40 -48z" />
    <glyph glyph-name="uni008C" unicode="&#xf70b;" 
d="M-175 757q5 -1 6.5 -1h2.5h217v-46h-217q-41 1 -68 28t-27 67v31h-70v46h93q9 0 16 -6.5t7 -16.5v-54q0 -40 40 -48z" />
    <glyph glyph-name="uni008C" unicode="&#x152;" 
d="M-175 757q5 -1 6.5 -1h2.5h217v-46h-217q-41 1 -68 28t-27 67v31h-70v46h93q9 0 16 -6.5t7 -16.5v-54q0 -40 40 -48z" />
    <glyph glyph-name="uni008D" 
d="M-57 778q1 -7 1 -12t1 -10h96v-46h-119q-10 0 -16.5 7t-6.5 16q0 18 -1.5 35t-6.5 31.5t-14 24t-22 11.5l-48 -47q-7 -7 -16.5 -7t-16.5 7l-48 49q-17 -3 -26 -17.5t-12 -33t-2 -37.5t4 -32l-45 -9q-1 6 -1.5 11.5t-1.5 11.5q-3 25 0 51.5t14 49.5q6 13 15 24t22 18
q11 6 29 10t29 -7l40 -40l38 38q8 7 19 7.5t22.5 -3.5t22 -10.5t16.5 -12.5q16 -15 23.5 -36t10.5 -42z" />
    <glyph glyph-name="uni008D" unicode="&#xf70c;" 
d="M-57 778q1 -7 1 -12t1 -10h96v-46h-119q-10 0 -16.5 7t-6.5 16q0 18 -1.5 35t-6.5 31.5t-14 24t-22 11.5l-48 -47q-7 -7 -16.5 -7t-16.5 7l-48 49q-17 -3 -26 -17.5t-12 -33t-2 -37.5t4 -32l-45 -9q-1 6 -1.5 11.5t-1.5 11.5q-3 25 0 51.5t14 49.5q6 13 15 24t22 18
q11 6 29 10t29 -7l40 -40l38 38q8 7 19 7.5t22.5 -3.5t22 -10.5t16.5 -12.5q16 -15 23.5 -36t10.5 -42z" />
    <glyph glyph-name="uni008E" 
d="M-80 824h68v-46h-68v-68h-46v68h-67v46h67v67h46v-67z" />
    <glyph glyph-name="uni008E" unicode="&#xf70d;" 
d="M-80 824h68v-46h-68v-68h-46v68h-67v46h67v67h46v-67z" />
    <glyph glyph-name="uni008E" unicode="&#x17d;" 
d="M-80 824h68v-46h-68v-68h-46v68h-67v46h67v67h46v-67z" />
    <glyph glyph-name="uni008F" 
d="M-232 835q-24 -5 -29.5 -22.5t-5.5 -38.5v-64h-54v81q0 29 15.5 53.5t41.5 36.5q14 7 28.5 8t29.5 1h206v-54h-222q-6 0 -10 -1z" />
    <glyph glyph-name="uni008F" unicode="&#xf70e;" 
d="M-232 835q-24 -5 -29.5 -22.5t-5.5 -38.5v-64h-54v81q0 29 15.5 53.5t41.5 36.5q14 7 28.5 8t29.5 1h206v-54h-222q-6 0 -10 -1z" />
    <glyph glyph-name="uni0090" horiz-adv-x="898" 
d="M818 162q0 -31 -12.5 -60.5t-32.5 -52.5q-21 -22 -48 -35.5t-57 -19t-60.5 -4t-58.5 9.5q-27 8 -50 23.5t-40.5 37t-27 47t-9.5 54.5v306q0 25 -10.5 45.5t-27.5 35.5t-38.5 24t-45.5 11q-46 4 -95 -5q-8 -2 -19.5 -4.5t-22 -7t-19 -11.5t-10.5 -17v-440q1 -20 13 -32.5
t32 -12.5h81v-54h-81q-42 0 -70.5 28.5t-28.5 70.5v441q0 18 9 32t22.5 25t29.5 18.5t31 11.5q32 9 66.5 11.5t66.5 -0.5q35 -3 67 -16t56 -38q22 -23 35 -53.5t13 -62.5v-306q0 -39 21.5 -65.5t53.5 -39.5t69.5 -13t69 13t53 39t21.5 66v468h54v-468z" />
    <glyph glyph-name="uni0090" unicode="&#xf70f;" horiz-adv-x="898" 
d="M818 162q0 -31 -12.5 -60.5t-32.5 -52.5q-21 -22 -48 -35.5t-57 -19t-60.5 -4t-58.5 9.5q-27 8 -50 23.5t-40.5 37t-27 47t-9.5 54.5v306q0 25 -10.5 45.5t-27.5 35.5t-38.5 24t-45.5 11q-46 4 -95 -5q-8 -2 -19.5 -4.5t-22 -7t-19 -11.5t-10.5 -17v-440q1 -20 13 -32.5
t32 -12.5h81v-54h-81q-42 0 -70.5 28.5t-28.5 70.5v441q0 18 9 32t22.5 25t29.5 18.5t31 11.5q32 9 66.5 11.5t66.5 -0.5q35 -3 67 -16t56 -38q22 -23 35 -53.5t13 -62.5v-306q0 -39 21.5 -65.5t53.5 -39.5t69.5 -13t69 13t53 39t21.5 66v468h54v-468z" />
    <glyph glyph-name="uni0091" horiz-adv-x="192" 
d="M104 485q-32 33 -41 76.5t-4 87.5l8 61l53 -6l-7 -61q-4 -32 1.5 -64.5t28.5 -55.5z" />
    <glyph glyph-name="uni0091" unicode="&#x2018;" horiz-adv-x="192" 
d="M104 485q-32 33 -41 76.5t-4 87.5l8 61l53 -6l-7 -61q-4 -32 1.5 -64.5t28.5 -55.5z" />
    <glyph glyph-name="uni0092" horiz-adv-x="192" 
d="M95 710q32 -33 41 -76.5t4 -87.5l-8 -61l-53 6l7 61q4 32 -1.5 64.5t-28.5 55.5z" />
    <glyph glyph-name="uni0092" unicode="&#x2019;" horiz-adv-x="192" 
d="M95 710q32 -33 41 -76.5t4 -87.5l-8 -61l-53 6l7 61q4 32 -1.5 64.5t-28.5 55.5z" />
    <glyph glyph-name="uni0095" horiz-adv-x="343" 
d="M171 65q-25 0 -48 10t-40 27t-27 39.5t-10 48.5q0 25 10 48t27.5 40t40 27t47.5 10t48 -10t40 -27t27 -40t10 -48t-10 -47.5t-27 -40t-40 -27.5t-48 -10z" />
    <glyph glyph-name="uni0095" unicode="&#x2022;" horiz-adv-x="343" 
d="M171 65q-25 0 -48 10t-40 27t-27 39.5t-10 48.5q0 25 10 48t27.5 40t40 27t47.5 10t48 -10t40 -27t27 -40t10 -48t-10 -47.5t-27 -40t-40 -27.5t-48 -10z" />
    <glyph glyph-name="uni0096" horiz-adv-x="461" 
d="M401 233h-341v49h341v-49z" />
    <glyph glyph-name="uni0096" unicode="&#x2013;" horiz-adv-x="461" 
d="M401 233h-341v49h341v-49z" />
    <glyph glyph-name="uni0097" horiz-adv-x="441" 
d="M441 233h-441v49h441v-49z" />
    <glyph glyph-name="uni0097" unicode="&#x2014;" horiz-adv-x="441" 
d="M441 233h-441v49h441v-49z" />
    <glyph glyph-name="uni0098" 
d="M-307 809q0 -20 13 -32.5t32 -12.5h222v-54h-222q-42 1 -70.5 29t-28.5 70v81h54v-81z" />
    <glyph glyph-name="uni0098" unicode="&#xf710;" 
d="M-307 809q0 -20 13 -32.5t32 -12.5h222v-54h-222q-42 1 -70.5 29t-28.5 70v81h54v-81z" />
    <glyph glyph-name="uni0098" unicode="&#x2dc;" 
d="M-307 809q0 -20 13 -32.5t32 -12.5h222v-54h-222q-42 1 -70.5 29t-28.5 70v81h54v-81z" />
    <glyph glyph-name="uni0099" 
d="M-80 849q15 -11 25 -26t13 -32t-0.5 -35t-13.5 -33q-11 -16 -26 -25.5t-32 -13t-35 -0.5t-33 14q-15 10 -25 25.5t-13.5 32.5t-0.5 35t14 33q10 15 25.5 25t32.5 13.5t35 0t34 -13.5zM-90 756q9 20 0 35.5t-24.5 22t-32.5 2t-26 -24.5q-8 -20 0.5 -35.5t24.5 -22t33 -2
t25 24.5z" />
    <glyph glyph-name="uni0099" unicode="&#xf711;" 
d="M-80 849q15 -11 25 -26t13 -32t-0.5 -35t-13.5 -33q-11 -16 -26 -25.5t-32 -13t-35 -0.5t-33 14q-15 10 -25 25.5t-13.5 32.5t-0.5 35t14 33q10 15 25.5 25t32.5 13.5t35 0t34 -13.5zM-90 756q9 20 0 35.5t-24.5 22t-32.5 2t-26 -24.5q-8 -20 0.5 -35.5t24.5 -22t33 -2
t25 24.5z" />
    <glyph glyph-name="uni0099" unicode="&#x2122;" 
d="M-80 849q15 -11 25 -26t13 -32t-0.5 -35t-13.5 -33q-11 -16 -26 -25.5t-32 -13t-35 -0.5t-33 14q-15 10 -25 25.5t-13.5 32.5t-0.5 35t14 33q10 15 25.5 25t32.5 13.5t35 0t34 -13.5zM-90 756q9 20 0 35.5t-24.5 22t-32.5 2t-26 -24.5q-8 -20 0.5 -35.5t24.5 -22t33 -2
t25 24.5z" />
    <glyph glyph-name="uni009A" 
d="M-218 756h60v-46h-70q-9 0 -16 7l-60 60l-62 -63q-10 -9 -26 -7t-27 4q-31 6 -54 26q-20 18 -29 45t-6 54q7 38 31.5 64t58.5 39q18 8 36.5 11t38.5 5q17 1 35 1.5t35 -3.5q26 -5 53 2t47 23l29 -36q-29 -23 -65.5 -31.5t-71.5 -2.5q-24 2 -53 1t-56 -8.5t-47 -24
t-25 -46.5q-2 -34 18 -54t52 -22l71 71q7 7 16.5 7t16.5 -6z" />
    <glyph glyph-name="uni009A" unicode="&#xf712;" 
d="M-218 756h60v-46h-70q-9 0 -16 7l-60 60l-62 -63q-10 -9 -26 -7t-27 4q-31 6 -54 26q-20 18 -29 45t-6 54q7 38 31.5 64t58.5 39q18 8 36.5 11t38.5 5q17 1 35 1.5t35 -3.5q26 -5 53 2t47 23l29 -36q-29 -23 -65.5 -31.5t-71.5 -2.5q-24 2 -53 1t-56 -8.5t-47 -24
t-25 -46.5q-2 -34 18 -54t52 -22l71 71q7 7 16.5 7t16.5 -6z" />
    <glyph glyph-name="uni009A" unicode="&#x161;" 
d="M-218 756h60v-46h-70q-9 0 -16 7l-60 60l-62 -63q-10 -9 -26 -7t-27 4q-31 6 -54 26q-20 18 -29 45t-6 54q7 38 31.5 64t58.5 39q18 8 36.5 11t38.5 5q17 1 35 1.5t35 -3.5q26 -5 53 2t47 23l29 -36q-29 -23 -65.5 -31.5t-71.5 -2.5q-24 2 -53 1t-56 -8.5t-47 -24
t-25 -46.5q-2 -34 18 -54t52 -22l71 71q7 7 16.5 7t16.5 -6z" />
    <glyph glyph-name="uni009B" 
d="M-206 1120h46v-181h-46v181z" />
    <glyph glyph-name="uni009B" unicode="&#xf713;" 
d="M-206 1120h46v-181h-46v181z" />
    <glyph glyph-name="uni009B" unicode="&#x203a;" 
d="M-206 1120h46v-181h-46v181z" />
    <glyph glyph-name="uni009C" 
d="M-266 986q5 -1 6.5 -1h2.5h217v-46h-217q-41 1 -68 28t-27 67v31h-70v46h93q9 0 16 -6.5t7 -16.5v-54q0 -40 40 -48z" />
    <glyph glyph-name="uni009C" unicode="&#xf714;" 
d="M-266 986q5 -1 6.5 -1h2.5h217v-46h-217q-41 1 -68 28t-27 67v31h-70v46h93q9 0 16 -6.5t7 -16.5v-54q0 -40 40 -48z" />
    <glyph glyph-name="uni009C" unicode="&#x153;" 
d="M-266 986q5 -1 6.5 -1h2.5h217v-46h-217q-41 1 -68 28t-27 67v31h-70v46h93q9 0 16 -6.5t7 -16.5v-54q0 -40 40 -48z" />
    <glyph glyph-name="uni009D" 
d="M-218 1007q1 -7 1 -12t1 -10h96v-46h-119q-10 0 -16.5 7t-6.5 16q0 18 -1.5 35t-6.5 31.5t-14 24t-22 11.5l-48 -47q-7 -7 -16.5 -7t-16.5 7l-48 49q-17 -3 -26 -17.5t-12 -33t-2 -37.5t4 -32l-45 -9q-1 6 -1.5 11.5t-1.5 11.5q-3 25 0 51.5t14 49.5q6 13 15 24t22 18
q11 6 29 10t29 -7l40 -40l38 38q8 7 19 7.5t22.5 -3.5t22 -10.5t16.5 -12.5q16 -15 23.5 -36t10.5 -42z" />
    <glyph glyph-name="uni009D" unicode="&#xf715;" 
d="M-218 1007q1 -7 1 -12t1 -10h96v-46h-119q-10 0 -16.5 7t-6.5 16q0 18 -1.5 35t-6.5 31.5t-14 24t-22 11.5l-48 -47q-7 -7 -16.5 -7t-16.5 7l-48 49q-17 -3 -26 -17.5t-12 -33t-2 -37.5t4 -32l-45 -9q-1 6 -1.5 11.5t-1.5 11.5q-3 25 0 51.5t14 49.5q6 13 15 24t22 18
q11 6 29 10t29 -7l40 -40l38 38q8 7 19 7.5t22.5 -3.5t22 -10.5t16.5 -12.5q16 -15 23.5 -36t10.5 -42z" />
    <glyph glyph-name="uni009E" 
d="M-186 1053h68v-46h-68v-68h-46v68h-67v46h67v67h46v-67z" />
    <glyph glyph-name="uni009E" unicode="&#xf716;" 
d="M-186 1053h68v-46h-68v-68h-46v68h-67v46h67v67h46v-67z" />
    <glyph glyph-name="uni009E" unicode="&#x17e;" 
d="M-186 1053h68v-46h-68v-68h-46v68h-67v46h67v67h46v-67z" />
    <glyph glyph-name="uni009F" 
d="M-221 1064q-24 -5 -29.5 -22.5t-5.5 -38.5v-64h-54v81q0 29 15.5 53.5t41.5 36.5q14 7 28.5 8t29.5 1h206v-54h-222q-6 0 -10 -1z" />
    <glyph glyph-name="uni009F" unicode="&#xf717;" 
d="M-221 1064q-24 -5 -29.5 -22.5t-5.5 -38.5v-64h-54v81q0 29 15.5 53.5t41.5 36.5q14 7 28.5 8t29.5 1h206v-54h-222q-6 0 -10 -1z" />
    <glyph glyph-name="uni009F" unicode="&#x178;" 
d="M-221 1064q-24 -5 -29.5 -22.5t-5.5 -38.5v-64h-54v81q0 29 15.5 53.5t41.5 36.5q14 7 28.5 8t29.5 1h206v-54h-222q-6 0 -10 -1z" />
    <glyph glyph-name="uni00A0" unicode="&#xa0;" horiz-adv-x="452" 
 />
    <glyph glyph-name="uni00A0" unicode="&#xe00;" horiz-adv-x="452" 
 />
    <glyph glyph-name="exclamdown" unicode="&#xa1;" horiz-adv-x="610" 
d="M526 497q3 -13 3.5 -20t0.5 -9v-468h-54v468q-1 26 -12.5 46t-30 34t-41.5 22.5t-45 11.5q-16 2 -48.5 3.5t-67 -1.5t-63 -13.5t-34.5 -32.5v-538h-54v541q1 30 22.5 48.5t51.5 29t62 14.5t53 5q40 2 81 -3t77 -20.5t62.5 -44t36.5 -73.5z" />
    <glyph glyph-name="exclamdown" unicode="&#xe01;" horiz-adv-x="610" 
d="M526 497q3 -13 3.5 -20t0.5 -9v-468h-54v468q-1 26 -12.5 46t-30 34t-41.5 22.5t-45 11.5q-16 2 -48.5 3.5t-67 -1.5t-63 -13.5t-34.5 -32.5v-538h-54v541q1 30 22.5 48.5t51.5 29t62 14.5t53 5q40 2 81 -3t77 -20.5t62.5 -44t36.5 -73.5z" />
    <glyph glyph-name="cent" unicode="&#xa2;" horiz-adv-x="546" 
d="M466 162q0 -31 -12.5 -60.5t-33.5 -52.5q-20 -22 -47 -35.5t-57 -19t-60.5 -4t-58.5 9.5q-27 7 -50 23t-40.5 37t-27 47t-9.5 55v90q0 39 17 77t40 69q23 29 45 61t24 72q-1 20 -13 32.5t-32 12.5h-81v54h81q35 0 60.5 -19.5t34.5 -53.5q5 -18 3 -37.5t-8 -38.5
t-15.5 -37t-19.5 -33q-11 -15 -22.5 -28.5t-21.5 -27.5q-15 -23 -26.5 -49.5t-11.5 -53.5v-90q1 -39 22.5 -65.5t53.5 -39.5t69 -13t68.5 13t53 39t21.5 66v468h54v-468z" />
    <glyph glyph-name="cent" unicode="&#xe02;" horiz-adv-x="546" 
d="M466 162q0 -31 -12.5 -60.5t-33.5 -52.5q-20 -22 -47 -35.5t-57 -19t-60.5 -4t-58.5 9.5q-27 7 -50 23t-40.5 37t-27 47t-9.5 55v90q0 39 17 77t40 69q23 29 45 61t24 72q-1 20 -13 32.5t-32 12.5h-81v54h81q35 0 60.5 -19.5t34.5 -53.5q5 -18 3 -37.5t-8 -38.5
t-15.5 -37t-19.5 -33q-11 -15 -22.5 -28.5t-21.5 -27.5q-15 -23 -26.5 -49.5t-11.5 -53.5v-90q1 -39 22.5 -65.5t53.5 -39.5t69 -13t68.5 13t53 39t21.5 66v468h54v-468z" />
    <glyph glyph-name="sterling" unicode="&#xa3;" horiz-adv-x="570" 
d="M489 630q-1 -117 0 -233t0 -233q-1 -33 -13 -64t-35 -54q-27 -28 -63.5 -41t-74.5 -15t-75 7.5t-68 32.5t-49 58t-18 74v58v32.5t3 31.5q6 30 19.5 58t31.5 52q17 23 34.5 45.5t28.5 48.5q3 9 6 22.5t2.5 26.5t-6.5 24t-19 14l-73 -73l-100 100l38 38l62 -62l52 52
q26 0 48.5 -9t36.5 -33q19 -31 15 -65.5t-18 -66.5q-12 -26 -30 -49.5t-35 -47.5t-29.5 -50t-12.5 -57q0 -23 -0.5 -45t0.5 -45q1 -39 22.5 -65.5t53.5 -39.5t69 -13t68.5 13t53 39t21.5 66v468h54z" />
    <glyph glyph-name="sterling" unicode="&#xe03;" horiz-adv-x="570" 
d="M489 630q-1 -117 0 -233t0 -233q-1 -33 -13 -64t-35 -54q-27 -28 -63.5 -41t-74.5 -15t-75 7.5t-68 32.5t-49 58t-18 74v58v32.5t3 31.5q6 30 19.5 58t31.5 52q17 23 34.5 45.5t28.5 48.5q3 9 6 22.5t2.5 26.5t-6.5 24t-19 14l-73 -73l-100 100l38 38l62 -62l52 52
q26 0 48.5 -9t36.5 -33q19 -31 15 -65.5t-18 -66.5q-12 -26 -30 -49.5t-35 -47.5t-29.5 -50t-12.5 -57q0 -23 -0.5 -45t0.5 -45q1 -39 22.5 -65.5t53.5 -39.5t69 -13t68.5 13t53 39t21.5 66v468h54z" />
    <glyph glyph-name="currency" unicode="&#xa4;" horiz-adv-x="610" 
d="M476 0v468q-1 25 -12.5 45t-29.5 34.5t-41 23t-45 11.5q-34 5 -71.5 1.5t-69 -17.5t-52.5 -41t-21 -69v-171q35 40 80 53t91 13v-54q-35 0 -72 -8t-64 -34q-15 -15 -22.5 -31t-10 -33.5t-2.5 -36v-37.5v-117h-54v468q0 48 29 87t71 59q45 22 98.5 25t101.5 -8
q31 -7 58.5 -22.5t48 -38t32 -51t11.5 -61.5v-458h-54z" />
    <glyph glyph-name="currency" unicode="&#xe04;" horiz-adv-x="610" 
d="M476 0v468q-1 25 -12.5 45t-29.5 34.5t-41 23t-45 11.5q-34 5 -71.5 1.5t-69 -17.5t-52.5 -41t-21 -69v-171q35 40 80 53t91 13v-54q-35 0 -72 -8t-64 -34q-15 -15 -22.5 -31t-10 -33.5t-2.5 -36v-37.5v-117h-54v468q0 48 29 87t71 59q45 22 98.5 25t101.5 -8
q31 -7 58.5 -22.5t48 -38t32 -51t11.5 -61.5v-458h-54z" />
    <glyph glyph-name="yen" unicode="&#xa5;" horiz-adv-x="610" 
d="M528 501q2 -8 2 -12.5v-5.5v-483h-54v482q-1 29 -17.5 53.5t-41.5 38.5l-112 -93l-112 93q-24 -14 -41 -38.5t-18 -53.5v-196q35 39 80 52t91 13v-54q-27 0 -57 -6t-55 -19.5t-41.5 -36t-17.5 -55.5v-180h-54v483q0 24 8.5 47t23 42.5t33.5 34.5t41 25l16 7l103 -94
l103 94l16 -7q41 -18 69 -52t35 -79z" />
    <glyph glyph-name="yen" unicode="&#xe05;" horiz-adv-x="610" 
d="M528 501q2 -8 2 -12.5v-5.5v-483h-54v482q-1 29 -17.5 53.5t-41.5 38.5l-112 -93l-112 93q-24 -14 -41 -38.5t-18 -53.5v-196q35 39 80 52t91 13v-54q-27 0 -57 -6t-55 -19.5t-41.5 -36t-17.5 -55.5v-180h-54v483q0 24 8.5 47t23 42.5t33.5 34.5t41 25l16 7l103 -94
l103 94l16 -7q41 -18 69 -52t35 -79z" />
    <glyph glyph-name="brokenbar" unicode="&#xa6;" horiz-adv-x="623" 
d="M543 630v-468q0 -33 -12.5 -61.5t-33.5 -50.5t-48.5 -36.5t-58.5 -19.5q-34 -5 -68.5 -2.5t-66.5 14.5t-59.5 34t-48.5 54v-94h-54v252q0 39 17 77.5t40 68.5q23 29 45 61t24 72q-1 13 -6.5 26.5t-19.5 17.5l-73 -63l-100 90l38 38l62 -62l52 52q43 0 67 -21.5t31 -54.5
q5 -23 0.5 -45t-12.5 -44q-11 -28 -29.5 -52.5t-36.5 -49.5t-31 -52t-14 -59q0 -34 10 -67t29 -60.5t46 -47.5t62 -27q32 -7 67.5 -5t64.5 17q28 14 45 41.5t18 58.5v468h54z" />
    <glyph glyph-name="brokenbar" unicode="&#xe06;" horiz-adv-x="623" 
d="M543 630v-468q0 -33 -12.5 -61.5t-33.5 -50.5t-48.5 -36.5t-58.5 -19.5q-34 -5 -68.5 -2.5t-66.5 14.5t-59.5 34t-48.5 54v-94h-54v252q0 39 17 77.5t40 68.5q23 29 45 61t24 72q-1 13 -6.5 26.5t-19.5 17.5l-73 -63l-100 90l38 38l62 -62l52 52q43 0 67 -21.5t31 -54.5
q5 -23 0.5 -45t-12.5 -44q-11 -28 -29.5 -52.5t-36.5 -49.5t-31 -52t-14 -59q0 -34 10 -67t29 -60.5t46 -47.5t62 -27q32 -7 67.5 -5t64.5 17q28 14 45 41.5t18 58.5v468h54z" />
    <glyph glyph-name="section" unicode="&#xa7;" horiz-adv-x="542" 
d="M462 162q0 -38 -18 -73t-47 -58q-24 -20 -54 -30t-61 -10h-20t-17 8l-225 225l38 38l217 -217q26 2 50.5 9t44.5 25q17 15 27.5 37.5t10.5 45.5v369q-1 20 -13 32.5t-32 12.5h-81v54h81q42 0 70.5 -28.5t28.5 -70.5v-369z" />
    <glyph glyph-name="section" unicode="&#xe07;" horiz-adv-x="542" 
d="M462 162q0 -38 -18 -73t-47 -58q-24 -20 -54 -30t-61 -10h-20t-17 8l-225 225l38 38l217 -217q26 2 50.5 9t44.5 25q17 15 27.5 37.5t10.5 45.5v369q-1 20 -13 32.5t-32 12.5h-81v54h81q42 0 70.5 -28.5t28.5 -70.5v-369z" />
    <glyph glyph-name="dieresis" unicode="&#xa8;" horiz-adv-x="528" 
d="M444 497q3 -12 3.5 -19.5t0.5 -9.5v-468h-54v180q0 27 -16 51t-38 38q-26 17 -56.5 22.5t-60.5 5.5v54q46 0 91 -13t80 -53v183q-1 28 -14.5 49t-34 35t-46 22t-49.5 10q-26 2 -54 1t-54 -5q-21 -3 -44.5 -9.5t-39.5 -22.5l-38 38q21 21 49.5 31t57.5 15q63 11 129 6
q32 -3 62 -13t55.5 -27.5t44 -42.5t26.5 -58z" />
    <glyph glyph-name="dieresis" unicode="&#xe08;" horiz-adv-x="528" 
d="M444 497q3 -12 3.5 -19.5t0.5 -9.5v-468h-54v180q0 27 -16 51t-38 38q-26 17 -56.5 22.5t-60.5 5.5v54q46 0 91 -13t80 -53v183q-1 28 -14.5 49t-34 35t-46 22t-49.5 10q-26 2 -54 1t-54 -5q-21 -3 -44.5 -9.5t-39.5 -22.5l-38 38q21 21 49.5 31t57.5 15q63 11 129 6
q32 -3 62 -13t55.5 -27.5t44 -42.5t26.5 -58z" />
    <glyph glyph-name="copyright" unicode="&#xa9;" horiz-adv-x="594" 
d="M514 0h-54v88q-19 -30 -46.5 -51t-59 -32.5t-65 -13.5t-64.5 4q-30 6 -54.5 21.5t-42 38t-27.5 50t-10 57.5v109q-1 11 -6.5 18.5t-16.5 7.5h-18v54h18q33 0 55 -23.5t22 -56.5v-109q1 -30 15.5 -58.5t41.5 -43.5q13 -7 29.5 -11t34 -4.5t35 1t31.5 5.5q32 9 55.5 29
t39.5 47.5t24 59t9 62.5v219q-1 29 -15.5 50t-37 35t-49 21.5t-51.5 9.5q-29 2 -57.5 1t-57.5 -5q-22 -4 -48 -10t-43 -22l-38 38q23 23 55 32.5t63 14.5q37 5 75 6.5t75 -3.5q33 -4 65.5 -17t58.5 -34t42.5 -50.5t16.5 -66.5v-468z" />
    <glyph glyph-name="copyright" unicode="&#xe09;" horiz-adv-x="594" 
d="M514 0h-54v88q-19 -30 -46.5 -51t-59 -32.5t-65 -13.5t-64.5 4q-30 6 -54.5 21.5t-42 38t-27.5 50t-10 57.5v109q-1 11 -6.5 18.5t-16.5 7.5h-18v54h18q33 0 55 -23.5t22 -56.5v-109q1 -30 15.5 -58.5t41.5 -43.5q13 -7 29.5 -11t34 -4.5t35 1t31.5 5.5q32 9 55.5 29
t39.5 47.5t24 59t9 62.5v219q-1 29 -15.5 50t-37 35t-49 21.5t-51.5 9.5q-29 2 -57.5 1t-57.5 -5q-22 -4 -48 -10t-43 -22l-38 38q23 23 55 32.5t63 14.5q37 5 75 6.5t75 -3.5q33 -4 65.5 -17t58.5 -34t42.5 -50.5t16.5 -66.5v-468z" />
    <glyph glyph-name="ordfeminine" unicode="&#xaa;" horiz-adv-x="548" 
d="M466 162q0 -31 -12.5 -60.5t-32.5 -52.5q-21 -22 -48 -35.5t-57 -19t-60.5 -4t-58.5 9.5q-27 8 -50 23.5t-40.5 37t-27 47t-9.5 54.5v90q0 39 17 77.5t40 68.5q23 29 45 61t24 72q-1 20 -13 32.5t-32 12.5h-81v54h81q35 0 60.5 -19.5t34.5 -52.5q6 -23 2 -46t-12 -45
q-14 -32 -34.5 -58t-39.5 -54q-15 -23 -26 -49.5t-12 -53.5v-90q1 -39 22.5 -65.5t53.5 -39.5t69 -13t68.5 13t53 39t21.5 66v198q-1 20 -7 42.5t-21 37.5l-80 91l124 135l40 -36l-92 -99l47 -54q22 -22 32 -54t11 -62v-199z" />
    <glyph glyph-name="ordfeminine" unicode="&#xe0a;" horiz-adv-x="548" 
d="M466 162q0 -31 -12.5 -60.5t-32.5 -52.5q-21 -22 -48 -35.5t-57 -19t-60.5 -4t-58.5 9.5q-27 8 -50 23.5t-40.5 37t-27 47t-9.5 54.5v90q0 39 17 77.5t40 68.5q23 29 45 61t24 72q-1 20 -13 32.5t-32 12.5h-81v54h81q35 0 60.5 -19.5t34.5 -52.5q6 -23 2 -46t-12 -45
q-14 -32 -34.5 -58t-39.5 -54q-15 -23 -26 -49.5t-12 -53.5v-90q1 -39 22.5 -65.5t53.5 -39.5t69 -13t68.5 13t53 39t21.5 66v198q-1 20 -7 42.5t-21 37.5l-80 91l124 135l40 -36l-92 -99l47 -54q22 -22 32 -54t11 -62v-199z" />
    <glyph glyph-name="guillemotleft" unicode="&#xab;" horiz-adv-x="551" 
d="M469 360v-198q0 -31 -12.5 -60.5t-32.5 -52.5q-21 -22 -48 -35.5t-57 -19t-60.5 -4t-58.5 9.5q-27 8 -50 23.5t-40.5 37t-27 47t-9.5 54.5v90q0 39 17 77.5t40 68.5q23 29 45 61t24 72q0 13 -6 26.5t-20 17.5l-73 -63l-100 90l38 38l62 -65l52 55q43 0 67 -21.5t31 -54.5
q5 -23 0.5 -45t-12.5 -44q-11 -28 -29.5 -52.5t-36.5 -49.5t-31.5 -52t-13.5 -59v-90q1 -39 22.5 -65.5t53.5 -39.5t69 -13t68.5 13t53 39t21.5 66v198q-1 20 -7 42.5t-21 37.5l-1 1l-79 90l124 135l40 -36l-92 -99l47 -54q22 -22 32 -54t11 -62v-1z" />
    <glyph glyph-name="guillemotleft" unicode="&#xe0b;" horiz-adv-x="551" 
d="M469 360v-198q0 -31 -12.5 -60.5t-32.5 -52.5q-21 -22 -48 -35.5t-57 -19t-60.5 -4t-58.5 9.5q-27 8 -50 23.5t-40.5 37t-27 47t-9.5 54.5v90q0 39 17 77.5t40 68.5q23 29 45 61t24 72q0 13 -6 26.5t-20 17.5l-73 -63l-100 90l38 38l62 -65l52 55q43 0 67 -21.5t31 -54.5
q5 -23 0.5 -45t-12.5 -44q-11 -28 -29.5 -52.5t-36.5 -49.5t-31.5 -52t-13.5 -59v-90q1 -39 22.5 -65.5t53.5 -39.5t69 -13t68.5 13t53 39t21.5 66v198q-1 20 -7 42.5t-21 37.5l-1 1l-79 90l124 135l40 -36l-92 -99l47 -54q22 -22 32 -54t11 -62v-1z" />
    <glyph glyph-name="logicalnot" unicode="&#xac;" horiz-adv-x="898" 
d="M818 630v-468q0 -29 -9 -56.5t-25.5 -50t-40 -38.5t-52.5 -22q-30 -6 -60.5 -4t-59 13.5t-53 31.5t-42.5 49v-85h-54v468q0 25 -10.5 45.5t-27.5 35.5t-38.5 24t-45.5 11q-46 4 -95 -5q-8 -2 -19.5 -4.5t-22 -7t-19 -11.5t-10.5 -17v-440q1 -20 13 -32.5t32 -12.5h81v-54
h-81q-42 0 -70.5 28.5t-28.5 70.5v441q0 18 8.5 32t22 25t30 18.5t31.5 11.5q32 9 66 11.5t67 -0.5q35 -3 67 -16t56 -38q22 -23 35 -53.5t13 -62.5v-216q0 -30 7 -62t22 -60t38 -49t55 -30q29 -8 61.5 -6t58.5 20q22 16 33.5 43t12.5 54v468h54z" />
    <glyph glyph-name="logicalnot" unicode="&#xe0c;" horiz-adv-x="898" 
d="M818 630v-468q0 -29 -9 -56.5t-25.5 -50t-40 -38.5t-52.5 -22q-30 -6 -60.5 -4t-59 13.5t-53 31.5t-42.5 49v-85h-54v468q0 25 -10.5 45.5t-27.5 35.5t-38.5 24t-45.5 11q-46 4 -95 -5q-8 -2 -19.5 -4.5t-22 -7t-19 -11.5t-10.5 -17v-440q1 -20 13 -32.5t32 -12.5h81v-54
h-81q-42 0 -70.5 28.5t-28.5 70.5v441q0 18 8.5 32t22 25t30 18.5t31.5 11.5q32 9 66 11.5t67 -0.5q35 -3 67 -16t56 -38q22 -23 35 -53.5t13 -62.5v-216q0 -30 7 -62t22 -60t38 -49t55 -30q29 -8 61.5 -6t58.5 20q22 16 33.5 43t12.5 54v468h54z" />
    <glyph glyph-name="uni00AD" unicode="&#xad;" horiz-adv-x="898" 
d="M818 162q0 -31 -12.5 -60.5t-32.5 -52.5q-21 -22 -48 -35.5t-57 -19t-60.5 -4t-58.5 9.5q-27 8 -50 23.5t-40.5 37t-27 47t-9.5 54.5v306q0 25 -10.5 45.5t-27.5 35.5t-38.5 24t-45.5 11q-46 4 -95 -5q-8 -2 -19.5 -4.5t-22 -7t-19 -11.5t-10.5 -17v-440q1 -20 13 -32.5
t32 -12.5h81v-54h-81q-42 0 -70.5 28.5t-28.5 70.5v441q0 18 9 32t22.5 25t29.5 18.5t31 11.5q32 9 66.5 11.5t66.5 -0.5q35 -3 67 -16t56 -38q22 -23 35 -53.5t13 -62.5v-306q0 -39 21.5 -65.5t53.5 -39.5t69.5 -13t69 13t53 39t21.5 66v468h54v-468zM778 -116
q-29 -35 -71 -49.5t-87 -14.5h-170v54h170q32 0 63.5 9t52.5 35z" />
    <glyph glyph-name="uni00AD" unicode="&#xe0d;" horiz-adv-x="898" 
d="M818 162q0 -31 -12.5 -60.5t-32.5 -52.5q-21 -22 -48 -35.5t-57 -19t-60.5 -4t-58.5 9.5q-27 8 -50 23.5t-40.5 37t-27 47t-9.5 54.5v306q0 25 -10.5 45.5t-27.5 35.5t-38.5 24t-45.5 11q-46 4 -95 -5q-8 -2 -19.5 -4.5t-22 -7t-19 -11.5t-10.5 -17v-440q1 -20 13 -32.5
t32 -12.5h81v-54h-81q-42 0 -70.5 28.5t-28.5 70.5v441q0 18 9 32t22.5 25t29.5 18.5t31 11.5q32 9 66.5 11.5t66.5 -0.5q35 -3 67 -16t56 -38q22 -23 35 -53.5t13 -62.5v-306q0 -39 21.5 -65.5t53.5 -39.5t69.5 -13t69 13t53 39t21.5 66v468h54v-468zM778 -116
q-29 -35 -71 -49.5t-87 -14.5h-170v54h170q32 0 63.5 9t52.5 35z" />
    <glyph glyph-name="uni00AD" unicode="&#xde;" horiz-adv-x="898" 
d="M818 162q0 -31 -12.5 -60.5t-32.5 -52.5q-21 -22 -48 -35.5t-57 -19t-60.5 -4t-58.5 9.5q-27 8 -50 23.5t-40.5 37t-27 47t-9.5 54.5v306q0 25 -10.5 45.5t-27.5 35.5t-38.5 24t-45.5 11q-46 4 -95 -5q-8 -2 -19.5 -4.5t-22 -7t-19 -11.5t-10.5 -17v-440q1 -20 13 -32.5
t32 -12.5h81v-54h-81q-42 0 -70.5 28.5t-28.5 70.5v441q0 18 9 32t22.5 25t29.5 18.5t31 11.5q32 9 66.5 11.5t66.5 -0.5q35 -3 67 -16t56 -38q22 -23 35 -53.5t13 -62.5v-306q0 -39 21.5 -65.5t53.5 -39.5t69.5 -13t69 13t53 39t21.5 66v468h54v-468zM778 -116
q-29 -35 -71 -49.5t-87 -14.5h-170v54h170q32 0 63.5 9t52.5 35z" />
    <glyph glyph-name="registered" unicode="&#xae;" horiz-adv-x="615" 
d="M535 -9q0 -35 -15 -67.5t-41 -55.5q-29 -26 -66.5 -37t-75.5 -11h-224v54h224q26 0 52.5 6t47.5 23q20 15 32 39t12 49v477q-1 29 -15 50.5t-36 35.5t-48.5 21t-51.5 9q-55 5 -110 -6q-9 -2 -21.5 -4.5t-24.5 -7t-22 -11.5t-13 -17v-458q0 -33 -22 -56.5t-55 -23.5h-22
v54h22q11 0 16.5 7.5t6.5 18.5v461q1 16 9 29t20 22.5t26.5 16.5t28.5 12q25 8 51.5 11.5t53.5 5.5q30 2 60.5 0.5t60.5 -9.5q27 -8 52.5 -22.5t45 -35.5t31 -47t11.5 -56v-477z" />
    <glyph glyph-name="registered" unicode="&#xe0e;" horiz-adv-x="615" 
d="M535 -9q0 -35 -15 -67.5t-41 -55.5q-29 -26 -66.5 -37t-75.5 -11h-224v54h224q26 0 52.5 6t47.5 23q20 15 32 39t12 49v477q-1 29 -15 50.5t-36 35.5t-48.5 21t-51.5 9q-55 5 -110 -6q-9 -2 -21.5 -4.5t-24.5 -7t-22 -11.5t-13 -17v-458q0 -33 -22 -56.5t-55 -23.5h-22
v54h22q11 0 16.5 7.5t6.5 18.5v461q1 16 9 29t20 22.5t26.5 16.5t28.5 12q25 8 51.5 11.5t53.5 5.5q30 2 60.5 0.5t60.5 -9.5q27 -8 52.5 -22.5t45 -35.5t31 -47t11.5 -56v-477z" />
    <glyph glyph-name="macron" unicode="&#xaf;" horiz-adv-x="615" 
d="M535 -29q0 -49 -33 -90t-89 -66l-103 104l-97 -99h-100v54h78l119 109l112 -103q24 14 41 38.5t18 53.5v496q-1 29 -15 50.5t-36 35.5t-48.5 21t-51.5 9q-55 5 -110 -6q-9 -2 -21.5 -4.5t-24.5 -7t-22 -11.5t-13 -17v-458q0 -33 -22 -56.5t-55 -23.5h-22v54h22
q11 0 16.5 7.5t6.5 18.5v461q1 16 9 29t20 23t26.5 17t28.5 11q25 8 51.5 11.5t53.5 5.5q30 2 61 0.5t60 -9.5q27 -7 52.5 -22t45 -36t31 -47t11.5 -56v-497z" />
    <glyph glyph-name="macron" unicode="&#xe0f;" horiz-adv-x="615" 
d="M535 -29q0 -49 -33 -90t-89 -66l-103 104l-97 -99h-100v54h78l119 109l112 -103q24 14 41 38.5t18 53.5v496q-1 29 -15 50.5t-36 35.5t-48.5 21t-51.5 9q-55 5 -110 -6q-9 -2 -21.5 -4.5t-24.5 -7t-22 -11.5t-13 -17v-458q0 -33 -22 -56.5t-55 -23.5h-22v54h22
q11 0 16.5 7.5t6.5 18.5v461q1 16 9 29t20 23t26.5 17t28.5 11q25 8 51.5 11.5t53.5 5.5q30 2 61 0.5t60 -9.5q27 -7 52.5 -22t45 -36t31 -47t11.5 -56v-497z" />
    <glyph glyph-name="degree" unicode="&#xb0;" horiz-adv-x="531" 
d="M415 -125q-14 -18 -35.5 -32t-53.5 -28l-103 104l-97 -99h-74v54h53l118 109l113 -104q10 6 19.5 13t17.5 17zM448 0h-54v180q-2 33 -18.5 55.5t-41 36t-54.5 19.5t-57 6v54q46 0 91 -12t80 -44v173q-1 28 -14.5 49t-34 35.5t-46 22.5t-49.5 10q-26 2 -54 1t-54 -5
q-21 -3 -44.5 -10t-39.5 -23l-38 38q16 16 37.5 26t44.5 15.5t47 8t46 3.5q25 1 50 -0.5t49.5 -6.5t47 -14.5t42.5 -25.5q6 11 8 23t2 24h54q0 -23 -6 -46t-21 -42q12 -18 19.5 -39.5t7.5 -43.5v-468z" />
    <glyph glyph-name="degree" unicode="&#xe10;" horiz-adv-x="531" 
d="M415 -125q-14 -18 -35.5 -32t-53.5 -28l-103 104l-97 -99h-74v54h53l118 109l113 -104q10 6 19.5 13t17.5 17zM448 0h-54v180q-2 33 -18.5 55.5t-41 36t-54.5 19.5t-57 6v54q46 0 91 -12t80 -44v173q-1 28 -14.5 49t-34 35.5t-46 22.5t-49.5 10q-26 2 -54 1t-54 -5
q-21 -3 -44.5 -10t-39.5 -23l-38 38q16 16 37.5 26t44.5 15.5t47 8t46 3.5q25 1 50 -0.5t49.5 -6.5t47 -14.5t42.5 -25.5q6 11 8 23t2 24h54q0 -23 -6 -46t-21 -42q12 -18 19.5 -39.5t7.5 -43.5v-468z" />
    <glyph glyph-name="plusminus" unicode="&#xb1;" horiz-adv-x="680" 
d="M546 0v416v47t-9 46q-13 29 -38 47.5t-56 25.5q-17 4 -36 4t-36 -8q-16 -8 -29 -20.5t-21 -28.5q-24 -42 -48.5 -81t-48.5 -80q-14 -26 -17 -56.5t-3 -59.5v-252h-54v252q0 35 5 71t20 68q8 17 17 31.5t16 31.5t10.5 37t1.5 40q0 13 -6.5 26.5t-20.5 17.5l-73 -63
l-100 90l38 38l62 -62l52 52q17 0 32 -2.5t29 -13.5q16 -11 23.5 -30t11.5 -38q15 25 36 48t49 35q29 13 62.5 11t63.5 -12q51 -17 85.5 -61t35.5 -99v-468h-54z" />
    <glyph glyph-name="plusminus" unicode="&#xe11;" horiz-adv-x="680" 
d="M546 0v416v47t-9 46q-13 29 -38 47.5t-56 25.5q-17 4 -36 4t-36 -8q-16 -8 -29 -20.5t-21 -28.5q-24 -42 -48.5 -81t-48.5 -80q-14 -26 -17 -56.5t-3 -59.5v-252h-54v252q0 35 5 71t20 68q8 17 17 31.5t16 31.5t10.5 37t1.5 40q0 13 -6.5 26.5t-20.5 17.5l-73 -63
l-100 90l38 38l62 -62l52 52q17 0 32 -2.5t29 -13.5q16 -11 23.5 -30t11.5 -38q15 25 36 48t49 35q29 13 62.5 11t63.5 -12q51 -17 85.5 -61t35.5 -99v-468h-54z" />
    <glyph glyph-name="twosuperior" unicode="&#xb2;" horiz-adv-x="898" 
d="M818 630v-468q0 -29 -9 -56t-25.5 -49.5t-40 -38.5t-52.5 -22q-30 -7 -60.5 -4.5t-59 13.5t-53 31t-42.5 49v-85h-54v478q-1 29 -18 54t-41 39l-85 -76l-85 76q-24 -14 -41 -39t-18 -54v-334q0 -14 3.5 -29.5t10.5 -29t18 -23.5t26 -14q28 -8 60 3t52 31l38 -38
q-32 -32 -79.5 -46.5t-92.5 0.5q-23 7 -39.5 22.5t-28 35.5t-17 42.5t-5.5 45.5v335q0 24 8.5 47t23 42.5t33.5 34.5t41 25l16 7l76 -68l76 68l16 -7q22 -10 41 -25t33.5 -34.5t23 -42.5t8.5 -47v-227q0 -30 7 -62t22 -60t38 -49t55 -30q29 -8 61.5 -6t58.5 20q22 16 34 43
t12 54v468h54z" />
    <glyph glyph-name="twosuperior" unicode="&#xe12;" horiz-adv-x="898" 
d="M818 630v-468q0 -29 -9 -56t-25.5 -49.5t-40 -38.5t-52.5 -22q-30 -7 -60.5 -4.5t-59 13.5t-53 31t-42.5 49v-85h-54v478q-1 29 -18 54t-41 39l-85 -76l-85 76q-24 -14 -41 -39t-18 -54v-334q0 -14 3.5 -29.5t10.5 -29t18 -23.5t26 -14q28 -8 60 3t52 31l38 -38
q-32 -32 -79.5 -46.5t-92.5 0.5q-23 7 -39.5 22.5t-28 35.5t-17 42.5t-5.5 45.5v335q0 24 8.5 47t23 42.5t33.5 34.5t41 25l16 7l76 -68l76 68l16 -7q22 -10 41 -25t33.5 -34.5t23 -42.5t8.5 -47v-227q0 -30 7 -62t22 -60t38 -49t55 -30q29 -8 61.5 -6t58.5 20q22 16 34 43
t12 54v468h54z" />
    <glyph glyph-name="threesuperior" unicode="&#xb3;" horiz-adv-x="897" 
d="M817 630v-630h-54v83q-36 -58 -94.5 -80t-118.5 -8q-29 6 -52.5 22t-40 38t-26 49.5t-9.5 56.5v307q0 25 -10 45.5t-27 35.5t-39 24t-46 11q-46 4 -95 -5q-8 -2 -19.5 -4.5t-22 -7t-19 -11.5t-10.5 -17v-440q1 -20 13 -32.5t32 -12.5h81v-54h-81q-42 0 -70.5 28.5
t-28.5 70.5v441q0 18 8.5 32t22 25t30 18.5t31.5 11.5q32 9 66 11.5t67 -0.5q35 -3 67 -16t56 -38q22 -23 35 -53.5t13 -62.5v-307q1 -29 14 -56.5t37 -43.5q26 -17 60 -18t63 9q30 10 51 31.5t35 49t20.5 58.5t6.5 60v379h54z" />
    <glyph glyph-name="threesuperior" unicode="&#xe13;" horiz-adv-x="897" 
d="M817 630v-630h-54v83q-36 -58 -94.5 -80t-118.5 -8q-29 6 -52.5 22t-40 38t-26 49.5t-9.5 56.5v307q0 25 -10 45.5t-27 35.5t-39 24t-46 11q-46 4 -95 -5q-8 -2 -19.5 -4.5t-22 -7t-19 -11.5t-10.5 -17v-440q1 -20 13 -32.5t32 -12.5h81v-54h-81q-42 0 -70.5 28.5
t-28.5 70.5v441q0 18 8.5 32t22 25t30 18.5t31.5 11.5q32 9 66 11.5t67 -0.5q35 -3 67 -16t56 -38q22 -23 35 -53.5t13 -62.5v-307q1 -29 14 -56.5t37 -43.5q26 -17 60 -18t63 9q30 10 51 31.5t35 49t20.5 58.5t6.5 60v379h54z" />
    <glyph glyph-name="acute" unicode="&#xb4;" horiz-adv-x="610" 
d="M510 539q9 -16 14.5 -34.5t5.5 -36.5v-468h-54v468q-1 33 -17.5 55.5t-41.5 36t-55 19.5t-57 6q-21 0 -43 -3t-42 -10.5t-37.5 -20t-29.5 -31.5q-10 -17 -14 -35.5t-6 -37.5q-6 -43 -9 -86q-2 -42 -1 -84.5t5 -84.5q1 -16 3 -36.5t6.5 -40.5t14 -36.5t27.5 -25.5
q15 -8 32 -8.5t34 4t32.5 13.5t26.5 20l38 -38q-17 -17 -40 -29.5t-48 -18.5t-50.5 -4.5t-48.5 13.5q-24 12 -39 31t-23 42.5t-11.5 48.5t-6.5 49q-11 104 -3 209q1 24 3.5 49t7.5 49.5t15 47t27 41.5q34 37 82.5 52t97.5 15q30 0 60 -5t57.5 -17t50 -31t37.5 -47z" />
    <glyph glyph-name="acute" unicode="&#xe14;" horiz-adv-x="610" 
d="M510 539q9 -16 14.5 -34.5t5.5 -36.5v-468h-54v468q-1 33 -17.5 55.5t-41.5 36t-55 19.5t-57 6q-21 0 -43 -3t-42 -10.5t-37.5 -20t-29.5 -31.5q-10 -17 -14 -35.5t-6 -37.5q-6 -43 -9 -86q-2 -42 -1 -84.5t5 -84.5q1 -16 3 -36.5t6.5 -40.5t14 -36.5t27.5 -25.5
q15 -8 32 -8.5t34 4t32.5 13.5t26.5 20l38 -38q-17 -17 -40 -29.5t-48 -18.5t-50.5 -4.5t-48.5 13.5q-24 12 -39 31t-23 42.5t-11.5 48.5t-6.5 49q-11 104 -3 209q1 24 3.5 49t7.5 49.5t15 47t27 41.5q34 37 82.5 52t97.5 15q30 0 60 -5t57.5 -17t50 -31t37.5 -47z" />
    <glyph glyph-name="mu" unicode="&#xb5;" horiz-adv-x="610" 
d="M528 497q2 -8 2 -12.5v-6.5v-478h-54v478q-1 29 -18 53.5t-41 38.5l-112 -93l-112 93q-47 -27 -58 -80q-5 -28 -8.5 -55.5t-5.5 -56.5q-4 -64 -1 -129.5t17 -128.5q6 -27 22 -49.5t47 -25.5q26 -2 53 8.5t45 28.5l38 -38q-28 -28 -67.5 -42.5t-78.5 -9.5q-44 6 -69 33
t-37.5 64t-16.5 78.5t-6 76.5q-4 64 -1 129.5t17 128.5v-1q8 43 36 76.5t67 50.5l16 7l103 -94l103 94l16 -7q41 -18 69 -52t35 -79z" />
    <glyph glyph-name="mu" unicode="&#xe15;" horiz-adv-x="610" 
d="M528 497q2 -8 2 -12.5v-6.5v-478h-54v478q-1 29 -18 53.5t-41 38.5l-112 -93l-112 93q-47 -27 -58 -80q-5 -28 -8.5 -55.5t-5.5 -56.5q-4 -64 -1 -129.5t17 -128.5q6 -27 22 -49.5t47 -25.5q26 -2 53 8.5t45 28.5l38 -38q-28 -28 -67.5 -42.5t-78.5 -9.5q-44 6 -69 33
t-37.5 64t-16.5 78.5t-6 76.5q-4 64 -1 129.5t17 128.5v-1q8 43 36 76.5t67 50.5l16 7l103 -94l103 94l16 -7q41 -18 69 -52t35 -79z" />
    <glyph glyph-name="paragraph" unicode="&#xb6;" horiz-adv-x="610" 
d="M526 496q3 -12 3.5 -19.5t0.5 -8.5v-468h-54v468q-1 29 -15 50.5t-36 35.5t-48.5 21t-51.5 9q-56 3 -110 -6q-9 -2 -21.5 -4.5t-24.5 -7t-22 -11.5t-13 -17v-439q1 -20 13 -32.5t32 -12.5h81v-54h-81q-42 0 -70.5 28.5t-28.5 70.5v442q1 17 9.5 30.5t22 23.5t29 17
t29.5 11q32 10 65.5 13t66.5 3q36 0 72.5 -7.5t67 -24.5t53 -44.5t31.5 -66.5z" />
    <glyph glyph-name="paragraph" unicode="&#xe16;" horiz-adv-x="610" 
d="M526 496q3 -12 3.5 -19.5t0.5 -8.5v-468h-54v468q-1 29 -15 50.5t-36 35.5t-48.5 21t-51.5 9q-56 3 -110 -6q-9 -2 -21.5 -4.5t-24.5 -7t-22 -11.5t-13 -17v-439q1 -20 13 -32.5t32 -12.5h81v-54h-81q-42 0 -70.5 28.5t-28.5 70.5v442q1 17 9.5 30.5t22 23.5t29 17
t29.5 11q32 10 65.5 13t66.5 3q36 0 72.5 -7.5t67 -24.5t53 -44.5t31.5 -66.5z" />
    <glyph glyph-name="periodcentered" unicode="&#xb7;" horiz-adv-x="610" 
d="M530 0h-54v468q-1 32 -20 60t-48 42q-30 14 -65.5 15.5t-67.5 -6.5q-33 -8 -59.5 -28t-44.5 -47.5t-27.5 -60t-9.5 -65.5v-378h-54v630h54v-94q21 33 49 54.5t60.5 33.5t67 14.5t69.5 -3.5q31 -5 58 -20t47.5 -36.5t32.5 -50t12 -60.5v-468z" />
    <glyph glyph-name="periodcentered" unicode="&#x2219;" horiz-adv-x="610" 
d="M530 0h-54v468q-1 32 -20 60t-48 42q-30 14 -65.5 15.5t-67.5 -6.5q-33 -8 -59.5 -28t-44.5 -47.5t-27.5 -60t-9.5 -65.5v-378h-54v630h54v-94q21 33 49 54.5t60.5 33.5t67 14.5t69.5 -3.5q31 -5 58 -20t47.5 -36.5t32.5 -50t12 -60.5v-468z" />
    <glyph glyph-name="periodcentered" unicode="&#xe17;" horiz-adv-x="610" 
d="M530 0h-54v468q-1 32 -20 60t-48 42q-30 14 -65.5 15.5t-67.5 -6.5q-33 -8 -59.5 -28t-44.5 -47.5t-27.5 -60t-9.5 -65.5v-378h-54v630h54v-94q21 33 49 54.5t60.5 33.5t67 14.5t69.5 -3.5q31 -5 58 -20t47.5 -36.5t32.5 -50t12 -60.5v-468z" />
    <glyph glyph-name="cedilla" unicode="&#xb8;" horiz-adv-x="552" 
d="M500 218q5 -48 -11.5 -91t-53.5 -74q-38 -30 -84.5 -41.5t-94.5 -11.5h-105q-42 0 -70.5 28.5t-28.5 70.5v162h54v-162q1 -20 13 -32.5t32 -12.5h105q25 0 50.5 3.5t49.5 12.5t43.5 24.5t32.5 38.5q12 21 15 45.5t-3 47.5t-21 41t-40 25l-175 43q-42 8 -82 29t-61 60
q-18 34 -14.5 73t24.5 70q21 32 55.5 50t71.5 25q38 8 76.5 7.5t76.5 -5.5q32 -5 65.5 -15t56.5 -33l-38 -38q-10 10 -23.5 16t-29 10t-31 5.5t-28.5 2.5q-37 4 -75 3t-73 -15q-34 -13 -56.5 -40.5t-17.5 -65.5q3 -20 14.5 -35t28 -25t35.5 -16.5t36 -10.5h1l177 -43
q45 -12 71.5 -46.5t31.5 -79.5z" />
    <glyph glyph-name="cedilla" unicode="&#xe18;" horiz-adv-x="552" 
d="M500 218q5 -48 -11.5 -91t-53.5 -74q-38 -30 -84.5 -41.5t-94.5 -11.5h-105q-42 0 -70.5 28.5t-28.5 70.5v162h54v-162q1 -20 13 -32.5t32 -12.5h105q25 0 50.5 3.5t49.5 12.5t43.5 24.5t32.5 38.5q12 21 15 45.5t-3 47.5t-21 41t-40 25l-175 43q-42 8 -82 29t-61 60
q-18 34 -14.5 73t24.5 70q21 32 55.5 50t71.5 25q38 8 76.5 7.5t76.5 -5.5q32 -5 65.5 -15t56.5 -33l-38 -38q-10 10 -23.5 16t-29 10t-31 5.5t-28.5 2.5q-37 4 -75 3t-73 -15q-34 -13 -56.5 -40.5t-17.5 -65.5q3 -20 14.5 -35t28 -25t35.5 -16.5t36 -10.5h1l177 -43
q45 -12 71.5 -46.5t31.5 -79.5z" />
    <glyph glyph-name="onesuperior" unicode="&#xb9;" horiz-adv-x="610" 
d="M530 630v-630h-54v93q-21 -33 -49.5 -54.5t-60.5 -33.5t-67 -14.5t-69 3.5q-31 5 -58 20t-47.5 36.5t-32.5 50t-12 60.5v469h54v-469q1 -32 19.5 -60.5t48.5 -42.5t65.5 -15t67.5 7q33 8 59.5 28t44.5 47.5t27.5 60t9.5 65.5v379h54z" />
    <glyph glyph-name="onesuperior" unicode="&#xe19;" horiz-adv-x="610" 
d="M530 630v-630h-54v93q-21 -33 -49.5 -54.5t-60.5 -33.5t-67 -14.5t-69 3.5q-31 5 -58 20t-47.5 36.5t-32.5 50t-12 60.5v469h54v-469q1 -32 19.5 -60.5t48.5 -42.5t65.5 -15t67.5 7q33 8 59.5 28t44.5 47.5t27.5 60t9.5 65.5v379h54z" />
    <glyph glyph-name="ordmasculine" unicode="&#xba;" horiz-adv-x="610" 
d="M530 162q0 -32 -14.5 -62t-37.5 -52q-24 -22 -54 -35t-62.5 -18.5t-66 -4t-63.5 7.5q-29 6 -56.5 20.5t-48.5 35.5t-34 48.5t-13 59.5v468h54v-468q1 -33 17.5 -55.5t41.5 -36t55 -19.5t57 -6q29 0 57.5 5t54.5 20q24 14 41 38.5t18 53.5v468h54v-468z" />
    <glyph glyph-name="ordmasculine" unicode="&#xe1a;" horiz-adv-x="610" 
d="M530 162q0 -32 -14.5 -62t-37.5 -52q-24 -22 -54 -35t-62.5 -18.5t-66 -4t-63.5 7.5q-29 6 -56.5 20.5t-48.5 35.5t-34 48.5t-13 59.5v468h54v-468q1 -33 17.5 -55.5t41.5 -36t55 -19.5t57 -6q29 0 57.5 5t54.5 20q24 14 41 38.5t18 53.5v468h54v-468z" />
    <glyph glyph-name="guillemotright" unicode="&#xbb;" horiz-adv-x="610" 
d="M530 162q0 -32 -14.5 -62t-37.5 -52q-24 -22 -54 -35t-62.5 -18.5t-66 -4t-63.5 7.5q-29 6 -56.5 20.5t-48.5 35.5t-34 48.5t-13 59.5v468h54v-468q1 -33 17.5 -55.5t41.5 -36t55 -19.5t57 -6q29 0 57.5 5t54.5 20q24 14 41 38.5t18 53.5v621h54v-621z" />
    <glyph glyph-name="guillemotright" unicode="&#xe1b;" horiz-adv-x="610" 
d="M530 162q0 -32 -14.5 -62t-37.5 -52q-24 -22 -54 -35t-62.5 -18.5t-66 -4t-63.5 7.5q-29 6 -56.5 20.5t-48.5 35.5t-34 48.5t-13 59.5v468h54v-468q1 -33 17.5 -55.5t41.5 -36t55 -19.5t57 -6q29 0 57.5 5t54.5 20q24 14 41 38.5t18 53.5v621h54v-621z" />
    <glyph glyph-name="onequarter" unicode="&#xbc;" horiz-adv-x="610" 
d="M530 630v-483q0 -24 -8.5 -47t-23 -42.5t-33.5 -34.5t-41 -25l-16 -7l-103 104l-103 -104l-16 7q-22 10 -41 25t-33.5 34.5t-23 42.5t-8.5 47v384q0 42 28.5 70.5t70.5 28.5h81v-54h-81q-20 0 -32 -12.5t-13 -32.5v-383q1 -29 18 -53.5t41 -38.5l112 103l112 -103
q24 14 41 38.5t18 53.5v482h54z" />
    <glyph glyph-name="onequarter" unicode="&#xe1c;" horiz-adv-x="610" 
d="M530 630v-483q0 -24 -8.5 -47t-23 -42.5t-33.5 -34.5t-41 -25l-16 -7l-103 104l-103 -104l-16 7q-22 10 -41 25t-33.5 34.5t-23 42.5t-8.5 47v384q0 42 28.5 70.5t70.5 28.5h81v-54h-81q-20 0 -32 -12.5t-13 -32.5v-383q1 -29 18 -53.5t41 -38.5l112 103l112 -103
q24 14 41 38.5t18 53.5v482h54z" />
    <glyph glyph-name="onehalf" unicode="&#xbd;" horiz-adv-x="610" 
d="M530 783v-636q0 -24 -8.5 -47t-23 -42.5t-33.5 -34.5t-41 -25l-16 -7l-103 104l-103 -104l-16 7q-22 10 -41 25t-33.5 34.5t-23 42.5t-8.5 47v384q0 42 28.5 70.5t70.5 28.5h81v-54h-81q-20 0 -32 -12.5t-13 -32.5v-383q1 -29 18 -53.5t41 -38.5l112 103l112 -103
q24 14 41 38.5t18 53.5v635h54z" />
    <glyph glyph-name="onehalf" unicode="&#xe1d;" horiz-adv-x="610" 
d="M530 783v-636q0 -24 -8.5 -47t-23 -42.5t-33.5 -34.5t-41 -25l-16 -7l-103 104l-103 -104l-16 7q-22 10 -41 25t-33.5 34.5t-23 42.5t-8.5 47v384q0 42 28.5 70.5t70.5 28.5h81v-54h-81q-20 0 -32 -12.5t-13 -32.5v-383q1 -29 18 -53.5t41 -38.5l112 103l112 -103
q24 14 41 38.5t18 53.5v635h54z" />
    <glyph glyph-name="threequarters" unicode="&#xbe;" horiz-adv-x="664" 
d="M584 630v-530q0 -30 -14 -51.5t-36.5 -35t-50.5 -19t-56 -3t-53.5 12.5t-41.5 29q-16 -19 -41.5 -29.5t-53 -13t-55.5 3t-50.5 19.5t-37 35.5t-14.5 51.5v530h54v-530q1 -17 10 -27.5t22 -16.5t28 -8.5t28 -2.5t27.5 2.5t26.5 9t20.5 17t9.5 26.5v296h52v-296
q1 -17 10 -27.5t22 -16.5t28.5 -8.5t28.5 -2.5t27 2.5t26.5 9t20.5 17t9 26.5v530h54z" />
    <glyph glyph-name="threequarters" unicode="&#xe1e;" horiz-adv-x="664" 
d="M584 630v-530q0 -30 -14 -51.5t-36.5 -35t-50.5 -19t-56 -3t-53.5 12.5t-41.5 29q-16 -19 -41.5 -29.5t-53 -13t-55.5 3t-50.5 19.5t-37 35.5t-14.5 51.5v530h54v-530q1 -17 10 -27.5t22 -16.5t28 -8.5t28 -2.5t27.5 2.5t26.5 9t20.5 17t9.5 26.5v296h52v-296
q1 -17 10 -27.5t22 -16.5t28.5 -8.5t28.5 -2.5t27 2.5t26.5 9t20.5 17t9 26.5v530h54z" />
    <glyph glyph-name="questiondown" unicode="&#xbf;" horiz-adv-x="664" 
d="M584 783v-683q0 -30 -14 -51.5t-36.5 -35t-50.5 -19t-56 -3t-53.5 12.5t-41.5 29q-16 -19 -41.5 -29.5t-53 -13t-55.5 3t-50.5 19.5t-37 35.5t-14.5 51.5v530h54v-530q1 -17 10 -27.5t22 -16.5t28 -8.5t28 -2.5t27.5 2.5t26.5 9t20.5 17t9.5 26.5v296h52v-296
q1 -17 10 -27.5t22 -16.5t28.5 -8.5t28.5 -2.5t27 2.5t26.5 9t20.5 17t9 26.5v683h54z" />
    <glyph glyph-name="questiondown" unicode="&#xe1f;" horiz-adv-x="664" 
d="M584 783v-683q0 -30 -14 -51.5t-36.5 -35t-50.5 -19t-56 -3t-53.5 12.5t-41.5 29q-16 -19 -41.5 -29.5t-53 -13t-55.5 3t-50.5 19.5t-37 35.5t-14.5 51.5v530h54v-530q1 -17 10 -27.5t22 -16.5t28 -8.5t28 -2.5t27.5 2.5t26.5 9t20.5 17t9.5 26.5v296h52v-296
q1 -17 10 -27.5t22 -16.5t28.5 -8.5t28.5 -2.5t27 2.5t26.5 9t20.5 17t9 26.5v683h54z" />
    <glyph glyph-name="Agrave" unicode="&#xc0;" horiz-adv-x="615" 
d="M481 0v468q-1 29 -15 50.5t-36 35.5t-48.5 21t-51.5 9q-55 5 -110 -6q-9 -2 -21.5 -4.5t-24.5 -7t-22 -11.5t-13 -17v-458q0 -33 -22 -56.5t-55 -23.5h-22v54h22q11 0 16.5 7.5t6.5 18.5v461q1 16 9 29t20 23t26.5 17t28.5 11q25 8 51.5 11.5t53.5 5.5q30 2 61 0.5
t60 -9.5q27 -7 52.5 -22t45 -36t31 -47t11.5 -56v-468h-54z" />
    <glyph glyph-name="Agrave" unicode="&#xe20;" horiz-adv-x="615" 
d="M481 0v468q-1 29 -15 50.5t-36 35.5t-48.5 21t-51.5 9q-55 5 -110 -6q-9 -2 -21.5 -4.5t-24.5 -7t-22 -11.5t-13 -17v-458q0 -33 -22 -56.5t-55 -23.5h-22v54h22q11 0 16.5 7.5t6.5 18.5v461q1 16 9 29t20 23t26.5 17t28.5 11q25 8 51.5 11.5t53.5 5.5q30 2 61 0.5
t60 -9.5q27 -7 52.5 -22t45 -36t31 -47t11.5 -56v-468h-54z" />
    <glyph glyph-name="Aacute" unicode="&#xc1;" horiz-adv-x="610" 
d="M530 630v-469q0 -33 -12.5 -61.5t-33.5 -50.5t-48.5 -36.5t-58.5 -19.5q-34 -5 -68.5 -2.5t-66.5 14.5t-59.5 34t-48.5 54v-93h-54v630h54v-379q0 -34 10 -67t29 -60.5t46 -47.5t62 -27q32 -7 67.5 -5t64.5 17q28 14 45 41.5t18 58.5v469h54z" />
    <glyph glyph-name="Aacute" unicode="&#xe21;" horiz-adv-x="610" 
d="M530 630v-469q0 -33 -12.5 -61.5t-33.5 -50.5t-48.5 -36.5t-58.5 -19.5q-34 -5 -68.5 -2.5t-66.5 14.5t-59.5 34t-48.5 54v-93h-54v630h54v-379q0 -34 10 -67t29 -60.5t46 -47.5t62 -27q32 -7 67.5 -5t64.5 17q28 14 45 41.5t18 58.5v469h54z" />
    <glyph glyph-name="Acircumflex" unicode="&#xc2;" horiz-adv-x="580" 
d="M530 630v-468q0 -31 -14 -60t-35 -51q-23 -23 -53 -36.5t-63 -19.5t-66.5 -4.5t-64.5 7.5q-30 6 -57.5 20t-49 35t-34.5 48.5t-13 60.5v52q0 31 14 61.5t38 51.5q-24 21 -38 51.5t-14 60.5v92q0 42 28.5 70.5t70.5 28.5h81v-54h-81q-20 0 -32 -12.5t-13 -32.5v-92
q0 -13 2.5 -27.5t9 -27t17 -21t26.5 -9.5h120v-54h-120q-16 -1 -26.5 -9.5t-17 -21t-9 -27.5t-2.5 -28v-52q1 -33 17.5 -55.5t41.5 -36t55 -19.5t57 -6t57 6t55 19.5t41.5 36t17.5 55.5v468h54z" />
    <glyph glyph-name="Acircumflex" unicode="&#xe22;" horiz-adv-x="580" 
d="M530 630v-468q0 -31 -14 -60t-35 -51q-23 -23 -53 -36.5t-63 -19.5t-66.5 -4.5t-64.5 7.5q-30 6 -57.5 20t-49 35t-34.5 48.5t-13 60.5v52q0 31 14 61.5t38 51.5q-24 21 -38 51.5t-14 60.5v92q0 42 28.5 70.5t70.5 28.5h81v-54h-81q-20 0 -32 -12.5t-13 -32.5v-92
q0 -13 2.5 -27.5t9 -27t17 -21t26.5 -9.5h120v-54h-120q-16 -1 -26.5 -9.5t-17 -21t-9 -27.5t-2.5 -28v-52q1 -33 17.5 -55.5t41.5 -36t55 -19.5t57 -6t57 6t55 19.5t41.5 36t17.5 55.5v468h54z" />
    <glyph glyph-name="Atilde" unicode="&#xc3;" horiz-adv-x="589" 
d="M425 334q24 -7 42.5 -21t31.5 -32t19.5 -37t8.5 -36q4 -36 -4.5 -70.5t-31.5 -63.5q-20 -26 -46.5 -43t-56 -26t-61 -12.5t-62.5 -2.5q-26 1 -54 3.5t-55 9t-52 18.5t-44 32l38 38q22 -22 54 -30.5t61 -12.5q39 -5 80 -4.5t79 12.5t66.5 39.5t34.5 68.5q3 18 1 37
t-9.5 35t-21 28t-33.5 18l-175 43q-42 8 -82 29t-61 60q-18 34 -14.5 73t24.5 70q21 32 55.5 50t71.5 26q38 8 76.5 7t76.5 -6q32 -5 65.5 -15t56.5 -33l-38 -38q-10 10 -23.5 16t-29 10t-31 5.5t-28.5 3.5q-37 3 -75 2t-73 -15q-34 -13 -56.5 -40.5t-17.5 -65.5
q3 -20 14.5 -35t28 -25t36 -16.5t36.5 -10.5l177 -43h1z" />
    <glyph glyph-name="Atilde" unicode="&#xe23;" horiz-adv-x="589" 
d="M425 334q24 -7 42.5 -21t31.5 -32t19.5 -37t8.5 -36q4 -36 -4.5 -70.5t-31.5 -63.5q-20 -26 -46.5 -43t-56 -26t-61 -12.5t-62.5 -2.5q-26 1 -54 3.5t-55 9t-52 18.5t-44 32l38 38q22 -22 54 -30.5t61 -12.5q39 -5 80 -4.5t79 12.5t66.5 39.5t34.5 68.5q3 18 1 37
t-9.5 35t-21 28t-33.5 18l-175 43q-42 8 -82 29t-61 60q-18 34 -14.5 73t24.5 70q21 32 55.5 50t71.5 26q38 8 76.5 7t76.5 -6q32 -5 65.5 -15t56.5 -33l-38 -38q-10 10 -23.5 16t-29 10t-31 5.5t-28.5 3.5q-37 3 -75 2t-73 -15q-34 -13 -56.5 -40.5t-17.5 -65.5
q3 -20 14.5 -35t28 -25t36 -16.5t36.5 -10.5l177 -43h1z" />
    <glyph glyph-name="Adieresis" unicode="&#xc4;" horiz-adv-x="610" 
d="M526 496q3 -12 3.5 -19.5t0.5 -8.5v-695h-54v695q-1 29 -15 50.5t-36 35.5t-48.5 21t-51.5 9q-56 3 -110 -6q-9 -2 -21.5 -4.5t-24.5 -7t-22 -11.5t-13 -17v-439q1 -20 13 -32.5t32 -12.5h81v-54h-81q-42 0 -70.5 28.5t-28.5 70.5v442q1 17 9.5 30.5t22 23.5t29 17
t29.5 11q32 10 65.5 13t66.5 3q36 0 72.5 -7.5t67 -24.5t53 -44.5t31.5 -66.5z" />
    <glyph glyph-name="Adieresis" unicode="&#xe24;" horiz-adv-x="610" 
d="M526 496q3 -12 3.5 -19.5t0.5 -8.5v-695h-54v695q-1 29 -15 50.5t-36 35.5t-48.5 21t-51.5 9q-56 3 -110 -6q-9 -2 -21.5 -4.5t-24.5 -7t-22 -11.5t-13 -17v-439q1 -20 13 -32.5t32 -12.5h81v-54h-81q-42 0 -70.5 28.5t-28.5 70.5v442q1 17 9.5 30.5t22 23.5t29 17
t29.5 11q32 10 65.5 13t66.5 3q36 0 72.5 -7.5t67 -24.5t53 -44.5t31.5 -66.5z" />
    <glyph glyph-name="Aring" unicode="&#xc5;" horiz-adv-x="570" 
d="M436 468q-1 28 -14 49t-33.5 35t-46 22t-49.5 10q-27 2 -59.5 1t-59.5 -5q-21 -3 -44.5 -9.5t-38.5 -22.5l-39 38q23 23 55.5 33t64.5 15q34 5 73.5 5.5t72.5 -4.5q32 -5 63 -18t55 -34.5t39 -50t15 -64.5v-468h-54v343q-44 -40 -103 -52l-175 -38q-28 -7 -43 -26
t-19 -42.5t4 -48.5t27 -43t44.5 -29t54 -16t57 -4t53.5 6l10 -53q-35 -7 -73.5 -7t-76 9t-70.5 28t-55 49q-22 29 -28.5 65.5t4.5 71.5q10 35 36.5 59.5t61.5 33.5l178 38q18 3 38 11.5t36.5 21.5t27.5 29.5t11 35.5v26z" />
    <glyph glyph-name="Aring" unicode="&#xe25;" horiz-adv-x="570" 
d="M436 468q-1 28 -14 49t-33.5 35t-46 22t-49.5 10q-27 2 -59.5 1t-59.5 -5q-21 -3 -44.5 -9.5t-38.5 -22.5l-39 38q23 23 55.5 33t64.5 15q34 5 73.5 5.5t72.5 -4.5q32 -5 63 -18t55 -34.5t39 -50t15 -64.5v-468h-54v343q-44 -40 -103 -52l-175 -38q-28 -7 -43 -26
t-19 -42.5t4 -48.5t27 -43t44.5 -29t54 -16t57 -4t53.5 6l10 -53q-35 -7 -73.5 -7t-76 9t-70.5 28t-55 49q-22 29 -28.5 65.5t4.5 71.5q10 35 36.5 59.5t61.5 33.5l178 38q18 3 38 11.5t36.5 21.5t27.5 29.5t11 35.5v26z" />
    <glyph glyph-name="AE" unicode="&#xc6;" horiz-adv-x="615" 
d="M481 -227v695q-1 29 -15 50.5t-36 35.5t-48.5 21t-51.5 9q-55 5 -110 -6q-9 -2 -21.5 -4.5t-24.5 -7t-22 -11.5t-13 -17v-458q0 -33 -22 -56.5t-55 -23.5h-22v54h22q11 0 16.5 7.5t6.5 18.5v461q1 16 9 29t20 23t26.5 17t28.5 11q25 8 51.5 11.5t53.5 5.5q30 2 61 0.5
t60 -9.5q27 -7 52.5 -22t45 -36t31 -47t11.5 -56v-695h-54z" />
    <glyph glyph-name="AE" unicode="&#xe26;" horiz-adv-x="615" 
d="M481 -227v695q-1 29 -15 50.5t-36 35.5t-48.5 21t-51.5 9q-55 5 -110 -6q-9 -2 -21.5 -4.5t-24.5 -7t-22 -11.5t-13 -17v-458q0 -33 -22 -56.5t-55 -23.5h-22v54h22q11 0 16.5 7.5t6.5 18.5v461q1 16 9 29t20 23t26.5 17t28.5 11q25 8 51.5 11.5t53.5 5.5q30 2 61 0.5
t60 -9.5q27 -7 52.5 -22t45 -36t31 -47t11.5 -56v-695h-54z" />
    <glyph glyph-name="Ccedilla" unicode="&#xc7;" horiz-adv-x="548" 
d="M464 497q3 -13 3.5 -20t0.5 -9v-300q0 -57 -36 -98t-87 -60q-26 -10 -54.5 -14t-56.5 -5t-56 2t-53 16l24 48q18 -9 40 -10.5t42 -1.5q22 1 44 3.5t42 8.5q19 6 36.5 16t31 24t21.5 32t8 39v300q-1 28 -14 49t-33.5 35t-46 22t-49.5 10q-27 2 -55 1t-54 -5
q-21 -3 -44.5 -9.5t-38.5 -22.5l-39 38q21 21 49.5 31t57.5 15q63 11 129 6q32 -3 62.5 -12.5t56 -27t43.5 -43t26 -58.5z" />
    <glyph glyph-name="Ccedilla" unicode="&#xe27;" horiz-adv-x="548" 
d="M464 497q3 -13 3.5 -20t0.5 -9v-300q0 -57 -36 -98t-87 -60q-26 -10 -54.5 -14t-56.5 -5t-56 2t-53 16l24 48q18 -9 40 -10.5t42 -1.5q22 1 44 3.5t42 8.5q19 6 36.5 16t31 24t21.5 32t8 39v300q-1 28 -14 49t-33.5 35t-46 22t-49.5 10q-27 2 -55 1t-54 -5
q-21 -3 -44.5 -9.5t-38.5 -22.5l-39 38q21 21 49.5 31t57.5 15q63 11 129 6q32 -3 62.5 -12.5t56 -27t43.5 -43t26 -58.5z" />
    <glyph glyph-name="Egrave" unicode="&#xc8;" horiz-adv-x="610" 
d="M476 0v467q-1 33 -17.5 55.5t-41.5 36t-55 19.5t-57 6t-56.5 -6t-55 -19.5t-42 -36t-17.5 -55.5v-171q35 32 80 43.5t91 11.5v-54q-29 0 -58 -5t-55 -20q-24 -14 -40.5 -38.5t-17.5 -53.5v-180h-54v467q0 30 11.5 55.5t30 46.5t43.5 35.5t52 22.5q56 16 120.5 11
t114.5 -37q15 11 19.5 28.5t4.5 34.5h54q0 -27 -8 -53.5t-29 -45.5q16 -20 26.5 -46t10.5 -52v-467h-54z" />
    <glyph glyph-name="Egrave" unicode="&#xe28;" horiz-adv-x="610" 
d="M476 0v467q-1 33 -17.5 55.5t-41.5 36t-55 19.5t-57 6t-56.5 -6t-55 -19.5t-42 -36t-17.5 -55.5v-171q35 32 80 43.5t91 11.5v-54q-29 0 -58 -5t-55 -20q-24 -14 -40.5 -38.5t-17.5 -53.5v-180h-54v467q0 30 11.5 55.5t30 46.5t43.5 35.5t52 22.5q56 16 120.5 11
t114.5 -37q15 11 19.5 28.5t4.5 34.5h54q0 -27 -8 -53.5t-29 -45.5q16 -20 26.5 -46t10.5 -52v-467h-54z" />
    <glyph glyph-name="Eacute" unicode="&#xc9;" horiz-adv-x="656" 
d="M576 297h-46v-135q0 -32 -14.5 -62t-37.5 -52q-24 -22 -54 -35t-62.5 -18.5t-66 -4t-63.5 7.5q-29 6 -56.5 20.5t-48.5 35.5t-34 48.5t-13 59.5v468h54v-468q1 -33 17.5 -55.5t41.5 -36t55 -19.5t57 -6t56.5 6t55 19.5t42 36t17.5 55.5v135h-89q-45 0 -87 14.5t-71 49.5
l42 34q21 -26 52.5 -35t63.5 -9h89v279h54v-279h46v-54z" />
    <glyph glyph-name="Eacute" unicode="&#xe29;" horiz-adv-x="656" 
d="M576 297h-46v-135q0 -32 -14.5 -62t-37.5 -52q-24 -22 -54 -35t-62.5 -18.5t-66 -4t-63.5 7.5q-29 6 -56.5 20.5t-48.5 35.5t-34 48.5t-13 59.5v468h54v-468q1 -33 17.5 -55.5t41.5 -36t55 -19.5t57 -6t56.5 6t55 19.5t42 36t17.5 55.5v135h-89q-45 0 -87 14.5t-71 49.5
l42 34q21 -26 52.5 -35t63.5 -9h89v279h54v-279h46v-54z" />
    <glyph glyph-name="Ecircumflex" unicode="&#xca;" horiz-adv-x="571" 
d="M490 0h-54v343q-44 -40 -103 -52l-175 -38q-28 -7 -43 -26t-19 -42.5t4 -48.5t27 -43t44.5 -29t54 -16t57 -4t53.5 6l10 -53q-35 -7 -73.5 -7t-76 9t-70.5 28t-55 49q-22 29 -28.5 65.5t4.5 71.5q10 35 36.5 59.5t61.5 33.5l178 38q18 3 38 12t36.5 21.5t27.5 29t11 35.5
v26q0 28 -13.5 49t-34 35t-46 22t-49.5 10q-27 2 -54.5 1t-54.5 -5q-21 -3 -44.5 -9.5t-38.5 -22.5l-39 38q16 16 36.5 26t43.5 15.5t46.5 7.5t44.5 3q48 2 95 -4.5t88 -33.5q14 11 17.5 28t3.5 33h54q0 -26 -8 -52.5t-28 -45.5q16 -20 25.5 -44.5t9.5 -50.5v-468z" />
    <glyph glyph-name="Ecircumflex" unicode="&#xe2a;" horiz-adv-x="571" 
d="M490 0h-54v343q-44 -40 -103 -52l-175 -38q-28 -7 -43 -26t-19 -42.5t4 -48.5t27 -43t44.5 -29t54 -16t57 -4t53.5 6l10 -53q-35 -7 -73.5 -7t-76 9t-70.5 28t-55 49q-22 29 -28.5 65.5t4.5 71.5q10 35 36.5 59.5t61.5 33.5l178 38q18 3 38 12t36.5 21.5t27.5 29t11 35.5
v26q0 28 -13.5 49t-34 35t-46 22t-49.5 10q-27 2 -54.5 1t-54.5 -5q-21 -3 -44.5 -9.5t-38.5 -22.5l-39 38q16 16 36.5 26t43.5 15.5t46.5 7.5t44.5 3q48 2 95 -4.5t88 -33.5q14 11 17.5 28t3.5 33h54q0 -26 -8 -52.5t-28 -45.5q16 -20 25.5 -44.5t9.5 -50.5v-468z" />
    <glyph glyph-name="Edieresis" unicode="&#xcb;" horiz-adv-x="610" 
d="M504 453q-11 -18 -30.5 -32.5t-37.5 -25.5q38 -21 65.5 -60t28.5 -83v-252h-54v252q-1 22 -10 43.5t-25 36.5q-18 18 -42 26t-50 10h-215v-368h-54v630h54v-207h215q25 2 48.5 9.5t41.5 24.5q17 16 26.5 37.5t10.5 44.5v91h54v-91q0 -23 -7.5 -45t-18.5 -41z" />
    <glyph glyph-name="Edieresis" unicode="&#xe2b;" horiz-adv-x="610" 
d="M504 453q-11 -18 -30.5 -32.5t-37.5 -25.5q38 -21 65.5 -60t28.5 -83v-252h-54v252q-1 22 -10 43.5t-25 36.5q-18 18 -42 26t-50 10h-215v-368h-54v630h54v-207h215q25 2 48.5 9.5t41.5 24.5q17 16 26.5 37.5t10.5 44.5v91h54v-91q0 -23 -7.5 -45t-18.5 -41z" />
    <glyph glyph-name="Igrave" unicode="&#xcc;" horiz-adv-x="664" 
d="M584 100q0 -30 -14 -51.5t-36.5 -35t-50.5 -19t-56 -3t-53.5 12.5t-41.5 29q-16 -19 -41.5 -29.5t-53 -13t-55.5 3t-50.5 19.5t-37 35.5t-14.5 51.5v530h54v-530q1 -17 10 -27.5t22 -16.5t28 -8.5t28 -2.5t27.5 2.5t26.5 9t20.5 17t9.5 26.5v296h52v-296q1 -17 10 -27.5
t22 -16.5t28.5 -8.5t28.5 -2.5t27 2.5t26.5 9t20.5 17t9 26.5v390q0 13 -2.5 28t-9 27.5t-17 21t-26.5 9.5h-71v54h71q16 1 26.5 9.5t17 21t9 27t2.5 27.5v68h54v-68q0 -30 -14 -60.5t-38 -51.5q23 -21 37.5 -51t14.5 -61v-391z" />
    <glyph glyph-name="Igrave" unicode="&#xe2c;" horiz-adv-x="664" 
d="M584 100q0 -30 -14 -51.5t-36.5 -35t-50.5 -19t-56 -3t-53.5 12.5t-41.5 29q-16 -19 -41.5 -29.5t-53 -13t-55.5 3t-50.5 19.5t-37 35.5t-14.5 51.5v530h54v-530q1 -17 10 -27.5t22 -16.5t28 -8.5t28 -2.5t27.5 2.5t26.5 9t20.5 17t9.5 26.5v296h52v-296q1 -17 10 -27.5
t22 -16.5t28.5 -8.5t28.5 -2.5t27 2.5t26.5 9t20.5 17t9 26.5v390q0 13 -2.5 28t-9 27.5t-17 21t-26.5 9.5h-71v54h71q16 1 26.5 9.5t17 21t9 27t2.5 27.5v68h54v-68q0 -30 -14 -60.5t-38 -51.5q23 -21 37.5 -51t14.5 -61v-391z" />
    <glyph glyph-name="Iacute" unicode="&#xcd;" horiz-adv-x="571" 
d="M511 162q-1 -35 -16.5 -66t-41.5 -53q-24 -21 -53.5 -33t-61.5 -16.5t-64.5 -3t-62.5 8.5q-29 6 -56 20.5t-48 35.5t-33.5 48t-12.5 59v89q0 21 8 39t21 31.5t31 21.5t39 8h81v-54h-67h-15.5t-15.5 -3q-14 -5 -21 -16.5t-7 -25.5v-77q0 -22 5.5 -41.5t19.5 -36.5
q19 -20 45 -31.5t52 -16.5q33 -6 67.5 -4t66.5 13q34 11 59.5 38.5t26.5 65.5v237v38.5t-2 39.5q-3 24 -15.5 42.5t-31.5 31t-41 20.5t-44 11q-31 5 -63 4t-63 -5q-25 -4 -52.5 -9.5t-46.5 -23.5l-38 38q23 23 54 32t62 14q57 9 117 7.5t114 -26.5q43 -20 73.5 -57.5
t30.5 -87.5v-306z" />
    <glyph glyph-name="Iacute" unicode="&#xe2d;" horiz-adv-x="571" 
d="M511 162q-1 -35 -16.5 -66t-41.5 -53q-24 -21 -53.5 -33t-61.5 -16.5t-64.5 -3t-62.5 8.5q-29 6 -56 20.5t-48 35.5t-33.5 48t-12.5 59v89q0 21 8 39t21 31.5t31 21.5t39 8h81v-54h-67h-15.5t-15.5 -3q-14 -5 -21 -16.5t-7 -25.5v-77q0 -22 5.5 -41.5t19.5 -36.5
q19 -20 45 -31.5t52 -16.5q33 -6 67.5 -4t66.5 13q34 11 59.5 38.5t26.5 65.5v237v38.5t-2 39.5q-3 24 -15.5 42.5t-31.5 31t-41 20.5t-44 11q-31 5 -63 4t-63 -5q-25 -4 -52.5 -9.5t-46.5 -23.5l-38 38q23 23 54 32t62 14q57 9 117 7.5t114 -26.5q43 -20 73.5 -57.5
t30.5 -87.5v-306z" />
    <glyph glyph-name="Icircumflex" unicode="&#xce;" horiz-adv-x="571" 
d="M511 162q0 -32 -14.5 -62t-37.5 -52q-24 -22 -54 -35t-62.5 -18.5t-66 -4t-63.5 7.5q-29 6 -56.5 20.5t-48.5 35.5t-34 48.5t-13 59.5v90q0 42 28.5 70.5t70.5 28.5h81v-54h-81q-20 0 -32 -12.5t-13 -32.5v-90q1 -33 18 -56t42.5 -36.5t56 -19t57.5 -5.5q26 0 55.5 6.5
t54 20t41 35.5t17.5 55v306q-1 30 -16 51.5t-38 35t-50 20.5t-52 9q-28 2 -56.5 1t-57.5 -6q-22 -3 -47 -9t-42 -22l-38 38q16 15 36.5 25t43.5 15.5t46 8t44 3.5q52 3 104 -2.5t97 -34.5q17 10 21.5 28.5t4.5 35.5h54q0 -27 -8.5 -54t-29.5 -46q17 -20 27.5 -45.5
t10.5 -51.5v-306z" />
    <glyph glyph-name="Icircumflex" unicode="&#xe2e;" horiz-adv-x="571" 
d="M511 162q0 -32 -14.5 -62t-37.5 -52q-24 -22 -54 -35t-62.5 -18.5t-66 -4t-63.5 7.5q-29 6 -56.5 20.5t-48.5 35.5t-34 48.5t-13 59.5v90q0 42 28.5 70.5t70.5 28.5h81v-54h-81q-20 0 -32 -12.5t-13 -32.5v-90q1 -33 18 -56t42.5 -36.5t56 -19t57.5 -5.5q26 0 55.5 6.5
t54 20t41 35.5t17.5 55v306q-1 30 -16 51.5t-38 35t-50 20.5t-52 9q-28 2 -56.5 1t-57.5 -6q-22 -3 -47 -9t-42 -22l-38 38q16 15 36.5 25t43.5 15.5t46 8t44 3.5q52 3 104 -2.5t97 -34.5q17 10 21.5 28.5t4.5 35.5h54q0 -27 -8.5 -54t-29.5 -46q17 -20 27.5 -45.5
t10.5 -51.5v-306z" />
    <glyph glyph-name="Idieresis" unicode="&#xcf;" horiz-adv-x="455" 
d="M375 520v-558q0 -31 -16 -59t-40 -46q-28 -20 -61 -28t-66 -8v54q20 0 42.5 4.5t41 14.5t31.5 26.5t14 41.5v450q-36 -40 -90 -54.5t-105 2.5q-25 9 -42.5 25.5t-27.5 38.5t-13.5 46.5t-0.5 49.5h54q-3 -21 -0.5 -43t13.5 -39q13 -20 35 -26.5t45 -5.5q50 2 84 34.5
t47 79.5h55z" />
    <glyph glyph-name="Idieresis" unicode="&#xe2f;" horiz-adv-x="455" 
d="M375 520v-558q0 -31 -16 -59t-40 -46q-28 -20 -61 -28t-66 -8v54q20 0 42.5 4.5t41 14.5t31.5 26.5t14 41.5v450q-36 -40 -90 -54.5t-105 2.5q-25 9 -42.5 25.5t-27.5 38.5t-13.5 46.5t-0.5 49.5h54q-3 -21 -0.5 -43t13.5 -39q13 -20 35 -26.5t45 -5.5q50 2 84 34.5
t47 79.5h55z" />
    <glyph glyph-name="Eth" unicode="&#xd0;" horiz-adv-x="337" 
d="M155 488q-5 1 -1.5 0.5t11.5 -2t17.5 -2.5t15.5 0h99v-54h-99q-45 0 -87 14.5t-71 49.5l42 34q14 -17 33 -26.5t40 -13.5zM155 173q-5 1 -1.5 0.5t11.5 -2t17.5 -2.5t15.5 0h99v-54h-99q-45 0 -87 14.5t-71 49.5l42 34q14 -17 33 -26.5t40 -13.5z" />
    <glyph glyph-name="Eth" unicode="&#xe30;" horiz-adv-x="337" 
d="M155 488q-5 1 -1.5 0.5t11.5 -2t17.5 -2.5t15.5 0h99v-54h-99q-45 0 -87 14.5t-71 49.5l42 34q14 -17 33 -26.5t40 -13.5zM155 173q-5 1 -1.5 0.5t11.5 -2t17.5 -2.5t15.5 0h99v-54h-99q-45 0 -87 14.5t-71 49.5l42 34q14 -17 33 -26.5t40 -13.5z" />
    <glyph glyph-name="Ntilde" unicode="&#xd1;" 
d="M-207 809q0 -20 13 -32.5t32 -12.5h222v-54h-222q-42 1 -70.5 29t-28.5 70v81h54v-81z" />
    <glyph glyph-name="Ntilde" unicode="&#xe31;" 
d="M-207 809q0 -20 13 -32.5t32 -12.5h222v-54h-222q-42 1 -70.5 29t-28.5 70v81h54v-81z" />
    <glyph glyph-name="Ograve" unicode="&#xd2;" horiz-adv-x="508" 
d="M428 0h-54v468q-1 28 -14.5 49t-34 35t-46 22t-49.5 10q-26 2 -54 1t-54 -5q-21 -3 -44.5 -9.5t-39.5 -22.5l-38 38q23 23 55.5 33t64.5 15q33 5 68 5.5t68 -4.5q32 -5 62.5 -18t55 -34.5t39.5 -50.5t15 -64v-468z" />
    <glyph glyph-name="Ograve" unicode="&#xe32;" horiz-adv-x="508" 
d="M428 0h-54v468q-1 28 -14.5 49t-34 35t-46 22t-49.5 10q-26 2 -54 1t-54 -5q-21 -3 -44.5 -9.5t-39.5 -22.5l-38 38q23 23 55.5 33t64.5 15q33 5 68 5.5t68 -4.5q32 -5 62.5 -18t55 -34.5t39.5 -50.5t15 -64v-468z" />
    <glyph glyph-name="Oacute" unicode="&#xd3;" horiz-adv-x="510" 
d="M426 497q3 -12 3.5 -19.5t0.5 -9.5v-468h-54v468q-1 28 -14.5 49t-34 35.5t-46 22t-49.5 9.5q-27 2 -54.5 1t-54.5 -5q-20 -3 -43.5 -9t-39.5 -22l-38 37q20 22 49 31.5t58 14.5q32 5 64 7t64 -1t62.5 -12.5t56 -27t44 -43t26.5 -58.5zM-80 849q15 -11 25 -26t13 -32
t-0.5 -35t-13.5 -33q-11 -16 -26 -25.5t-32 -13t-35 -0.5t-33 14q-15 10 -25 25.5t-13.5 32.5t-0.5 35t14 33q10 15 25.5 25t32.5 13.5t35 0t34 -13.5zM-90 756q9 20 0 35.5t-24.5 22t-32.5 2t-26 -24.5q-8 -20 0.5 -35.5t24.5 -22t33 -2t25 24.5z" />
    <glyph glyph-name="Oacute" unicode="&#xe33;" horiz-adv-x="510" 
d="M426 497q3 -12 3.5 -19.5t0.5 -9.5v-468h-54v468q-1 28 -14.5 49t-34 35.5t-46 22t-49.5 9.5q-27 2 -54.5 1t-54.5 -5q-20 -3 -43.5 -9t-39.5 -22l-38 37q20 22 49 31.5t58 14.5q32 5 64 7t64 -1t62.5 -12.5t56 -27t44 -43t26.5 -58.5zM-80 849q15 -11 25 -26t13 -32
t-0.5 -35t-13.5 -33q-11 -16 -26 -25.5t-32 -13t-35 -0.5t-33 14q-15 10 -25 25.5t-13.5 32.5t-0.5 35t14 33q10 15 25.5 25t32.5 13.5t35 0t34 -13.5zM-90 756q9 20 0 35.5t-24.5 22t-32.5 2t-26 -24.5q-8 -20 0.5 -35.5t24.5 -22t33 -2t25 24.5z" />
    <glyph glyph-name="Ocircumflex" unicode="&#xd4;" 
d="M-476 710v54h396v-54h-396z" />
    <glyph glyph-name="Ocircumflex" unicode="&#xe34;" 
d="M-476 710v54h396v-54h-396z" />
    <glyph glyph-name="Otilde" unicode="&#xd5;" 
d="M-80 890v-81q0 -42 -28.5 -70t-70.5 -29h-297v54h297q20 1 32.5 13t12.5 32v81h54z" />
    <glyph glyph-name="Otilde" unicode="&#xe35;" 
d="M-80 890v-81q0 -42 -28.5 -70t-70.5 -29h-297v54h297q20 1 32.5 13t12.5 32v81h54z" />
    <glyph glyph-name="Odieresis" unicode="&#xd6;" 
d="M-119 875q27 -18 34.5 -46t-0.5 -54.5t-30 -45.5t-54 -19h-308v54h225q-13 30 -4 58t30 46t50.5 21.5t56.5 -14.5zM-129 783q6 14 2 27.5t-13.5 22.5t-23 11t-26.5 -5t-18.5 -19.5t-4 -25t10 -23t23.5 -13.5q15 -4 29.5 3.5t20.5 21.5z" />
    <glyph glyph-name="Odieresis" unicode="&#xe36;" 
d="M-119 875q27 -18 34.5 -46t-0.5 -54.5t-30 -45.5t-54 -19h-308v54h225q-13 30 -4 58t30 46t50.5 21.5t56.5 -14.5zM-129 783q6 14 2 27.5t-13.5 22.5t-23 11t-26.5 -5t-18.5 -19.5t-4 -25t10 -23t23.5 -13.5q15 -4 29.5 3.5t20.5 21.5z" />
    <glyph glyph-name="multiply" unicode="&#xd7;" 
d="M-80 890v-81q0 -42 -28.5 -70t-70.5 -29h-297v54h186q20 1 32.5 13t12.5 32v81h52v-81q0 -11 -4.5 -24t-15.5 -21h34q20 1 32.5 13t12.5 32v81h54z" />
    <glyph glyph-name="multiply" unicode="&#xe37;" 
d="M-80 890v-81q0 -42 -28.5 -70t-70.5 -29h-297v54h186q20 1 32.5 13t12.5 32v81h52v-81q0 -11 -4.5 -24t-15.5 -21h34q20 1 32.5 13t12.5 32v81h54z" />
    <glyph glyph-name="Oslash" unicode="&#xd8;" 
d="M-80 -304h-51v99q-2 27 -19.5 43.5t-43.5 16.5v54q24 0 44.5 -8.5t36 -23.5t24.5 -36t9 -45v-100z" />
    <glyph glyph-name="Oslash" unicode="&#xe38;" 
d="M-80 -304h-51v99q-2 27 -19.5 43.5t-43.5 16.5v54q24 0 44.5 -8.5t36 -23.5t24.5 -36t9 -45v-100z" />
    <glyph glyph-name="Ugrave" unicode="&#xd9;" 
d="M-131 -91h51v-135q-1 -28 -14.5 -47t-34.5 -28t-45 -9t-44.5 9.5t-34.5 28t-14 46.5v135h51v-134q1 -13 10.5 -21t22 -11t25 0.5t20.5 12.5q7 9 7 21.5v23.5v108z" />
    <glyph glyph-name="Ugrave" unicode="&#xe39;" 
d="M-131 -91h51v-135q-1 -28 -14.5 -47t-34.5 -28t-45 -9t-44.5 9.5t-34.5 28t-14 46.5v135h51v-134q1 -13 10.5 -21t22 -11t25 0.5t20.5 12.5q7 9 7 21.5v23.5v108z" />
    <glyph glyph-name="Uacute" unicode="&#xda;" 
d="M-60 -114q0 -15 -10.5 -25.5t-25.5 -10.5t-25.5 10.5t-10.5 25.5t10.5 25.5t25.5 10.5t25.5 -10.5t10.5 -25.5z" />
    <glyph glyph-name="Uacute" unicode="&#xe3a;" 
d="M-60 -114q0 -15 -10.5 -25.5t-25.5 -10.5t-25.5 10.5t-10.5 25.5t10.5 25.5t25.5 10.5t25.5 -10.5t10.5 -25.5z" />
    <glyph glyph-name="Ucircumflex" unicode="&#xdb;" 
 />
    <glyph glyph-name="Ucircumflex" unicode="&#xe3b;" 
 />
    <glyph glyph-name="Udieresis" unicode="&#xdc;" 
 />
    <glyph glyph-name="Udieresis" unicode="&#xe3c;" 
 />
    <glyph glyph-name="Yacute" unicode="&#xdd;" 
 />
    <glyph glyph-name="Yacute" unicode="&#xe3d;" 
 />
    <glyph glyph-name="germandbls" unicode="&#xdf;" horiz-adv-x="618" 
d="M551 282q9 -43 5.5 -90t-23.5 -87q-18 -35 -52 -58.5t-75 -24.5h-76v-84h-54v84h-196v740h196v77h54v-77h50q30 0 55 -12t43.5 -32.5t31 -46t17.5 -52.5q5 -28 5 -58t-6.5 -59.5t-20 -55.5t-36.5 -45q34 -18 54 -50t28 -69zM396 706q-7 2 -11 2h-5h-246v-288h246
q25 1 43 13.5t30 31t17.5 41.5t6.5 44q1 23 -2 47.5t-12 46.5t-25 38.5t-42 23.5zM406 76q22 1 38.5 12t28 26t17.5 30.5t8 24.5q5 26 4.5 59.5t-10.5 63.5t-31 50.5t-56 21.5h-271v-288h272z" />
    <glyph glyph-name="germandbls" unicode="&#xe3f;" horiz-adv-x="618" 
d="M551 282q9 -43 5.5 -90t-23.5 -87q-18 -35 -52 -58.5t-75 -24.5h-76v-84h-54v84h-196v740h196v77h54v-77h50q30 0 55 -12t43.5 -32.5t31 -46t17.5 -52.5q5 -28 5 -58t-6.5 -59.5t-20 -55.5t-36.5 -45q34 -18 54 -50t28 -69zM396 706q-7 2 -11 2h-5h-246v-288h246
q25 1 43 13.5t30 31t17.5 41.5t6.5 44q1 23 -2 47.5t-12 46.5t-25 38.5t-42 23.5zM406 76q22 1 38.5 12t28 26t17.5 30.5t8 24.5q5 26 4.5 59.5t-10.5 63.5t-31 50.5t-56 21.5h-271v-288h272z" />
    <glyph glyph-name="agrave" unicode="&#xe0;" horiz-adv-x="260" 
d="M162 56q4 -1 8 -1.5t9 -0.5h81v-54h-81q-42 0 -70.5 28.5t-28.5 70.5v531h54v-530q0 -14 7 -26.5t21 -17.5z" />
    <glyph glyph-name="agrave" unicode="&#xe40;" horiz-adv-x="260" 
d="M162 56q4 -1 8 -1.5t9 -0.5h81v-54h-81q-42 0 -70.5 28.5t-28.5 70.5v531h54v-530q0 -14 7 -26.5t21 -17.5z" />
    <glyph glyph-name="aacute" unicode="&#xe1;" horiz-adv-x="473" 
d="M162 56q4 -1 8 -1.5t9 -0.5h81v-54h-81q-42 0 -70.5 28.5t-28.5 70.5v531h54v-530q0 -14 7 -26.5t21 -17.5zM375 56q4 -1 8 -1.5t9 -0.5h81v-54h-81q-42 0 -70.5 28.5t-28.5 70.5v531h54v-530q0 -14 7 -26.5t21 -17.5z" />
    <glyph glyph-name="aacute" unicode="&#xe41;" horiz-adv-x="473" 
d="M162 56q4 -1 8 -1.5t9 -0.5h81v-54h-81q-42 0 -70.5 28.5t-28.5 70.5v531h54v-530q0 -14 7 -26.5t21 -17.5zM375 56q4 -1 8 -1.5t9 -0.5h81v-54h-81q-42 0 -70.5 28.5t-28.5 70.5v531h54v-530q0 -14 7 -26.5t21 -17.5z" />
    <glyph glyph-name="acircumflex" unicode="&#xe2;" horiz-adv-x="327" 
d="M209 56q4 -1 8 -1.5t9 -0.5h81v-54h-81q-42 0 -70.5 28.5t-28.5 70.5v413q-1 33 -14 60t-31 52t-36.5 50t-29.5 53q-8 20 -13 41.5t0 43.5q6 34 29.5 56t58.5 22h216v-54h-216q-19 0 -27.5 -14t-8.5 -31q1 -21 8.5 -39.5t18.5 -35.5t23.5 -33t24.5 -32q21 -29 35.5 -65.5
t15.5 -73.5v-412q0 -14 7 -26.5t21 -17.5z" />
    <glyph glyph-name="acircumflex" unicode="&#xe42;" horiz-adv-x="327" 
d="M209 56q4 -1 8 -1.5t9 -0.5h81v-54h-81q-42 0 -70.5 28.5t-28.5 70.5v413q-1 33 -14 60t-31 52t-36.5 50t-29.5 53q-8 20 -13 41.5t0 43.5q6 34 29.5 56t58.5 22h216v-54h-216q-19 0 -27.5 -14t-8.5 -31q1 -21 8.5 -39.5t18.5 -35.5t23.5 -33t24.5 -32q21 -29 35.5 -65.5
t15.5 -73.5v-412q0 -14 7 -26.5t21 -17.5z" />
    <glyph glyph-name="atilde" unicode="&#xe3;" horiz-adv-x="317" 
d="M199 56q4 -1 8 -1.5t9 -0.5h81v-54h-81q-42 0 -70.5 28.5t-28.5 70.5v388q0 45 21 86.5t50 73.5q9 9 18.5 20.5t17.5 24.5t13 26t5 26q0 26 -14 47.5t-36 34.5t-47.5 15t-47.5 -11q-23 -13 -34.5 -35.5t-12 -47.5t11.5 -48t37 -36l-31 -39q-26 16 -44.5 43.5t-22.5 62.5
q-3 31 6.5 59t28 50t45 35.5t57.5 15.5q31 1 58.5 -9.5t48.5 -30.5t33.5 -47t12.5 -58q0 -37 -20.5 -70.5t-43.5 -60.5q-22 -26 -39 -59t-17 -68v-387q0 -14 7 -26.5t21 -17.5z" />
    <glyph glyph-name="atilde" unicode="&#xe43;" horiz-adv-x="317" 
d="M199 56q4 -1 8 -1.5t9 -0.5h81v-54h-81q-42 0 -70.5 28.5t-28.5 70.5v388q0 45 21 86.5t50 73.5q9 9 18.5 20.5t17.5 24.5t13 26t5 26q0 26 -14 47.5t-36 34.5t-47.5 15t-47.5 -11q-23 -13 -34.5 -35.5t-12 -47.5t11.5 -48t37 -36l-31 -39q-26 16 -44.5 43.5t-22.5 62.5
q-3 31 6.5 59t28 50t45 35.5t57.5 15.5q31 1 58.5 -9.5t48.5 -30.5t33.5 -47t12.5 -58q0 -37 -20.5 -70.5t-43.5 -60.5q-22 -26 -39 -59t-17 -68v-387q0 -14 7 -26.5t21 -17.5z" />
    <glyph glyph-name="adieresis" unicode="&#xe4;" horiz-adv-x="318" 
d="M200 56q4 -1 8 -1.5t9 -0.5h81v-54h-81q-42 0 -70.5 28.5t-28.5 70.5v413q0 39 16.5 77.5t39.5 68.5q12 15 24 30.5t22 31.5t16.5 33.5t7.5 37.5q-1 13 -6.5 27t-19.5 17l-98 -98l-125 125l38 39l87 -97l77 86q42 0 66.5 -21.5t31.5 -53.5q6 -30 -0.5 -56.5t-20 -50.5
t-31 -47t-33.5 -46.5t-27 -49t-11 -53.5v-412q0 -14 7 -26.5t21 -17.5z" />
    <glyph glyph-name="adieresis" unicode="&#xe44;" horiz-adv-x="318" 
d="M200 56q4 -1 8 -1.5t9 -0.5h81v-54h-81q-42 0 -70.5 28.5t-28.5 70.5v413q0 39 16.5 77.5t39.5 68.5q12 15 24 30.5t22 31.5t16.5 33.5t7.5 37.5q-1 13 -6.5 27t-19.5 17l-98 -98l-125 125l38 39l87 -97l77 86q42 0 66.5 -21.5t31.5 -53.5q6 -30 -0.5 -56.5t-20 -50.5
t-31 -47t-33.5 -46.5t-27 -49t-11 -53.5v-412q0 -14 7 -26.5t21 -17.5z" />
    <glyph glyph-name="aring" unicode="&#xe5;" horiz-adv-x="528" 
d="M448 -180h-54v648q-1 28 -14.5 49t-34 35t-46 22t-49.5 10q-26 2 -54 1t-54 -5q-21 -3 -44.5 -9.5t-39.5 -22.5l-38 38q23 23 55.5 33t64.5 15q33 5 68 5.5t68 -4.5q32 -5 62.5 -18t55 -34.5t39.5 -50.5t15 -64v-648z" />
    <glyph glyph-name="aring" unicode="&#xe45;" horiz-adv-x="528" 
d="M448 -180h-54v648q-1 28 -14.5 49t-34 35t-46 22t-49.5 10q-26 2 -54 1t-54 -5q-21 -3 -44.5 -9.5t-39.5 -22.5l-38 38q23 23 55.5 33t64.5 15q33 5 68 5.5t68 -4.5q32 -5 62.5 -18t55 -34.5t39.5 -50.5t15 -64v-648z" />
    <glyph glyph-name="ae" unicode="&#xe6;" horiz-adv-x="433" 
d="M233 639q32 0 55 -13t37.5 -33.5t21 -46t6.5 -49.5v-677h-54v675q0 12 -1.5 26t-6.5 27.5t-14 23t-23 12.5l-69 -69l-71 71q-15 -3 -23.5 -15.5t-12 -28.5t-3.5 -32.5t1 -28.5q0 -4 1 -8t1 -8t1 -6l-54 -9l-3 25q-3 26 1 55t16.5 53t36 40t59.5 16l50 -58z" />
    <glyph glyph-name="ae" unicode="&#xe46;" horiz-adv-x="433" 
d="M233 639q32 0 55 -13t37.5 -33.5t21 -46t6.5 -49.5v-677h-54v675q0 12 -1.5 26t-6.5 27.5t-14 23t-23 12.5l-69 -69l-71 71q-15 -3 -23.5 -15.5t-12 -28.5t-3.5 -32.5t1 -28.5q0 -4 1 -8t1 -8t1 -6l-54 -9l-3 25q-3 26 1 55t16.5 53t36 40t59.5 16l50 -58z" />
    <glyph glyph-name="ccedilla" unicode="&#xe7;" 
d="M-122 756h60v-46h-70q-9 0 -16 7l-60 60l-62 -63q-10 -9 -26 -7t-27 4q-31 6 -54 26q-20 18 -29 45t-6 54q7 38 31.5 64t58.5 39q18 8 36.5 11t38.5 5q17 1 35 1.5t35 -3.5q26 -5 53 2t47 23l29 -36q-29 -23 -65.5 -31.5t-71.5 -2.5q-24 2 -53 1t-56 -8.5t-47 -24
t-25 -46.5q-2 -34 18 -54t52 -22l71 71q7 7 16.5 7t16.5 -6z" />
    <glyph glyph-name="ccedilla" unicode="&#xe47;" 
d="M-122 756h60v-46h-70q-9 0 -16 7l-60 60l-62 -63q-10 -9 -26 -7t-27 4q-31 6 -54 26q-20 18 -29 45t-6 54q7 38 31.5 64t58.5 39q18 8 36.5 11t38.5 5q17 1 35 1.5t35 -3.5q26 -5 53 2t47 23l29 -36q-29 -23 -65.5 -31.5t-71.5 -2.5q-24 2 -53 1t-56 -8.5t-47 -24
t-25 -46.5q-2 -34 18 -54t52 -22l71 71q7 7 16.5 7t16.5 -6z" />
    <glyph glyph-name="egrave" unicode="&#xe8;" 
d="M-126 939v181h46v-181h-46z" />
    <glyph glyph-name="egrave" unicode="&#xe48;" 
d="M-126 939v181h46v-181h-46z" />
    <glyph glyph-name="eacute" unicode="&#xe9;" 
d="M-152 986q5 -1 6.5 -1h2.5h217v-46h-217q-41 1 -68 28t-27 67v31h-70v46h93q9 0 16 -6.5t7 -16.5v-54q0 -40 40 -48z" />
    <glyph glyph-name="eacute" unicode="&#xe49;" 
d="M-152 986q5 -1 6.5 -1h2.5h217v-46h-217q-41 1 -68 28t-27 67v31h-70v46h93q9 0 16 -6.5t7 -16.5v-54q0 -40 40 -48z" />
    <glyph glyph-name="ecircumflex" unicode="&#xea;" 
d="M-23 1008q1 -7 1 -12t1 -10h96v-46h-119q-10 0 -16.5 7t-6.5 16q0 18 -1.5 35t-6.5 31.5t-14 24t-22 11.5l-48 -47q-7 -7 -16.5 -7t-16.5 7l-48 49q-17 -3 -26 -17.5t-12 -33t-2 -37.5t4 -32l-45 -9q-1 6 -1.5 11.5t-1.5 11.5q-3 25 0 51.5t14 49.5q6 13 15 24t22 18
q11 6 29 10t29 -7l40 -40l38 38q8 7 19 7.5t22.5 -3.5t22 -10.5t16.5 -12.5q16 -15 23.5 -36t10.5 -42z" />
    <glyph glyph-name="ecircumflex" unicode="&#xe4a;" 
d="M-23 1008q1 -7 1 -12t1 -10h96v-46h-119q-10 0 -16.5 7t-6.5 16q0 18 -1.5 35t-6.5 31.5t-14 24t-22 11.5l-48 -47q-7 -7 -16.5 -7t-16.5 7l-48 49q-17 -3 -26 -17.5t-12 -33t-2 -37.5t4 -32l-45 -9q-1 6 -1.5 11.5t-1.5 11.5q-3 25 0 51.5t14 49.5q6 13 15 24t22 18
q11 6 29 10t29 -7l40 -40l38 38q8 7 19 7.5t22.5 -3.5t22 -10.5t16.5 -12.5q16 -15 23.5 -36t10.5 -42z" />
    <glyph glyph-name="edieresis" unicode="&#xeb;" 
d="M-80 1120v-67h68v-46h-68v-68h-46v68h-67v46h67v67h46z" />
    <glyph glyph-name="edieresis" unicode="&#xe4b;" 
d="M-80 1120v-67h68v-46h-68v-68h-46v68h-67v46h67v67h46z" />
    <glyph glyph-name="igrave" unicode="&#xec;" 
d="M-131 999q-24 -5 -29.5 -22.5t-5.5 -38.5v-64h-54v81q0 29 15.5 53.5t41.5 36.5q14 7 28.5 8t29.5 1h206v-54h-222q-6 0 -10 -1z" />
    <glyph glyph-name="igrave" unicode="&#xe4c;" 
d="M-131 999q-24 -5 -29.5 -22.5t-5.5 -38.5v-64h-54v81q0 29 15.5 53.5t41.5 36.5q14 7 28.5 8t29.5 1h206v-54h-222q-6 0 -10 -1z" />
    <glyph glyph-name="iacute" unicode="&#xed;" 
d="M-30 849q15 -11 25 -26t13 -32t-0.5 -35t-13.5 -33q-11 -16 -26 -25.5t-32 -13t-35 -0.5t-33 14q-15 10 -25 25.5t-13.5 32.5t-0.5 35t14 33q10 15 25.5 25t32.5 13.5t35 0t34 -13.5zM-40 756q9 20 0 35.5t-24.5 22t-32.5 2t-26 -24.5q-8 -20 0.5 -35.5t24.5 -22t33 -2
t25 24.5z" />
    <glyph glyph-name="iacute" unicode="&#xe4d;" 
d="M-30 849q15 -11 25 -26t13 -32t-0.5 -35t-13.5 -33q-11 -16 -26 -25.5t-32 -13t-35 -0.5t-33 14q-15 10 -25 25.5t-13.5 32.5t-0.5 35t14 33q10 15 25.5 25t32.5 13.5t35 0t34 -13.5zM-40 756q9 20 0 35.5t-24.5 22t-32.5 2t-26 -24.5q-8 -20 0.5 -35.5t24.5 -22t33 -2
t25 24.5z" />
    <glyph glyph-name="icircumflex" unicode="&#xee;" 
 />
    <glyph glyph-name="icircumflex" unicode="&#xe4e;" 
 />
    <glyph glyph-name="idieresis" unicode="&#xef;" horiz-adv-x="412" 
d="M242 230q0 -14 -10.5 -25t-25.5 -11t-25.5 11t-10.5 25q0 15 10.5 25.5t25.5 10.5t25.5 -10.5t10.5 -25.5zM206 377q30 0 56.5 -11.5t46.5 -31.5t31.5 -46.5t11.5 -56.5t-11.5 -57t-31.5 -46.5t-46.5 -31t-56.5 -11.5t-57 11.5t-46.5 31t-31 46.5t-11.5 57t11.5 56.5
t31 46.5t46.5 31.5t57 11.5zM205 133q41 0 69.5 28.5t28.5 69.5t-28.5 69.5t-69.5 28.5t-69.5 -28.5t-28.5 -69.5t28.5 -69.5t69.5 -28.5z" />
    <glyph glyph-name="idieresis" unicode="&#xe4f;" horiz-adv-x="412" 
d="M242 230q0 -14 -10.5 -25t-25.5 -11t-25.5 11t-10.5 25q0 15 10.5 25.5t25.5 10.5t25.5 -10.5t10.5 -25.5zM206 377q30 0 56.5 -11.5t46.5 -31.5t31.5 -46.5t11.5 -56.5t-11.5 -57t-31.5 -46.5t-46.5 -31t-56.5 -11.5t-57 11.5t-46.5 31t-31 46.5t-11.5 57t11.5 56.5
t31 46.5t46.5 31.5t57 11.5zM205 133q41 0 69.5 28.5t28.5 69.5t-28.5 69.5t-69.5 28.5t-69.5 -28.5t-28.5 -69.5t28.5 -69.5t69.5 -28.5z" />
    <glyph glyph-name="eth" unicode="&#xf0;" horiz-adv-x="610" 
d="M526 391q4 -17 4 -27v-203q-2 -34 -17.5 -64.5t-40.5 -52.5q-24 -20 -53.5 -32t-61.5 -16.5t-64.5 -3t-62.5 7.5q-29 6 -56 20.5t-48 35.5t-33.5 48t-12.5 59v199q0 29 13 57.5t33 49.5q21 22 48.5 36t57.5 20.5t61.5 7t60.5 -3.5q30 -4 57.5 -14.5t51 -27.5t40 -41
t23.5 -55zM461 115q6 11 10.5 23.5t4.5 25.5v197q0 28 -16.5 52.5t-39.5 38.5q-26 16 -56 21t-59 5q-27 0 -57 -6t-55 -19.5t-41.5 -36t-17.5 -55.5v-197q0 -28 13 -48.5t33 -35t44.5 -22.5t48.5 -10q25 -2 52.5 -1t53 8t47 21.5t35.5 38.5z" />
    <glyph glyph-name="eth" unicode="&#xe50;" horiz-adv-x="610" 
d="M526 391q4 -17 4 -27v-203q-2 -34 -17.5 -64.5t-40.5 -52.5q-24 -20 -53.5 -32t-61.5 -16.5t-64.5 -3t-62.5 7.5q-29 6 -56 20.5t-48 35.5t-33.5 48t-12.5 59v199q0 29 13 57.5t33 49.5q21 22 48.5 36t57.5 20.5t61.5 7t60.5 -3.5q30 -4 57.5 -14.5t51 -27.5t40 -41
t23.5 -55zM461 115q6 11 10.5 23.5t4.5 25.5v197q0 28 -16.5 52.5t-39.5 38.5q-26 16 -56 21t-59 5q-27 0 -57 -6t-55 -19.5t-41.5 -36t-17.5 -55.5v-197q0 -28 13 -48.5t33 -35t44.5 -22.5t48.5 -10q25 -2 52.5 -1t53 8t47 21.5t35.5 38.5z" />
    <glyph glyph-name="ntilde" unicode="&#xf1;" horiz-adv-x="562" 
d="M506 388q4 -17 4 -27v-202q-2 -47 -30.5 -85t-70.5 -58q-44 -21 -95 -24.5t-98 6.5l10 53q36 -8 75.5 -6.5t74.5 15.5q32 13 56 40.5t24 62.5v195q0 28 -16.5 52.5t-39.5 38.5q-26 16 -56 21t-59 5q-27 0 -57 -6t-55 -19.5t-41.5 -36t-17.5 -55.5v-39q2 -26 17.5 -42
t37.5 -25.5t46.5 -13t44.5 -3.5v-54q-35 0 -71 7t-66 27q-25 17 -43.5 43.5t-19.5 58.5v42q0 29 13 57.5t33 49.5q21 22 48.5 36t57.5 20.5t61.5 7t60.5 -3.5q30 -4 57.5 -14.5t51 -27.5t40 -41t23.5 -55z" />
    <glyph glyph-name="ntilde" unicode="&#xe51;" horiz-adv-x="562" 
d="M506 388q4 -17 4 -27v-202q-2 -47 -30.5 -85t-70.5 -58q-44 -21 -95 -24.5t-98 6.5l10 53q36 -8 75.5 -6.5t74.5 15.5q32 13 56 40.5t24 62.5v195q0 28 -16.5 52.5t-39.5 38.5q-26 16 -56 21t-59 5q-27 0 -57 -6t-55 -19.5t-41.5 -36t-17.5 -55.5v-39q2 -26 17.5 -42
t37.5 -25.5t46.5 -13t44.5 -3.5v-54q-35 0 -71 7t-66 27q-25 17 -43.5 43.5t-19.5 58.5v42q0 29 13 57.5t33 49.5q21 22 48.5 36t57.5 20.5t61.5 7t60.5 -3.5q30 -4 57.5 -14.5t51 -27.5t40 -41t23.5 -55z" />
    <glyph glyph-name="ograve" unicode="&#xf2;" horiz-adv-x="638" 
d="M556 403q1 -8 1.5 -17t0.5 -18v-220q-1 -32 -18 -60.5t-42 -47.5q-25 -20 -56 -31t-64 -15t-66.5 -2.5t-63.5 7.5q-28 5 -57 17t-53 30.5t-40 43.5t-18 57v1v431h54v-429q3 -27 23 -47.5t43 -31.5q28 -14 58 -18.5t60 -5.5t60.5 2.5t57.5 15.5q25 11 45.5 33t22.5 51v221
q0 13 -2 30t-8 32.5t-17 27t-27 14.5l-76 -78l-78 78q-18 -3 -28 -17t-14.5 -32t-5 -37.5t1.5 -33.5l4 -26l-53 -9l-5 28q-3 28 1 60t17.5 59t38.5 45t65 18l56 -64l55 64q30 0 52.5 -11t38 -28.5t24.5 -40t12 -46.5z" />
    <glyph glyph-name="ograve" unicode="&#xe52;" horiz-adv-x="638" 
d="M556 403q1 -8 1.5 -17t0.5 -18v-220q-1 -32 -18 -60.5t-42 -47.5q-25 -20 -56 -31t-64 -15t-66.5 -2.5t-63.5 7.5q-28 5 -57 17t-53 30.5t-40 43.5t-18 57v1v431h54v-429q3 -27 23 -47.5t43 -31.5q28 -14 58 -18.5t60 -5.5t60.5 2.5t57.5 15.5q25 11 45.5 33t22.5 51v221
q0 13 -2 30t-8 32.5t-17 27t-27 14.5l-76 -78l-78 78q-18 -3 -28 -17t-14.5 -32t-5 -37.5t1.5 -33.5l4 -26l-53 -9l-5 28q-3 28 1 60t17.5 59t38.5 45t65 18l56 -64l55 64q30 0 52.5 -11t38 -28.5t24.5 -40t12 -46.5z" />
    <glyph glyph-name="oacute" unicode="&#xf3;" horiz-adv-x="610" 
d="M528 392q1 -4 1.5 -8.5t0.5 -10.5v-373h-54v373q-1 29 -18 53.5t-41 38.5l-112 -103l-113 103q-24 -14 -40.5 -38.5t-17.5 -53.5v-245q1 -30 19 -48t43.5 -26t54 -9t51.5 4l10 -53q-38 -8 -81 -5t-78 22q-31 17 -52 48t-21 67v245q0 50 31 90t75 60l16 7l103 -104
l103 104l16 -7q41 -18 68.5 -52t35.5 -79z" />
    <glyph glyph-name="oacute" unicode="&#xe53;" horiz-adv-x="610" 
d="M528 392q1 -4 1.5 -8.5t0.5 -10.5v-373h-54v373q-1 29 -18 53.5t-41 38.5l-112 -103l-113 103q-24 -14 -40.5 -38.5t-17.5 -53.5v-245q1 -30 19 -48t43.5 -26t54 -9t51.5 4l10 -53q-38 -8 -81 -5t-78 22q-31 17 -52 48t-21 67v245q0 50 31 90t75 60l16 7l103 -104
l103 104l16 -7q41 -18 68.5 -52t35.5 -79z" />
    <glyph glyph-name="ocircumflex" unicode="&#xf4;" horiz-adv-x="644" 
d="M137 376q-2 -8 -2.5 -13t-0.5 -6v-186q0 -33 17 -55.5t42 -36t55 -19.5t57 -6h83q-25 22 -39 51.5t-16 64.5v11q1 31 19 57.5t43 43.5q30 20 66 27.5t72 7.5v-54q-20 0 -44.5 -3.5t-46.5 -13t-37.5 -26t-17.5 -41.5v-8q0 -33 17 -55.5t42 -36t55 -19.5t57 -6v-54h-253
q-40 0 -80 8.5t-73 32.5q-31 21 -51.5 56t-20.5 73v188q0 46 27.5 85t68.5 59q45 22 97.5 26t100.5 -6q43 -9 82 -8q24 0 50 4t46 19l32 -43q-29 -22 -64.5 -28.5t-70.5 -5.5q-27 0 -53.5 4.5t-52.5 7.5q-29 3 -62 1.5t-62 -12t-51.5 -31t-30.5 -54.5z" />
    <glyph glyph-name="ocircumflex" unicode="&#xe54;" horiz-adv-x="644" 
d="M137 376q-2 -8 -2.5 -13t-0.5 -6v-186q0 -33 17 -55.5t42 -36t55 -19.5t57 -6h83q-25 22 -39 51.5t-16 64.5v11q1 31 19 57.5t43 43.5q30 20 66 27.5t72 7.5v-54q-20 0 -44.5 -3.5t-46.5 -13t-37.5 -26t-17.5 -41.5v-8q0 -33 17 -55.5t42 -36t55 -19.5t57 -6v-54h-253
q-40 0 -80 8.5t-73 32.5q-31 21 -51.5 56t-20.5 73v188q0 46 27.5 85t68.5 59q45 22 97.5 26t100.5 -6q43 -9 82 -8q24 0 50 4t46 19l32 -43q-29 -22 -64.5 -28.5t-70.5 -5.5q-27 0 -53.5 4.5t-52.5 7.5q-29 3 -62 1.5t-62 -12t-51.5 -31t-30.5 -54.5z" />
    <glyph glyph-name="otilde" unicode="&#xf5;" horiz-adv-x="644" 
d="M137 378q-2 -8 -2.5 -13t-0.5 -6v-188q0 -33 17 -55.5t42 -36t55 -19.5t57 -6h83q-25 22 -39 51.5t-16 64.5v11q1 31 19 57.5t43 43.5q30 20 66 27.5t72 7.5v-54q-20 0 -44.5 -3.5t-46.5 -13t-37.5 -26t-17.5 -41.5v-8q0 -33 17 -55.5t42 -36t55 -19.5t57 -6v-54h-253
q-40 0 -80 8.5t-73 32.5q-31 21 -51.5 56t-20.5 73v190q0 30 12 56.5t31.5 47.5t45 35.5t53.5 21.5q-16 22 -17.5 47t9 46.5t31.5 36t48 15.5t48 -12.5t33 -34.5t12 -46.5t-15 -48.5h3q43 -9 82 -8q24 0 50 4t46 19l32 -43q-29 -22 -64.5 -28.5t-70.5 -5.5q-27 0 -53.5 4.5
t-52.5 7.5q-29 3 -62 1.5t-62 -12t-51.5 -31t-30.5 -54.5zM249 595q-5 -12 -4 -24t7.5 -22t16.5 -16.5t23 -7.5h8q14 1 24.5 9.5t16 20.5t4.5 25.5t-10 25.5q-9 11 -21 15.5t-25 3t-23.5 -9t-16.5 -20.5z" />
    <glyph glyph-name="otilde" unicode="&#xe55;" horiz-adv-x="644" 
d="M137 378q-2 -8 -2.5 -13t-0.5 -6v-188q0 -33 17 -55.5t42 -36t55 -19.5t57 -6h83q-25 22 -39 51.5t-16 64.5v11q1 31 19 57.5t43 43.5q30 20 66 27.5t72 7.5v-54q-20 0 -44.5 -3.5t-46.5 -13t-37.5 -26t-17.5 -41.5v-8q0 -33 17 -55.5t42 -36t55 -19.5t57 -6v-54h-253
q-40 0 -80 8.5t-73 32.5q-31 21 -51.5 56t-20.5 73v190q0 30 12 56.5t31.5 47.5t45 35.5t53.5 21.5q-16 22 -17.5 47t9 46.5t31.5 36t48 15.5t48 -12.5t33 -34.5t12 -46.5t-15 -48.5h3q43 -9 82 -8q24 0 50 4t46 19l32 -43q-29 -22 -64.5 -28.5t-70.5 -5.5q-27 0 -53.5 4.5
t-52.5 7.5q-29 3 -62 1.5t-62 -12t-51.5 -31t-30.5 -54.5zM249 595q-5 -12 -4 -24t7.5 -22t16.5 -16.5t23 -7.5h8q14 1 24.5 9.5t16 20.5t4.5 25.5t-10 25.5q-9 11 -21 15.5t-25 3t-23.5 -9t-16.5 -20.5z" />
    <glyph glyph-name="odieresis" unicode="&#xf6;" horiz-adv-x="634" 
d="M534 435q10 -16 14.5 -34.5t5.5 -37.5v-202q0 -18 -5.5 -36.5t-14.5 -34.5q-15 -30 -40 -50t-55 -31.5t-63 -15.5t-64 -2q-38 2 -74 13t-65.5 31.5t-48 52t-20.5 73.5v11q0 19 7.5 37.5t20.5 33.5t29 26.5t33 18.5q26 12 53.5 16t56.5 4v-54q-20 0 -39.5 -2t-38.5 -9
q-24 -9 -45 -27t-23 -46v-8q0 -35 18 -57.5t45 -36t58.5 -19t59.5 -4.5q27 0 53.5 6t48.5 19t37.5 33.5t20.5 49.5q1 4 1 31v60.5v66v48.5q0 33 -16.5 55t-41.5 36t-54.5 20.5t-55.5 7.5q-28 0 -49 -3.5t-40 -13.5t-37 -27.5t-40 -45.5l-106 106l38 38l65 -71q12 17 30.5 30
t39.5 22t44 14t44 5q30 0 61 -5t59 -16.5t52 -30t41 -45.5z" />
    <glyph glyph-name="odieresis" unicode="&#xe56;" horiz-adv-x="634" 
d="M534 435q10 -16 14.5 -34.5t5.5 -37.5v-202q0 -18 -5.5 -36.5t-14.5 -34.5q-15 -30 -40 -50t-55 -31.5t-63 -15.5t-64 -2q-38 2 -74 13t-65.5 31.5t-48 52t-20.5 73.5v11q0 19 7.5 37.5t20.5 33.5t29 26.5t33 18.5q26 12 53.5 16t56.5 4v-54q-20 0 -39.5 -2t-38.5 -9
q-24 -9 -45 -27t-23 -46v-8q0 -35 18 -57.5t45 -36t58.5 -19t59.5 -4.5q27 0 53.5 6t48.5 19t37.5 33.5t20.5 49.5q1 4 1 31v60.5v66v48.5q0 33 -16.5 55t-41.5 36t-54.5 20.5t-55.5 7.5q-28 0 -49 -3.5t-40 -13.5t-37 -27.5t-40 -45.5l-106 106l38 38l65 -71q12 17 30.5 30
t39.5 22t44 14t44 5q30 0 61 -5t59 -16.5t52 -30t41 -45.5z" />
    <glyph glyph-name="divide" unicode="&#xf7;" horiz-adv-x="780" 
d="M700 162q0 -35 -15 -68t-41 -56q-29 -26 -69 -36.5t-99 -10.5v382q-1 29 -18 53.5t-41 38.5l-112 -103l-113 103q-23 -14 -40 -38.5t-18 -53.5v-245q1 -30 19 -48t43.5 -26t54 -9t51.5 4l10 -53q-38 -8 -81 -5t-78 22q-31 17 -52 48t-21 67v245q0 50 31 90t75 60l16 7
l103 -104l103 104l16 -7q44 -20 75 -60t31 -90v-327q23 3 44 12t37 24t25.5 35t9.5 45v360h54v-360z" />
    <glyph glyph-name="divide" unicode="&#xe57;" horiz-adv-x="780" 
d="M700 162q0 -35 -15 -68t-41 -56q-29 -26 -69 -36.5t-99 -10.5v382q-1 29 -18 53.5t-41 38.5l-112 -103l-113 103q-23 -14 -40 -38.5t-18 -53.5v-245q1 -30 19 -48t43.5 -26t54 -9t51.5 4l10 -53q-38 -8 -81 -5t-78 22q-31 17 -52 48t-21 67v245q0 50 31 90t75 60l16 7
l103 -104l103 104l16 -7q44 -20 75 -60t31 -90v-327q23 3 44 12t37 24t25.5 35t9.5 45v360h54v-360z" />
    <glyph glyph-name="oslash" unicode="&#xf8;" horiz-adv-x="644" 
d="M137 376q-2 -8 -2.5 -13t-0.5 -6v-194q1 -34 20 -62.5t47 -45.5l124 114l123 -114q28 16 47.5 44.5t20.5 60.5v7q-1 27 -14.5 45t-34 29.5t-44.5 16t-46 4.5v54q35 0 69.5 -8t63.5 -29q26 -20 42.5 -49.5t17.5 -61.5v-8q0 -27 -9 -51.5t-25 -45.5t-36.5 -38t-44.5 -27
l-16 -7l-114 114l-114 -114l-16 7q-24 10 -45 27t-36.5 39t-24.5 47t-9 52v195q0 46 27.5 85t68.5 59q45 22 97.5 26t101.5 -6q20 -5 40.5 -6.5t40.5 -1.5q24 0 50 4.5t46 18.5l32 -43q-29 -21 -64.5 -28t-70.5 -6q-27 0 -53.5 4.5t-52.5 7.5q-29 3 -62 1.5t-62 -12
t-51.5 -31t-30.5 -54.5z" />
    <glyph glyph-name="oslash" unicode="&#xe58;" horiz-adv-x="644" 
d="M137 376q-2 -8 -2.5 -13t-0.5 -6v-194q1 -34 20 -62.5t47 -45.5l124 114l123 -114q28 16 47.5 44.5t20.5 60.5v7q-1 27 -14.5 45t-34 29.5t-44.5 16t-46 4.5v54q35 0 69.5 -8t63.5 -29q26 -20 42.5 -49.5t17.5 -61.5v-8q0 -27 -9 -51.5t-25 -45.5t-36.5 -38t-44.5 -27
l-16 -7l-114 114l-114 -114l-16 7q-24 10 -45 27t-36.5 39t-24.5 47t-9 52v195q0 46 27.5 85t68.5 59q45 22 97.5 26t101.5 -6q20 -5 40.5 -6.5t40.5 -1.5q24 0 50 4.5t46 18.5l32 -43q-29 -21 -64.5 -28t-70.5 -6q-27 0 -53.5 4.5t-52.5 7.5q-29 3 -62 1.5t-62 -12
t-51.5 -31t-30.5 -54.5z" />
    <glyph glyph-name="ugrave" unicode="&#xf9;" horiz-adv-x="681" 
d="M135 167q0 -42 23 -68t57 -39t73 -15t71 4l10 -53q-48 -8 -98 -4.5t-94 25.5q-40 20 -68 59t-28 85v241q1 43 28 74.5t66 43.5q24 8 50 10.5t51 -3.5q24 -5 43.5 -23t34.5 -38q26 38 70 54t87 2q21 -7 47 -7t41 19l42 -34q-12 -16 -29 -24.5t-36 -12t-38.5 -1.5t-37.5 7
q-16 5 -32 6t-33 -4q-9 -3 -19.5 -10t-18 -15t-11 -17.5t-0.5 -18.5q42 -104 78.5 -205t77.5 -205h-57q-38 100 -73 200.5t-77 198.5q-8 16 -17 31.5t-23 26.5q-17 16 -43.5 19t-52 -4.5t-44.5 -25t-20 -42.5v-237z" />
    <glyph glyph-name="ugrave" unicode="&#xe59;" horiz-adv-x="681" 
d="M135 167q0 -42 23 -68t57 -39t73 -15t71 4l10 -53q-48 -8 -98 -4.5t-94 25.5q-40 20 -68 59t-28 85v241q1 43 28 74.5t66 43.5q24 8 50 10.5t51 -3.5q24 -5 43.5 -23t34.5 -38q26 38 70 54t87 2q21 -7 47 -7t41 19l42 -34q-12 -16 -29 -24.5t-36 -12t-38.5 -1.5t-37.5 7
q-16 5 -32 6t-33 -4q-9 -3 -19.5 -10t-18 -15t-11 -17.5t-0.5 -18.5q42 -104 78.5 -205t77.5 -205h-57q-38 100 -73 200.5t-77 198.5q-8 16 -17 31.5t-23 26.5q-17 16 -43.5 19t-52 -4.5t-44.5 -25t-20 -42.5v-237z" />
    <glyph glyph-name="uacute" unicode="&#xfa;" horiz-adv-x="573" 
 />
    <glyph glyph-name="uacute" unicode="&#xe5a;" horiz-adv-x="573" 
 />
    <glyph glyph-name="ucircumflex" unicode="&#xfb;" horiz-adv-x="660" 
 />
    <glyph glyph-name="ucircumflex" unicode="&#xe5b;" horiz-adv-x="660" 
 />
    <glyph glyph-name="udieresis" unicode="&#xfc;" 
d="M-47 -393h-51v99q-2 27 -19.5 43.5t-43.5 16.5v54q24 0 44.5 -8.5t36 -23.5t24.5 -36t9 -45v-100z" />
    <glyph glyph-name="udieresis" unicode="&#xf718;" 
d="M-47 -393h-51v99q-2 27 -19.5 43.5t-43.5 16.5v54q24 0 44.5 -8.5t36 -23.5t24.5 -36t9 -45v-100z" />
    <glyph glyph-name="yacute" unicode="&#xfd;" 
d="M-114 -180h51v-135q0 -28 -14 -47t-35 -28t-45 -9t-44.5 9.5t-34.5 28t-14 46.5v135h51v-134q1 -13 10.5 -21t22 -11t25 0.5t20.5 12.5q7 9 7 21.5v23.5v108z" />
    <glyph glyph-name="yacute" unicode="&#xf719;" 
d="M-114 -180h51v-135q0 -28 -14 -47t-35 -28t-45 -9t-44.5 9.5t-34.5 28t-14 46.5v135h51v-134q1 -13 10.5 -21t22 -11t25 0.5t20.5 12.5q7 9 7 21.5v23.5v108z" />
    <glyph glyph-name="thorn" unicode="&#xfe;" 
d="M-60 -356q0 -15 -10.5 -25.5t-25.5 -10.5t-25.5 10.5t-10.5 25.5t10.5 25.5t25.5 10.5t25.5 -10.5t10.5 -25.5z" />
    <glyph glyph-name="thorn" unicode="&#xf71a;" 
d="M-60 -356q0 -15 -10.5 -25.5t-25.5 -10.5t-25.5 10.5t-10.5 25.5t10.5 25.5t25.5 10.5t25.5 -10.5t10.5 -25.5z" />
    <glyph glyph-name="ydieresis" unicode="&#xff;" horiz-adv-x="948" 
d="M928 602q6 3 22 10.5t32.5 11t28.5 1t11 -18.5q0 -4 -8.5 -9.5t-11.5 0.5q-6 11 -22 7t-35 -15t-37.5 -24.5t-30.5 -22.5q4 -2 7.5 -3.5t7.5 -3.5q18 -11 24.5 -29t5.5 -39.5t-5.5 -43t-7.5 -38.5q0 -3 -4.5 -6.5t-9.5 -6t-9.5 -3t-5.5 3.5q-3 10 -7.5 21.5t-11 22
t-15 19.5t-18.5 13q-10 -12 -17 -29.5t-14.5 -34.5t-18 -32t-26.5 -21q-21 -29 -47 -43q-17 -9 -40.5 -10t-37.5 16q-8 9 -10.5 22t-2.5 26.5t2 27t4 24.5q2 17 5 35t8 35q-11 -8 -21.5 -16.5t-21.5 -17.5q-10 -8 -19 -16t-20 -15q-2 -2 -5 -3.5t-6 -3.5l-3 -15q8 -5 18 -7
t17 -5q18 -8 27 -22q23 -36 0 -70q-6 -8 -19 -22t-29 -24.5t-31.5 -13.5t-25.5 11q-6 8 -6.5 19.5t2 24.5t6 24.5t5.5 19.5q2 11 4 21t4 21l-1 1q-13 6 -16.5 12.5t-1 13t10.5 12t17 10.5l2 2l3 9q-11 -6 -20.5 -12t-20.5 -12q-2 -12 -3.5 -23.5t-3.5 -23.5q-7 -38 -13 -77
t-17 -77q-1 -3 -5.5 -6.5t-10 -5.5t-9.5 -2t-4 5q1 37 8 74t14 73q2 11 4 21.5t4 21.5q-25 -13 -50 -24.5t-51 -22.5q15 -6 29 -16t23 -22.5t12.5 -28t-1.5 -31.5q-7 -24 -20.5 -42.5t-31.5 -33.5t-38 -26.5t-41 -21.5q-20 -9 -49.5 -24t-62 -29t-67 -24t-65.5 -10t-56.5 13
t-40.5 46q-18 41 -9.5 86.5t25.5 83.5q18 42 45 79t62 66q29 25 66.5 40.5t76.5 5.5q23 -5 37.5 -17t23 -28.5t11.5 -36t3 -39.5q3 5 8 9.5t9 5.5q42 15 81 34.5t77 39.5l1 1q2 9 5.5 17t5.5 16q0 2 3.5 5t7.5 4.5t7 1.5t3 -4q0 -6 0.5 -11.5t0.5 -12.5q13 7 26 13t27 12
q9 4 13 -1t-3 -11q-2 -8 -3 -11q26 17 50 36t49 36q2 3 6.5 6t9 5t8 1.5t2.5 -4.5q0 -7 -1 -10q-2 -4 -4 -6q-11 -29 -14 -64t-3 -66q0 -12 2 -25t13 -21q14 -11 29 -3t26 21q-26 3 -38 19.5t-12.5 39t9 46t26.5 38.5q14 12 35 17.5t36 -8.5q10 -8 12.5 -21.5t0.5 -27.5
q7 11 15.5 20.5t19.5 14.5q7 5 10 5q20 2 34 -10t24 -29q3 18 3 34.5t-7 30.5q-5 11 -15 18t-21 10q-20 -12 -42.5 -18.5t-45.5 0.5q-8 3 -3 9.5t9 8.5q20 13 41 19.5t44 3.5q20 13 38.5 28.5t35.5 25.5zM352 184q15 21 18.5 43.5t-17.5 42.5q-14 13 -31 23t-37 9q-6 0 -8 1
v-4q-1 -20 -3.5 -42.5t-7.5 -45t-13.5 -43.5t-20.5 -38q-7 -9 -17.5 -13.5t-19 -3.5t-13.5 8.5t0 22.5q1 4 5.5 7.5t10 5t9 0.5t2.5 -6q-5 -18 -1 -15.5t9 15.5q4 8 6.5 15t4.5 15q6 22 10.5 43.5t6.5 44.5q1 21 0.5 44t-6.5 43t-20 35t-39 21q-24 6 -46.5 -1t-42 -20.5
t-36.5 -32t-30 -36.5q-24 -32 -41.5 -70.5t-22.5 -79.5q-3 -20 -1 -40.5t10 -37.5t22.5 -30t36.5 -18q21 -5 43 -2.5t43 9.5t41.5 16.5t39.5 18.5q20 9 42 18t43 20t39.5 25t31.5 33zM573 328q-8 12 -19 15.5t-22 5.5q0 -2 -0.5 -4t-0.5 -4q-1 -6 -4.5 -18t-6.5 -24.5
t-4.5 -24t1.5 -17.5q6 -11 12.5 -13.5t13 0t12.5 8.5l11 11q29 32 7 65zM746 463q-12 7 -22.5 -4.5t-16 -30t-3 -37.5t17.5 -28q8 -4 16 -6q4 10 10 25.5t9 31t1 29.5t-12 20zM908 346q1 -3 4 -4t7 -2t7.5 -2t5.5 -5q3 -7 -7.5 -12.5t-13.5 -0.5l-3 3q-2 -35 -11.5 -69.5
t-11.5 -69.5q0 -5 -6 -10t-12.5 -8t-12 -3t-5.5 6q0 20 -2.5 40.5t-11.5 37.5q-10 18 -29.5 27.5t-36.5 -7.5q-18 -18 -30 -43.5t-22 -48.5q-11 -24 -24.5 -49t-31 -45.5t-40 -35.5t-50.5 -19q-32 -5 -66 -1.5t-66 4.5h-47t-47 -2q-8 -5 -17 -9.5t-17 -9.5q-39 -20 -79 -36
t-82 -27q-32 -8 -66.5 -13t-64.5 7q-5 2 -4.5 6.5t4 9t7.5 8t6 4.5q61 36 128.5 56.5t137.5 29.5q12 2 23.5 2.5t23.5 1.5q3 2 6.5 3.5t6.5 3.5q37 21 73 44t73 44.5t75 40.5t79 34q10 3 13.5 1t3 -6.5t-5 -9.5t-11.5 -8q-67 -30 -129.5 -68t-125.5 -76h45q18 0 39 -3
t42 -4.5t41 0.5t37 10q31 16 49 44.5t32 60.5t29.5 63t41.5 52q15 13 35 16t38 -5q12 -5 20 -12.5t13 -17.5q5 17 8.5 34.5t5.5 34.5q0 3 4 7t9 7t9.5 3t6.5 -4zM86 -35q29 -2 60.5 8t55.5 18q18 6 36 13.5t35 15.5q-49 -7 -95.5 -20t-91.5 -35zM1016 386v-3
q0 -6 -5.5 -11.5t-10.5 -8.5q-5 -2 -10.5 -4t-11.5 -1q-5 1 -6 5t1 8q6 12 20 17q2 1 3 1t2 1q4 2 11 2.5t7 -6.5z" />
    <glyph glyph-name="uni0E3E" unicode="&#xe3e;" 
 />
    <glyph glyph-name="uni200B" unicode="&#x200b;" 
 />
    <glyph glyph-name="uni25CC" unicode="&#x25cc;" horiz-adv-x="512" 
 />
    <glyph glyph-name="yoyingthai" horiz-adv-x="962" 
d="M818 162q0 -31 -12.5 -60.5t-32.5 -52.5q-21 -22 -48 -35.5t-57 -19t-60.5 -4t-58.5 9.5q-27 8 -50 23.5t-40.5 37t-27 47t-9.5 54.5v306q0 25 -10.5 45.5t-27.5 35.5t-38.5 24t-45.5 11q-46 4 -95 -5q-8 -2 -19.5 -4.5t-22 -7t-19 -11.5t-10.5 -17v-440q1 -20 13 -32.5
t32 -12.5h81v-54h-81q-42 0 -70.5 28.5t-28.5 70.5v441q0 18 9 32t22.5 25t29.5 18.5t31 11.5q32 9 66.5 11.5t66.5 -0.5q35 -3 67 -16t56 -38q22 -23 35 -53.5t13 -62.5v-306q0 -39 21.5 -65.5t53.5 -39.5t69.5 -13t69 13t53 39t21.5 66v468h54v-468zM778 -116
q-29 -35 -71 -49.5t-87 -14.5h-170v54h170q32 0 63.5 9t52.5 35z" />
    <glyph glyph-name="lochula.short" horiz-adv-x="620" 
d="M555 100q0 -30 -14 -51.5t-36.5 -35t-50.5 -19t-56 -3t-53.5 12.5t-41.5 29q-16 -19 -41.5 -29.5t-53 -13t-55.5 3t-50.5 19.5t-37 35.5t-14.5 51.5v530h54v-530q1 -17 10 -27.5t22 -16.5t28 -8.5t28 -2.5t27.5 2.5t26.5 9t20.5 17t9.5 26.5v296h52v-296q1 -17 10 -27.5
t22 -16.5t28.5 -8.5t28.5 -2.5t27 2.5t26.5 9t20.5 17t9 26.5v237q0 13 -2.5 28t-9 27.5t-17 21t-26.5 9.5h-71v54h71q16 1 26.5 9.5t17 21t9 27t2.5 27.5v68h54v-68q0 -30 -9 -60.5t-33 -51.5q23 -21 32.5 -51t9.5 -61v-238z" />
    <glyph glyph-name="saraamleft" horiz-adv-x="503" 
d="M426 497q3 -12 3.5 -19.5t0.5 -9.5v-468h-54v468q-1 28 -14.5 49t-34 35.5t-46 22t-49.5 9.5q-27 2 -54.5 1t-54.5 -5q-20 -3 -43.5 -9t-39.5 -22l-38 37q20 22 49 31.5t58 14.5q32 5 64 7t64 -1t62.5 -12.5t56 -27t44 -43t26.5 -58.5zM-80 849q15 -11 25 -26t13 -32
t-0.5 -35t-13.5 -33q-11 -16 -26 -25.5t-32 -13t-35 -0.5t-33 14q-15 10 -25 25.5t-13.5 32.5t-0.5 35t14 33q10 15 25.5 25t32.5 13.5t35 0t34 -13.5zM-90 756q9 20 0 35.5t-24.5 22t-32.5 2t-26 -24.5q-8 -20 0.5 -35.5t24.5 -22t33 -2t25 24.5z" />
    <glyph glyph-name="yamakkanleftthai" 
 />
    <glyph glyph-name="yoyingthai.001" horiz-adv-x="500" 
 />
    <glyph glyph-name="yoyingthai.1" horiz-adv-x="898" 
d="M818 162q0 -31 -12.5 -60.5t-32.5 -52.5q-21 -22 -48 -35.5t-57 -19t-60.5 -4t-58.5 9.5q-27 8 -50 23.5t-40.5 37t-27 47t-9.5 54.5v306q0 25 -10.5 45.5t-27.5 35.5t-38.5 24t-45.5 11q-46 4 -95 -5q-8 -2 -19.5 -4.5t-22 -7t-19 -11.5t-10.5 -17v-440q1 -20 13 -32.5
t32 -12.5h81v-54h-81q-42 0 -70.5 28.5t-28.5 70.5v441q0 18 9 32t22.5 25t29.5 18.5t31 11.5q32 9 66.5 11.5t66.5 -0.5q35 -3 67 -16t56 -38q22 -23 35 -53.5t13 -62.5v-306q0 -39 21.5 -65.5t53.5 -39.5t69.5 -13t69 13t53 39t21.5 66v468h54v-468zM778 -116
q-29 -35 -71 -49.5t-87 -14.5h-170v54h170q32 0 63.5 9t52.5 35z" />
    <glyph glyph-name="Naipol" horiz-adv-x="948" 
 />
  </font>
</defs>
</svg>
