<?xml version="1.0" standalone="no"?>
<!DOCTYPE svg PUBLIC "-//W3C//DTD SVG 1.1//EN" "http://www.w3.org/Graphics/SVG/1.1/DTD/svg11.dtd" >
<svg xmlns="http://www.w3.org/2000/svg" xmlns:xlink="http://www.w3.org/1999/xlink" version="1.1">
<metadata>
Created by FontForge 20161003 at Sat May  5 05:13:49 2018
 By www-data
Copyright (C) 2016, Worawut Thanawatanawanich. All rights reserved.
Brialle Typeface by WRT
English, Thai Typeface from TF Chiangsaen Font
</metadata>
<defs>
<font id="SOV_braille" horiz-adv-x="590" >
  <font-face 
    font-family="SOV_braille"
    font-weight="400"
    font-stretch="normal"
    units-per-em="1000"
    panose-1="2 7 5 6 6 0 0 2 0 4"
    ascent="800"
    descent="-200"
    x-height="800"
    cap-height="800"
    bbox="-320 -310 1620 1040"
    underline-thickness="30"
    underline-position="-80"
    unicode-range="U+0020-F789"
  />
<missing-glyph 
d="M16 606v-390h242v390h-242zM274 200h-274v423h274v-423z" />
    <glyph glyph-name="uvSOV" unicode="&#xe2f;&#xe23;&#xe2d;&#xe07;&#xe2f;" horiz-adv-x="1180" 
d="M567 417q0 1 5 -2q6 -5 22 -2q14 3 22 -3q4 -5 6 -5t8 5q6 4 9.5 3.5t9.5 -6.5q5 -5 6 -5.5t5 0.5q3 0 3 -1q-2 -2 -7 -2t-10.5 6t-8.5 5t-7 -4.5t-8 -4t-9 3.5t-7 2q-4 -4 -14 -46q-5 -21 -2 -25t7.5 -3t7 -1t1.5 -2q0 -1 -2 0q-2 2 -5 0q-6 -4 -12 3t-21 33
q-20 33 -26 36q-3 1 -4.5 3.5t-5.5 4.5h1q5 0 8 -1.5t13 -0.5h10l4 -5q4 -5 5.5 -4.5t1.5 -0.5t-1.5 -1t-4.5 1l-3 2q-4 3 -6 2t-1 -4t11 -19q10 -17 11 -16q1 3 5 22t4 20q-1 2 -7 2.5t-10 4.5t-4 5zM470 436q2 5 3 5q1 -1 1 -4q0 -8 6 -3q4 3 9 2t8 -4q4 -7 -1 -26
q-4 -12 -4 -16t4 -6q3 -4 10.5 -3.5t12.5 0.5h6v5q-1 5 -9 22q-5 8 -4 16t7 11q5 3 11 1t9 -5q1 -3 0 -9v-6l3 -1q6 -1 -2 -2q-2 -1 -5 -1q-6 0 -7 3q-5 7 1 9q2 2 1.5 3t-3.5 1t-4 -2q-5 -6 6 -19q11 -12 11 -23q0 -6 -4.5 -11t-4.5 -8t1 -4t4 -1l5 -2h-5q-7 0 -10 8l-2 3
h-17q-14 1 -18 2.5t-8 7.5q-5 7 1 28q5 19 2 19q-2 0 -5 -2t-5 -1q-6 3 -4 13zM522 449q30 7 35 -3q2 -5 -2 -2q-7 5 -25 0q-17 -5 -25 -2q-3 2 -6.5 4t-6.5 2l-1 2q1 2 13 -1q6 -2 18 0zM444 -37q-19 2 -44.5 11t-38.5 19q-14 9 -24 27.5t-12 39.5q-1 20 3 38q5 22 23 40
t41 24q7 2 26 2t27 -2q15 -4 23.5 -12t14.5 -23q11 -25 -1 -43q-10 -14 -12 -27q0 -7 4 -9q7 -8 39 -9h12l-7 -3q-20 -9 -44 -10t-39 7q-10 5 -17 18q-4 8 -4.5 18.5t2.5 18.5q4 10 15 13t19 -5q2 -2 6 0q4 3 0 14q-9 26 -40 18q-20 -5 -30 -14q-14 -16 -14 -41
q-1 -53 49 -66q17 -4 44.5 -5.5t40.5 1.5q17 4 40 14q13 5 28 16t23 21q15 18 21 35t6 43q0 48 -40 89q-35 35 -89 42q-27 3 -55 1q-72 -10 -92 -85q-4 -12 -4 -14q-1 -3 -13 10q-2 1 -4 4q-17 22 -2 60q12 31 55 71q31 29 31 46q0 12 -10 21l-6 4l-18 -1q-33 -1 -48.5 8.5
t-22.5 33.5q-4 9 -4 25.5t4 26.5q8 31 36 53q12 10 16 19q3 6 2 13q0 11 -12 29q-10 17 -8 27t16 20q16 9 20.5 21t2.5 29l-1 5q5 -9 3 -26q-1 -16 -12.5 -28t-11.5 -22q0 -14 23 -34q16 -13 20.5 -19.5t4.5 -15t-5 -14t-21 -15.5q-26 -17 -34 -33q-3 -7 -3 -16
q-2 -32 26 -40q6 -1 22 -1q30 1 38 -2q13 -5 22.5 -20.5t9.5 -33.5q0 -25 -22 -51l-6 -7l8 2q8 2 30 2t34 -2q61 -12 105 -42q57 -36 69 -110q6 -34 -5 -70t-37 -69q-10 -11 -23 -22t-23 -17q-15 -7 -38 -12q-48 -12 -48 -11q-15 -1 -30 -1q-18 0 -30 3zM26 176q6 -5 25 -10
q21 -6 65 2q52 8 71 3q8 -2 14 -10.5t6 -16.5q0 -12 -9 -16q-8 -3 -14 0l-4 3l-1 -6q-3 -13 0 -21q4 -10 20 -17t31 -5q12 1 29 7.5t23 12.5t7 17t-2 19q-5 8 -15 15t-42 21q-50 22 -62 32t-13 28q-2 24 13 41q13 15 34 22t41 3q10 -3 12 -3h3l-3 3q-7 8 -4 20q0 1 1 3.5
t2.5 5t2.5 5t2 3.5t2 1t-3 -7q-10 -18 6 -28l13 -7q19 -8 24.5 -17t5.5 -30q0 -13 -2 -19t-9 -13q-16 -14 -34 -7q-6 2 -9 8q-6 12 2 24q6 9 5 12.5t-10 10.5h2q9 -5 12 -11q2 -4 1 -10t0 -7t8.5 -1.5t12 -3.5t6.5 -3q4 0 5 9.5t-1 18.5q-2 7 -9 14t-15 10q-17 7 -39 7
q-24 0 -43 -14q-15 -11 -9 -26q3 -9 20 -20q15 -11 63 -28q31 -12 41 -22q11 -12 12 -30q2 -44 -23 -63q-13 -10 -32 -13q-14 -4 -39.5 -4t-34.5 4q-12 3 -14 0q0 -2 3 -4t10 -6q13 -4 17 -13q2 -4 3 -11q3 -12 -2 -23.5t-13 -18.5q-11 -8 -24 -11q-19 -3 -40 3q-24 6 -38 6
q-15 0 -28 -4l-2 1q1 1 9 3q21 6 55 -1q19 -4 26 -4q12 0 27 9.5t18 19.5q8 22 -17 31q-16 6 -21.5 10.5t-6.5 12.5q-1 7 0 11q2 7 8 9l-2 7q-5 15 1 33q3 9 1 12t-5.5 5t-40 2t-44.5 2.5t-19.5 8t-16.5 9.5zM974 251l-8 -3q-18 -7 -34 16q-14 19 -35 23q-13 1 -31 -8
q-21 -10 -30 -27q-8 -15 -43 -96.5t-37 -92.5q-6 -16 0 -21q1 -3 9.5 -6.5t9.5 -6t1 -10t-2 -8.5v5q0 11 -11 17q-15 8 -33 45q-12 24 -43 110q-36 99 -42 102q-3 3 -8 2q-14 -2 -16.5 0t-3.5 10q-3 13 -15 16h-6l6 1q12 0 19 -13q5 -9 7 -10t10 2t12.5 0.5t9.5 -11.5
q4 -7 6 -8t8 6q6 6 10 7.5t13 -0.5q19 -2 27 -10q13 -14 13 -27q0 -9 -10 -22q-11 -15 -13 -27q-4 -17 13 -27l3 -3q-2 -2 -13 8q-8 7 -8 20q0 17 11 30q18 23 -1 34q-9 4 -12.5 -3t-18.5 -8q-3 0 -5 -0.5t-3 -0.5t-1.5 -0.5t0.5 -1.5l31 -76l29 -68q1 0 31 72
q25 57 29.5 70t1.5 18q-1 3 -10 4q-15 1 -20 10q-3 6 -4.5 6h-6.5q-10 -2 -19 6t-10 22l-1 6l3 -7q7 -15 16 -17q3 -1 8 0.5t11 1.5t12.5 -5.5t11.5 -7.5q11 -4 54 1q48 6 64 0q14 -6 23 -20q8 -12 16 -16q10 -6 20 -3h5z" />
    <glyph glyph-name="paiyanyai" unicode="&#xe2f;&#xe25;&#xe2f;" horiz-adv-x="1180" 
d="M724 28q13 0 23.5 3t20.5 12t13 21t3 20v16h18v-164q0 -4 -1 -11.5t-5 -12.5q-4 -6 -8 -10q-2 -2 -4 -2l-16 8l4 4q4 3 8 8t4 9v10v103q-4 -10 -12 -16t-21 -10t-31 -3q-26 1 -42.5 14t-19.5 33q-1 4 0 11t4.5 13.5t10 11t17.5 4.5q10 0 17.5 -4t11 -11.5t3.5 -16
t-4 -14.5q-3 -6 -7.5 -9t-8.5 -4t-7 -2l-3 -1l2 -1l5 -4l10 -3zM691 88q-9 0 -14 -6t-5 -13t5 -12t14 -5t13 5t4 12t-4 13t-13 6zM597 -100q0 4 -0.5 9.5t-0.5 12.5q-2 6 -5.5 16t-8 22t-10 23l-9.5 19q-5 9 -9 16.5t-9.5 12.5t-12 7t-14.5 -1t-13.5 -9t-8 -12t-2.5 -12v-10
v-37q2 1 6 2q6 1 15 1q11 -1 19 -9.5t6 -22.5q0 -12 -9.5 -21t-25.5 -7q-9 0 -15 4t-9 10t-4 12t-1 10v62q0 4 1.5 12t6 16t12.5 16t22 11q12 3 21 0t15.5 -9t11.5 -14.5t10 -16.5q3 -6 6.5 -14.5t7 -15.5t5.5 -12t2 -4v73q0 24 -16.5 35t-42.5 11q-20 0 -31.5 -5t-18 -11.5
t-8.5 -11.5l-2 -6l-16 6l3 7t12 15t23 14.5t38 6.5q37 0 56.5 -16t19.5 -44v-141h-17zM509 -88q9 0 13 6t4 12t-4 11.5t-13 5.5t-13 -5.5t-4 -11.5t4 -12t13 -6zM333 28q13 0 23 3t20 12t14 21t4 20v16h16v-164q0 -4 -1 -11.5t-5 -12.5q-3 -6 -8 -10q-3 -3 -4 -2l-14 8l4 4
q4 3 7 8t4 9t1 10v103q-4 -10 -14 -16q-7 -6 -19.5 -10t-32.5 -3q-25 1 -42 14q-14 11 -19 33q-1 4 0 11t4 13.5t10 11t18 4.5t18 -4t11 -11.5t4 -16t-5 -14.5q-3 -6 -7.5 -9t-8.5 -4t-7 -2l-4 -1l2 -1l6 -4l10 -3zM299 88q-9 0 -13 -6t-4 -13t4 -12t13 -5t14 5t5 12t-5 13
t-14 6zM360 580q-33 0 -56.5 -23.5t-23.5 -56.5t23.5 -56.5t56.5 -23.5t56.5 23.5t23.5 56.5t-23.5 56.5t-56.5 23.5zM360 360q-33 0 -56.5 -23.5t-23.5 -56.5t23.5 -56.5t56.5 -23.5t56.5 23.5t23.5 56.5t-23.5 56.5t-56.5 23.5zM730 800q-33 0 -56.5 -23.5t-23.5 -56.5
t23.5 -56.5t56.5 -23.5t56.5 23.5t23.5 56.5t-23.5 56.5t-56.5 23.5zM730 580q-33 0 -56.5 -23.5t-23.5 -56.5t23.5 -56.5t56.5 -23.5t56.5 23.5t23.5 56.5t-23.5 56.5t-56.5 23.5zM730 360q-33 0 -56.5 -23.5t-23.5 -56.5t23.5 -56.5t56.5 -23.5t56.5 23.5t23.5 56.5
t-23.5 56.5t-56.5 23.5z" />
    <glyph glyph-name="CAP" unicode="&#x21;CAP" horiz-adv-x="1180" 
d="M360 360q-33 0 -56.5 -23.5t-23.5 -56.5t23.5 -56.5t56.5 -23.5t56.5 23.5t23.5 56.5t-23.5 56.5t-56.5 23.5zM950 360q-33 0 -56.5 -23.5t-23.5 -56.5t23.5 -56.5t56.5 -23.5t56.5 23.5t23.5 56.5t-23.5 56.5t-56.5 23.5zM627 -60h-16l-18 47h-68l-19 -47h-15l60 150h16
zM560 76l-31 -77h61zM744 90q15 0 24.5 -3t15.5 -8.5t8.5 -13.5t2.5 -17q0 -20 -12 -32t-37 -12h-47v-64h-15v150h60zM699 16h43q22 0 31 9t9 22q0 14 -9 22t-32 8h-42v-61zM452 -2q-2 -15 -7 -25.5t-13.5 -19t-20 -13t-24.5 -4.5q-16 0 -28.5 6t-21.5 16t-14 24.5t-5 32
t5 32t14 25t22 16.5t29 6q30 0 48 -20q6 -7 9 -14t4 -15h-14q-4 17 -16.5 27t-31.5 10q-12 0 -22.5 -5t-17.5 -14t-11 -21t-4 -27t4 -27.5t11 -21t17.5 -13t22.5 -4.5q21 0 34 12.5t16 36.5h15z" />
    <glyph glyph-name="NUM" unicode="&#x21;NUM" 
d="M298 0q0 -8 -0.5 -14t-1.5 -11t-3 -9t-4 -9q-15 -21 -48 -21q-37 0 -52 26q-3 7 -5 15.5t-2 22.5v90h14v-90q0 -13 1.5 -21t5.5 -14q11 -17 38 -17q26 0 37 17q4 6 5 14t1 21v90h14v-90zM480 -60h-14v131l-52 -131h-12l-54 129v-129h-14v150h20l54 -132l52 132h20v-150z
M143 -60h-17l-88 128v-128h-14v150h16l89 -128v128h14v-150zM360 800q-33 0 -56.5 -23.5t-23.5 -56.5t23.5 -56.5t56.5 -23.5t56.5 23.5t23.5 56.5t-23.5 56.5t-56.5 23.5zM360 580q-33 0 -56.5 -23.5t-23.5 -56.5t23.5 -56.5t56.5 -23.5t56.5 23.5t23.5 56.5t-23.5 56.5
t-56.5 23.5zM140 360q-33 0 -56.5 -23.5t-23.5 -56.5t23.5 -56.5t56.5 -23.5t56.5 23.5t23.5 56.5t-23.5 56.5t-56.5 23.5zM360 360q-33 0 -56.5 -23.5t-23.5 -56.5t23.5 -56.5t56.5 -23.5t56.5 23.5t23.5 56.5t-23.5 56.5t-56.5 23.5z" />
    <glyph glyph-name=".notdef" 
d="M16 606v-390h242v390h-242zM274 200h-274v423h274v-423z" />
    <glyph glyph-name=".null" 
 />
    <glyph glyph-name="nonmarkingreturn" 
 />
    <glyph glyph-name="space" unicode=" " 
 />
    <glyph glyph-name="exclam" unicode="!" 
d="M254 76l-4 -114h-14l-4 114v74h22v-74zM256 -100h-26v35h26v-35zM140 580q-33 0 -56.5 -23.5t-23.5 -56.5t23.5 -56.5t56.5 -23.5t56.5 23.5t23.5 56.5t-23.5 56.5t-56.5 23.5zM360 580q-33 0 -56.5 -23.5t-23.5 -56.5t23.5 -56.5t56.5 -23.5t56.5 23.5t23.5 56.5
t-23.5 56.5t-56.5 23.5zM140 360q-33 0 -56.5 -23.5t-23.5 -56.5t23.5 -56.5t56.5 -23.5t56.5 23.5t23.5 56.5t-23.5 56.5t-56.5 23.5z" />
    <glyph glyph-name="quotedbl" unicode="&#x22;" horiz-adv-x="1180" 
d="M556 50l-4 100h24l-2 -100h-18zM604 50l-3 100h24l-3 -100h-18zM360 360q-33 0 -56.5 -23.5t-23.5 -56.5t23.5 -56.5t56.5 -23.5t56.5 23.5t23.5 56.5t-23.5 56.5t-56.5 23.5zM730 580q-33 0 -56.5 -23.5t-23.5 -56.5t23.5 -56.5t56.5 -23.5t56.5 23.5t23.5 56.5
t-23.5 56.5t-56.5 23.5zM950 580q-33 0 -56.5 -23.5t-23.5 -56.5t23.5 -56.5t56.5 -23.5t56.5 23.5t23.5 56.5t-23.5 56.5t-56.5 23.5zM730 360q-33 0 -56.5 -23.5t-23.5 -56.5t23.5 -56.5t56.5 -23.5t56.5 23.5t23.5 56.5t-23.5 56.5t-56.5 23.5zM950 360
q-33 0 -56.5 -23.5t-23.5 -56.5t23.5 -56.5t56.5 -23.5t56.5 23.5t23.5 56.5t-23.5 56.5t-56.5 23.5z" />
    <glyph glyph-name="numbersign" unicode="#" horiz-adv-x="1180" 
d="M660 -88h-16l10 74h-43l-11 -74h-16l10 74h-46l2 16h46l6 42h-46l2 16h46l10 68h16l-10 -68h44l10 68h16l-10 -68h48l-2 -16h-48l-5 -42h47l-2 -16h-48zM618 44l-5 -42h43l6 42h-44zM360 800q-33 0 -56.5 -23.5t-23.5 -56.5t23.5 -56.5t56.5 -23.5t56.5 23.5t23.5 56.5
t-23.5 56.5t-56.5 23.5zM360 580q-33 0 -56.5 -23.5t-23.5 -56.5t23.5 -56.5t56.5 -23.5t56.5 23.5t23.5 56.5t-23.5 56.5t-56.5 23.5zM360 360q-33 0 -56.5 -23.5t-23.5 -56.5t23.5 -56.5t56.5 -23.5t56.5 23.5t23.5 56.5t-23.5 56.5t-56.5 23.5zM730 800
q-33 0 -56.5 -23.5t-23.5 -56.5t23.5 -56.5t56.5 -23.5t56.5 23.5t23.5 56.5t-23.5 56.5t-56.5 23.5zM950 800q-33 0 -56.5 -23.5t-23.5 -56.5t23.5 -56.5t56.5 -23.5t56.5 23.5t23.5 56.5t-23.5 56.5t-56.5 23.5zM950 360q-33 0 -56.5 -23.5t-23.5 -56.5t23.5 -56.5
t56.5 -23.5t56.5 23.5t23.5 56.5t-23.5 56.5t-56.5 23.5z" />
    <glyph glyph-name="dollar" unicode="$" horiz-adv-x="1180" 
d="M648 178v-30q33 -2 52 -20t18 -48h-21q-3 46 -49 49v-95q40 -6 58 -23t18 -47q0 -20 -9 -36t-27 -24q-8 -4 -17 -6t-23 -3v-43h-17v42q-39 2 -60 23t-20 57h21q0 -29 14 -44t45 -18v105q-37 7 -53.5 23t-16.5 42q0 29 19 46.5t51 19.5v30h17zM631 129q-23 -1 -36 -13
t-13 -32q0 -12 5.5 -21.5t15.5 -14.5q5 -3 11 -5t17 -5v91zM648 -87q14 1 22.5 4t15.5 9q16 14 16 37q0 27 -24 41q-4 2 -10 4t-20 6v-101zM360 800q-33 0 -56.5 -23.5t-23.5 -56.5t23.5 -56.5t56.5 -23.5t56.5 23.5t23.5 56.5t-23.5 56.5t-56.5 23.5zM950 800
q-33 0 -56.5 -23.5t-23.5 -56.5t23.5 -56.5t56.5 -23.5t56.5 23.5t23.5 56.5t-23.5 56.5t-56.5 23.5zM730 580q-33 0 -56.5 -23.5t-23.5 -56.5t23.5 -56.5t56.5 -23.5t56.5 23.5t23.5 56.5t-23.5 56.5t-56.5 23.5zM730 360q-33 0 -56.5 -23.5t-23.5 -56.5t23.5 -56.5
t56.5 -23.5t56.5 23.5t23.5 56.5t-23.5 56.5t-56.5 23.5z" />
    <glyph glyph-name="percent" unicode="%" horiz-adv-x="1180" 
d="M623 -100h-19l138 242h19zM762 28q25 0 39.5 -17t14.5 -47q0 -34 -14.5 -51t-41.5 -17t-41.5 16t-14.5 48q0 33 15 50.5t43 17.5zM760 12q-36 0 -36 -52q0 -50 36 -50q18 0 27 13.5t9 38.5q0 50 -36 50zM608 149q26 0 40 -16.5t14 -48.5t-14.5 -50t-41.5 -18
q-26 0 -40.5 17t-14.5 51q0 31 15 48t42 17zM606 134q-18 0 -27 -13.5t-9 -38.5q0 -24 9 -37.5t27 -13.5t27 13.5t9 39.5q0 50 -36 50zM360 800q-33 0 -56.5 -23.5t-23.5 -56.5t23.5 -56.5t56.5 -23.5t56.5 23.5t23.5 56.5t-23.5 56.5t-56.5 23.5zM360 360
q-33 0 -56.5 -23.5t-23.5 -56.5t23.5 -56.5t56.5 -23.5t56.5 23.5t23.5 56.5t-23.5 56.5t-56.5 23.5zM950 580q-33 0 -56.5 -23.5t-23.5 -56.5t23.5 -56.5t56.5 -23.5t56.5 23.5t23.5 56.5t-23.5 56.5t-56.5 23.5zM730 360q-33 0 -56.5 -23.5t-23.5 -56.5t23.5 -56.5
t56.5 -23.5t56.5 23.5t23.5 56.5t-23.5 56.5t-56.5 23.5zM950 360q-33 0 -56.5 -23.5t-23.5 -56.5t23.5 -56.5t56.5 -23.5t56.5 23.5t23.5 56.5t-23.5 56.5t-56.5 23.5z" />
    <glyph glyph-name="ampersand" unicode="&#x26;" horiz-adv-x="1180" 
d="M726 10q0 -6 -1.5 -14t-3.5 -16t-4.5 -15t-5.5 -12l44 -53h-27l-29 34q-26 -38 -73 -38q-16 0 -30 5t-24 13.5t-15 21t-5 27.5q0 31 29 55q9 6 17 12t15 9q-17 21 -24 34.5t-7 26.5q0 22 15.5 36t40.5 14q24 0 39.5 -14t15.5 -36q0 -18 -11.5 -34t-37.5 -32l53 -64
q3 8 5 19t4 21h20zM632 50q40 21 40 49q0 14 -10 23.5t-24 9.5q-15 0 -25 -9t-10 -23q0 -9 6.5 -20.5t22.5 -29.5zM626 25q-15 -9 -25 -16t-16 -14t-8.5 -15t-2.5 -17q0 -11 4 -20t11.5 -15.5t17 -10t21.5 -3.5q35 0 59 36zM360 800q-33 0 -56.5 -23.5t-23.5 -56.5
t23.5 -56.5t56.5 -23.5t56.5 23.5t23.5 56.5t-23.5 56.5t-56.5 23.5zM730 800q-33 0 -56.5 -23.5t-23.5 -56.5t23.5 -56.5t56.5 -23.5t56.5 23.5t23.5 56.5t-23.5 56.5t-56.5 23.5zM950 800q-33 0 -56.5 -23.5t-23.5 -56.5t23.5 -56.5t56.5 -23.5t56.5 23.5t23.5 56.5
t-23.5 56.5t-56.5 23.5zM730 580q-33 0 -56.5 -23.5t-23.5 -56.5t23.5 -56.5t56.5 -23.5t56.5 23.5t23.5 56.5t-23.5 56.5t-56.5 23.5zM730 360q-33 0 -56.5 -23.5t-23.5 -56.5t23.5 -56.5t56.5 -23.5t56.5 23.5t23.5 56.5t-23.5 56.5t-56.5 23.5zM950 360
q-33 0 -56.5 -23.5t-23.5 -56.5t23.5 -56.5t56.5 -23.5t56.5 23.5t23.5 56.5t-23.5 56.5t-56.5 23.5z" />
    <glyph glyph-name="quotesingle" unicode="'" 
d="M216 50l-4 100h24l-2 -100h-18zM140 360q-33 0 -56.5 -23.5t-23.5 -56.5t23.5 -56.5t56.5 -23.5t56.5 23.5t23.5 56.5t-23.5 56.5t-56.5 23.5z" />
    <glyph glyph-name="parenleft" unicode="(" horiz-adv-x="1180" 
d="M645 150q-22 -34 -33.5 -75.5t-11.5 -84.5q0 -40 11.5 -80.5t33.5 -76.5h-17q-26 43 -38 80.5t-12 77.5q0 41 13.5 83.5t36.5 75.5h17zM360 580q-33 0 -56.5 -23.5t-23.5 -56.5t23.5 -56.5t56.5 -23.5t56.5 23.5t23.5 56.5t-23.5 56.5t-56.5 23.5zM730 800
q-33 0 -56.5 -23.5t-23.5 -56.5t23.5 -56.5t56.5 -23.5t56.5 23.5t23.5 56.5t-23.5 56.5t-56.5 23.5zM730 580q-33 0 -56.5 -23.5t-23.5 -56.5t23.5 -56.5t56.5 -23.5t56.5 23.5t23.5 56.5t-23.5 56.5t-56.5 23.5zM950 360q-33 0 -56.5 -23.5t-23.5 -56.5t23.5 -56.5
t56.5 -23.5t56.5 23.5t23.5 56.5t-23.5 56.5t-56.5 23.5z" />
    <glyph glyph-name="parenright" unicode=")" horiz-adv-x="1180" 
d="M555 -167q22 35 33.5 76t11.5 83t-11 82t-34 76h18q13 -22 22.5 -42t15.5 -39t8.5 -38t2.5 -39.5t-3 -41.5t-10 -41.5t-16 -39.5t-20 -36h-18zM360 580q-33 0 -56.5 -23.5t-23.5 -56.5t23.5 -56.5t56.5 -23.5t56.5 23.5t23.5 56.5t-23.5 56.5t-56.5 23.5zM950 800
q-33 0 -56.5 -23.5t-23.5 -56.5t23.5 -56.5t56.5 -23.5t56.5 23.5t23.5 56.5t-23.5 56.5t-56.5 23.5zM950 580q-33 0 -56.5 -23.5t-23.5 -56.5t23.5 -56.5t56.5 -23.5t56.5 23.5t23.5 56.5t-23.5 56.5t-56.5 23.5zM730 360q-33 0 -56.5 -23.5t-23.5 -56.5t23.5 -56.5
t56.5 -23.5t56.5 23.5t23.5 56.5t-23.5 56.5t-56.5 23.5z" />
    <glyph glyph-name="asterisk" unicode="*" horiz-adv-x="1180" 
d="M650 94l24 -34l-10 -8l-26 35l-26 -35l-12 9l26 33l-40 14l4 14l40 -15v43h15v-43l41 15l4 -14zM360 580q-33 0 -56.5 -23.5t-23.5 -56.5t23.5 -56.5t56.5 -23.5t56.5 23.5t23.5 56.5t-23.5 56.5t-56.5 23.5zM730 580q-33 0 -56.5 -23.5t-23.5 -56.5t23.5 -56.5
t56.5 -23.5t56.5 23.5t23.5 56.5t-23.5 56.5t-56.5 23.5zM950 580q-33 0 -56.5 -23.5t-23.5 -56.5t23.5 -56.5t56.5 -23.5t56.5 23.5t23.5 56.5t-23.5 56.5t-56.5 23.5zM730 360q-33 0 -56.5 -23.5t-23.5 -56.5t23.5 -56.5t56.5 -23.5t56.5 23.5t23.5 56.5t-23.5 56.5
t-56.5 23.5zM950 360q-33 0 -56.5 -23.5t-23.5 -56.5t23.5 -56.5t56.5 -23.5t56.5 23.5t23.5 56.5t-23.5 56.5t-56.5 23.5z" />
    <glyph glyph-name="plus" unicode="+" horiz-adv-x="1180" 
d="M630 29v76h16v-76h76v-16h-76v-75h-16v75h-76v16h76zM360 580q-33 0 -56.5 -23.5t-23.5 -56.5t23.5 -56.5t56.5 -23.5t56.5 23.5t23.5 56.5t-23.5 56.5t-56.5 23.5zM730 580q-33 0 -56.5 -23.5t-23.5 -56.5t23.5 -56.5t56.5 -23.5t56.5 23.5t23.5 56.5t-23.5 56.5
t-56.5 23.5zM950 580q-33 0 -56.5 -23.5t-23.5 -56.5t23.5 -56.5t56.5 -23.5t56.5 23.5t23.5 56.5t-23.5 56.5t-56.5 23.5zM730 360q-33 0 -56.5 -23.5t-23.5 -56.5t23.5 -56.5t56.5 -23.5t56.5 23.5t23.5 56.5t-23.5 56.5t-56.5 23.5z" />
    <glyph glyph-name="comma" unicode="," 
d="M250 -100l-2.5 -0.5t-5.5 0t-6.5 2t-5.5 4.5q-2 4 -2 9t2 9.5t6 7.5t10 3q10 0 14 -4t6 -9.5t2 -12.5t-2 -13q-2 -14 -9 -21t-13 -10q-8 -3 -18 -4v11q3 0 6 1q2 1 5 2t6 4t5 6t2 6v6v3zM140 580q-33 0 -56.5 -23.5t-23.5 -56.5t23.5 -56.5t56.5 -23.5t56.5 23.5
t23.5 56.5t-23.5 56.5t-56.5 23.5z" />
    <glyph glyph-name="hyphen" unicode="-" 
d="M283 -18h-83v20h83v-20zM140 360q-33 0 -56.5 -23.5t-23.5 -56.5t23.5 -56.5t56.5 -23.5t56.5 23.5t23.5 56.5t-23.5 56.5t-56.5 23.5zM360 360q-33 0 -56.5 -23.5t-23.5 -56.5t23.5 -56.5t56.5 -23.5t56.5 23.5t23.5 56.5t-23.5 56.5t-56.5 23.5z" />
    <glyph glyph-name="period" unicode="." 
d="M231 -100q-9 0 -13.5 5t-4.5 12t4.5 13t13.5 6t13 -6t4 -13t-4 -12t-13 -5zM140 580q-33 0 -56.5 -23.5t-23.5 -56.5t23.5 -56.5t56.5 -23.5t56.5 23.5t23.5 56.5t-23.5 56.5t-56.5 23.5zM360 580q-33 0 -56.5 -23.5t-23.5 -56.5t23.5 -56.5t56.5 -23.5t56.5 23.5
t23.5 56.5t-23.5 56.5t-56.5 23.5zM360 360q-33 0 -56.5 -23.5t-23.5 -56.5t23.5 -56.5t56.5 -23.5t56.5 23.5t23.5 56.5t-23.5 56.5t-56.5 23.5z" />
    <glyph glyph-name="slash" unicode="/" horiz-adv-x="1180" 
d="M544 -167h-18l130 317h18zM360 800q-33 0 -56.5 -23.5t-23.5 -56.5t23.5 -56.5t56.5 -23.5t56.5 23.5t23.5 56.5t-23.5 56.5t-56.5 23.5zM360 580q-33 0 -56.5 -23.5t-23.5 -56.5t23.5 -56.5t56.5 -23.5t56.5 23.5t23.5 56.5t-23.5 56.5t-56.5 23.5zM360 360
q-33 0 -56.5 -23.5t-23.5 -56.5t23.5 -56.5t56.5 -23.5t56.5 23.5t23.5 56.5t-23.5 56.5t-56.5 23.5zM950 800q-33 0 -56.5 -23.5t-23.5 -56.5t23.5 -56.5t56.5 -23.5t56.5 23.5t23.5 56.5t-23.5 56.5t-56.5 23.5zM730 360q-33 0 -56.5 -23.5t-23.5 -56.5t23.5 -56.5
t56.5 -23.5t56.5 23.5t23.5 56.5t-23.5 56.5t-56.5 23.5z" />
    <glyph glyph-name="zero" unicode="0" 
d="M257 148q23 0 41 -11t28 -32q9 -15 12.5 -36t3.5 -49q0 -27 -3.5 -46.5t-10.5 -35.5q-12 -21 -30 -32t-42 -11q-86 0 -86 123q0 56 16 88q10 20 28 31t43 11zM256 128q-63 0 -63 -112q0 -19 2.5 -36t8.5 -30q6 -18 20 -27t32 -9q63 0 63 106q0 108 -63 108zM360 800
q-33 0 -56.5 -23.5t-23.5 -56.5t23.5 -56.5t56.5 -23.5t56.5 23.5t23.5 56.5t-23.5 56.5t-56.5 23.5zM140 580q-33 0 -56.5 -23.5t-23.5 -56.5t23.5 -56.5t56.5 -23.5t56.5 23.5t23.5 56.5t-23.5 56.5t-56.5 23.5zM360 580q-33 0 -56.5 -23.5t-23.5 -56.5t23.5 -56.5
t56.5 -23.5t56.5 23.5t23.5 56.5t-23.5 56.5t-56.5 23.5z" />
    <glyph glyph-name="one" unicode="1" 
d="M299 -100h-23v183h-63v17q19 0 31 2t19 7t11 13.5t8 22.5h17v-245zM140 800q-33 0 -56.5 -23.5t-23.5 -56.5t23.5 -56.5t56.5 -23.5t56.5 23.5t23.5 56.5t-23.5 56.5t-56.5 23.5z" />
    <glyph glyph-name="two" unicode="2" 
d="M338 -100h-163q1 16 5 29t13 24t23 22.5t36 25.5q18 12 30 21.5t19 18.5t10 17.5t3 19.5q0 23 -15 36.5t-40 13.5q-15 0 -28 -6t-19 -19q-4 -9 -6 -18t-3 -24h-22q0 41 20.5 64t58.5 23q35 0 55.5 -19t20.5 -51q0 -16 -5.5 -29.5t-17.5 -25.5l-9.5 -9.5t-11 -9t-15 -10.5
t-21.5 -14q-14 -10 -24 -17t-16.5 -14t-10 -14t-5.5 -15h138v-20zM140 800q-33 0 -56.5 -23.5t-23.5 -56.5t23.5 -56.5t56.5 -23.5t56.5 23.5t23.5 56.5t-23.5 56.5t-56.5 23.5zM140 580q-33 0 -56.5 -23.5t-23.5 -56.5t23.5 -56.5t56.5 -23.5t56.5 23.5t23.5 56.5
t-23.5 56.5t-56.5 23.5z" />
    <glyph glyph-name="three" unicode="3" 
d="M178 67q2 39 22 60t58 21q33 0 53.5 -17.5t20.5 -46.5q0 -20 -11 -34t-31 -20q24 -4 37 -19.5t13 -39.5q0 -17 -6 -31t-17 -24t-27 -15.5t-34 -5.5q-26 0 -45 9.5t-29 29.5q-6 8 -8 19t-2 25h22q0 -11 2 -19.5t6 -16.5q8 -14 22 -21t32 -7q27 0 44.5 15t17.5 39
q0 28 -22 42q-8 6 -18 8t-25 2h-6h-5v18h2h7q27 0 42.5 12t15.5 34q0 20 -14.5 32t-38.5 12q-26 0 -41 -15.5t-16 -45.5h-21zM140 800q-33 0 -56.5 -23.5t-23.5 -56.5t23.5 -56.5t56.5 -23.5t56.5 23.5t23.5 56.5t-23.5 56.5t-56.5 23.5zM360 800q-33 0 -56.5 -23.5
t-23.5 -56.5t23.5 -56.5t56.5 -23.5t56.5 23.5t23.5 56.5t-23.5 56.5t-56.5 23.5z" />
    <glyph glyph-name="four" unicode="4" 
d="M342 -40h-37v-60h-21v60h-114v20l116 165h19v-167h37v-18zM284 112l-94 -134h94v134zM140 800q-33 0 -56.5 -23.5t-23.5 -56.5t23.5 -56.5t56.5 -23.5t56.5 23.5t23.5 56.5t-23.5 56.5t-56.5 23.5zM360 800q-33 0 -56.5 -23.5t-23.5 -56.5t23.5 -56.5t56.5 -23.5
t56.5 23.5t23.5 56.5t-23.5 56.5t-56.5 23.5zM360 580q-33 0 -56.5 -23.5t-23.5 -56.5t23.5 -56.5t56.5 -23.5t56.5 23.5t23.5 56.5t-23.5 56.5t-56.5 23.5z" />
    <glyph glyph-name="five" unicode="5" 
d="M328 123h-107l-18 -85q20 25 56 25q17 0 32 -6.5t25.5 -17.5t16.5 -26t6 -33t-6.5 -34t-17.5 -27t-26.5 -17.5t-33.5 -6.5q-19 0 -34 5.5t-25.5 15.5t-16 24t-5.5 31h21q3 -27 18 -42.5t42 -15.5q13 0 24 5t19.5 13.5t13 20.5t4.5 26t-4.5 26.5t-12.5 21t-19.5 13.5
t-25.5 5q-34 0 -54 -28h-23l27 126h124v-19zM140 800q-33 0 -56.5 -23.5t-23.5 -56.5t23.5 -56.5t56.5 -23.5t56.5 23.5t23.5 56.5t-23.5 56.5t-56.5 23.5zM360 580q-33 0 -56.5 -23.5t-23.5 -56.5t23.5 -56.5t56.5 -23.5t56.5 23.5t23.5 56.5t-23.5 56.5t-56.5 23.5z" />
    <glyph glyph-name="six" unicode="6" 
d="M312 84q-4 20 -17 32t-35 12q-45 0 -60 -54q-4 -12 -5 -25t-2 -33q10 22 27.5 33t40.5 11q17 0 31.5 -6t25 -17t16.5 -26t6 -32q0 -18 -6 -33.5t-17 -26.5t-26 -17.5t-33 -6.5q-22 0 -40 9.5t-29 27.5q-9 15 -13 34.5t-4 49.5q0 64 22.5 98t66.5 34q31 0 50 -17t23 -47
h-22zM256 40q-12 0 -23 -5t-19 -13t-12 -19t-4 -25t4 -26t12.5 -20t19 -13t24.5 -5q26 0 43 18t17 45q0 29 -17 46t-45 17zM140 800q-33 0 -56.5 -23.5t-23.5 -56.5t23.5 -56.5t56.5 -23.5t56.5 23.5t23.5 56.5t-23.5 56.5t-56.5 23.5zM360 800q-33 0 -56.5 -23.5
t-23.5 -56.5t23.5 -56.5t56.5 -23.5t56.5 23.5t23.5 56.5t-23.5 56.5t-56.5 23.5zM140 580q-33 0 -56.5 -23.5t-23.5 -56.5t23.5 -56.5t56.5 -23.5t56.5 23.5t23.5 56.5t-23.5 56.5t-56.5 23.5z" />
    <glyph glyph-name="seven" unicode="7" 
d="M335 123q-43 -44 -69 -102t-30 -121h-24q2 28 10 59t21 60t31 56t40 47h-136v20h157v-19zM140 800q-33 0 -56.5 -23.5t-23.5 -56.5t23.5 -56.5t56.5 -23.5t56.5 23.5t23.5 56.5t-23.5 56.5t-56.5 23.5zM360 800q-33 0 -56.5 -23.5t-23.5 -56.5t23.5 -56.5t56.5 -23.5
t56.5 23.5t23.5 56.5t-23.5 56.5t-56.5 23.5zM140 580q-33 0 -56.5 -23.5t-23.5 -56.5t23.5 -56.5t56.5 -23.5t56.5 23.5t23.5 56.5t-23.5 56.5t-56.5 23.5zM360 580q-33 0 -56.5 -23.5t-23.5 -56.5t23.5 -56.5t56.5 -23.5t56.5 23.5t23.5 56.5t-23.5 56.5t-56.5 23.5z" />
    <glyph glyph-name="eight" unicode="8" 
d="M222 32q-20 6 -30 20t-10 34q0 28 20 45t54 17t54 -17t20 -45q0 -20 -10 -33.5t-30 -20.5q26 -6 38 -21.5t12 -39.5q0 -35 -22.5 -55.5t-61.5 -20.5t-61.5 20t-22.5 55q0 24 13 40.5t37 21.5zM256 128q-24 0 -38 -12t-14 -32t14 -32t38 -12t38 12t14 33t-13.5 32
t-38.5 11zM254 23q-26 0 -42.5 -14.5t-16.5 -38.5q0 -26 16.5 -41t44.5 -15t44.5 15t16.5 41q0 24 -16.5 38.5t-46.5 14.5zM140 800q-33 0 -56.5 -23.5t-23.5 -56.5t23.5 -56.5t56.5 -23.5t56.5 23.5t23.5 56.5t-23.5 56.5t-56.5 23.5zM140 580q-33 0 -56.5 -23.5
t-23.5 -56.5t23.5 -56.5t56.5 -23.5t56.5 23.5t23.5 56.5t-23.5 56.5t-56.5 23.5zM360 580q-33 0 -56.5 -23.5t-23.5 -56.5t23.5 -56.5t56.5 -23.5t56.5 23.5t23.5 56.5t-23.5 56.5t-56.5 23.5z" />
    <glyph glyph-name="nine" unicode="9" 
d="M200 -41q3 -21 17.5 -33t36.5 -12q24 0 40 17t21 50q1 10 2 20.5t1 26.5l-6.5 -13t-7.5 -10q-10 -11 -23.5 -16.5t-29.5 -5.5q-17 0 -32 6t-25 16.5t-16 25.5t-6 33t6 34t17 27t26 17t33 6q28 0 47 -11.5t29 -34.5q6 -16 8 -33t2 -41q0 -52 -13 -82q-23 -51 -74 -51
q-31 0 -51 17.5t-24 46.5h22zM253 128q-25 0 -41 -17.5t-16 -44.5q0 -29 16 -46.5t42 -17.5t43 17.5t17 45.5t-17 45.5t-44 17.5zM360 800q-33 0 -56.5 -23.5t-23.5 -56.5t23.5 -56.5t56.5 -23.5t56.5 23.5t23.5 56.5t-23.5 56.5t-56.5 23.5zM140 580q-33 0 -56.5 -23.5
t-23.5 -56.5t23.5 -56.5t56.5 -23.5t56.5 23.5t23.5 56.5t-23.5 56.5t-56.5 23.5z" />
    <glyph glyph-name="colon" unicode=":" 
d="M250 60q-10 0 -15 6t-5 14t5 14t15 6t15 -6t5 -14t-5 -14t-15 -6zM250 -100q-10 0 -15 6t-5 14t5 14t15 6t15 -6t5 -14t-5 -14t-15 -6zM140 580q-33 0 -56.5 -23.5t-23.5 -56.5t23.5 -56.5t56.5 -23.5t56.5 23.5t23.5 56.5t-23.5 56.5t-56.5 23.5zM360 580
q-33 0 -56.5 -23.5t-23.5 -56.5t23.5 -56.5t56.5 -23.5t56.5 23.5t23.5 56.5t-23.5 56.5t-56.5 23.5z" />
    <glyph glyph-name="semicolon" unicode=";" 
d="M250 60q-10 0 -15 6t-5 14t5 14t15 6t15 -6t5 -14t-5 -14t-15 -6zM250 -100l-2.5 -0.5t-5.5 0t-6.5 2t-5.5 4.5q-2 4 -2 9t2 9.5t6 7.5t10 3q10 0 14 -4t6 -9.5t2 -12.5t-2 -13q-2 -14 -9 -21t-13 -10q-8 -3 -18 -4v11q3 0 6 1q2 1 5 2t6 4t5 6t2 6v6v3zM140 580
q-33 0 -56.5 -23.5t-23.5 -56.5t23.5 -56.5t56.5 -23.5t56.5 23.5t23.5 56.5t-23.5 56.5t-56.5 23.5zM140 360q-33 0 -56.5 -23.5t-23.5 -56.5t23.5 -56.5t56.5 -23.5t56.5 23.5t23.5 56.5t-23.5 56.5t-56.5 23.5z" />
    <glyph glyph-name="less" unicode="&#x3c;" horiz-adv-x="1180" 
d="M714 87l-136 -61l136 -62v-24l-162 75v21l162 74v-23zM360 800q-33 0 -56.5 -23.5t-23.5 -56.5t23.5 -56.5t56.5 -23.5t56.5 23.5t23.5 56.5t-23.5 56.5t-56.5 23.5zM730 800q-33 0 -56.5 -23.5t-23.5 -56.5t23.5 -56.5t56.5 -23.5t56.5 23.5t23.5 56.5t-23.5 56.5
t-56.5 23.5zM730 580q-33 0 -56.5 -23.5t-23.5 -56.5t23.5 -56.5t56.5 -23.5t56.5 23.5t23.5 56.5t-23.5 56.5t-56.5 23.5zM950 360q-33 0 -56.5 -23.5t-23.5 -56.5t23.5 -56.5t56.5 -23.5t56.5 23.5t23.5 56.5t-23.5 56.5t-56.5 23.5z" />
    <glyph glyph-name="equal" unicode="=" horiz-adv-x="1180" 
d="M722 56v-16h-168v16h168zM722 2v-16h-168v16h168zM360 580q-33 0 -56.5 -23.5t-23.5 -56.5t23.5 -56.5t56.5 -23.5t56.5 23.5t23.5 56.5t-23.5 56.5t-56.5 23.5zM730 580q-33 0 -56.5 -23.5t-23.5 -56.5t23.5 -56.5t56.5 -23.5t56.5 23.5t23.5 56.5t-23.5 56.5
t-56.5 23.5zM950 580q-33 0 -56.5 -23.5t-23.5 -56.5t23.5 -56.5t56.5 -23.5t56.5 23.5t23.5 56.5t-23.5 56.5t-56.5 23.5zM730 360q-33 0 -56.5 -23.5t-23.5 -56.5t23.5 -56.5t56.5 -23.5t56.5 23.5t23.5 56.5t-23.5 56.5t-56.5 23.5zM950 360q-33 0 -56.5 -23.5
t-23.5 -56.5t23.5 -56.5t56.5 -23.5t56.5 23.5t23.5 56.5t-23.5 56.5t-56.5 23.5z" />
    <glyph glyph-name="greater" unicode="&#x3e;" horiz-adv-x="1180" 
d="M553 -36l137 62l-137 61v23l162 -74v-21l-162 -75v24zM360 800q-33 0 -56.5 -23.5t-23.5 -56.5t23.5 -56.5t56.5 -23.5t56.5 23.5t23.5 56.5t-23.5 56.5t-56.5 23.5zM950 800q-33 0 -56.5 -23.5t-23.5 -56.5t23.5 -56.5t56.5 -23.5t56.5 23.5t23.5 56.5t-23.5 56.5
t-56.5 23.5zM950 580q-33 0 -56.5 -23.5t-23.5 -56.5t23.5 -56.5t56.5 -23.5t56.5 23.5t23.5 56.5t-23.5 56.5t-56.5 23.5zM730 360q-33 0 -56.5 -23.5t-23.5 -56.5t23.5 -56.5t56.5 -23.5t56.5 23.5t23.5 56.5t-23.5 56.5t-56.5 23.5z" />
    <glyph glyph-name="question" unicode="?" 
d="M162 72q1 18 3.5 29.5t9.5 21.5q21 33 65 33q33 0 53 -18t20 -48q0 -23 -15 -42q-4 -4 -9 -10t-19 -18q-6 -7 -10.5 -12.5t-7 -11.5t-3.5 -14t-1 -20h-20q0 15 1 24.5t5 18t12 17.5t22 22q11 12 16.5 22.5t5.5 22.5q0 21 -14 34t-36 13q-16 0 -28 -7t-20 -19
q-4 -7 -6 -15.5t-2 -22.5h-22zM250 -100h-26v35h26v-35zM140 580q-33 0 -56.5 -23.5t-23.5 -56.5t23.5 -56.5t56.5 -23.5t56.5 23.5t23.5 56.5t-23.5 56.5t-56.5 23.5zM140 360q-33 0 -56.5 -23.5t-23.5 -56.5t23.5 -56.5t56.5 -23.5t56.5 23.5t23.5 56.5t-23.5 56.5
t-56.5 23.5zM360 360q-33 0 -56.5 -23.5t-23.5 -56.5t23.5 -56.5t56.5 -23.5t56.5 23.5t23.5 56.5t-23.5 56.5t-56.5 23.5z" />
    <glyph glyph-name="at" unicode="@" horiz-adv-x="1180" 
d="M696 -37q-6 -13 -13 -21.5t-19 -17.5q-17 -14 -38.5 -22t-43.5 -8q-27 0 -50.5 10t-41 28t-27.5 41.5t-10 50.5q0 28 10.5 52t28 41.5t41.5 28t51 10.5q25 0 46 -8.5t36.5 -23t24.5 -34.5t9 -42q0 -46 -34 -72q-11 -10 -23.5 -15.5t-22.5 -5.5q-12 0 -19 5.5t-9 15.5
q-10 -11 -20 -15.5t-22 -4.5q-18 0 -29 12.5t-11 33.5q0 18 6 34.5t16.5 29.5t24 20.5t26.5 7.5q25 0 36 -24l7 18h17l-31 -92q-2 -5 -3 -9.5t-1 -7.5q0 -13 16 -13q18 0 38 20q14 12 20 28t6 34q0 20 -8 38t-22 31t-33 20t-41 7q-24 0 -46 -9t-38 -25t-25 -38t-9 -47t9 -47
t25 -38t37 -25t45 -9q32 0 59 16t41 41h14zM606 34q4 8 5 13t1 9q0 12 -7 20t-18 8t-21 -8t-18.5 -20t-13.5 -27.5t-5 -30.5t6.5 -23.5t17.5 -8.5q7 0 14.5 4t13.5 9q5 5 8.5 11.5t8.5 19.5zM360 800q-33 0 -56.5 -23.5t-23.5 -56.5t23.5 -56.5t56.5 -23.5t56.5 23.5
t23.5 56.5t-23.5 56.5t-56.5 23.5zM730 800q-33 0 -56.5 -23.5t-23.5 -56.5t23.5 -56.5t56.5 -23.5t56.5 23.5t23.5 56.5t-23.5 56.5t-56.5 23.5z" />
    <glyph glyph-name="A" unicode="A" horiz-adv-x="1180" 
d="M360 360q-33 0 -56.5 -23.5t-23.5 -56.5t23.5 -56.5t56.5 -23.5t56.5 23.5t23.5 56.5t-23.5 56.5t-56.5 23.5zM719 -100h-27l-30 78h-114l-31 -78h-25l100 250h27zM606 126l-51 -128h101zM730 800q-33 0 -56.5 -23.5t-23.5 -56.5t23.5 -56.5t56.5 -23.5t56.5 23.5
t23.5 56.5t-23.5 56.5t-56.5 23.5z" />
    <glyph glyph-name="B" unicode="B" horiz-adv-x="1180" 
d="M360 360q-33 0 -56.5 -23.5t-23.5 -56.5t23.5 -56.5t56.5 -23.5t56.5 23.5t23.5 56.5t-23.5 56.5t-56.5 23.5zM614 150q20 0 32 -2t22 -8q15 -8 23.5 -22t8.5 -30q0 -21 -12 -36t-32 -20q8 -2 14 -4t11 -4q13 -9 21 -22.5t8 -29.5q0 -22 -11 -38t-30 -26q-18 -8 -49 -8
h-106v250h100zM538 39h66q16 0 26 1t18 4q12 5 20 15.5t8 24.5q0 29 -26 40q-7 3 -16.5 4t-23.5 1h-72v-90zM538 -80h74q20 0 32 2.5t20 7.5q22 14 22 42q0 25 -18.5 36.5t-57.5 11.5h-72v-100zM730 800q-33 0 -56.5 -23.5t-23.5 -56.5t23.5 -56.5t56.5 -23.5t56.5 23.5
t23.5 56.5t-23.5 56.5t-56.5 23.5zM730 580q-33 0 -56.5 -23.5t-23.5 -56.5t23.5 -56.5t56.5 -23.5t56.5 23.5t23.5 56.5t-23.5 56.5t-56.5 23.5z" />
    <glyph glyph-name="C" unicode="C" horiz-adv-x="1180" 
d="M360 360q-33 0 -56.5 -23.5t-23.5 -56.5t23.5 -56.5t56.5 -23.5t56.5 23.5t23.5 56.5t-23.5 56.5t-56.5 23.5zM726 -4q-3 -24 -11.5 -42t-22.5 -31.5t-33 -21t-41 -7.5q-26 0 -47 9.5t-36 26.5t-23.5 41t-8.5 53.5t8.5 53.5t23.5 41t37 27t48 10q50 0 80 -33
q10 -11 15 -23t7 -25h-24q-6 28 -27 44.5t-52 16.5q-21 0 -38 -8t-29 -23t-18.5 -35t-6.5 -45t6.5 -45.5t18.5 -35t29 -22t37 -7.5q36 0 57.5 21t26.5 60h24zM730 800q-33 0 -56.5 -23.5t-23.5 -56.5t23.5 -56.5t56.5 -23.5t56.5 23.5t23.5 56.5t-23.5 56.5t-56.5 23.5z
M950 800q-33 0 -56.5 -23.5t-23.5 -56.5t23.5 -56.5t56.5 -23.5t56.5 23.5t23.5 56.5t-23.5 56.5t-56.5 23.5z" />
    <glyph glyph-name="D" unicode="D" horiz-adv-x="1180" 
d="M360 360q-33 0 -56.5 -23.5t-23.5 -56.5t23.5 -56.5t56.5 -23.5t56.5 23.5t23.5 56.5t-23.5 56.5t-56.5 23.5zM600 150q30 0 52 -9t36 -24.5t21 -38t7 -48.5q0 -29 -7 -53t-21 -41t-35 -26.5t-51 -9.5h-88v250h86zM538 -80h59q27 0 45 8t29 22t16 34t5 44q0 48 -22 74.5
t-70 26.5h-62v-209zM730 800q-33 0 -56.5 -23.5t-23.5 -56.5t23.5 -56.5t56.5 -23.5t56.5 23.5t23.5 56.5t-23.5 56.5t-56.5 23.5zM950 800q-33 0 -56.5 -23.5t-23.5 -56.5t23.5 -56.5t56.5 -23.5t56.5 23.5t23.5 56.5t-23.5 56.5t-56.5 23.5zM950 580q-33 0 -56.5 -23.5
t-23.5 -56.5t23.5 -56.5t56.5 -23.5t56.5 23.5t23.5 56.5t-23.5 56.5t-56.5 23.5z" />
    <glyph glyph-name="E" unicode="E" horiz-adv-x="1180" 
d="M360 360q-33 0 -56.5 -23.5t-23.5 -56.5t23.5 -56.5t56.5 -23.5t56.5 23.5t23.5 56.5t-23.5 56.5t-56.5 23.5zM688 129h-150v-89h140v-20h-140v-100h151v-20h-175v250h174v-21zM730 800q-33 0 -56.5 -23.5t-23.5 -56.5t23.5 -56.5t56.5 -23.5t56.5 23.5t23.5 56.5
t-23.5 56.5t-56.5 23.5zM950 580q-33 0 -56.5 -23.5t-23.5 -56.5t23.5 -56.5t56.5 -23.5t56.5 23.5t23.5 56.5t-23.5 56.5t-56.5 23.5z" />
    <glyph glyph-name="F" unicode="F" horiz-adv-x="1180" 
d="M360 360q-33 0 -56.5 -23.5t-23.5 -56.5t23.5 -56.5t56.5 -23.5t56.5 23.5t23.5 56.5t-23.5 56.5t-56.5 23.5zM674 129h-136v-89h120v-20h-120v-120h-24v250h160v-21zM730 800q-33 0 -56.5 -23.5t-23.5 -56.5t23.5 -56.5t56.5 -23.5t56.5 23.5t23.5 56.5t-23.5 56.5
t-56.5 23.5zM950 800q-33 0 -56.5 -23.5t-23.5 -56.5t23.5 -56.5t56.5 -23.5t56.5 23.5t23.5 56.5t-23.5 56.5t-56.5 23.5zM730 580q-33 0 -56.5 -23.5t-23.5 -56.5t23.5 -56.5t56.5 -23.5t56.5 23.5t23.5 56.5t-23.5 56.5t-56.5 23.5z" />
    <glyph glyph-name="G" unicode="G" horiz-adv-x="1180" 
d="M360 360q-33 0 -56.5 -23.5t-23.5 -56.5t23.5 -56.5t56.5 -23.5t56.5 23.5t23.5 56.5t-23.5 56.5t-56.5 23.5zM730 -100h-16l-5 46q-11 -24 -34 -38t-55 -14q-26 0 -47.5 9.5t-37 26.5t-24 40.5t-8.5 52.5t8.5 54t24.5 42t38 27t48 10q47 0 79 -32q11 -11 17 -23t8 -28
h-24q-2 14 -9 25.5t-17.5 19.5t-24 13t-29.5 5q-22 0 -39 -8t-30 -23t-19.5 -36t-6.5 -45q0 -25 6.5 -45t19.5 -34.5t30 -22t39 -7.5q26 0 46.5 12t30.5 33q5 11 7 22t2 26h-85v19h107v-127zM730 800q-33 0 -56.5 -23.5t-23.5 -56.5t23.5 -56.5t56.5 -23.5t56.5 23.5
t23.5 56.5t-23.5 56.5t-56.5 23.5zM950 800q-33 0 -56.5 -23.5t-23.5 -56.5t23.5 -56.5t56.5 -23.5t56.5 23.5t23.5 56.5t-23.5 56.5t-56.5 23.5zM730 580q-33 0 -56.5 -23.5t-23.5 -56.5t23.5 -56.5t56.5 -23.5t56.5 23.5t23.5 56.5t-23.5 56.5t-56.5 23.5zM950 580
q-33 0 -56.5 -23.5t-23.5 -56.5t23.5 -56.5t56.5 -23.5t56.5 23.5t23.5 56.5t-23.5 56.5t-56.5 23.5z" />
    <glyph glyph-name="H" unicode="H" horiz-adv-x="1180" 
d="M360 360q-33 0 -56.5 -23.5t-23.5 -56.5t23.5 -56.5t56.5 -23.5t56.5 23.5t23.5 56.5t-23.5 56.5t-56.5 23.5zM711 -100h-23v120h-150v-120h-24v250h24v-108h150v108h23v-250zM730 800q-33 0 -56.5 -23.5t-23.5 -56.5t23.5 -56.5t56.5 -23.5t56.5 23.5t23.5 56.5
t-23.5 56.5t-56.5 23.5zM730 580q-33 0 -56.5 -23.5t-23.5 -56.5t23.5 -56.5t56.5 -23.5t56.5 23.5t23.5 56.5t-23.5 56.5t-56.5 23.5zM950 580q-33 0 -56.5 -23.5t-23.5 -56.5t23.5 -56.5t56.5 -23.5t56.5 23.5t23.5 56.5t-23.5 56.5t-56.5 23.5z" />
    <glyph glyph-name="I" unicode="I" horiz-adv-x="1180" 
d="M360 360q-33 0 -56.5 -23.5t-23.5 -56.5t23.5 -56.5t56.5 -23.5t56.5 23.5t23.5 56.5t-23.5 56.5t-56.5 23.5zM588 -100h-24v250h24v-250zM950 800q-33 0 -56.5 -23.5t-23.5 -56.5t23.5 -56.5t56.5 -23.5t56.5 23.5t23.5 56.5t-23.5 56.5t-56.5 23.5zM730 580
q-33 0 -56.5 -23.5t-23.5 -56.5t23.5 -56.5t56.5 -23.5t56.5 23.5t23.5 56.5t-23.5 56.5t-56.5 23.5z" />
    <glyph glyph-name="J" unicode="J" horiz-adv-x="1180" 
d="M360 360q-33 0 -56.5 -23.5t-23.5 -56.5t23.5 -56.5t56.5 -23.5t56.5 23.5t23.5 56.5t-23.5 56.5t-56.5 23.5zM633 -26q0 -20 -2.5 -32t-8.5 -22q-6 -9 -12 -13.5t-18 -6.5q-8 -2 -16 -3t-16 -1q-22 0 -39 9t-24 25q-7 15 -7 44v9h24v-14v-7v-6l2 -5q6 -35 46 -35
q28 0 39 18q4 6 6.5 16t2.5 26v176h23v-178zM950 800q-33 0 -56.5 -23.5t-23.5 -56.5t23.5 -56.5t56.5 -23.5t56.5 23.5t23.5 56.5t-23.5 56.5t-56.5 23.5zM730 580q-33 0 -56.5 -23.5t-23.5 -56.5t23.5 -56.5t56.5 -23.5t56.5 23.5t23.5 56.5t-23.5 56.5t-56.5 23.5z
M950 580q-33 0 -56.5 -23.5t-23.5 -56.5t23.5 -56.5t56.5 -23.5t56.5 23.5t23.5 56.5t-23.5 56.5t-56.5 23.5z" />
    <glyph glyph-name="K" unicode="K" horiz-adv-x="1180" 
d="M360 360q-33 0 -56.5 -23.5t-23.5 -56.5t23.5 -56.5t56.5 -23.5t56.5 23.5t23.5 56.5t-23.5 56.5t-56.5 23.5zM602 48l118 -148h-30l-104 132l-48 -44v-88h-24v250h24v-134l144 134h32zM730 800q-33 0 -56.5 -23.5t-23.5 -56.5t23.5 -56.5t56.5 -23.5t56.5 23.5
t23.5 56.5t-23.5 56.5t-56.5 23.5zM730 360q-33 0 -56.5 -23.5t-23.5 -56.5t23.5 -56.5t56.5 -23.5t56.5 23.5t23.5 56.5t-23.5 56.5t-56.5 23.5z" />
    <glyph glyph-name="L" unicode="L" horiz-adv-x="1180" 
d="M360 360q-33 0 -56.5 -23.5t-23.5 -56.5t23.5 -56.5t56.5 -23.5t56.5 23.5t23.5 56.5t-23.5 56.5t-56.5 23.5zM678 -100h-164v250h24v-230h140v-20zM730 800q-33 0 -56.5 -23.5t-23.5 -56.5t23.5 -56.5t56.5 -23.5t56.5 23.5t23.5 56.5t-23.5 56.5t-56.5 23.5zM730 580
q-33 0 -56.5 -23.5t-23.5 -56.5t23.5 -56.5t56.5 -23.5t56.5 23.5t23.5 56.5t-23.5 56.5t-56.5 23.5zM730 360q-33 0 -56.5 -23.5t-23.5 -56.5t23.5 -56.5t56.5 -23.5t56.5 23.5t23.5 56.5t-23.5 56.5t-56.5 23.5z" />
    <glyph glyph-name="M" unicode="M" horiz-adv-x="1180" 
d="M360 360q-33 0 -56.5 -23.5t-23.5 -56.5t23.5 -56.5t56.5 -23.5t56.5 23.5t23.5 56.5t-23.5 56.5t-56.5 23.5zM706 -100h-22v219l-87 -219h-21l-90 215v-215h-22v250h32l90 -220l88 220h32v-250zM730 800q-33 0 -56.5 -23.5t-23.5 -56.5t23.5 -56.5t56.5 -23.5t56.5 23.5
t23.5 56.5t-23.5 56.5t-56.5 23.5zM950 800q-33 0 -56.5 -23.5t-23.5 -56.5t23.5 -56.5t56.5 -23.5t56.5 23.5t23.5 56.5t-23.5 56.5t-56.5 23.5zM730 360q-33 0 -56.5 -23.5t-23.5 -56.5t23.5 -56.5t56.5 -23.5t56.5 23.5t23.5 56.5t-23.5 56.5t-56.5 23.5z" />
    <glyph glyph-name="N" unicode="N" horiz-adv-x="1180" 
d="M360 360q-33 0 -56.5 -23.5t-23.5 -56.5t23.5 -56.5t56.5 -23.5t56.5 23.5t23.5 56.5t-23.5 56.5t-56.5 23.5zM711 -100h-27l-148 213v-213h-22v250h26l148 -214v214h23v-250zM730 800q-33 0 -56.5 -23.5t-23.5 -56.5t23.5 -56.5t56.5 -23.5t56.5 23.5t23.5 56.5
t-23.5 56.5t-56.5 23.5zM950 800q-33 0 -56.5 -23.5t-23.5 -56.5t23.5 -56.5t56.5 -23.5t56.5 23.5t23.5 56.5t-23.5 56.5t-56.5 23.5zM950 580q-33 0 -56.5 -23.5t-23.5 -56.5t23.5 -56.5t56.5 -23.5t56.5 23.5t23.5 56.5t-23.5 56.5t-56.5 23.5zM730 360
q-33 0 -56.5 -23.5t-23.5 -56.5t23.5 -56.5t56.5 -23.5t56.5 23.5t23.5 56.5t-23.5 56.5t-56.5 23.5z" />
    <glyph glyph-name="O" unicode="O" horiz-adv-x="1180" 
d="M360 360q-33 0 -56.5 -23.5t-23.5 -56.5t23.5 -56.5t56.5 -23.5t56.5 23.5t23.5 56.5t-23.5 56.5t-56.5 23.5zM622 156q26 0 47 -10t37 -27t24 -41t8 -54q0 -29 -8 -52.5t-24 -41t-37.5 -27t-48 -9.5t-48 9.5t-37 27t-24 41.5t-8.5 53t8.5 53t24.5 41.5t38 27t48 9.5z
M620 136q-20 0 -37 -8t-30 -23q-26 -29 -26 -79q0 -25 6.5 -45.5t19 -35t30 -22.5t38.5 -8t38 8t30 22.5t19.5 34.5t6.5 44q0 26 -6.5 46t-19.5 35t-30.5 23t-38.5 8zM730 800q-33 0 -56.5 -23.5t-23.5 -56.5t23.5 -56.5t56.5 -23.5t56.5 23.5t23.5 56.5t-23.5 56.5
t-56.5 23.5zM950 580q-33 0 -56.5 -23.5t-23.5 -56.5t23.5 -56.5t56.5 -23.5t56.5 23.5t23.5 56.5t-23.5 56.5t-56.5 23.5zM730 360q-33 0 -56.5 -23.5t-23.5 -56.5t23.5 -56.5t56.5 -23.5t56.5 23.5t23.5 56.5t-23.5 56.5t-56.5 23.5z" />
    <glyph glyph-name="P" unicode="P" horiz-adv-x="1180" 
d="M360 360q-33 0 -56.5 -23.5t-23.5 -56.5t23.5 -56.5t56.5 -23.5t56.5 23.5t23.5 56.5t-23.5 56.5t-56.5 23.5zM614 150q24 0 40 -5t26 -14.5t14.5 -22.5t4.5 -28q0 -34 -20 -53.5t-63 -19.5h-78v-107h-24v250h100zM538 27h72q36 0 51 14.5t15 36.5q0 24 -14.5 37.5
t-53.5 13.5h-70v-102zM730 800q-33 0 -56.5 -23.5t-23.5 -56.5t23.5 -56.5t56.5 -23.5t56.5 23.5t23.5 56.5t-23.5 56.5t-56.5 23.5zM950 800q-33 0 -56.5 -23.5t-23.5 -56.5t23.5 -56.5t56.5 -23.5t56.5 23.5t23.5 56.5t-23.5 56.5t-56.5 23.5zM730 580q-33 0 -56.5 -23.5
t-23.5 -56.5t23.5 -56.5t56.5 -23.5t56.5 23.5t23.5 56.5t-23.5 56.5t-56.5 23.5zM730 360q-33 0 -56.5 -23.5t-23.5 -56.5t23.5 -56.5t56.5 -23.5t56.5 23.5t23.5 56.5t-23.5 56.5t-56.5 23.5z" />
    <glyph glyph-name="Q" unicode="Q" horiz-adv-x="1180" 
d="M360 360q-33 0 -56.5 -23.5t-23.5 -56.5t23.5 -56.5t56.5 -23.5t56.5 23.5t23.5 56.5t-23.5 56.5t-56.5 23.5zM726 -116l-40 30q-12 -10 -29.5 -15t-35.5 -5q-27 0 -48 9.5t-37 27t-24.5 41t-8.5 52.5q0 30 8.5 54t24 41t37 27t47.5 10t48 -10t38 -27t24 -41t8 -52
q0 -30 -9 -56t-27 -44l35 -27zM684 -61q16 17 23.5 38t7.5 49q0 24 -6.5 44t-19.5 35t-30 23t-38 8t-38.5 -8t-30 -23t-19 -35t-6.5 -45t6.5 -45.5t19.5 -35t30 -22t39 -7.5q14 0 25 3.5t21 9.5l-34 25l13 15zM730 800q-33 0 -56.5 -23.5t-23.5 -56.5t23.5 -56.5t56.5 -23.5
t56.5 23.5t23.5 56.5t-23.5 56.5t-56.5 23.5zM950 800q-33 0 -56.5 -23.5t-23.5 -56.5t23.5 -56.5t56.5 -23.5t56.5 23.5t23.5 56.5t-23.5 56.5t-56.5 23.5zM730 580q-33 0 -56.5 -23.5t-23.5 -56.5t23.5 -56.5t56.5 -23.5t56.5 23.5t23.5 56.5t-23.5 56.5t-56.5 23.5z
M950 580q-33 0 -56.5 -23.5t-23.5 -56.5t23.5 -56.5t56.5 -23.5t56.5 23.5t23.5 56.5t-23.5 56.5t-56.5 23.5zM730 360q-33 0 -56.5 -23.5t-23.5 -56.5t23.5 -56.5t56.5 -23.5t56.5 23.5t23.5 56.5t-23.5 56.5t-56.5 23.5z" />
    <glyph glyph-name="R" unicode="R" horiz-adv-x="1180" 
d="M360 360q-33 0 -56.5 -23.5t-23.5 -56.5t23.5 -56.5t56.5 -23.5t56.5 23.5t23.5 56.5t-23.5 56.5t-56.5 23.5zM624 150q17 0 29.5 -2.5t22.5 -8.5q28 -19 28 -55q0 -26 -12.5 -42t-35.5 -22q11 -2 18.5 -5.5t13.5 -10.5q4 -6 6 -10t3 -10t2 -15.5t2 -26.5q1 -19 3 -27.5
t8 -14.5h-28q-4 6 -6 34q0 16 -1 26.5t-3 17.5t-4.5 11.5t-6.5 8.5q-7 8 -19 11t-34 3h-72v-112h-24v250h110zM538 30h70q18 0 30.5 2.5t21.5 7.5q20 12 20 41q0 25 -24 41q-6 4 -16 5.5t-24 1.5h-78v-99zM730 800q-33 0 -56.5 -23.5t-23.5 -56.5t23.5 -56.5t56.5 -23.5
t56.5 23.5t23.5 56.5t-23.5 56.5t-56.5 23.5zM730 580q-33 0 -56.5 -23.5t-23.5 -56.5t23.5 -56.5t56.5 -23.5t56.5 23.5t23.5 56.5t-23.5 56.5t-56.5 23.5zM950 580q-33 0 -56.5 -23.5t-23.5 -56.5t23.5 -56.5t56.5 -23.5t56.5 23.5t23.5 56.5t-23.5 56.5t-56.5 23.5z
M730 360q-33 0 -56.5 -23.5t-23.5 -56.5t23.5 -56.5t56.5 -23.5t56.5 23.5t23.5 56.5t-23.5 56.5t-56.5 23.5z" />
    <glyph glyph-name="S" unicode="S" horiz-adv-x="1180" 
d="M360 360q-33 0 -56.5 -23.5t-23.5 -56.5t23.5 -56.5t56.5 -23.5t56.5 23.5t23.5 56.5t-23.5 56.5t-56.5 23.5zM657 78q-5 58 -69 58q-30 0 -46 -13t-16 -35q0 -19 14 -30q4 -3 8 -4.5t10 -3.5t14.5 -4.5t19.5 -5.5q16 -3 26 -5.5t17 -4.5t12.5 -4.5t10.5 -5.5
q30 -18 30 -52q0 -17 -7 -31.5t-21 -24.5q-24 -18 -66 -18q-47 0 -73.5 23t-26.5 63v3h22q2 -16 5 -26.5t11 -18.5q20 -24 64 -24q32 0 50.5 14t18.5 38q0 26 -29 40q-4 2 -8 3t-10.5 3t-15 4t-22.5 4q-12 4 -20.5 6t-15 4.5t-11.5 5t-9 5.5q-22 15 -22 46t23 50t64 19
q43 0 66 -20.5t25 -57.5h-23zM950 800q-33 0 -56.5 -23.5t-23.5 -56.5t23.5 -56.5t56.5 -23.5t56.5 23.5t23.5 56.5t-23.5 56.5t-56.5 23.5zM730 580q-33 0 -56.5 -23.5t-23.5 -56.5t23.5 -56.5t56.5 -23.5t56.5 23.5t23.5 56.5t-23.5 56.5t-56.5 23.5zM730 360
q-33 0 -56.5 -23.5t-23.5 -56.5t23.5 -56.5t56.5 -23.5t56.5 23.5t23.5 56.5t-23.5 56.5t-56.5 23.5z" />
    <glyph glyph-name="T" unicode="T" horiz-adv-x="1180" 
d="M360 360q-33 0 -56.5 -23.5t-23.5 -56.5t23.5 -56.5t56.5 -23.5t56.5 23.5t23.5 56.5t-23.5 56.5t-56.5 23.5zM688 129h-88v-229h-24v229h-88v21h200v-21zM950 800q-33 0 -56.5 -23.5t-23.5 -56.5t23.5 -56.5t56.5 -23.5t56.5 23.5t23.5 56.5t-23.5 56.5t-56.5 23.5z
M730 580q-33 0 -56.5 -23.5t-23.5 -56.5t23.5 -56.5t56.5 -23.5t56.5 23.5t23.5 56.5t-23.5 56.5t-56.5 23.5zM950 580q-33 0 -56.5 -23.5t-23.5 -56.5t23.5 -56.5t56.5 -23.5t56.5 23.5t23.5 56.5t-23.5 56.5t-56.5 23.5zM730 360q-33 0 -56.5 -23.5t-23.5 -56.5
t23.5 -56.5t56.5 -23.5t56.5 23.5t23.5 56.5t-23.5 56.5t-56.5 23.5z" />
    <glyph glyph-name="U" unicode="U" horiz-adv-x="1180" 
d="M360 360q-33 0 -56.5 -23.5t-23.5 -56.5t23.5 -56.5t56.5 -23.5t56.5 23.5t23.5 56.5t-23.5 56.5t-56.5 23.5zM704 0q0 -14 -1 -24t-2.5 -18t-5 -15t-7.5 -14q-25 -35 -80 -35q-65 0 -86 42q-6 12 -9 26.5t-3 37.5v150h23v-150q0 -22 2.5 -35t9.5 -23q18 -28 64 -28
q45 0 61 27q6 10 8 23.5t2 35.5v150h24v-150zM730 800q-33 0 -56.5 -23.5t-23.5 -56.5t23.5 -56.5t56.5 -23.5t56.5 23.5t23.5 56.5t-23.5 56.5t-56.5 23.5zM730 360q-33 0 -56.5 -23.5t-23.5 -56.5t23.5 -56.5t56.5 -23.5t56.5 23.5t23.5 56.5t-23.5 56.5t-56.5 23.5z
M950 360q-33 0 -56.5 -23.5t-23.5 -56.5t23.5 -56.5t56.5 -23.5t56.5 23.5t23.5 56.5t-23.5 56.5t-56.5 23.5z" />
    <glyph glyph-name="V" unicode="V" horiz-adv-x="1180" 
d="M360 360q-33 0 -56.5 -23.5t-23.5 -56.5t23.5 -56.5t56.5 -23.5t56.5 23.5t23.5 56.5t-23.5 56.5t-56.5 23.5zM614 -100h-28l-94 250h26l82 -224l80 224h26zM730 800q-33 0 -56.5 -23.5t-23.5 -56.5t23.5 -56.5t56.5 -23.5t56.5 23.5t23.5 56.5t-23.5 56.5t-56.5 23.5z
M730 580q-33 0 -56.5 -23.5t-23.5 -56.5t23.5 -56.5t56.5 -23.5t56.5 23.5t23.5 56.5t-23.5 56.5t-56.5 23.5zM730 360q-33 0 -56.5 -23.5t-23.5 -56.5t23.5 -56.5t56.5 -23.5t56.5 23.5t23.5 56.5t-23.5 56.5t-56.5 23.5zM950 360q-33 0 -56.5 -23.5t-23.5 -56.5
t23.5 -56.5t56.5 -23.5t56.5 23.5t23.5 56.5t-23.5 56.5t-56.5 23.5z" />
    <glyph glyph-name="W" unicode="W" horiz-adv-x="1180" 
d="M360 360q-33 0 -56.5 -23.5t-23.5 -56.5t23.5 -56.5t56.5 -23.5t56.5 23.5t23.5 56.5t-23.5 56.5t-56.5 23.5zM692 -100h-26l-64 222l-64 -222h-25l-69 250h25l58 -217l62 217h27l63 -217l58 217h24zM950 800q-33 0 -56.5 -23.5t-23.5 -56.5t23.5 -56.5t56.5 -23.5
t56.5 23.5t23.5 56.5t-23.5 56.5t-56.5 23.5zM730 580q-33 0 -56.5 -23.5t-23.5 -56.5t23.5 -56.5t56.5 -23.5t56.5 23.5t23.5 56.5t-23.5 56.5t-56.5 23.5zM950 580q-33 0 -56.5 -23.5t-23.5 -56.5t23.5 -56.5t56.5 -23.5t56.5 23.5t23.5 56.5t-23.5 56.5t-56.5 23.5z
M950 360q-33 0 -56.5 -23.5t-23.5 -56.5t23.5 -56.5t56.5 -23.5t56.5 23.5t23.5 56.5t-23.5 56.5t-56.5 23.5z" />
    <glyph glyph-name="X" unicode="X" horiz-adv-x="1180" 
d="M360 360q-33 0 -56.5 -23.5t-23.5 -56.5t23.5 -56.5t56.5 -23.5t56.5 23.5t23.5 56.5t-23.5 56.5t-56.5 23.5zM608 28l90 -128h-28l-78 110l-76 -110h-27l91 128l-86 122h29l71 -102l72 102h28zM730 800q-33 0 -56.5 -23.5t-23.5 -56.5t23.5 -56.5t56.5 -23.5t56.5 23.5
t23.5 56.5t-23.5 56.5t-56.5 23.5zM950 800q-33 0 -56.5 -23.5t-23.5 -56.5t23.5 -56.5t56.5 -23.5t56.5 23.5t23.5 56.5t-23.5 56.5t-56.5 23.5zM730 360q-33 0 -56.5 -23.5t-23.5 -56.5t23.5 -56.5t56.5 -23.5t56.5 23.5t23.5 56.5t-23.5 56.5t-56.5 23.5zM950 360
q-33 0 -56.5 -23.5t-23.5 -56.5t23.5 -56.5t56.5 -23.5t56.5 23.5t23.5 56.5t-23.5 56.5t-56.5 23.5z" />
    <glyph glyph-name="Y" unicode="Y" horiz-adv-x="1180" 
d="M360 360q-33 0 -56.5 -23.5t-23.5 -56.5t23.5 -56.5t56.5 -23.5t56.5 23.5t23.5 56.5t-23.5 56.5t-56.5 23.5zM608 4v-104h-24v104l-99 146h29l83 -124l82 124h28zM730 800q-33 0 -56.5 -23.5t-23.5 -56.5t23.5 -56.5t56.5 -23.5t56.5 23.5t23.5 56.5t-23.5 56.5
t-56.5 23.5zM950 800q-33 0 -56.5 -23.5t-23.5 -56.5t23.5 -56.5t56.5 -23.5t56.5 23.5t23.5 56.5t-23.5 56.5t-56.5 23.5zM950 580q-33 0 -56.5 -23.5t-23.5 -56.5t23.5 -56.5t56.5 -23.5t56.5 23.5t23.5 56.5t-23.5 56.5t-56.5 23.5zM730 360q-33 0 -56.5 -23.5
t-23.5 -56.5t23.5 -56.5t56.5 -23.5t56.5 23.5t23.5 56.5t-23.5 56.5t-56.5 23.5zM950 360q-33 0 -56.5 -23.5t-23.5 -56.5t23.5 -56.5t56.5 -23.5t56.5 23.5t23.5 56.5t-23.5 56.5t-56.5 23.5z" />
    <glyph glyph-name="Z" unicode="Z" horiz-adv-x="1180" 
d="M360 360q-33 0 -56.5 -23.5t-23.5 -56.5t23.5 -56.5t56.5 -23.5t56.5 23.5t23.5 56.5t-23.5 56.5t-56.5 23.5zM689 129l-165 -209h168v-20h-195v22l163 207h-152v21h181v-21zM730 800q-33 0 -56.5 -23.5t-23.5 -56.5t23.5 -56.5t56.5 -23.5t56.5 23.5t23.5 56.5
t-23.5 56.5t-56.5 23.5zM950 580q-33 0 -56.5 -23.5t-23.5 -56.5t23.5 -56.5t56.5 -23.5t56.5 23.5t23.5 56.5t-23.5 56.5t-56.5 23.5zM730 360q-33 0 -56.5 -23.5t-23.5 -56.5t23.5 -56.5t56.5 -23.5t56.5 23.5t23.5 56.5t-23.5 56.5t-56.5 23.5zM950 360
q-33 0 -56.5 -23.5t-23.5 -56.5t23.5 -56.5t56.5 -23.5t56.5 23.5t23.5 56.5t-23.5 56.5t-56.5 23.5z" />
    <glyph glyph-name="bracketleft" unicode="[" horiz-adv-x="1180" 
d="M624 132h-36v-282h36v-17h-56v317h56v-18zM360 800q-33 0 -56.5 -23.5t-23.5 -56.5t23.5 -56.5t56.5 -23.5t56.5 23.5t23.5 56.5t-23.5 56.5t-56.5 23.5zM360 360q-33 0 -56.5 -23.5t-23.5 -56.5t23.5 -56.5t56.5 -23.5t56.5 23.5t23.5 56.5t-23.5 56.5t-56.5 23.5z
M730 800q-33 0 -56.5 -23.5t-23.5 -56.5t23.5 -56.5t56.5 -23.5t56.5 23.5t23.5 56.5t-23.5 56.5t-56.5 23.5zM730 580q-33 0 -56.5 -23.5t-23.5 -56.5t23.5 -56.5t56.5 -23.5t56.5 23.5t23.5 56.5t-23.5 56.5t-56.5 23.5zM950 360q-33 0 -56.5 -23.5t-23.5 -56.5
t23.5 -56.5t56.5 -23.5t56.5 23.5t23.5 56.5t-23.5 56.5t-56.5 23.5z" />
    <glyph glyph-name="backslash" unicode="\" horiz-adv-x="1180" 
d="M572 150l130 -317h-19l-129 317h18zM360 800q-33 0 -56.5 -23.5t-23.5 -56.5t23.5 -56.5t56.5 -23.5t56.5 23.5t23.5 56.5t-23.5 56.5t-56.5 23.5zM360 580q-33 0 -56.5 -23.5t-23.5 -56.5t23.5 -56.5t56.5 -23.5t56.5 23.5t23.5 56.5t-23.5 56.5t-56.5 23.5zM360 360
q-33 0 -56.5 -23.5t-23.5 -56.5t23.5 -56.5t56.5 -23.5t56.5 23.5t23.5 56.5t-23.5 56.5t-56.5 23.5zM730 800q-33 0 -56.5 -23.5t-23.5 -56.5t23.5 -56.5t56.5 -23.5t56.5 23.5t23.5 56.5t-23.5 56.5t-56.5 23.5zM950 360q-33 0 -56.5 -23.5t-23.5 -56.5t23.5 -56.5
t56.5 -23.5t56.5 23.5t23.5 56.5t-23.5 56.5t-56.5 23.5z" />
    <glyph glyph-name="bracketright" unicode="]" horiz-adv-x="1180" 
d="M556 -150h36v282h-36v18h56v-317h-56v17zM360 800q-33 0 -56.5 -23.5t-23.5 -56.5t23.5 -56.5t56.5 -23.5t56.5 23.5t23.5 56.5t-23.5 56.5t-56.5 23.5zM360 360q-33 0 -56.5 -23.5t-23.5 -56.5t23.5 -56.5t56.5 -23.5t56.5 23.5t23.5 56.5t-23.5 56.5t-56.5 23.5z
M950 800q-33 0 -56.5 -23.5t-23.5 -56.5t23.5 -56.5t56.5 -23.5t56.5 23.5t23.5 56.5t-23.5 56.5t-56.5 23.5zM950 580q-33 0 -56.5 -23.5t-23.5 -56.5t23.5 -56.5t56.5 -23.5t56.5 23.5t23.5 56.5t-23.5 56.5t-56.5 23.5zM730 360q-33 0 -56.5 -23.5t-23.5 -56.5
t23.5 -56.5t56.5 -23.5t56.5 23.5t23.5 56.5t-23.5 56.5t-56.5 23.5z" />
    <glyph glyph-name="asciicircum" unicode="^" horiz-adv-x="1180" 
d="M553 42l67 108h28l66 -108h-22l-59 92l-57 -92h-23zM360 800q-33 0 -56.5 -23.5t-23.5 -56.5t23.5 -56.5t56.5 -23.5t56.5 23.5t23.5 56.5t-23.5 56.5t-56.5 23.5zM730 580q-33 0 -56.5 -23.5t-23.5 -56.5t23.5 -56.5t56.5 -23.5t56.5 23.5t23.5 56.5t-23.5 56.5
t-56.5 23.5zM950 360q-33 0 -56.5 -23.5t-23.5 -56.5t23.5 -56.5t56.5 -23.5t56.5 23.5t23.5 56.5t-23.5 56.5t-56.5 23.5z" />
    <glyph glyph-name="underscore" unicode="_" horiz-adv-x="1180" 
d="M728 -126v-16h-188v16h188zM360 800q-33 0 -56.5 -23.5t-23.5 -56.5t23.5 -56.5t56.5 -23.5t56.5 23.5t23.5 56.5t-23.5 56.5t-56.5 23.5zM360 360q-33 0 -56.5 -23.5t-23.5 -56.5t23.5 -56.5t56.5 -23.5t56.5 23.5t23.5 56.5t-23.5 56.5t-56.5 23.5zM730 360
q-33 0 -56.5 -23.5t-23.5 -56.5t23.5 -56.5t56.5 -23.5t56.5 23.5t23.5 56.5t-23.5 56.5t-56.5 23.5zM950 360q-33 0 -56.5 -23.5t-23.5 -56.5t23.5 -56.5t56.5 -23.5t56.5 23.5t23.5 56.5t-23.5 56.5t-56.5 23.5z" />
    <glyph glyph-name="grave" unicode="`" horiz-adv-x="1180" 
d="M614 158l36 -50h-18l-44 50h26zM360 800q-33 0 -56.5 -23.5t-23.5 -56.5t23.5 -56.5t56.5 -23.5t56.5 23.5t23.5 56.5t-23.5 56.5t-56.5 23.5zM360 360q-33 0 -56.5 -23.5t-23.5 -56.5t23.5 -56.5t56.5 -23.5t56.5 23.5t23.5 56.5t-23.5 56.5t-56.5 23.5zM730 800
q-33 0 -56.5 -23.5t-23.5 -56.5t23.5 -56.5t56.5 -23.5t56.5 23.5t23.5 56.5t-23.5 56.5t-56.5 23.5zM950 360q-33 0 -56.5 -23.5t-23.5 -56.5t23.5 -56.5t56.5 -23.5t56.5 23.5t23.5 56.5t-23.5 56.5t-56.5 23.5z" />
    <glyph glyph-name="a" unicode="a" 
d="M326 -99l-8 -2t-10 -1q-13 0 -18 8t-5 26q-12 -20 -28.5 -28.5t-39.5 -8.5q-28 0 -43.5 13.5t-15.5 37.5q0 36 35 50q5 1 9 2t10 2t16 2t28 3q16 1 22 6t6 17q0 20 -11 29.5t-36 9.5q-24 0 -35.5 -10t-13.5 -32h-22q2 29 21 45t52 16q25 0 42 -9t21 -25q2 -5 2.5 -11
t0.5 -18v-81q0 -17 2.5 -21.5t9.5 -4.5q3 0 4.5 0.5l4.5 1.5v-17zM284 -2q-2 -2 -5 -3.5t-8.5 -3t-14 -2.5t-22.5 -3q-29 -4 -41.5 -13t-12.5 -25t11.5 -25.5t30.5 -9.5q28 0 45 15.5t17 41.5v28zM140 800q-33 0 -56.5 -23.5t-23.5 -56.5t23.5 -56.5t56.5 -23.5t56.5 23.5
t23.5 56.5t-23.5 56.5t-56.5 23.5z" />
    <glyph glyph-name="b" unicode="b" 
d="M194 47q8 19 25 29t39 10q38 0 59.5 -26t21.5 -70t-21.5 -69.5t-59.5 -25.5q-48 0 -66 41v-36h-20v250h22v-103zM254 67q-28 0 -45 -21t-17 -56q0 -36 17.5 -56.5t46.5 -20.5q28 0 44 20.5t16 56.5t-16 56.5t-46 20.5zM140 800q-33 0 -56.5 -23.5t-23.5 -56.5t23.5 -56.5
t56.5 -23.5t56.5 23.5t23.5 56.5t-23.5 56.5t-56.5 23.5zM140 580q-33 0 -56.5 -23.5t-23.5 -56.5t23.5 -56.5t56.5 -23.5t56.5 23.5t23.5 56.5t-23.5 56.5t-56.5 23.5z" />
    <glyph glyph-name="c" unicode="c" 
d="M322 -36q-5 -33 -25 -51t-51 -18q-20 0 -35 6.5t-26 19t-17 30t-6 37.5q0 45 23 71.5t61 26.5q32 0 51 -16t23 -46h-22q-4 20 -17 31.5t-34 11.5q-29 0 -46 -20.5t-17 -56.5t16.5 -56.5t44.5 -20.5q23 0 37 13.5t18 37.5h22zM140 800q-33 0 -56.5 -23.5t-23.5 -56.5
t23.5 -56.5t56.5 -23.5t56.5 23.5t23.5 56.5t-23.5 56.5t-56.5 23.5zM360 800q-33 0 -56.5 -23.5t-23.5 -56.5t23.5 -56.5t56.5 -23.5t56.5 23.5t23.5 56.5t-23.5 56.5t-56.5 23.5z" />
    <glyph glyph-name="d" unicode="d" 
d="M330 -100h-21v36q-19 -41 -65 -41q-38 0 -60 25.5t-22 69.5q0 22 6 39.5t16.5 30t25.5 19.5t33 7q47 0 65 -39v103h22v-250zM245 67q-27 0 -44 -20.5t-17 -56.5t17 -56.5t45 -20.5q29 0 45.5 20.5t16.5 56.5t-16.5 56.5t-46.5 20.5zM140 800q-33 0 -56.5 -23.5
t-23.5 -56.5t23.5 -56.5t56.5 -23.5t56.5 23.5t23.5 56.5t-23.5 56.5t-56.5 23.5zM360 800q-33 0 -56.5 -23.5t-23.5 -56.5t23.5 -56.5t56.5 -23.5t56.5 23.5t23.5 56.5t-23.5 56.5t-56.5 23.5zM360 580q-33 0 -56.5 -23.5t-23.5 -56.5t23.5 -56.5t56.5 -23.5t56.5 23.5
t23.5 56.5t-23.5 56.5t-56.5 23.5z" />
    <glyph glyph-name="e" unicode="e" 
d="M322 -40q-6 -32 -26 -48.5t-50 -16.5q-38 0 -61 25.5t-23 67.5q0 22 6 40t17 30.5t26.5 20t33.5 7.5q24 0 42.5 -13t28.5 -35q4 -10 6 -23t2 -30h-140q2 -35 17.5 -53.5t44.5 -18.5q22 0 36 12t19 35h21zM302 2q-2 30 -17 47.5t-40.5 17.5t-41 -16.5t-18.5 -48.5h117z
M140 800q-33 0 -56.5 -23.5t-23.5 -56.5t23.5 -56.5t56.5 -23.5t56.5 23.5t23.5 56.5t-23.5 56.5t-56.5 23.5zM360 580q-33 0 -56.5 -23.5t-23.5 -56.5t23.5 -56.5t56.5 -23.5t56.5 23.5t23.5 56.5t-23.5 56.5t-56.5 23.5z" />
    <glyph glyph-name="f" unicode="f" 
d="M292 132q-6 1 -9 1h-7q-19 0 -23 -11q-1 -4 -2 -9t-1 -15v-18h37v-18h-37v-162h-22v162h-30v18h30v16q0 17 2 24.5t6 14.5q10 17 38 17h8l10 -2v-18zM140 800q-33 0 -56.5 -23.5t-23.5 -56.5t23.5 -56.5t56.5 -23.5t56.5 23.5t23.5 56.5t-23.5 56.5t-56.5 23.5zM360 800
q-33 0 -56.5 -23.5t-23.5 -56.5t23.5 -56.5t56.5 -23.5t56.5 23.5t23.5 56.5t-23.5 56.5t-56.5 23.5zM140 580q-33 0 -56.5 -23.5t-23.5 -56.5t23.5 -56.5t56.5 -23.5t56.5 23.5t23.5 56.5t-23.5 56.5t-56.5 23.5z" />
    <glyph glyph-name="g" unicode="g" 
d="M324 -83q0 -21 -2 -33t-8 -22q-19 -33 -71 -33q-33 0 -52 14.5t-21 40.5h22q6 -37 52 -37q31 0 45 15.5t14 49.5v30q-10 -20 -25 -30t-38 -10q-36 0 -57 25t-21 65q0 21 6 38.5t16.5 29.5t25 19t32.5 7q22 0 36 -9.5t26 -29.5v33h20v-163zM242 67q-26 0 -42 -19.5
t-16 -53.5t16 -53.5t43 -19.5t43 20.5t16 54.5q0 32 -16 51.5t-44 19.5zM140 800q-33 0 -56.5 -23.5t-23.5 -56.5t23.5 -56.5t56.5 -23.5t56.5 23.5t23.5 56.5t-23.5 56.5t-56.5 23.5zM360 800q-33 0 -56.5 -23.5t-23.5 -56.5t23.5 -56.5t56.5 -23.5t56.5 23.5t23.5 56.5
t-23.5 56.5t-56.5 23.5zM140 580q-33 0 -56.5 -23.5t-23.5 -56.5t23.5 -56.5t56.5 -23.5t56.5 23.5t23.5 56.5t-23.5 56.5t-56.5 23.5zM360 580q-33 0 -56.5 -23.5t-23.5 -56.5t23.5 -56.5t56.5 -23.5t56.5 23.5t23.5 56.5t-23.5 56.5t-56.5 23.5z" />
    <glyph glyph-name="h" unicode="h" 
d="M194 47q7 18 23.5 28.5t38.5 10.5q38 0 54 -27q5 -8 7.5 -17.5t2.5 -25.5v-116h-23v113q0 15 -1.5 23t-7.5 14q-6 8 -16 12t-22 4q-16 0 -28.5 -7.5t-19.5 -20.5q-5 -10 -6.5 -20t-1.5 -30v-88h-22v250h22v-103zM140 800q-33 0 -56.5 -23.5t-23.5 -56.5t23.5 -56.5
t56.5 -23.5t56.5 23.5t23.5 56.5t-23.5 56.5t-56.5 23.5zM140 580q-33 0 -56.5 -23.5t-23.5 -56.5t23.5 -56.5t56.5 -23.5t56.5 23.5t23.5 56.5t-23.5 56.5t-56.5 23.5zM360 580q-33 0 -56.5 -23.5t-23.5 -56.5t23.5 -56.5t56.5 -23.5t56.5 23.5t23.5 56.5t-23.5 56.5
t-56.5 23.5z" />
    <glyph glyph-name="i" unicode="i" 
d="M243 114h-21v36h21v-36zM243 -100h-21v180h21v-180zM360 800q-33 0 -56.5 -23.5t-23.5 -56.5t23.5 -56.5t56.5 -23.5t56.5 23.5t23.5 56.5t-23.5 56.5t-56.5 23.5zM140 580q-33 0 -56.5 -23.5t-23.5 -56.5t23.5 -56.5t56.5 -23.5t56.5 23.5t23.5 56.5t-23.5 56.5
t-56.5 23.5z" />
    <glyph glyph-name="j" unicode="j" 
d="M243 -112q0 -20 -1.5 -29t-5.5 -15q-11 -14 -36 -14q-6 0 -11 2v18q3 -1 5 -1h4q8 0 12 1.5t7 5.5t4 11.5t1 19.5v193h21v-192zM243 114h-21v36h21v-36zM360 800q-33 0 -56.5 -23.5t-23.5 -56.5t23.5 -56.5t56.5 -23.5t56.5 23.5t23.5 56.5t-23.5 56.5t-56.5 23.5z
M140 580q-33 0 -56.5 -23.5t-23.5 -56.5t23.5 -56.5t56.5 -23.5t56.5 23.5t23.5 56.5t-23.5 56.5t-56.5 23.5zM360 580q-33 0 -56.5 -23.5t-23.5 -56.5t23.5 -56.5t56.5 -23.5t56.5 23.5t23.5 56.5t-23.5 56.5t-56.5 23.5z" />
    <glyph glyph-name="k" unicode="k" 
d="M247 14l83 -114h-28l-72 99l-36 -31v-68h-22v250h22v-158l100 88h30zM140 800q-33 0 -56.5 -23.5t-23.5 -56.5t23.5 -56.5t56.5 -23.5t56.5 23.5t23.5 56.5t-23.5 56.5t-56.5 23.5zM140 360q-33 0 -56.5 -23.5t-23.5 -56.5t23.5 -56.5t56.5 -23.5t56.5 23.5t23.5 56.5
t-23.5 56.5t-56.5 23.5z" />
    <glyph glyph-name="l" unicode="l" 
d="M243 -100h-21v250h21v-250zM140 800q-33 0 -56.5 -23.5t-23.5 -56.5t23.5 -56.5t56.5 -23.5t56.5 23.5t23.5 56.5t-23.5 56.5t-56.5 23.5zM140 580q-33 0 -56.5 -23.5t-23.5 -56.5t23.5 -56.5t56.5 -23.5t56.5 23.5t23.5 56.5t-23.5 56.5t-56.5 23.5zM140 360
q-33 0 -56.5 -23.5t-23.5 -56.5t23.5 -56.5t56.5 -23.5t56.5 23.5t23.5 56.5t-23.5 56.5t-56.5 23.5z" />
    <glyph glyph-name="m" unicode="m" 
d="M142 49q13 19 27 28t33 9q40 0 52 -36q11 18 25.5 27t34.5 9q15 0 27.5 -6t20.5 -15q6 -9 8 -17t2 -24v-124h-22v118q0 12 -1.5 19t-4.5 13q-5 8 -14.5 12t-21.5 4q-31 0 -44 -26q-3 -7 -4.5 -15t-1.5 -21v-104h-22v118q0 11 -1 18t-4 12q-4 9 -13.5 13.5t-21.5 4.5
q-15 0 -27 -7.5t-19 -20.5q-6 -14 -6 -39v-99h-22v180h20v-31zM140 800q-33 0 -56.5 -23.5t-23.5 -56.5t23.5 -56.5t56.5 -23.5t56.5 23.5t23.5 56.5t-23.5 56.5t-56.5 23.5zM360 800q-33 0 -56.5 -23.5t-23.5 -56.5t23.5 -56.5t56.5 -23.5t56.5 23.5t23.5 56.5t-23.5 56.5
t-56.5 23.5zM140 360q-33 0 -56.5 -23.5t-23.5 -56.5t23.5 -56.5t56.5 -23.5t56.5 23.5t23.5 56.5t-23.5 56.5t-56.5 23.5z" />
    <glyph glyph-name="n" unicode="n" 
d="M192 47q5 8 8 12t7 7q19 20 49 20q18 0 32 -7t21 -18q5 -9 7 -18.5t2 -26.5v-116h-21v110q0 13 -1 20.5t-4 13.5q-4 10 -15 16t-26 6q-17 0 -30 -7.5t-19 -20.5q-5 -8 -7 -19t-2 -29v-90h-21v180h20v-33zM140 800q-33 0 -56.5 -23.5t-23.5 -56.5t23.5 -56.5t56.5 -23.5
t56.5 23.5t23.5 56.5t-23.5 56.5t-56.5 23.5zM360 800q-33 0 -56.5 -23.5t-23.5 -56.5t23.5 -56.5t56.5 -23.5t56.5 23.5t23.5 56.5t-23.5 56.5t-56.5 23.5zM360 580q-33 0 -56.5 -23.5t-23.5 -56.5t23.5 -56.5t56.5 -23.5t56.5 23.5t23.5 56.5t-23.5 56.5t-56.5 23.5z
M140 360q-33 0 -56.5 -23.5t-23.5 -56.5t23.5 -56.5t56.5 -23.5t56.5 23.5t23.5 56.5t-23.5 56.5t-56.5 23.5z" />
    <glyph glyph-name="o" unicode="o" 
d="M249 86q39 0 62 -26t23 -70t-23 -69.5t-63 -25.5q-39 0 -62.5 25.5t-23.5 69.5t23.5 70t63.5 26zM248 67q-29 0 -46 -21t-17 -56q0 -36 17 -56.5t46 -20.5t46.5 20.5t17.5 56.5t-17.5 56.5t-46.5 20.5zM140 800q-33 0 -56.5 -23.5t-23.5 -56.5t23.5 -56.5t56.5 -23.5
t56.5 23.5t23.5 56.5t-23.5 56.5t-56.5 23.5zM360 580q-33 0 -56.5 -23.5t-23.5 -56.5t23.5 -56.5t56.5 -23.5t56.5 23.5t23.5 56.5t-23.5 56.5t-56.5 23.5zM140 360q-33 0 -56.5 -23.5t-23.5 -56.5t23.5 -56.5t56.5 -23.5t56.5 23.5t23.5 56.5t-23.5 56.5t-56.5 23.5z" />
    <glyph glyph-name="p" unicode="p" 
d="M192 46q12 20 27 30t38 10q37 0 59 -26t22 -70q0 -22 -5.5 -39t-16 -30t-25.5 -19.5t-33 -6.5q-46 0 -64 39v-101h-22v247h20v-34zM254 67q-28 0 -45 -20.5t-17 -56.5t17 -56.5t47 -20.5q27 0 43.5 20.5t16.5 56.5t-16.5 56.5t-45.5 20.5zM140 800q-33 0 -56.5 -23.5
t-23.5 -56.5t23.5 -56.5t56.5 -23.5t56.5 23.5t23.5 56.5t-23.5 56.5t-56.5 23.5zM360 800q-33 0 -56.5 -23.5t-23.5 -56.5t23.5 -56.5t56.5 -23.5t56.5 23.5t23.5 56.5t-23.5 56.5t-56.5 23.5zM140 580q-33 0 -56.5 -23.5t-23.5 -56.5t23.5 -56.5t56.5 -23.5t56.5 23.5
t23.5 56.5t-23.5 56.5t-56.5 23.5zM140 360q-33 0 -56.5 -23.5t-23.5 -56.5t23.5 -56.5t56.5 -23.5t56.5 23.5t23.5 56.5t-23.5 56.5t-56.5 23.5z" />
    <glyph glyph-name="q" unicode="q" 
d="M330 -167h-23v101q-17 -39 -65 -39q-37 0 -58.5 25.5t-21.5 69.5t22.5 70t59.5 26q17 0 30.5 -6t22.5 -16q3 -3 5 -6.5t6 -11.5v34h22v-247zM246 67q-28 0 -45 -21t-17 -56.5t16.5 -56t45 -20.5t45.5 20.5t17 56.5t-16.5 56.5t-45.5 20.5zM140 800q-33 0 -56.5 -23.5
t-23.5 -56.5t23.5 -56.5t56.5 -23.5t56.5 23.5t23.5 56.5t-23.5 56.5t-56.5 23.5zM360 800q-33 0 -56.5 -23.5t-23.5 -56.5t23.5 -56.5t56.5 -23.5t56.5 23.5t23.5 56.5t-23.5 56.5t-56.5 23.5zM140 580q-33 0 -56.5 -23.5t-23.5 -56.5t23.5 -56.5t56.5 -23.5t56.5 23.5
t23.5 56.5t-23.5 56.5t-56.5 23.5zM360 580q-33 0 -56.5 -23.5t-23.5 -56.5t23.5 -56.5t56.5 -23.5t56.5 23.5t23.5 56.5t-23.5 56.5t-56.5 23.5zM140 360q-33 0 -56.5 -23.5t-23.5 -56.5t23.5 -56.5t56.5 -23.5t56.5 23.5t23.5 56.5t-23.5 56.5t-56.5 23.5z" />
    <glyph glyph-name="r" unicode="r" 
d="M312 61h-6q-28 0 -46 -21q-5 -5 -8 -10.5t-5 -13.5t-2.5 -18t-0.5 -24v-74h-22v180h20v-43q10 25 27 36t43 11v-23zM140 800q-33 0 -56.5 -23.5t-23.5 -56.5t23.5 -56.5t56.5 -23.5t56.5 23.5t23.5 56.5t-23.5 56.5t-56.5 23.5zM140 580q-33 0 -56.5 -23.5t-23.5 -56.5
t23.5 -56.5t56.5 -23.5t56.5 23.5t23.5 56.5t-23.5 56.5t-56.5 23.5zM360 580q-33 0 -56.5 -23.5t-23.5 -56.5t23.5 -56.5t56.5 -23.5t56.5 23.5t23.5 56.5t-23.5 56.5t-56.5 23.5zM140 360q-33 0 -56.5 -23.5t-23.5 -56.5t23.5 -56.5t56.5 -23.5t56.5 23.5t23.5 56.5
t-23.5 56.5t-56.5 23.5z" />
    <glyph glyph-name="s" unicode="s" 
d="M275 28q-2 20 -13.5 29.5t-35.5 9.5q-19 0 -30.5 -8t-11.5 -22q0 -7 2 -11.5t8 -8t16 -7t26 -6.5q19 -5 29.5 -8.5t18.5 -9.5q19 -13 19 -36q0 -26 -19.5 -40.5t-52.5 -14.5q-35 0 -54 16.5t-20 47.5h21q4 -46 54 -46q22 0 35.5 9.5t13.5 25.5q0 7 -2.5 12t-7.5 9
t-15 7.5t-24 6.5l-20 5l-14 4l-8 3l-7 3q-9 6 -15 15.5t-6 20.5q0 24 18 38t48 14q18 0 33 -5.5t23 -16.5q6 -6 9 -14t4 -22h-22zM360 800q-33 0 -56.5 -23.5t-23.5 -56.5t23.5 -56.5t56.5 -23.5t56.5 23.5t23.5 56.5t-23.5 56.5t-56.5 23.5zM140 580q-33 0 -56.5 -23.5
t-23.5 -56.5t23.5 -56.5t56.5 -23.5t56.5 23.5t23.5 56.5t-23.5 56.5t-56.5 23.5zM140 360q-33 0 -56.5 -23.5t-23.5 -56.5t23.5 -56.5t56.5 -23.5t56.5 23.5t23.5 56.5t-23.5 56.5t-56.5 23.5z" />
    <glyph glyph-name="t" unicode="t" 
d="M293 62h-37v-114q0 -9 1 -15t3 -9.5t7 -4.5t11 -1h7t8 2v-20q-5 0 -9.5 -0.5t-9.5 -0.5q-28 0 -36 15q-2 3 -2.5 5.5t-1 7.5t-0.5 13v20v102h-32v18h32v56h22v-56h37v-18zM360 800q-33 0 -56.5 -23.5t-23.5 -56.5t23.5 -56.5t56.5 -23.5t56.5 23.5t23.5 56.5t-23.5 56.5
t-56.5 23.5zM140 580q-33 0 -56.5 -23.5t-23.5 -56.5t23.5 -56.5t56.5 -23.5t56.5 23.5t23.5 56.5t-23.5 56.5t-56.5 23.5zM360 580q-33 0 -56.5 -23.5t-23.5 -56.5t23.5 -56.5t56.5 -23.5t56.5 23.5t23.5 56.5t-23.5 56.5t-56.5 23.5zM140 360q-33 0 -56.5 -23.5
t-23.5 -56.5t23.5 -56.5t56.5 -23.5t56.5 23.5t23.5 56.5t-23.5 56.5t-56.5 23.5z" />
    <glyph glyph-name="u" unicode="u" 
d="M316 -100h-20v34q-21 -39 -63 -39q-16 0 -29.5 6t-21.5 17q-6 8 -9 19t-3 27v116h22v-106q0 -15 1 -22.5t3 -14.5q5 -11 16.5 -17t25.5 -6q15 0 27.5 7t18.5 19q6 9 8.5 20.5t2.5 27.5v92h21v-180zM140 800q-33 0 -56.5 -23.5t-23.5 -56.5t23.5 -56.5t56.5 -23.5
t56.5 23.5t23.5 56.5t-23.5 56.5t-56.5 23.5zM140 360q-33 0 -56.5 -23.5t-23.5 -56.5t23.5 -56.5t56.5 -23.5t56.5 23.5t23.5 56.5t-23.5 56.5t-56.5 23.5zM360 360q-33 0 -56.5 -23.5t-23.5 -56.5t23.5 -56.5t56.5 -23.5t56.5 23.5t23.5 56.5t-23.5 56.5t-56.5 23.5z" />
    <glyph glyph-name="v" unicode="v" 
d="M242 -100h-24l-70 180h24l58 -154l56 154h22zM140 800q-33 0 -56.5 -23.5t-23.5 -56.5t23.5 -56.5t56.5 -23.5t56.5 23.5t23.5 56.5t-23.5 56.5t-56.5 23.5zM140 580q-33 0 -56.5 -23.5t-23.5 -56.5t23.5 -56.5t56.5 -23.5t56.5 23.5t23.5 56.5t-23.5 56.5t-56.5 23.5z
M140 360q-33 0 -56.5 -23.5t-23.5 -56.5t23.5 -56.5t56.5 -23.5t56.5 23.5t23.5 56.5t-23.5 56.5t-56.5 23.5zM360 360q-33 0 -56.5 -23.5t-23.5 -56.5t23.5 -56.5t56.5 -23.5t56.5 23.5t23.5 56.5t-23.5 56.5t-56.5 23.5z" />
    <glyph glyph-name="w" unicode="w" 
d="M321 -100h-24l-45 149l-44 -149h-25l-58 180h24l47 -150l43 150h26l45 -150l47 150h22zM360 800q-33 0 -56.5 -23.5t-23.5 -56.5t23.5 -56.5t56.5 -23.5t56.5 23.5t23.5 56.5t-23.5 56.5t-56.5 23.5zM140 580q-33 0 -56.5 -23.5t-23.5 -56.5t23.5 -56.5t56.5 -23.5
t56.5 23.5t23.5 56.5t-23.5 56.5t-56.5 23.5zM360 580q-33 0 -56.5 -23.5t-23.5 -56.5t23.5 -56.5t56.5 -23.5t56.5 23.5t23.5 56.5t-23.5 56.5t-56.5 23.5zM360 360q-33 0 -56.5 -23.5t-23.5 -56.5t23.5 -56.5t56.5 -23.5t56.5 23.5t23.5 56.5t-23.5 56.5t-56.5 23.5z" />
    <glyph glyph-name="x" unicode="x" 
d="M244 -4l72 -96h-28l-58 78l-57 -78h-26l70 95l-65 85h28l50 -68l52 68h26zM140 800q-33 0 -56.5 -23.5t-23.5 -56.5t23.5 -56.5t56.5 -23.5t56.5 23.5t23.5 56.5t-23.5 56.5t-56.5 23.5zM360 800q-33 0 -56.5 -23.5t-23.5 -56.5t23.5 -56.5t56.5 -23.5t56.5 23.5
t23.5 56.5t-23.5 56.5t-56.5 23.5zM140 360q-33 0 -56.5 -23.5t-23.5 -56.5t23.5 -56.5t56.5 -23.5t56.5 23.5t23.5 56.5t-23.5 56.5t-56.5 23.5zM360 360q-33 0 -56.5 -23.5t-23.5 -56.5t23.5 -56.5t56.5 -23.5t56.5 23.5t23.5 56.5t-23.5 56.5t-56.5 23.5z" />
    <glyph glyph-name="y" unicode="y" 
d="M239 -107q-8 -21 -12 -30t-7 -15q-13 -17 -34 -17q-4 0 -8 1h-7l-5 1v19l9 -1.5t7 -0.5q20 0 29 26q1 4 3 8l4 8q3 6 3 8v1l-73 179h24l60 -152l55 152h23zM140 800q-33 0 -56.5 -23.5t-23.5 -56.5t23.5 -56.5t56.5 -23.5t56.5 23.5t23.5 56.5t-23.5 56.5t-56.5 23.5z
M360 800q-33 0 -56.5 -23.5t-23.5 -56.5t23.5 -56.5t56.5 -23.5t56.5 23.5t23.5 56.5t-23.5 56.5t-56.5 23.5zM360 580q-33 0 -56.5 -23.5t-23.5 -56.5t23.5 -56.5t56.5 -23.5t56.5 23.5t23.5 56.5t-23.5 56.5t-56.5 23.5zM140 360q-33 0 -56.5 -23.5t-23.5 -56.5
t23.5 -56.5t56.5 -23.5t56.5 23.5t23.5 56.5t-23.5 56.5t-56.5 23.5zM360 360q-33 0 -56.5 -23.5t-23.5 -56.5t23.5 -56.5t56.5 -23.5t56.5 23.5t23.5 56.5t-23.5 56.5t-56.5 23.5z" />
    <glyph glyph-name="z" unicode="z" 
d="M300 64l-118 -146h123v-18h-151v18l118 144h-110v18h138v-16zM140 800q-33 0 -56.5 -23.5t-23.5 -56.5t23.5 -56.5t56.5 -23.5t56.5 23.5t23.5 56.5t-23.5 56.5t-56.5 23.5zM360 580q-33 0 -56.5 -23.5t-23.5 -56.5t23.5 -56.5t56.5 -23.5t56.5 23.5t23.5 56.5
t-23.5 56.5t-56.5 23.5zM140 360q-33 0 -56.5 -23.5t-23.5 -56.5t23.5 -56.5t56.5 -23.5t56.5 23.5t23.5 56.5t-23.5 56.5t-56.5 23.5zM360 360q-33 0 -56.5 -23.5t-23.5 -56.5t23.5 -56.5t56.5 -23.5t56.5 23.5t23.5 56.5t-23.5 56.5t-56.5 23.5z" />
    <glyph glyph-name="braceleft" unicode="{" horiz-adv-x="1180" 
d="M588 34q0 -18 -4.5 -27.5t-15.5 -15.5q11 -6 15.5 -15.5t4.5 -27.5v-61q0 -22 9 -30q3 -3 9.5 -5t13.5 -2h4v-17h-4q-29 0 -40.5 12.5t-11.5 42.5v60q0 16 -5 24t-17 11v17q12 4 17 11.5t5 23.5v65q0 26 12 38t40 12h4v-18h-4q-8 0 -14.5 -2t-9.5 -6q-8 -7 -8 -26v-64z
M360 800q-33 0 -56.5 -23.5t-23.5 -56.5t23.5 -56.5t56.5 -23.5t56.5 23.5t23.5 56.5t-23.5 56.5t-56.5 23.5zM360 580q-33 0 -56.5 -23.5t-23.5 -56.5t23.5 -56.5t56.5 -23.5t56.5 23.5t23.5 56.5t-23.5 56.5t-56.5 23.5zM360 360q-33 0 -56.5 -23.5t-23.5 -56.5
t23.5 -56.5t56.5 -23.5t56.5 23.5t23.5 56.5t-23.5 56.5t-56.5 23.5zM730 800q-33 0 -56.5 -23.5t-23.5 -56.5t23.5 -56.5t56.5 -23.5t56.5 23.5t23.5 56.5t-23.5 56.5t-56.5 23.5zM730 580q-33 0 -56.5 -23.5t-23.5 -56.5t23.5 -56.5t56.5 -23.5t56.5 23.5t23.5 56.5
t-23.5 56.5t-56.5 23.5zM950 360q-33 0 -56.5 -23.5t-23.5 -56.5t23.5 -56.5t56.5 -23.5t56.5 23.5t23.5 56.5t-23.5 56.5t-56.5 23.5z" />
    <glyph glyph-name="bar" unicode="|" horiz-adv-x="1180" 
d="M646 150v-312h-24v312h24zM360 800q-33 0 -56.5 -23.5t-23.5 -56.5t23.5 -56.5t56.5 -23.5t56.5 23.5t23.5 56.5t-23.5 56.5t-56.5 23.5zM360 580q-33 0 -56.5 -23.5t-23.5 -56.5t23.5 -56.5t56.5 -23.5t56.5 23.5t23.5 56.5t-23.5 56.5t-56.5 23.5zM360 360
q-33 0 -56.5 -23.5t-23.5 -56.5t23.5 -56.5t56.5 -23.5t56.5 23.5t23.5 56.5t-23.5 56.5t-56.5 23.5zM730 800q-33 0 -56.5 -23.5t-23.5 -56.5t23.5 -56.5t56.5 -23.5t56.5 23.5t23.5 56.5t-23.5 56.5t-56.5 23.5zM730 580q-33 0 -56.5 -23.5t-23.5 -56.5t23.5 -56.5
t56.5 -23.5t56.5 23.5t23.5 56.5t-23.5 56.5t-56.5 23.5zM950 580q-33 0 -56.5 -23.5t-23.5 -56.5t23.5 -56.5t56.5 -23.5t56.5 23.5t23.5 56.5t-23.5 56.5t-56.5 23.5zM950 360q-33 0 -56.5 -23.5t-23.5 -56.5t23.5 -56.5t56.5 -23.5t56.5 23.5t23.5 56.5t-23.5 56.5
t-56.5 23.5z" />
    <glyph glyph-name="braceright" unicode="}" horiz-adv-x="1180" 
d="M592 -50q0 17 4 26.5t16 15.5q-12 6 -16 16t-4 28v60q0 23 -10 30q-2 2 -8.5 4t-13.5 2h-4v18h4q29 0 40.5 -12t11.5 -44v-58q0 -17 5 -24.5t17 -11.5v-18q-12 -3 -17 -10.5t-5 -23.5v-64q0 -27 -12 -39t-40 -12h-4v17h4q8 0 14.5 2.5t9.5 6.5q8 7 8 27v64zM360 800
q-33 0 -56.5 -23.5t-23.5 -56.5t23.5 -56.5t56.5 -23.5t56.5 23.5t23.5 56.5t-23.5 56.5t-56.5 23.5zM360 580q-33 0 -56.5 -23.5t-23.5 -56.5t23.5 -56.5t56.5 -23.5t56.5 23.5t23.5 56.5t-23.5 56.5t-56.5 23.5zM360 360q-33 0 -56.5 -23.5t-23.5 -56.5t23.5 -56.5
t56.5 -23.5t56.5 23.5t23.5 56.5t-23.5 56.5t-56.5 23.5zM950 800q-33 0 -56.5 -23.5t-23.5 -56.5t23.5 -56.5t56.5 -23.5t56.5 23.5t23.5 56.5t-23.5 56.5t-56.5 23.5zM950 580q-33 0 -56.5 -23.5t-23.5 -56.5t23.5 -56.5t56.5 -23.5t56.5 23.5t23.5 56.5t-23.5 56.5
t-56.5 23.5zM730 360q-33 0 -56.5 -23.5t-23.5 -56.5t23.5 -56.5t56.5 -23.5t56.5 23.5t23.5 56.5t-23.5 56.5t-56.5 23.5z" />
    <glyph glyph-name="asciitilde" unicode="~" horiz-adv-x="1180" 
d="M526 130q20 40 50 40q7 0 17 -3t26 -12q16 -8 22.5 -10.5t14.5 -2.5q10 0 18 6.5t18 22.5l12 -10q-18 -40 -50 -40q-5 0 -8.5 0.5t-8.5 2.5t-12 5.5l-19 9.5q-12 5 -19 7.5t-13 2.5q-10 0 -18 -6.5t-17 -22.5zM360 800q-33 0 -56.5 -23.5t-23.5 -56.5t23.5 -56.5
t56.5 -23.5t56.5 23.5t23.5 56.5t-23.5 56.5t-56.5 23.5zM950 580q-33 0 -56.5 -23.5t-23.5 -56.5t23.5 -56.5t56.5 -23.5t56.5 23.5t23.5 56.5t-23.5 56.5t-56.5 23.5zM730 360q-33 0 -56.5 -23.5t-23.5 -56.5t23.5 -56.5t56.5 -23.5t56.5 23.5t23.5 56.5t-23.5 56.5
t-56.5 23.5z" />
    <glyph glyph-name="copyright" unicode="&#xa9;" 
d="M140 800q-33 0 -56.5 -23.5t-23.5 -56.5t23.5 -56.5t56.5 -23.5t56.5 23.5t23.5 56.5t-23.5 56.5t-56.5 23.5zM360 800q-33 0 -56.5 -23.5t-23.5 -56.5t23.5 -56.5t56.5 -23.5t56.5 23.5t23.5 56.5t-23.5 56.5t-56.5 23.5zM140 580q-33 0 -56.5 -23.5t-23.5 -56.5
t23.5 -56.5t56.5 -23.5t56.5 23.5t23.5 56.5t-23.5 56.5t-56.5 23.5zM360 580q-33 0 -56.5 -23.5t-23.5 -56.5t23.5 -56.5t56.5 -23.5t56.5 23.5t23.5 56.5t-23.5 56.5t-56.5 23.5zM140 360q-33 0 -56.5 -23.5t-23.5 -56.5t23.5 -56.5t56.5 -23.5t56.5 23.5t23.5 56.5
t-23.5 56.5t-56.5 23.5zM360 360q-33 0 -56.5 -23.5t-23.5 -56.5t23.5 -56.5t56.5 -23.5t56.5 23.5t23.5 56.5t-23.5 56.5t-56.5 23.5z" />
    <glyph glyph-name="registered" unicode="&#xae;" horiz-adv-x="1180" 
d="M140 800q-33 0 -56.5 -23.5t-23.5 -56.5t23.5 -56.5t56.5 -23.5t56.5 23.5t23.5 56.5t-23.5 56.5t-56.5 23.5zM360 800q-33 0 -56.5 -23.5t-23.5 -56.5t23.5 -56.5t56.5 -23.5t56.5 23.5t23.5 56.5t-23.5 56.5t-56.5 23.5zM140 580q-33 0 -56.5 -23.5t-23.5 -56.5
t23.5 -56.5t56.5 -23.5t56.5 23.5t23.5 56.5t-23.5 56.5t-56.5 23.5zM360 580q-33 0 -56.5 -23.5t-23.5 -56.5t23.5 -56.5t56.5 -23.5t56.5 23.5t23.5 56.5t-23.5 56.5t-56.5 23.5zM140 360q-33 0 -56.5 -23.5t-23.5 -56.5t23.5 -56.5t56.5 -23.5t56.5 23.5t23.5 56.5
t-23.5 56.5t-56.5 23.5zM360 360q-33 0 -56.5 -23.5t-23.5 -56.5t23.5 -56.5t56.5 -23.5t56.5 23.5t23.5 56.5t-23.5 56.5t-56.5 23.5zM730 800q-33 0 -56.5 -23.5t-23.5 -56.5t23.5 -56.5t56.5 -23.5t56.5 23.5t23.5 56.5t-23.5 56.5t-56.5 23.5zM950 800
q-33 0 -56.5 -23.5t-23.5 -56.5t23.5 -56.5t56.5 -23.5t56.5 23.5t23.5 56.5t-23.5 56.5t-56.5 23.5zM730 580q-33 0 -56.5 -23.5t-23.5 -56.5t23.5 -56.5t56.5 -23.5t56.5 23.5t23.5 56.5t-23.5 56.5t-56.5 23.5zM950 580q-33 0 -56.5 -23.5t-23.5 -56.5t23.5 -56.5
t56.5 -23.5t56.5 23.5t23.5 56.5t-23.5 56.5t-56.5 23.5zM730 360q-33 0 -56.5 -23.5t-23.5 -56.5t23.5 -56.5t56.5 -23.5t56.5 23.5t23.5 56.5t-23.5 56.5t-56.5 23.5zM950 360q-33 0 -56.5 -23.5t-23.5 -56.5t23.5 -56.5t56.5 -23.5t56.5 23.5t23.5 56.5t-23.5 56.5
t-56.5 23.5z" />
    <glyph glyph-name="uni0E00" unicode="&#xe00;" horiz-adv-x="0" 
 />
    <glyph glyph-name="kokaithai" unicode="&#xe01;" 
d="M184 11q0 13 5 22.5t19 17.5q2 1 -4 3.5t-13 5t-13.5 4.5t-7.5 2q8 10 18 18q10 6 25 11.5t37 5.5q36 0 56 -16.5t20 -43.5v-141h-18v140q0 9 -3 17.5t-10 15t-18 10t-27 3.5q-13 0 -22.5 -2t-15.5 -5t-8 -5l-3 -3q1 0 6.5 -3.5t11 -7.5t10 -7.5t4.5 -4.5q-9 -2 -16 -6
q-6 -4 -11 -11.5t-5 -20.5v-110h-17v111v0zM140 800q-33 0 -56.5 -23.5t-23.5 -56.5t23.5 -56.5t56.5 -23.5t56.5 23.5t23.5 56.5t-23.5 56.5t-56.5 23.5zM360 800q-33 0 -56.5 -23.5t-23.5 -56.5t23.5 -56.5t56.5 -23.5t56.5 23.5t23.5 56.5t-23.5 56.5t-56.5 23.5z
M140 580q-33 0 -56.5 -23.5t-23.5 -56.5t23.5 -56.5t56.5 -23.5t56.5 23.5t23.5 56.5t-23.5 56.5t-56.5 23.5zM360 580q-33 0 -56.5 -23.5t-23.5 -56.5t23.5 -56.5t56.5 -23.5t56.5 23.5t23.5 56.5t-23.5 56.5t-56.5 23.5z" />
    <glyph glyph-name="khokhaithai" unicode="&#xe02;" 
d="M186 74h4h9l12 -5l9 -13q3 -6 2.5 -13.5t-3.5 -14t-10 -11t-19 -3.5q-8 0 -14 4t-9.5 10t-5 12.5t-0.5 13.5q2 20 14.5 33t34.5 14t34.5 -9t16.5 -24q3 -12 1 -21t-8 -19l-8 -15l-3 -13v-85h23q3 0 7 1.5t7 5.5q4 6 4 17v161h17v-160q0 -5 -0.5 -12t-4.5 -12
q-5 -9 -11.5 -12.5t-13.5 -3.5h-63v16h18v79v11l4 12l11 22t2 24q-3 16 -15 20t-24 2q-10 -2 -14 -7zM192 60q-8 0 -12 -5t-4 -11t4 -11t12 -5t12 5t4 11t-4 11t-12 5zM140 800q-33 0 -56.5 -23.5t-23.5 -56.5t23.5 -56.5t56.5 -23.5t56.5 23.5t23.5 56.5t-23.5 56.5
t-56.5 23.5zM140 360q-33 0 -56.5 -23.5t-23.5 -56.5t23.5 -56.5t56.5 -23.5t56.5 23.5t23.5 56.5t-23.5 56.5t-56.5 23.5z" />
    <glyph glyph-name="khokhuatthai" unicode="&#xe03;" horiz-adv-x="1180" 
d="M635 100q12 0 19.5 -9.5t7.5 -20.5q0 -17 -4.5 -25.5t-11.5 -18.5q-5 -6 -7.5 -12.5t-2.5 -13.5v-85h24q2 0 6 1.5t7 5.5q4 6 4 17v161h17v-160q0 -5 -1 -12t-4 -12q-5 -9 -11.5 -12.5t-13.5 -3.5h-63v16h18v79q0 5 1 14.5t8 18.5q7 10 11.5 18t4.5 21q0 6 -2 11.5
t-8 6.5q-2 1 -5 -2t-7 -6t-7 -5l-3 -2q-2 0 -5 3t-6.5 6t-8 6t-8.5 2q-7 -1 -12.5 -6t-7.5 -12q0 1 7.5 3t18.5 -2q8 -2 12 -8t6 -13t0 -14t-8 -13t-13 -8t-13 -1t-12 4.5t-9 8.5q-3 4 -5 10t-2.5 13.5t1.5 16t7 16.5q6 8 13 13t17 5q6 0 10 -2t8 -4.5t6 -5t3 -2.5t4 2t6 5
t6.5 5t7.5 2zM577.5 60.5q-8.5 -0.5 -13 -6t-3.5 -12t5 -11.5t13 -5t13 6t3.5 12t-5 11.5t-13 5zM730 800q-33 0 -56.5 -23.5t-23.5 -56.5t23.5 -56.5t56.5 -23.5t56.5 23.5t23.5 56.5t-23.5 56.5t-56.5 23.5zM360 580q-33 0 -56.5 -23.5t-23.5 -56.5t23.5 -56.5t56.5 -23.5
t56.5 23.5t23.5 56.5t-23.5 56.5t-56.5 23.5zM140 360q-33 0 -56.5 -23.5t-23.5 -56.5t23.5 -56.5t56.5 -23.5t56.5 23.5t23.5 56.5t-23.5 56.5t-56.5 23.5zM360 360q-33 0 -56.5 -23.5t-23.5 -56.5t23.5 -56.5t56.5 -23.5t56.5 23.5t23.5 56.5t-23.5 56.5t-56.5 23.5z
M730 360q-33 0 -56.5 -23.5t-23.5 -56.5t23.5 -56.5t56.5 -23.5t56.5 23.5t23.5 56.5t-23.5 56.5t-56.5 23.5z" />
    <glyph glyph-name="khokhwaithai" unicode="&#xe04;" 
d="M212 -100h-18v42q0 8 -2 20.5t-11 34.5q-5 11 -6 23t1 23.5t8 22t14 17.5q10 8 22 12t24 5.5t23 -0.5t21 -4q12 -4 19.5 -11t12 -14t6.5 -15.5t2 -16.5v-139h-18v136q0 10 -2.5 19t-9 16t-18 11t-28.5 4q-22 0 -35 -8t-21 -24q-6 -15 -4 -29.5t6 -26.5q3 -7 4 -12
q2 -4 2 -7l2 5l3 12l6 16l7 16q6 10 14 16t22 6q12 0 21 -8.5t8 -23.5q-1 -8 -4 -14t-8 -9t-10.5 -5t-11.5 -1q-7 1 -11 3t-7 4t-4 4t-1 3l-6 -12l-4 -13q-4 -12 -6 -22.5t-2 -14.5v-41zM256 37q-9 0 -13.5 -5.5t-4.5 -12t4.5 -12t13.5 -5.5t13.5 5.5t4.5 12t-4.5 12
t-13.5 5.5zM140 800q-33 0 -56.5 -23.5t-23.5 -56.5t23.5 -56.5t56.5 -23.5t56.5 23.5t23.5 56.5t-23.5 56.5t-56.5 23.5zM140 360q-33 0 -56.5 -23.5t-23.5 -56.5t23.5 -56.5t56.5 -23.5t56.5 23.5t23.5 56.5t-23.5 56.5t-56.5 23.5zM360 360q-33 0 -56.5 -23.5
t-23.5 -56.5t23.5 -56.5t56.5 -23.5t56.5 23.5t23.5 56.5t-23.5 56.5t-56.5 23.5z" />
    <glyph glyph-name="khokhonthai" unicode="&#xe05;" horiz-adv-x="1180" 
d="M596 -24l4 13t12 29q6 10 14 16.5t23 5.5q11 0 20 -8.5t9 -23.5q-1 -8 -4 -14t-8 -9t-10.5 -5t-11.5 -1q-7 1 -11.5 3t-7 4t-4 4t-1.5 3l-5 -12l-5 -13q-2 -6 -3.5 -12t-2.5 -12t-1.5 -10t-0.5 -6v-28h-17v35q0 7 -2 23.5t-11.5 38.5t-8.5 39.5t9 31.5q6 14 18 23t19 10
q3 0 9 -3.5t11 -7.5q6 -6 13 -12l16 12q6 4 12 7.5t8 3.5q7 0 16.5 -6t15.5 -16l4 -10t3 -9.5t1 -9v-11.5v-139h-17v136q0 9 -0.5 15.5t-4.5 14.5q-4 9 -9.5 13.5t-8.5 4.5t-9 -4t-12 -9t-11 -9l-4 -4l-15 13q-5 5 -10.5 9t-6.5 4q-5 0 -9 -3t-7.5 -8t-6 -11t-3.5 -10
q-3 -16 -1 -29.5t7 -25.5l4.5 -13.5t1.5 -5.5q1 -2 0 -2zM647 27q-9 0 -13.5 -5.5t-4.5 -12t4.5 -12t13.5 -5.5t13 5.5t4 12t-4 12t-13 5.5zM730 800q-33 0 -56.5 -23.5t-23.5 -56.5t23.5 -56.5t56.5 -23.5t56.5 23.5t23.5 56.5t-23.5 56.5t-56.5 23.5zM140 360
q-33 0 -56.5 -23.5t-23.5 -56.5t23.5 -56.5t56.5 -23.5t56.5 23.5t23.5 56.5t-23.5 56.5t-56.5 23.5zM360 360q-33 0 -56.5 -23.5t-23.5 -56.5t23.5 -56.5t56.5 -23.5t56.5 23.5t23.5 56.5t-23.5 56.5t-56.5 23.5zM730 360q-33 0 -56.5 -23.5t-23.5 -56.5t23.5 -56.5
t56.5 -23.5t56.5 23.5t23.5 56.5t-23.5 56.5t-56.5 23.5zM950 360q-33 0 -56.5 -23.5t-23.5 -56.5t23.5 -56.5t56.5 -23.5t56.5 23.5t23.5 56.5t-23.5 56.5t-56.5 23.5z" />
    <glyph glyph-name="khorakhangthai" unicode="&#xe06;" horiz-adv-x="1180" 
d="M644 -10h5l12 -2l17 -6l20 -13q6 -5 11 -11t9 -10q4 -6 7 -12v164h17v-200h-18l-2 4l-4 12l-8 14l-11 16q-11 12 -21 18t-18 8t-16 2v-45q0 -14 -7 -22t-19 -8q-11 0 -19.5 8.5t-10.5 20.5q-2 14 0 28t15 24q4 4 8.5 5t7.5 3q4 0 8 1v13q0 4 1.5 11t7.5 15q7 10 11.5 18
t4.5 21q0 6 -2 11.5t-8 6.5q-2 1 -5.5 -2l-7 -6t-6.5 -5t-4 -2t-4 3t-7 6l-8 6t-9 2q-7 -1 -12.5 -6t-7.5 -12q1 1 8 3t19 -2q7 -2 11.5 -8t6 -13t0 -14t-7.5 -13t-13 -8t-13.5 -1t-12 4.5t-9.5 8.5q-2 4 -4 10t-3 13.5t1 16t8 16.5q5 8 12 13t18 5q5 0 9.5 -2t8 -4.5t6 -5
t3.5 -2.5t3.5 2t6 5t6.5 5t7 2q12 0 19.5 -9.5t7.5 -20.5q0 -17 -4 -25.5t-11 -18.5q-6 -7 -8 -11.5t-2 -10.5v-14zM585 60.5q-9 -0.5 -13 -6t-3.5 -12t5 -11.5t13 -5t13 6t3.5 12t-5 11.5t-13 5zM610 -33q-4 -4 -6 -11.5t-2 -15.5t3 -17t11 -9t9.5 6t1.5 13v39h-6zM730 800
q-33 0 -56.5 -23.5t-23.5 -56.5t23.5 -56.5t56.5 -23.5t56.5 23.5t23.5 56.5t-23.5 56.5t-56.5 23.5zM360 360q-33 0 -56.5 -23.5t-23.5 -56.5t23.5 -56.5t56.5 -23.5t56.5 23.5t23.5 56.5t-23.5 56.5t-56.5 23.5zM730 360q-33 0 -56.5 -23.5t-23.5 -56.5t23.5 -56.5
t56.5 -23.5t56.5 23.5t23.5 56.5t-23.5 56.5t-56.5 23.5zM950 360q-33 0 -56.5 -23.5t-23.5 -56.5t23.5 -56.5t56.5 -23.5t56.5 23.5t23.5 56.5t-23.5 56.5t-56.5 23.5z" />
    <glyph glyph-name="ngonguthai" unicode="&#xe07;" 
d="M260 42q-2 -1 -6 -2q-3 -1 -6.5 -1.5t-8.5 1.5q-11 2 -19 10t-6 22q0 12 9.5 21t25.5 7q9 -1 15 -5t9 -9.5t4 -11.5t1 -10v-127q0 -16 -5 -26.5t-19 -10.5q-10 -1 -21 7.5t-21 32.5q-3 10 -5.5 17l-5 14t-5.5 14t-7 16q-3 7 -7 11t-7 6t-5.5 3t-3.5 1l11 13q1 0 9.5 -4.5
t15.5 -17.5q6 -11 9 -19t6 -15t5 -14t5 -15q5 -14 10 -21.5t11 -10.5q12 -5 12 13v111zM245 87q-9 0 -13 -5.5t-4 -11.5t4 -12t13 -6t13 6t4 12t-4 11.5t-13 5.5zM140 800q-33 0 -56.5 -23.5t-23.5 -56.5t23.5 -56.5t56.5 -23.5t56.5 23.5t23.5 56.5t-23.5 56.5t-56.5 23.5z
M360 800q-33 0 -56.5 -23.5t-23.5 -56.5t23.5 -56.5t56.5 -23.5t56.5 23.5t23.5 56.5t-23.5 56.5t-56.5 23.5zM140 580q-33 0 -56.5 -23.5t-23.5 -56.5t23.5 -56.5t56.5 -23.5t56.5 23.5t23.5 56.5t-23.5 56.5t-56.5 23.5zM360 580q-33 0 -56.5 -23.5t-23.5 -56.5
t23.5 -56.5t56.5 -23.5t56.5 23.5t23.5 56.5t-23.5 56.5t-56.5 23.5zM360 360q-33 0 -56.5 -23.5t-23.5 -56.5t23.5 -56.5t56.5 -23.5t56.5 23.5t23.5 56.5t-23.5 56.5t-56.5 23.5z" />
    <glyph glyph-name="chochanthai" unicode="&#xe08;" 
d="M243 -4l-8 -3q-3 -1 -7.5 -2t-9.5 1q-11 2 -18.5 10t-6.5 22q1 12 10 20.5t25 7.5q14 -1 21 -9.5t8 -18.5q3 -21 4 -38.5t4 -35.5q3 -20 6.5 -27.5t10.5 -8.5q12 0 12 19v101q0 11 -2 20t-8 16t-16 11t-24 5q-21 0 -33.5 -5t-19.5 -12q-8 -8 -11 -18l-14 7q0 1 3 8
t12 14.5t23.5 14t37.5 6.5q19 0 32.5 -5.5t21.5 -14.5t12 -21t4 -26v-100q0 -19 -9 -27t-19 -8q-4 0 -9 0.5t-10 5t-10 14t-7 27.5q-1 11 -2 20.5t-2 15.5q-1 8 -1 14zM224.5 39q-8.5 0 -13 -5.5t-4.5 -11.5t4.5 -12t13 -6t13 6t4.5 12t-4.5 11.5t-13 5.5zM360 800
q-33 0 -56.5 -23.5t-23.5 -56.5t23.5 -56.5t56.5 -23.5t56.5 23.5t23.5 56.5t-23.5 56.5t-56.5 23.5zM140 580q-33 0 -56.5 -23.5t-23.5 -56.5t23.5 -56.5t56.5 -23.5t56.5 23.5t23.5 56.5t-23.5 56.5t-56.5 23.5zM360 580q-33 0 -56.5 -23.5t-23.5 -56.5t23.5 -56.5
t56.5 -23.5t56.5 23.5t23.5 56.5t-23.5 56.5t-56.5 23.5z" />
    <glyph glyph-name="chochingthai" unicode="&#xe09;" 
d="M322 -16q5 0 10 -2q4 0 9 -2t9 -6q9 -9 11.5 -20.5t0.5 -25.5q-2 -12 -10.5 -21t-19.5 -7q-26 1 -26 30v36h-3.5t-7.5 -2t-12 -6t-15 -12q-10 -8 -16.5 -16.5t-10 -15t-5.5 -10.5l-2 -4h-18v78q-2 -1 -6 -2q-3 -1 -6.5 -1.5t-8.5 1.5q-11 2 -19 10t-6 22q0 12 9.5 21
t25.5 7q9 -1 15 -5t9 -9.5t4 -11.5t1 -10v-68l2 3t6 8t10 11.5t15 12t15.5 8.5t11.5 5q6 2 12 2v58q0 24 -17 35t-43 11q-18 0 -30 -5t-19 -11.5t-9 -11.5l-2 -6l-16 6q0 1 3 7.5t12 14.5t24 14.5t37 6.5q38 0 57 -16t19 -44v-57zM322 -66q0 -7 2 -13.5t9 -6.5t10 7.5
t4 16.5q0 8 -1.5 13.5t-5.5 9.5q-6 5 -11 5h-7v-32zM201 23q-9 0 -13 -5.5t-4 -11.5t4 -12t13 -6t13 6t4 12t-4 11.5t-13 5.5zM360 800q-33 0 -56.5 -23.5t-23.5 -56.5t23.5 -56.5t56.5 -23.5t56.5 23.5t23.5 56.5t-23.5 56.5t-56.5 23.5zM140 360q-33 0 -56.5 -23.5
t-23.5 -56.5t23.5 -56.5t56.5 -23.5t56.5 23.5t23.5 56.5t-23.5 56.5t-56.5 23.5z" />
    <glyph glyph-name="chochangthai" unicode="&#xe0a;" 
d="M286 32q0 4 -1 11t-5 12.5t-8 6.5q-3 2 -6 2l-5 15q11 2 18 5.5t15 11.5q7 6 11.5 13t6.5 13l14 -6q-3 -10 -7.5 -17t-12.5 -13q-6 -6 -11.5 -9t-11.5 -5q1 0 7 -3.5t10 -12.5q3 -6 3 -12v-12v-92q0 -5 -0.5 -12t-4.5 -12q-5 -9 -11.5 -12.5t-13.5 -3.5h-63v16h18v79v11
l4 12l11 22t2 24q-3 16 -15 20t-24 2q-10 -2 -14 -7l-4 -5h4h9l12 -5l9 -13q3 -6 2.5 -13.5t-3.5 -14t-10 -11t-19 -3.5q-8 0 -14 4t-9.5 10t-5 12.5t-0.5 13.5q2 20 14.5 33t34.5 14t34.5 -9t16.5 -24q3 -12 1 -21t-8 -19l-8 -15l-3 -13v-85h23q3 0 7 1.5t7 5.5q4 6 4 17
v93zM194 60q-8 0 -12 -5t-4 -11t4 -11t12 -5t12 5t4 11t-4 11t-12 5zM360 800q-33 0 -56.5 -23.5t-23.5 -56.5t23.5 -56.5t56.5 -23.5t56.5 23.5t23.5 56.5t-23.5 56.5t-56.5 23.5zM140 360q-33 0 -56.5 -23.5t-23.5 -56.5t23.5 -56.5t56.5 -23.5t56.5 23.5t23.5 56.5
t-23.5 56.5t-56.5 23.5zM360 360q-33 0 -56.5 -23.5t-23.5 -56.5t23.5 -56.5t56.5 -23.5t56.5 23.5t23.5 56.5t-23.5 56.5t-56.5 23.5z" />
    <glyph glyph-name="sosothai" unicode="&#xe0b;" 
d="M276 -85q3 0 7 1.5t7 5.5q4 6 4 17v94v15.5t-2 8.5q-4 6 -7 7q-2 1 -3 1l-2 14l3 1.5t7.5 4t9 5.5t8.5 7q8 6 11.5 13t5.5 13l15 -7q-4 -10 -8.5 -16t-13.5 -14q-6 -6 -11 -8.5l-11 -5.5q1 0 4.5 -2t7.5 -10q3 -6 3 -13v-15v-92q0 -5 -0.5 -12t-4.5 -12
q-5 -9 -11.5 -12.5t-13.5 -3.5h-65v16h18v79q0 5 1 14.5t9 18.5q6 10 11 18t5 21q0 6 -2 11.5t-8 6.5q-2 1 -5.5 -2l-7 -6t-6.5 -5t-4 -2t-4 3t-7 6l-8 6t-9 2q-7 -1 -12.5 -6t-7.5 -12q1 1 8 3t19 -2q7 -2 11.5 -8t6 -13t0 -14t-7.5 -13t-13 -8t-13.5 -1t-12 4.5t-9.5 8.5
q-2 4 -4 10t-3 13.5t1 16t8 16.5q5 8 12 13t18 5q5 0 9.5 -2t8 -4.5t6 -5t3.5 -2.5t3.5 2t6 5t6.5 5t7 2q12 0 19.5 -9.5t7.5 -20.5q0 -17 -4.5 -25.5t-10.5 -18.5q-6 -6 -8 -12.5t-2 -13.5v-85h24zM193 60.5q-9 -0.5 -13 -6t-3.5 -12t5 -11.5t13 -5t13 6t3.5 12t-5 11.5
t-13 5zM360 800q-33 0 -56.5 -23.5t-23.5 -56.5t23.5 -56.5t56.5 -23.5t56.5 23.5t23.5 56.5t-23.5 56.5t-56.5 23.5zM140 580q-33 0 -56.5 -23.5t-23.5 -56.5t23.5 -56.5t56.5 -23.5t56.5 23.5t23.5 56.5t-23.5 56.5t-56.5 23.5zM140 360q-33 0 -56.5 -23.5t-23.5 -56.5
t23.5 -56.5t56.5 -23.5t56.5 23.5t23.5 56.5t-23.5 56.5t-56.5 23.5zM360 360q-33 0 -56.5 -23.5t-23.5 -56.5t23.5 -56.5t56.5 -23.5t56.5 23.5t23.5 56.5t-23.5 56.5t-56.5 23.5z" />
    <glyph glyph-name="chochoethai" unicode="&#xe0c;" horiz-adv-x="1180" 
d="M785 -100h-19l-1 4l-5 11l-7 15l-11 16q-10 14 -18 18t-8 5v-40q0 -14 -7 -22t-19 -8t-20 8.5t-10 20.5q-2 14 0 28t14 25q4 3 8.5 4.5l7.5 2.5h8v51q0 22 -13 34.5t-45 12.5q-13 0 -22.5 -2t-15.5 -5q-7 -3 -11 -8q1 0 6 -2.5t10 -6.5q6 -4 11 -10q3 -2 5 -4l-3 -1
l-6 -2l-9 -5l-9 -8l-4 -12l-1 -10v-52l6 2t7 1.5t8 -0.5q12 -2 19 -10.5t7 -22.5q-1 -12 -10.5 -21t-25.5 -7q-9 1 -14.5 5.5t-8.5 9.5t-4 11t-1 11v75q0 7 1 11.5t4 10.5t6 9t6 5t7 2l-4 4q-3 2 -6.5 3t-7.5 3q-7 4 -12.5 5t-7.5 1q8 10 18 18q10 6 25 11.5t37 5.5
q36 0 56 -16.5t20 -43.5v-55q4 -1 8 -4q4 -2 9 -5t9 -8q6 -6 11 -11.5t8 -10.5q4 -5 7 -11v164h17v-200zM682 -33q-4 -4 -6 -11.5t-2 -15.5t3 -17t11 -9q7 0 8.5 6t1.5 13v39h-6zM607 -86q9 0 13 5t4 12t-4 12t-13 5t-13.5 -5t-4.5 -12t4.5 -12t13.5 -5zM950 800
q-33 0 -56.5 -23.5t-23.5 -56.5t23.5 -56.5t56.5 -23.5t56.5 23.5t23.5 56.5t-23.5 56.5t-56.5 23.5zM360 360q-33 0 -56.5 -23.5t-23.5 -56.5t23.5 -56.5t56.5 -23.5t56.5 23.5t23.5 56.5t-23.5 56.5t-56.5 23.5zM730 360q-33 0 -56.5 -23.5t-23.5 -56.5t23.5 -56.5
t56.5 -23.5t56.5 23.5t23.5 56.5t-23.5 56.5t-56.5 23.5zM950 360q-33 0 -56.5 -23.5t-23.5 -56.5t23.5 -56.5t56.5 -23.5t56.5 23.5t23.5 56.5t-23.5 56.5t-56.5 23.5z" />
    <glyph glyph-name="yoyingthai" unicode="&#xe0d;" horiz-adv-x="1180" 
d="M750 -84q4 0 7 0.5t7 3.5q2 2 2.5 5.5t0.5 7.5v167h17v-167q0 -7 -1 -13.5t-7 -11.5q-10 -8 -22 -8h-68v16h12v124q0 19 -13 32.5t-45 13.5q-13 0 -22.5 -2t-15.5 -5q-7 -3 -11 -8q1 0 6 -2.5t10 -6.5q6 -4 11 -10q3 -2 5 -4l-3 -1l-6 -2l-9 -5l-9 -8l-4 -12l-1 -10v-52
l6 2t7 1.5t8 -0.5q12 -2 19 -10.5t7 -22.5q-1 -12 -10.5 -21t-25.5 -7q-9 1 -14.5 5.5t-8.5 9.5t-4 11t-1 11v75q0 7 1 11.5t4 10.5t6 9t6 5t7 2l-4 4q-3 2 -6.5 3t-7.5 3q-7 4 -12.5 5t-7.5 1q8 10 18 18q10 6 25 11.5t37 5.5q36 0 56 -16.5t20 -43.5v-125h34zM752 -159
q6 5 9.5 11.5t5 12.5t1.5 10v5h18v-8l-4 -19l-14 -19l-29 -13q-9 -1 -20 -1.5t-20.5 1.5t-17.5 6.5t-11 12.5q-3 5 -3.5 11.5t1.5 12.5t7 11t13 7q16 4 26 -4.5t11 -21.5q1 -12 -3 -16.5t-5 -5.5h3h9l11 2zM696 -130q-8 0 -12 -5t-4 -11t4 -11t12 -5t12 5t4 11t-4 11t-12 5z
M607 -86q9 0 13 5t4 12t-4 12t-13 5t-13.5 -5t-4.5 -12t4.5 -12t13.5 -5zM730 800q-33 0 -56.5 -23.5t-23.5 -56.5t23.5 -56.5t56.5 -23.5t56.5 23.5t23.5 56.5t-23.5 56.5t-56.5 23.5zM950 800q-33 0 -56.5 -23.5t-23.5 -56.5t23.5 -56.5t56.5 -23.5t56.5 23.5t23.5 56.5
t-23.5 56.5t-56.5 23.5zM950 580q-33 0 -56.5 -23.5t-23.5 -56.5t23.5 -56.5t56.5 -23.5t56.5 23.5t23.5 56.5t-23.5 56.5t-56.5 23.5zM360 360q-33 0 -56.5 -23.5t-23.5 -56.5t23.5 -56.5t56.5 -23.5t56.5 23.5t23.5 56.5t-23.5 56.5t-56.5 23.5zM730 360
q-33 0 -56.5 -23.5t-23.5 -56.5t23.5 -56.5t56.5 -23.5t56.5 23.5t23.5 56.5t-23.5 56.5t-56.5 23.5zM950 360q-33 0 -56.5 -23.5t-23.5 -56.5t23.5 -56.5t56.5 -23.5t56.5 23.5t23.5 56.5t-23.5 56.5t-56.5 23.5z" />
    <glyph glyph-name="dochadathai" unicode="&#xe0e;" horiz-adv-x="1180" 
d="M670 -156l7 -7t5 -5.5t3 -5.5h7q6 0 14 4q6 5 8 11t2 14v185q0 19 -11.5 32.5t-42.5 13.5q-12 1 -20.5 -1.5t-13.5 -5.5q-6 -3 -10 -8l5 -2.5t11 -6.5t11 -10q3 -2 5 -4l-3 -1l-7 -2l-9 -5l-8 -8l-5 -12v-10v-73q0 -5 -1 -11t-4 -11t-9 -9.5t-15 -5.5q-15 -2 -25 7
t-10 21q0 14 7 22.5t19 10.5q4 1 8 0.5t6 -1.5l6 -2v52q0 4 1 11t5 13q2 6 5 9t6 5t7 2l-4 4t-5.5 3t-7.5 3q-7 4 -13 5t-7 1q6 10 16 18q9 6 23 11.5t36 5.5q36 0 53.5 -16.5t17.5 -43.5v-189q0 -5 -2.5 -15t-10.5 -17q-8 -6 -16 -7.5t-14 -1.5h-14q-1 1 -5 7t-9 12
q-3 4 -7.5 7t-4.5 4l-2 -5l-8 -12l-12 -11l-20 -5q-14 0 -23 10.5t-8 25.5q0 6 2.5 12t6.5 11t11 8t17 3q6 -1 10.5 -2.5t8.5 -3.5q5 -2 8 -5q0 1 0.5 3l1.5 6q1 3 1 5v3v4h16v-5q0 -4 -2 -11q0 -4 -1 -7t-1 -5t-1 -2l5 -4l5 -4zM612 -138q-9 0 -13.5 -6t-5 -13t3 -13
t11.5 -7t13 3t8.5 9.5t5 10t1.5 5.5q-2 3 -9 7.5t-15 3.5zM585 -86q9 0 13 5t4 12t-4 12t-13 5t-13 -5t-4 -12t4 -12t13 -5zM730 800q-33 0 -56.5 -23.5t-23.5 -56.5t23.5 -56.5t56.5 -23.5t56.5 23.5t23.5 56.5t-23.5 56.5t-56.5 23.5zM950 800q-33 0 -56.5 -23.5
t-23.5 -56.5t23.5 -56.5t56.5 -23.5t56.5 23.5t23.5 56.5t-23.5 56.5t-56.5 23.5zM950 580q-33 0 -56.5 -23.5t-23.5 -56.5t23.5 -56.5t56.5 -23.5t56.5 23.5t23.5 56.5t-23.5 56.5t-56.5 23.5zM360 360q-33 0 -56.5 -23.5t-23.5 -56.5t23.5 -56.5t56.5 -23.5t56.5 23.5
t23.5 56.5t-23.5 56.5t-56.5 23.5z" />
    <glyph glyph-name="topatakthai" unicode="&#xe0f;" horiz-adv-x="1180" 
d="M716 40q0 19 -11.5 32.5t-42.5 13.5q-12 1 -20.5 -1.5t-13.5 -5.5q-6 -3 -10 -8l5 -2.5t11 -6.5t11 -10q3 -2 5 -4l-3 -1l-7 -2l-9 -5l-8 -8l-5 -12v-10v-73q0 -5 -1 -11t-4 -11t-9 -9.5t-15 -5.5q-15 -2 -25 7t-10 21q0 14 7 22.5t19 10.5q4 1 8 0.5t6 -1.5l6 -2v52
q0 4 1 11t5 13q2 6 5 9t6 5t7 2l-4 4t-5.5 3t-7.5 3q-7 4 -13 5t-7 1q6 10 16 18q9 6 23 11.5t36 5.5q36 0 53.5 -16.5t17.5 -43.5v-197q0 -8 -2 -15t-9 -12t-14.5 -6t-9.5 -1l-20 32l-19 -32h-15q0 2 -4 12q-1 2 -3 5t-3 5l-2 -4l-6 -9l-10 -8l-14 -3q-12 1 -19 11t-5 25
q1 12 7 19t19 9q6 0 11 -2t8.5 -4t5.5 -4l2 -2l1 3t2 8v5t1 4q0 2 1 4h16q-1 -4 -1.5 -7t-0.5 -6t-2 -7q-2 -8 -4 -14q0 -2 -2 -4q1 -2 2 -3t2 -3l2 -3l1 -4l2 -3q1 -2 1 -4l25 40l29 -40l2 1t5 3.5t3 5v6.5v198zM585 -86q9 0 13 5t4 12t-4 12t-13 5t-13 -5t-4 -12t4 -12
t13 -5zM602 -142q-4 -2 -7 -7t-3 -11t2.5 -11t7.5 -7q4 0 8 2t7 6t4.5 8t0.5 6q-2 7 -7 10.5t-13 3.5zM730 800q-33 0 -56.5 -23.5t-23.5 -56.5t23.5 -56.5t56.5 -23.5t56.5 23.5t23.5 56.5t-23.5 56.5t-56.5 23.5zM730 580q-33 0 -56.5 -23.5t-23.5 -56.5t23.5 -56.5
t56.5 -23.5t56.5 23.5t23.5 56.5t-23.5 56.5t-56.5 23.5zM950 580q-33 0 -56.5 -23.5t-23.5 -56.5t23.5 -56.5t56.5 -23.5t56.5 23.5t23.5 56.5t-23.5 56.5t-56.5 23.5zM360 360q-33 0 -56.5 -23.5t-23.5 -56.5t23.5 -56.5t56.5 -23.5t56.5 23.5t23.5 56.5t-23.5 56.5
t-56.5 23.5zM950 360q-33 0 -56.5 -23.5t-23.5 -56.5t23.5 -56.5t56.5 -23.5t56.5 23.5t23.5 56.5t-23.5 56.5t-56.5 23.5z" />
    <glyph glyph-name="thothanthai" unicode="&#xe10;" horiz-adv-x="1180" 
d="M630 64q20 -3 32 -8.5t19 -13t9 -18t2 -22.5v-68q0 -19 -9 -27.5t-18 -7.5q-5 1 -10 1.5t-10 5t-9 13.5t-7 27q-3 11 -5 20.5l-2 9.5l-8 -4q-4 -1 -9 -1.5t-9 -0.5q-12 3 -19 11t-7 22q2 12 11 20.5t25 7.5q14 -1 20 -10t8 -18t4 -15t3 -11.5t2 -12t3 -14.5
q4 -18 7 -26.5t9 -9.5q13 -2 13 19v69q0 10 -2 18t-7.5 14t-15.5 10t-25 6q-10 2 -21.5 2.5t-21 1t-16 0.5h-6.5q0 4 2 10t7 13t13 13t20 8q12 3 21 2.5t17 -2.5t16.5 -4t19.5 -4q4 0 8 1t8 3l6 4l10 -12q-2 0 -7 -5t-20 -6q-7 0 -15 1.5t-16 4t-17 4t-19 1.5
q-10 -1 -15 -3.5t-9 -5.5t-5.5 -6t-2.5 -3q1 0 14 -0.5t34 -3.5zM624 -211h-10l-9 22q0 -1 -1.5 -5t-4.5 -8t-8 -7t-12 -3t-11 4t-7 9.5t-4 12.5t1 14q0 8 4.5 15t13.5 9q4 2 8.5 1t8 -3t5.5 -4l2 -2v5v4.5t1 4.5q0 4 -0.5 9t-0.5 6h16v-7v-7v-9q0 -6 -1.5 -13t-1.5 -9
l8 -19l18 19l21 -24h3l5 4l2 5v5v14l-8 -2q-4 0 -9 1t-10 3q-9 5 -11.5 14.5t1.5 19.5t13.5 14t19.5 1q8 -1 12 -5t6 -9t2.5 -10t0.5 -9v-28q0 -8 -0.5 -12.5t-4.5 -9.5q-6 -7 -13 -9.5t-14 -1.5l-17 19zM659 -128q-7 0 -11 -4.5t-4 -10t3 -10.5t11 -5t11.5 4.5t4 10
t-3.5 10.5t-11 5zM582 -161q-6 -1 -8 -6t-2 -9q-1 -7 1 -13.5t7 -7.5q4 -1 7 3t5 10t4 14q0 1 -4 5.5t-10 3.5zM601.5 18q-8.5 0 -13 -5.5t-4.5 -12t4.5 -11.5t13 -5t12.5 5t4 11.5t-4 12t-12.5 5.5zM950 800q-33 0 -56.5 -23.5t-23.5 -56.5t23.5 -56.5t56.5 -23.5
t56.5 23.5t23.5 56.5t-23.5 56.5t-56.5 23.5zM730 580q-33 0 -56.5 -23.5t-23.5 -56.5t23.5 -56.5t56.5 -23.5t56.5 23.5t23.5 56.5t-23.5 56.5t-56.5 23.5zM950 580q-33 0 -56.5 -23.5t-23.5 -56.5t23.5 -56.5t56.5 -23.5t56.5 23.5t23.5 56.5t-23.5 56.5t-56.5 23.5z
M360 360q-33 0 -56.5 -23.5t-23.5 -56.5t23.5 -56.5t56.5 -23.5t56.5 23.5t23.5 56.5t-23.5 56.5t-56.5 23.5zM730 360q-33 0 -56.5 -23.5t-23.5 -56.5t23.5 -56.5t56.5 -23.5t56.5 23.5t23.5 56.5t-23.5 56.5t-56.5 23.5z" />
    <glyph glyph-name="thonangmonthothai" unicode="&#xe11;" horiz-adv-x="1180" 
d="M666 36q6 11 12 22.5t13 21t15 15.5t18 6t16 -4.5t10 -11.5t5 -16t1 -18v-151h-16v151q0 6 -0.5 12t-2 11.5t-5 8.5t-10.5 3q-5 0 -11 -6t-12 -15t-12 -21.5t-12 -25.5q-7 -16 -13 -32.5t-11 -32t-8 -29.5t-4 -24h-17v95v8v11t2 12.5t5 12.5q5 9 8 14t5 13q1 6 -0.5 12
t-5.5 6q-2 0 -5 -3l-6 -6l-6 -6t-5 -3t-5 3l-7 7t-9 7t-9 3q-6 -1 -12 -6.5t-7 -13.5q1 0 8 2.5t19 -1.5q7 -3 11.5 -8.5t6 -13t0 -14.5t-7.5 -12.5t-13 -7.5t-13.5 -1t-12 4.5t-9.5 7.5q-2 4 -4 11t-2 15t2 17t7 17t12 13t18 5q5 0 10 -2t8 -4.5l6 -5t4 -2.5t3 2t5.5 5t7 5
t7.5 2q10 0 16 -9t5 -21q-1 -10 -3 -16t-8 -16q-8 -12 -8.5 -21.5t-0.5 -16.5v-34l2.5 7t6 18t8.5 23t10 22zM579 57q-9 -1 -13 -6t-3.5 -12t5 -12t13 -4.5t13 6t3.5 12t-5 12t-13 4.5zM950 800q-33 0 -56.5 -23.5t-23.5 -56.5t23.5 -56.5t56.5 -23.5t56.5 23.5t23.5 56.5
t-23.5 56.5t-56.5 23.5zM730 580q-33 0 -56.5 -23.5t-23.5 -56.5t23.5 -56.5t56.5 -23.5t56.5 23.5t23.5 56.5t-23.5 56.5t-56.5 23.5zM950 580q-33 0 -56.5 -23.5t-23.5 -56.5t23.5 -56.5t56.5 -23.5t56.5 23.5t23.5 56.5t-23.5 56.5t-56.5 23.5zM360 360
q-33 0 -56.5 -23.5t-23.5 -56.5t23.5 -56.5t56.5 -23.5t56.5 23.5t23.5 56.5t-23.5 56.5t-56.5 23.5zM730 360q-33 0 -56.5 -23.5t-23.5 -56.5t23.5 -56.5t56.5 -23.5t56.5 23.5t23.5 56.5t-23.5 56.5t-56.5 23.5zM950 360q-33 0 -56.5 -23.5t-23.5 -56.5t23.5 -56.5
t56.5 -23.5t56.5 23.5t23.5 56.5t-23.5 56.5t-56.5 23.5z" />
    <glyph glyph-name="thophuthaothai" unicode="&#xe12;" horiz-adv-x="1180" 
d="M704 36v15.5t-4 14.5q-4 9 -10 13.5t-9 4.5t-9 -4t-12 -9t-10 -9l-4 -4l-16 13q-5 5 -10.5 9t-6.5 4q-5 0 -9 -3t-7 -8t-6 -11t-3 -10q-4 -16 -2 -29.5t7 -25.5q7 -20 9 -37q2 -10 2 -18q3 2 6 6q2 3 5 7t7 9l8 8l6 6l6 6q-4 -1 -9 0q-4 2 -8.5 4t-7.5 7q-4 5 -5.5 12
t-0.5 13.5t5.5 12.5t11.5 9q9 4 17.5 3t14.5 -5t10 -10t4 -14q1 -9 -1.5 -15.5t-6 -11.5t-9 -11t-11.5 -12q-11 -12 -20 -21.5t-14 -21.5q-5 -10 -5.5 -16t-0.5 -7h-18v32q0 8 -2 25t-11 40q-9 22 -8 39.5t8 31.5t18.5 23t18.5 10q4 0 9.5 -3.5t10.5 -7.5q6 -6 14 -12
q8 6 15 12q6 4 12 7.5t9 3.5q6 0 16 -6t15 -16q3 -5 5 -10t2.5 -9.5l1 -9t0.5 -11.5v-51l9 -1.5t20 -8.5q5 -4 9.5 -9t7.5 -9q4 -4 6 -10v150h17v-200h-17l-0.5 5t-3 13t-6.5 17t-12 19q-12 14 -21 16.5l-9 2.5v-44q0 -32 -26 -31q-10 1 -17.5 9.5t-9.5 20.5
q-3 14 -0.5 28.5t15.5 25.5q3 2 7 3l7 3h6v48zM692 -32q-4 -4 -6 -11.5t-2 -16.5q1 -8 3.5 -16t8.5 -9t7 6t1 12v39h-4zM643 31q-9 0 -13.5 -5.5t-4.5 -12t4.5 -12t13.5 -5.5t13 5.5t4 12t-4 12t-13 5.5zM950.5 800q-32.5 0 -56.5 -23.5t-24 -56t24 -56.5t56.5 -24t56 24
t23.5 56.5t-23.5 56t-56 23.5zM950.5 580q-32.5 0 -56.5 -23.5t-24 -56t24 -56.5t56.5 -24t56 24t23.5 56.5t-23.5 56t-56 23.5zM730 580q-33 0 -56.5 -23.5t-23.5 -56.5t23.5 -56.5t56.5 -23.5t56.5 23.5t23.5 56.5t-23.5 56.5t-56.5 23.5zM950.5 360q-32.5 0 -56.5 -23.5
t-24 -56t24 -56t56.5 -24t56 23.5t23.5 56.5t-23.5 56t-56 23.5zM140 360q-33 0 -56.5 -23.5t-23.5 -56.5t23.5 -56.5t56.5 -23.5t56.5 23.5t23.5 56.5t-23.5 56.5t-56.5 23.5zM360 360q-33 0 -56.5 -23.5t-23.5 -56.5t23.5 -56.5t56.5 -23.5t56.5 23.5t23.5 56.5
t-23.5 56.5t-56.5 23.5zM730 360q-33 0 -56.5 -23.5t-23.5 -56.5t23.5 -56.5t56.5 -23.5t56.5 23.5t23.5 56.5t-23.5 56.5t-56.5 23.5z" />
    <glyph glyph-name="nonenthai" unicode="&#xe13;" horiz-adv-x="1180" 
d="M692 40q0 9 -2 17.5t-8.5 14.5t-17 10t-25.5 4q-13 0 -22.5 -2t-14.5 -5q-7 -3 -11 -8q1 0 6 -2.5t10 -6.5q6 -4 11 -10q3 -2 5 -4l-3 -1l-6 -2l-9 -5l-9 -8l-4 -12l-1 -10v-52l6 2t7 1.5t8 -0.5q12 -2 19 -10.5t7 -22.5q-1 -12 -10.5 -21t-25.5 -7q-9 1 -14.5 5.5
t-8.5 9.5t-4 11t-1 11v75q0 7 1 11.5t4 10.5t6 9t6 5t7 2l-4 4q-3 2 -6.5 3t-7.5 3q-7 4 -12.5 5t-7.5 1q6 10 18 18q8 6 23 11.5t37 5.5q37 0 54.5 -16.5t17.5 -43.5v-105q2 6 6 11t8.5 11t10.5 12q5 4 10 7t9 6t8 4v113h17v-111q4 1 9 0q4 -1 9 -2t9 -5q10 -9 12 -24
t0 -30q-2 -12 -9.5 -21t-20.5 -7q-26 1 -26 30v40q-1 -1 -9 -5.5t-18 -18.5q-6 -7 -10.5 -15.5t-7.5 -15t-5 -11.5l-1 -4h-19v140zM607 -86q9 0 13 5t4 12t-4 12t-13 5t-13.5 -5t-4.5 -12t4.5 -12t13.5 -5zM779 -66q0 -7 1.5 -13.5t9.5 -6.5t10.5 9t3.5 17q0 9 -2 16.5
t-6 11.5q-5 6 -10.5 5.5t-6.5 -0.5v-39zM730 800q-33 0 -56.5 -23.5t-23.5 -56.5t23.5 -56.5t56.5 -23.5t56.5 23.5t23.5 56.5t-23.5 56.5t-56.5 23.5zM950 800q-33 0 -56.5 -23.5t-23.5 -56.5t23.5 -56.5t56.5 -23.5t56.5 23.5t23.5 56.5t-23.5 56.5t-56.5 23.5zM950 580
q-33 0 -56.5 -23.5t-23.5 -56.5t23.5 -56.5t56.5 -23.5t56.5 23.5t23.5 56.5t-23.5 56.5t-56.5 23.5zM360 360q-33 0 -56.5 -23.5t-23.5 -56.5t23.5 -56.5t56.5 -23.5t56.5 23.5t23.5 56.5t-23.5 56.5t-56.5 23.5zM730 360q-33 0 -56.5 -23.5t-23.5 -56.5t23.5 -56.5
t56.5 -23.5t56.5 23.5t23.5 56.5t-23.5 56.5t-56.5 23.5z" />
    <glyph glyph-name="dodekthai" unicode="&#xe14;" 
d="M255 -2q-5 -1 -9 0l-8 4t-8 7t-5.5 12t0 13.5t5.5 12t12 9.5q8 3 16 2.5t14.5 -4.5t10 -10t4.5 -14q1 -9 -2 -15.5t-7 -12.5t-10 -11.5t-12 -12.5q-11 -12 -20 -22t-14 -22q-5 -10 -6.5 -20t-1.5 -14h-18v42q0 8 -2 20.5t-11 34.5q-5 11 -6 23t1 23.5t8 22t14 17.5
q10 8 22 12t24 5.5t23 -0.5t21 -4q12 -4 19.5 -11t12 -14t6.5 -15.5t2 -16.5v-139h-18v136q0 10 -2.5 19t-9 16t-18 11t-28.5 4q-22 0 -35 -8t-21 -24q-6 -15 -4 -29.5t6 -26.5q4 -10 6 -18l4 -16t2 -14l6 7q2 3 5 7t7 8q8 9 16 17zM255 45q-9 0 -13 -5.5t-4 -12t4 -12
t13 -5.5t13.5 5.5t4.5 12t-4.5 12t-13.5 5.5zM140 800q-33 0 -56.5 -23.5t-23.5 -56.5t23.5 -56.5t56.5 -23.5t56.5 23.5t23.5 56.5t-23.5 56.5t-56.5 23.5zM360 800q-33 0 -56.5 -23.5t-23.5 -56.5t23.5 -56.5t56.5 -23.5t56.5 23.5t23.5 56.5t-23.5 56.5t-56.5 23.5z
M360 580q-33 0 -56.5 -23.5t-23.5 -56.5t23.5 -56.5t56.5 -23.5t56.5 23.5t23.5 56.5t-23.5 56.5t-56.5 23.5z" />
    <glyph glyph-name="totaothai" unicode="&#xe15;" 
d="M310 66q-4 9 -10 13.5t-9 4.5t-9 -4t-12 -9t-10 -9l-4 -4l-16 13q-5 5 -10.5 9t-6.5 4q-5 0 -9 -3t-7 -8t-6 -11t-3 -10q-4 -16 -2 -29.5t7 -25.5q7 -20 9 -37q2 -10 2 -18q2 3 5 6l6 8t7 8q6 5 10 8.5t7 5.5l7 6q-4 -1 -9 0q-4 2 -8.5 4t-7.5 7q-4 5 -5.5 12t-0.5 13.5
t5.5 12.5t11.5 9q9 4 17 3t14.5 -4.5t10.5 -10t4 -14.5q1 -8 -1 -15t-6.5 -12.5t-10 -11l-12.5 -12.5q-10 -9 -20.5 -19.5t-15.5 -22.5q-5 -10 -5.5 -14.5t-0.5 -8.5h-18v32q0 8 -2 25t-11 40q-9 22 -8 39.5t8 31.5t18.5 23t18.5 10q4 0 9.5 -3.5t10.5 -7.5q6 -6 14 -12
q8 6 15 12q6 4 12 7.5t9 3.5q6 0 16 -6t15 -16q3 -5 5 -10t2.5 -9.5l1 -9t0.5 -11.5v-139h-18v136v15.5t-4 14.5zM257 31q-9 0 -13.5 -5.5t-4.5 -12t4.5 -12t13.5 -5.5t13 5.5t4 12t-4 12t-13 5.5zM140 800q-33 0 -56.5 -23.5t-23.5 -56.5t23.5 -56.5t56.5 -23.5t56.5 23.5
t23.5 56.5t-23.5 56.5t-56.5 23.5zM140 580q-33 0 -56.5 -23.5t-23.5 -56.5t23.5 -56.5t56.5 -23.5t56.5 23.5t23.5 56.5t-23.5 56.5t-56.5 23.5zM360 580q-33 0 -56.5 -23.5t-23.5 -56.5t23.5 -56.5t56.5 -23.5t56.5 23.5t23.5 56.5t-23.5 56.5t-56.5 23.5zM360 360
q-33 0 -56.5 -23.5t-23.5 -56.5t23.5 -56.5t56.5 -23.5t56.5 23.5t23.5 56.5t-23.5 56.5t-56.5 23.5z" />
    <glyph glyph-name="thothungthai" unicode="&#xe16;" 
d="M189 34q3 6 6 9t6 5t7 2l-4 4q-3 2 -6.5 3t-7.5 3q-7 4 -12.5 5t-7.5 1q8 10 18 18q10 6 25 11.5t37 5.5q36 0 56 -16.5t20 -43.5v-141h-18v140q0 19 -13 32.5t-45 13.5q-13 0 -22.5 -2t-15.5 -5q-7 -3 -11 -8q1 0 6 -2.5t10 -6.5q6 -4 11 -10q3 -2 5 -4l-3 -1l-6 -2
l-9 -5l-9 -8l-4 -12l-1 -10v-52l6 2t7 1.5t8 -0.5q12 -2 19 -10.5t7 -22.5q-1 -12 -10.5 -21t-25.5 -7q-9 1 -14.5 5.5t-8.5 9.5t-4 11t-1 11v75q0 7 1 11.5t4 10.5zM217 -86q9 0 13 5t4 12t-4 12t-13 5t-13.5 -5t-4.5 -12t4.5 -12t13.5 -5zM360 800q-33 0 -56.5 -23.5
t-23.5 -56.5t23.5 -56.5t56.5 -23.5t56.5 23.5t23.5 56.5t-23.5 56.5t-56.5 23.5zM140 580q-33 0 -56.5 -23.5t-23.5 -56.5t23.5 -56.5t56.5 -23.5t56.5 23.5t23.5 56.5t-23.5 56.5t-56.5 23.5zM360 580q-33 0 -56.5 -23.5t-23.5 -56.5t23.5 -56.5t56.5 -23.5t56.5 23.5
t23.5 56.5t-23.5 56.5t-56.5 23.5zM140 360q-33 0 -56.5 -23.5t-23.5 -56.5t23.5 -56.5t56.5 -23.5t56.5 23.5t23.5 56.5t-23.5 56.5t-56.5 23.5z" />
    <glyph glyph-name="thothahanthai" unicode="&#xe17;" 
d="M250 42q6 11 11.5 21.5t12 18.5t14 13.5t16.5 5.5q10 0 18 -4.5t13.5 -11.5t8.5 -16t3 -18v-151h-17v151q0 6 -2 12t-5 11.5t-8 8.5t-12 3q-5 0 -11 -5.5t-11.5 -14.5t-11 -20.5t-9.5 -21.5q-6 -15 -12 -30.5t-10 -32t-7 -32t-3 -29.5h-16v143q-4 -1 -7 -3q-3 0 -7 -0.5
t-8 0.5q-12 2 -19 10t-7 22q2 12 11 21t25 7q10 0 15.5 -4t8.5 -10t3.5 -12t0.5 -10v-82l2 5t4.5 14t6.5 20t9 21zM196 88q-8 0 -13 -6t-5 -12t5 -11.5t13 -5.5t12.5 5.5t4.5 11.5t-4.5 12t-12.5 6zM360 800q-33 0 -56.5 -23.5t-23.5 -56.5t23.5 -56.5t56.5 -23.5t56.5 23.5
t23.5 56.5t-23.5 56.5t-56.5 23.5zM140 580q-33 0 -56.5 -23.5t-23.5 -56.5t23.5 -56.5t56.5 -23.5t56.5 23.5t23.5 56.5t-23.5 56.5t-56.5 23.5zM360 580q-33 0 -56.5 -23.5t-23.5 -56.5t23.5 -56.5t56.5 -23.5t56.5 23.5t23.5 56.5t-23.5 56.5t-56.5 23.5zM140 360
q-33 0 -56.5 -23.5t-23.5 -56.5t23.5 -56.5t56.5 -23.5t56.5 23.5t23.5 56.5t-23.5 56.5t-56.5 23.5zM360 360q-33 0 -56.5 -23.5t-23.5 -56.5t23.5 -56.5t56.5 -23.5t56.5 23.5t23.5 56.5t-23.5 56.5t-56.5 23.5z" />
    <glyph glyph-name="thothongthai" unicode="&#xe18;" horiz-adv-x="1180" 
d="M680 14q0 6 -2 12t-7.5 11t-15 8t-25.5 5q-10 2 -21 2.5t-21 1t-16.5 0.5h-6.5q0 4 2.5 10t7.5 13t12.5 13t18.5 8q12 3 21.5 2.5t18 -2.5t16.5 -4t18 -4q6 0 10 1t6 3q4 2 6 4l10 -12l-6 -5t-20 -6q-7 0 -14.5 1.5t-16.5 4t-18 4t-19 1.5q-8 -1 -14 -3.5t-9 -5.5t-5 -6
t-3 -3q1 0 14 -0.5t33 -3.5q21 -4 33.5 -9t19 -11t8.5 -14t2 -16v-71q0 -7 -0.5 -15t-5.5 -14q-5 -8 -12.5 -11t-16.5 -3h-94v16h15v121h17v-121h50h12t12 4q6 6 6 11v11v72zM950 800q-33 0 -56.5 -23.5t-23.5 -56.5t23.5 -56.5t56.5 -23.5t56.5 23.5t23.5 56.5t-23.5 56.5
t-56.5 23.5zM360 580q-33 0 -56.5 -23.5t-23.5 -56.5t23.5 -56.5t56.5 -23.5t56.5 23.5t23.5 56.5t-23.5 56.5t-56.5 23.5zM730 580q-33 0 -56.5 -23.5t-23.5 -56.5t23.5 -56.5t56.5 -23.5t56.5 23.5t23.5 56.5t-23.5 56.5t-56.5 23.5zM950 580q-33 0 -56.5 -23.5
t-23.5 -56.5t23.5 -56.5t56.5 -23.5t56.5 23.5t23.5 56.5t-23.5 56.5t-56.5 23.5zM140 360q-33 0 -56.5 -23.5t-23.5 -56.5t23.5 -56.5t56.5 -23.5t56.5 23.5t23.5 56.5t-23.5 56.5t-56.5 23.5zM360 360q-33 0 -56.5 -23.5t-23.5 -56.5t23.5 -56.5t56.5 -23.5t56.5 23.5
t23.5 56.5t-23.5 56.5t-56.5 23.5zM730 360q-33 0 -56.5 -23.5t-23.5 -56.5t23.5 -56.5t56.5 -23.5t56.5 23.5t23.5 56.5t-23.5 56.5t-56.5 23.5zM950 360q-33 0 -56.5 -23.5t-23.5 -56.5t23.5 -56.5t56.5 -23.5t56.5 23.5t23.5 56.5t-23.5 56.5t-56.5 23.5z" />
    <glyph glyph-name="nonuthai" unicode="&#xe19;" 
d="M212 -100v142l-6 -2q-4 -1 -7.5 -1.5t-8.5 1.5q-11 2 -18.5 10t-6.5 22q1 12 10 21t25 7q10 -1 16 -5t9 -9.5t3.5 -11.5t0.5 -10v-127q0 -1 2.5 2.5t6.5 9t10 11.5t14 10q10 6 18 9.5t14 4.5q7 2 13 2v114h17v-114q4 1 9 0q4 -1 8.5 -2.5t9.5 -5.5q11 -8 13 -21.5
t0 -28.5q-2 -12 -11 -21t-20 -7q-26 1 -26 30v40h-4.5t-9.5 -2t-14 -6t-16 -12q-10 -8 -16.5 -17t-10 -16.5t-5 -12t-2.5 -4.5h-17zM324 -66q0 -7 2 -13.5t8 -6.5q8 0 11 9t3 17q0 9 -1 15t-5 10q-6 5 -11.5 5h-6.5v-36zM196.5 87q-8.5 0 -13 -5.5t-4.5 -11.5t4.5 -12t13 -6
t13 6t4.5 12t-4.5 11.5t-13 5.5zM140 800q-33 0 -56.5 -23.5t-23.5 -56.5t23.5 -56.5t56.5 -23.5t56.5 23.5t23.5 56.5t-23.5 56.5t-56.5 23.5zM360 800q-33 0 -56.5 -23.5t-23.5 -56.5t23.5 -56.5t56.5 -23.5t56.5 23.5t23.5 56.5t-23.5 56.5t-56.5 23.5zM360 580
q-33 0 -56.5 -23.5t-23.5 -56.5t23.5 -56.5t56.5 -23.5t56.5 23.5t23.5 56.5t-23.5 56.5t-56.5 23.5zM140 360q-33 0 -56.5 -23.5t-23.5 -56.5t23.5 -56.5t56.5 -23.5t56.5 23.5t23.5 56.5t-23.5 56.5t-56.5 23.5z" />
    <glyph glyph-name="bobaimaithai" unicode="&#xe1a;" 
d="M298 -84q6 0 11 0.5t11 5.5q4 4 5 10t1 10v158h18v-159q0 -9 -2 -16.5t-8 -13.5q-7 -7 -16.5 -9t-19.5 -2h-106v16h19v126q-3 -1 -7 -2q-2 -1 -6 -1.5t-8 1.5q-12 2 -19 10t-7 22q2 12 11 21t25 7q9 -1 14.5 -5t8.5 -9.5t4 -11.5t1 -10v-148h70zM195 88q-9 0 -13 -6
t-4 -12t4 -12t13 -6t13.5 6t4.5 12t-4.5 12t-13.5 6zM140 800q-33 0 -56.5 -23.5t-23.5 -56.5t23.5 -56.5t56.5 -23.5t56.5 23.5t23.5 56.5t-23.5 56.5t-56.5 23.5zM140 580q-33 0 -56.5 -23.5t-23.5 -56.5t23.5 -56.5t56.5 -23.5t56.5 23.5t23.5 56.5t-23.5 56.5
t-56.5 23.5zM140 360q-33 0 -56.5 -23.5t-23.5 -56.5t23.5 -56.5t56.5 -23.5t56.5 23.5t23.5 56.5t-23.5 56.5t-56.5 23.5zM360 360q-33 0 -56.5 -23.5t-23.5 -56.5t23.5 -56.5t56.5 -23.5t56.5 23.5t23.5 56.5t-23.5 56.5t-56.5 23.5z" />
    <glyph glyph-name="poplathai" unicode="&#xe1b;" 
d="M298 -84q6 0 11 0.5t11 5.5q4 4 5 10t1 10v250h18v-251q0 -9 -2 -16.5t-8 -13.5q-7 -7 -16.5 -9t-19.5 -2h-106v16h19v126q-3 -1 -7 -2q-2 -1 -6 -1.5t-8 1.5q-12 2 -19 10t-7 22q2 12 11 21t25 7q9 -1 14.5 -5t8.5 -9.5t4 -11.5t1 -10v-148h70zM195 88q-9 0 -13 -6
t-4 -12t4 -12t13 -6t13.5 6t4.5 12t-4.5 12t-13.5 6zM140 800q-33 0 -56.5 -23.5t-23.5 -56.5t23.5 -56.5t56.5 -23.5t56.5 23.5t23.5 56.5t-23.5 56.5t-56.5 23.5zM360 800q-33 0 -56.5 -23.5t-23.5 -56.5t23.5 -56.5t56.5 -23.5t56.5 23.5t23.5 56.5t-23.5 56.5
t-56.5 23.5zM140 580q-33 0 -56.5 -23.5t-23.5 -56.5t23.5 -56.5t56.5 -23.5t56.5 23.5t23.5 56.5t-23.5 56.5t-56.5 23.5zM140 360q-33 0 -56.5 -23.5t-23.5 -56.5t23.5 -56.5t56.5 -23.5t56.5 23.5t23.5 56.5t-23.5 56.5t-56.5 23.5zM360 360q-33 0 -56.5 -23.5
t-23.5 -56.5t23.5 -56.5t56.5 -23.5t56.5 23.5t23.5 56.5t-23.5 56.5t-56.5 23.5z" />
    <glyph glyph-name="phophungthai" unicode="&#xe1c;" 
d="M262 12l48 -85v173h16v-200h-19l-54 97l-55 -97h-19v164q0 4 0.5 10t3.5 12t9 10t16 4q16 2 25 -6t10 -22t-6.5 -22t-18.5 -10q-5 -1 -9 -0.5t-7 0.5l-6 3v-116l48 85h18zM211.5 88q-8.5 0 -13 -6t-4.5 -12t4.5 -11.5t13 -5.5t12.5 5.5t4 11.5t-4 12t-12.5 6zM140 800
q-33 0 -56.5 -23.5t-23.5 -56.5t23.5 -56.5t56.5 -23.5t56.5 23.5t23.5 56.5t-23.5 56.5t-56.5 23.5zM360 800q-33 0 -56.5 -23.5t-23.5 -56.5t23.5 -56.5t56.5 -23.5t56.5 23.5t23.5 56.5t-23.5 56.5t-56.5 23.5zM140 580q-33 0 -56.5 -23.5t-23.5 -56.5t23.5 -56.5
t56.5 -23.5t56.5 23.5t23.5 56.5t-23.5 56.5t-56.5 23.5zM140 360q-33 0 -56.5 -23.5t-23.5 -56.5t23.5 -56.5t56.5 -23.5t56.5 23.5t23.5 56.5t-23.5 56.5t-56.5 23.5z" />
    <glyph glyph-name="fofathai" unicode="&#xe1d;" 
d="M262 12l48 -85v265h16v-292h-19l-54 97l-55 -97h-19v164q0 4 0.5 10t3.5 12t9 10t16 4q16 2 25 -6t10 -22t-6.5 -22t-18.5 -10q-5 -1 -9 -0.5t-7 0.5l-6 3v-116l48 85h18zM211.5 88q-8.5 0 -13 -6t-4.5 -12t4.5 -11.5t13 -5.5t12.5 5.5t4 11.5t-4 12t-12.5 6zM140 800
q-33 0 -56.5 -23.5t-23.5 -56.5t23.5 -56.5t56.5 -23.5t56.5 23.5t23.5 56.5t-23.5 56.5t-56.5 23.5zM360 800q-33 0 -56.5 -23.5t-23.5 -56.5t23.5 -56.5t56.5 -23.5t56.5 23.5t23.5 56.5t-23.5 56.5t-56.5 23.5zM140 360q-33 0 -56.5 -23.5t-23.5 -56.5t23.5 -56.5
t56.5 -23.5t56.5 23.5t23.5 56.5t-23.5 56.5t-56.5 23.5zM360 360q-33 0 -56.5 -23.5t-23.5 -56.5t23.5 -56.5t56.5 -23.5t56.5 23.5t23.5 56.5t-23.5 56.5t-56.5 23.5z" />
    <glyph glyph-name="phophanthai" unicode="&#xe1e;" 
d="M211 -100v142q-3 -1 -7 -2q-2 -1 -6 -1.5t-8 1.5q-12 2 -19 10t-7 22q2 12 11 21t25 7q9 -1 14.5 -5t8.5 -9.5t4 -11.5t1 -10v-126l50 162h13l55 -162v162h18v-200h-21l-58 173l-53 -173h-21zM195 88q-9 0 -13 -6t-4 -12t4 -12t13 -6t13.5 6t4.5 12t-4.5 12t-13.5 6z
M140 800q-33 0 -56.5 -23.5t-23.5 -56.5t23.5 -56.5t56.5 -23.5t56.5 23.5t23.5 56.5t-23.5 56.5t-56.5 23.5zM360 800q-33 0 -56.5 -23.5t-23.5 -56.5t23.5 -56.5t56.5 -23.5t56.5 23.5t23.5 56.5t-23.5 56.5t-56.5 23.5zM360 580q-33 0 -56.5 -23.5t-23.5 -56.5
t23.5 -56.5t56.5 -23.5t56.5 23.5t23.5 56.5t-23.5 56.5t-56.5 23.5zM360 360q-33 0 -56.5 -23.5t-23.5 -56.5t23.5 -56.5t56.5 -23.5t56.5 23.5t23.5 56.5t-23.5 56.5t-56.5 23.5z" />
    <glyph glyph-name="fofanthai" unicode="&#xe1f;" 
d="M211 -100v142q-3 -1 -7 -2q-2 -1 -6 -1.5t-8 1.5q-12 2 -19 10t-7 22q2 12 11 21t25 7q9 -1 14.5 -5t8.5 -9.5t4 -11.5t1 -10v-126l50 162h13l55 -162v254h18v-292h-21l-58 173l-53 -173h-21zM196 88q-10 0 -14 -6t-4 -12t4 -12t14 -6q8 0 12.5 6t4.5 12t-4.5 12t-12.5 6
zM140 800q-33 0 -56.5 -23.5t-23.5 -56.5t23.5 -56.5t56.5 -23.5t56.5 23.5t23.5 56.5t-23.5 56.5t-56.5 23.5zM360 800q-33 0 -56.5 -23.5t-23.5 -56.5t23.5 -56.5t56.5 -23.5t56.5 23.5t23.5 56.5t-23.5 56.5t-56.5 23.5zM140 580q-33 0 -56.5 -23.5t-23.5 -56.5
t23.5 -56.5t56.5 -23.5t56.5 23.5t23.5 56.5t-23.5 56.5t-56.5 23.5zM360 360q-33 0 -56.5 -23.5t-23.5 -56.5t23.5 -56.5t56.5 -23.5t56.5 23.5t23.5 56.5t-23.5 56.5t-56.5 23.5z" />
    <glyph glyph-name="phosamphaothai" unicode="&#xe20;" horiz-adv-x="1180" 
d="M606 34q2 6 5 9t6 5t7 2l-4 4t-5.5 3t-7.5 3q-7 4 -13 5t-7 1q6 10 16 18q9 6 23 11.5t36 5.5q36 0 53.5 -16.5t17.5 -43.5v-141h-17v140q0 19 -11.5 32.5t-42.5 13.5q-12 1 -20.5 -1.5t-13.5 -5.5q-6 -3 -10 -8l5 -2.5t11 -6.5t11 -10q3 -2 5 -4l-3 -1l-7 -2l-9 -5
l-8 -8l-5 -12v-10v-73q0 -5 -1 -11t-4 -11t-9 -9.5t-15 -5.5q-15 -2 -25 7t-10 21q0 14 7 22.5t19 10.5q4 1 8 0.5t6 -1.5l6 -2v52q0 4 1 11t5 13zM585 -86q9 0 13 5t4 12t-4 12t-13 5t-13 -5t-4 -12t4 -12t13 -5zM730 800q-33 0 -56.5 -23.5t-23.5 -56.5t23.5 -56.5
t56.5 -23.5t56.5 23.5t23.5 56.5t-23.5 56.5t-56.5 23.5zM950 800q-33 0 -56.5 -23.5t-23.5 -56.5t23.5 -56.5t56.5 -23.5t56.5 23.5t23.5 56.5t-23.5 56.5t-56.5 23.5zM950 580q-33 0 -56.5 -23.5t-23.5 -56.5t23.5 -56.5t56.5 -23.5t56.5 23.5t23.5 56.5t-23.5 56.5
t-56.5 23.5zM360 360q-33 0 -56.5 -23.5t-23.5 -56.5t23.5 -56.5t56.5 -23.5t56.5 23.5t23.5 56.5t-23.5 56.5t-56.5 23.5zM950 360q-33 0 -56.5 -23.5t-23.5 -56.5t23.5 -56.5t56.5 -23.5t56.5 23.5t23.5 56.5t-23.5 56.5t-56.5 23.5z" />
    <glyph glyph-name="momathai" unicode="&#xe21;" 
d="M238 -10h5l13 -2l17 -6l20 -13q6 -5 11 -11t8 -10l8 -12v164h16v-200h-18l-2 4l-4 12l-8 14l-10 16q-12 12 -22 18t-17 8q-9 2 -17 2v-45q0 -14 -6.5 -22t-19.5 -8q-10 0 -19 8.5t-11 20.5q-2 14 0 28t16 24q4 4 8 5t8 3q4 0 8 1v53q-4 -1 -7 -2t-7 -1.5t-8 1.5
q-12 2 -19 10t-7 22q2 12 11 21t25 7q10 -1 15.5 -5t8.5 -9.5t3.5 -11.5t0.5 -10v-74zM205 -33q-4 -4 -6.5 -11.5t-2.5 -15.5t3.5 -17t11.5 -9q7 0 9 6t2 13v39h-6zM206 87q-8 0 -13 -5.5t-5 -11.5t5 -12t13 -6t12.5 6t4.5 12t-4.5 11.5t-12.5 5.5zM140 800
q-33 0 -56.5 -23.5t-23.5 -56.5t23.5 -56.5t56.5 -23.5t56.5 23.5t23.5 56.5t-23.5 56.5t-56.5 23.5zM360 800q-33 0 -56.5 -23.5t-23.5 -56.5t23.5 -56.5t56.5 -23.5t56.5 23.5t23.5 56.5t-23.5 56.5t-56.5 23.5zM140 360q-33 0 -56.5 -23.5t-23.5 -56.5t23.5 -56.5
t56.5 -23.5t56.5 23.5t23.5 56.5t-23.5 56.5t-56.5 23.5z" />
    <glyph glyph-name="yoyakthai" unicode="&#xe22;" 
d="M206 6l-5 1.5t-11 7t-10 15.5t-2 28q2 22 16 32t32 10q14 0 24.5 -6t11.5 -22t-6.5 -24t-19.5 -10q-8 0 -16 2t-14 8q-5 5 -6.5 10.5t-1.5 6.5q0 -1 -1 -4t-1.5 -8t0 -11t4.5 -12q3 -8 12 -12t18.5 -5t16.5 -1h7v-14h-20q-6 0 -11.5 -1t-10.5 -4q-8 -6 -8 -17v-40
q0 -2 0.5 -6.5t3.5 -7.5q2 -4 6.5 -5t7.5 -1h56q4 0 8.5 1t7.5 3q4 4 4 8v8v164h18v-166q0 -7 -2 -13.5t-8 -12.5q-5 -4 -11.5 -6t-11.5 -2h-67q-4 0 -9.5 1.5t-10.5 5.5q-6 5 -8 13t-2 14v41q0 3 1 9t5 11q2 3 4 5t5 4q3 1 5 2zM230.5 87q-8.5 0 -13 -5.5t-4.5 -11.5
t4.5 -12t13 -6t13 6t4.5 12t-4.5 11.5t-13 5.5zM140 800q-33 0 -56.5 -23.5t-23.5 -56.5t23.5 -56.5t56.5 -23.5t56.5 23.5t23.5 56.5t-23.5 56.5t-56.5 23.5zM360 800q-33 0 -56.5 -23.5t-23.5 -56.5t23.5 -56.5t56.5 -23.5t56.5 23.5t23.5 56.5t-23.5 56.5t-56.5 23.5z
M360 580q-33 0 -56.5 -23.5t-23.5 -56.5t23.5 -56.5t56.5 -23.5t56.5 23.5t23.5 56.5t-23.5 56.5t-56.5 23.5zM140 360q-33 0 -56.5 -23.5t-23.5 -56.5t23.5 -56.5t56.5 -23.5t56.5 23.5t23.5 56.5t-23.5 56.5t-56.5 23.5zM360 360q-33 0 -56.5 -23.5t-23.5 -56.5
t23.5 -56.5t56.5 -23.5t56.5 23.5t23.5 56.5t-23.5 56.5t-56.5 23.5z" />
    <glyph glyph-name="roruathai" unicode="&#xe23;" 
d="M283 -64q0 -4 -0.5 -10t-3.5 -12t-9 -10t-16 -4q-16 -2 -25 7t-9 21q0 14 6.5 22t18.5 10q5 2 8.5 1t6.5 -1l6 -2v56q0 4 -0.5 9t-4 10t-12.5 9t-24 8q-9 1 -19 2t-19 1.5t-15 1t-6 1.5q0 3 2 9.5t6 12.5t12 12t18 9q11 3 19.5 2t15.5 -3t13.5 -4t13.5 -3q6 -1 10 0t6 3
q4 2 6 4l10 -12l-2 -2l-4 -4l-8 -4l-12 -1q-8 0 -14 1.5t-11 3.5t-12 4t-15 2q-10 0 -16 -2.5t-9 -6.5q-4 -5 -6 -10q1 0 12.5 -0.5t28.5 -3.5q20 -3 31 -9t16 -13.5t5.5 -14.5t0.5 -12v-78zM251 -87q9 0 13 5.5t4 12t-4 12t-13 5.5t-13.5 -5.5t-4.5 -12t4.5 -12t13.5 -5.5z
M140 800q-33 0 -56.5 -23.5t-23.5 -56.5t23.5 -56.5t56.5 -23.5t56.5 23.5t23.5 56.5t-23.5 56.5t-56.5 23.5zM140 580q-33 0 -56.5 -23.5t-23.5 -56.5t23.5 -56.5t56.5 -23.5t56.5 23.5t23.5 56.5t-23.5 56.5t-56.5 23.5zM360 580q-33 0 -56.5 -23.5t-23.5 -56.5
t23.5 -56.5t56.5 -23.5t56.5 23.5t23.5 56.5t-23.5 56.5t-56.5 23.5zM140 360q-33 0 -56.5 -23.5t-23.5 -56.5t23.5 -56.5t56.5 -23.5t56.5 23.5t23.5 56.5t-23.5 56.5t-56.5 23.5z" />
    <glyph glyph-name="ruthai" unicode="&#xe24;" horiz-adv-x="1180" 
d="M581 34q3 6 6 9t6 5t7 2l-4 4q-3 2 -6.5 3t-7.5 3q-7 4 -12.5 5t-7.5 1q8 10 18 18q10 6 25 11.5t37 5.5q36 0 56 -16.5t20 -43.5v-219h-18v218q0 19 -13 32.5t-45 13.5q-13 0 -22.5 -2t-15.5 -5q-7 -3 -11 -8q1 0 6 -2.5t10 -6.5q6 -4 11 -10q3 -2 5 -4l-3 -1l-6 -2
l-9 -5l-9 -8l-4 -12l-1 -10v-52l6 2t7 1.5t8 -0.5q12 -2 19 -10.5t7 -22.5q-1 -12 -10.5 -21t-25.5 -7q-9 1 -14.5 5.5t-8.5 9.5t-4 11t-1 11v75q0 7 1 11.5t4 10.5zM609 -86q9 0 13 5t4 12t-4 12t-13 5t-13.5 -5t-4.5 -12t4.5 -12t13.5 -5zM140 800q-33 0 -56.5 -23.5
t-23.5 -56.5t23.5 -56.5t56.5 -23.5t56.5 23.5t23.5 56.5t-23.5 56.5t-56.5 23.5zM140 580q-33 0 -56.5 -23.5t-23.5 -56.5t23.5 -56.5t56.5 -23.5t56.5 23.5t23.5 56.5t-23.5 56.5t-56.5 23.5zM360 580q-33 0 -56.5 -23.5t-23.5 -56.5t23.5 -56.5t56.5 -23.5t56.5 23.5
t23.5 56.5t-23.5 56.5t-56.5 23.5zM730 580q-33 0 -56.5 -23.5t-23.5 -56.5t23.5 -56.5t56.5 -23.5t56.5 23.5t23.5 56.5t-23.5 56.5t-56.5 23.5zM140 360q-33 0 -56.5 -23.5t-23.5 -56.5t23.5 -56.5t56.5 -23.5t56.5 23.5t23.5 56.5t-23.5 56.5t-56.5 23.5z" />
    <glyph glyph-name="lolingthai" unicode="&#xe25;" 
d="M308 -100v9.5t-2 12.5q0 6 -4 16t-9 22t-10 23t-9 19q-4 9 -9 16.5t-10 12.5t-11 7t-14 -1q-10 -3 -15 -9t-7 -12t-3 -12t-1 -10v-37l6 2q7 1 16 1q12 -1 19 -9.5t7 -22.5q-2 -12 -11 -21t-25 -7q-10 0 -15.5 4t-8.5 10t-3.5 12t-0.5 10v62q0 4 1 12t5 16t12 16t22 11
q12 3 21 0t16 -9t12 -14.5t9 -16.5q4 -6 8 -14.5t7 -15.5t5 -12t2 -4v73q0 24 -17 35t-43 11q-19 0 -30.5 -5t-18 -11.5t-8.5 -11.5l-2 -6l-16 6l3.5 7t11.5 15t23 14.5t37 6.5q38 0 57.5 -16t19.5 -44v-141h-17zM220 -88q8 0 12.5 6t4.5 12t-4.5 11.5t-12.5 5.5t-13 -5.5
t-5 -11.5t5 -12t13 -6zM140 800q-33 0 -56.5 -23.5t-23.5 -56.5t23.5 -56.5t56.5 -23.5t56.5 23.5t23.5 56.5t-23.5 56.5t-56.5 23.5zM140 580q-33 0 -56.5 -23.5t-23.5 -56.5t23.5 -56.5t56.5 -23.5t56.5 23.5t23.5 56.5t-23.5 56.5t-56.5 23.5zM140 360q-33 0 -56.5 -23.5
t-23.5 -56.5t23.5 -56.5t56.5 -23.5t56.5 23.5t23.5 56.5t-23.5 56.5t-56.5 23.5z" />
    <glyph glyph-name="luthai" unicode="&#xe26;" horiz-adv-x="1180" 
d="M606 34q2 6 5 9t6 5t7 2l-4 4t-5.5 3t-7.5 3q-7 4 -13 5t-7 1q6 10 16 18q9 6 23 11.5t36 5.5q36 0 53.5 -16.5t17.5 -43.5v-219h-17v218q0 19 -11.5 32.5t-42.5 13.5q-12 1 -20.5 -1.5t-13.5 -5.5q-6 -3 -10 -8l5 -2.5t11 -6.5t11 -10q3 -2 5 -4l-3 -1l-7 -2l-9 -5
l-8 -8l-5 -12v-10v-73q0 -5 -1 -11t-4 -11t-9 -9.5t-15 -5.5q-15 -2 -25 7t-10 21q0 14 7 22.5t19 10.5q4 1 8 0.5t6 -1.5l6 -2v52q0 4 1 11t5 13zM585 -86q9 0 13 5t4 12t-4 12t-13 5t-13 -5t-4 -12t4 -12t13 -5zM140 800q-33 0 -56.5 -23.5t-23.5 -56.5t23.5 -56.5
t56.5 -23.5t56.5 23.5t23.5 56.5t-23.5 56.5t-56.5 23.5zM140 580q-33 0 -56.5 -23.5t-23.5 -56.5t23.5 -56.5t56.5 -23.5t56.5 23.5t23.5 56.5t-23.5 56.5t-56.5 23.5zM730 580q-33 0 -56.5 -23.5t-23.5 -56.5t23.5 -56.5t56.5 -23.5t56.5 23.5t23.5 56.5t-23.5 56.5
t-56.5 23.5zM140 360q-33 0 -56.5 -23.5t-23.5 -56.5t23.5 -56.5t56.5 -23.5t56.5 23.5t23.5 56.5t-23.5 56.5t-56.5 23.5z" />
    <glyph glyph-name="wowaenthai" unicode="&#xe27;" 
d="M279 46q0 18 -12 29t-39 11q-15 0 -24.5 -4.5t-15.5 -10.5t-8 -11l-2 -5l-13 8q0 1 2.5 7t9.5 13t19 12.5t32 5.5q34 1 51 -14t17 -41v-110q0 -4 -1 -10t-4 -12t-8.5 -10t-14.5 -4q-16 -2 -25.5 7t-10.5 21q-1 14 6.5 22t19.5 10q8 2 14 0q4 -2 7 -3v89zM263.5 -88
q8.5 0 12.5 6t4 12t-4 11.5t-12.5 5.5t-13 -5.5t-4.5 -11.5t4.5 -12t13 -6zM360 800q-33 0 -56.5 -23.5t-23.5 -56.5t23.5 -56.5t56.5 -23.5t56.5 23.5t23.5 56.5t-23.5 56.5t-56.5 23.5zM140 580q-33 0 -56.5 -23.5t-23.5 -56.5t23.5 -56.5t56.5 -23.5t56.5 23.5t23.5 56.5
t-23.5 56.5t-56.5 23.5zM360 580q-33 0 -56.5 -23.5t-23.5 -56.5t23.5 -56.5t56.5 -23.5t56.5 23.5t23.5 56.5t-23.5 56.5t-56.5 23.5zM360 360q-33 0 -56.5 -23.5t-23.5 -56.5t23.5 -56.5t56.5 -23.5t56.5 23.5t23.5 56.5t-23.5 56.5t-56.5 23.5z" />
    <glyph glyph-name="sosalathai" unicode="&#xe28;" horiz-adv-x="1180" 
d="M668 100q9 -2 17.5 2t15.5 8q4 3 7 6l5 5l5 5l14 -8l-5 -6.5t-13 -11.5q-8 -6 -15.5 -8t-8.5 -2l7 -4t12.5 -12.5t7 -17t1.5 -17.5v-139h-16v136q0 10 -3 19t-10 16t-18 11t-28 4q-21 0 -35 -8t-20 -24q-8 -15 -5.5 -29.5t7.5 -26.5q2 -7 4 -12q0 -4 2 -7l1 5l3 12l6 16
l8 16q5 10 12.5 16t23.5 6q11 0 19.5 -8.5t8.5 -23.5q0 -8 -3 -14t-8 -9t-11 -5t-12 -1t-10.5 3t-7 4t-4.5 4t-2 3l-5 -12l-5 -13q-4 -12 -6 -22.5t-2 -14.5v-41h-16v42q0 8 -2 20.5t-12 34.5q-4 11 -5.5 23t1 23.5t7.5 22t15 17.5q9 8 20 11.5t21.5 5t20 1t16.5 -0.5z
M647 37q-9 0 -13 -5.5t-4 -12t4 -12t13 -5.5t13 5.5t4 12t-4 12t-13 5.5zM950 800q-33 0 -56.5 -23.5t-23.5 -56.5t23.5 -56.5t56.5 -23.5t56.5 23.5t23.5 56.5t-23.5 56.5t-56.5 23.5zM730 580q-33 0 -56.5 -23.5t-23.5 -56.5t23.5 -56.5t56.5 -23.5t56.5 23.5t23.5 56.5
t-23.5 56.5t-56.5 23.5zM360 360q-33 0 -56.5 -23.5t-23.5 -56.5t23.5 -56.5t56.5 -23.5t56.5 23.5t23.5 56.5t-23.5 56.5t-56.5 23.5zM730 360q-33 0 -56.5 -23.5t-23.5 -56.5t23.5 -56.5t56.5 -23.5t56.5 23.5t23.5 56.5t-23.5 56.5t-56.5 23.5z" />
    <glyph glyph-name="sorusithai" unicode="&#xe29;" horiz-adv-x="1180" 
d="M734 -59q0 -9 -2 -16.5t-8 -13.5q-7 -7 -16.5 -9t-19.5 -2h-106v16h19v126q-3 -1 -7 -2q-2 -1 -6 -1.5t-8 1.5q-12 2 -19 10t-7 22q2 12 11 21t25 7q9 -1 14.5 -5t8.5 -9.5t4 -11.5t1 -10v-148h70q6 0 11 0.5t11 5.5q4 4 5 10t1 10v18q-8 0 -18 -1q-8 -1 -17.5 0t-18.5 4
q-28 8 -30 33q0 12 7 22t22 10q9 1 16 -2t11 -8.5t6 -12t0 -13.5q-2 -9 -7 -14q-3 -2 -5 -3l6 -0.5t13 -0.5t11 1t5 1l-1 124h18v-120l4 2q2 2 5 4t5 4q2 3 4 6.5t3 6.5t1 7l13 -12q0 -1 -2.5 -8.5t-14.5 -16.5q-2 -3 -6 -4.5t-6 -2.5q-4 -2 -6 -2v-23zM663.5 16
q-8.5 0 -13 -6t-4.5 -12t4.5 -11.5t13 -5.5t12.5 5.5t4 11.5t-4 12t-12.5 6zM585 88q-9 0 -13 -6t-4 -12t4 -12t13 -6t13.5 6t4.5 12t-4.5 12t-13.5 6zM950 800q-33 0 -56.5 -23.5t-23.5 -56.5t23.5 -56.5t56.5 -23.5t56.5 23.5t23.5 56.5t-23.5 56.5t-56.5 23.5zM730 580
q-33 0 -56.5 -23.5t-23.5 -56.5t23.5 -56.5t56.5 -23.5t56.5 23.5t23.5 56.5t-23.5 56.5t-56.5 23.5zM140 360q-33 0 -56.5 -23.5t-23.5 -56.5t23.5 -56.5t56.5 -23.5t56.5 23.5t23.5 56.5t-23.5 56.5t-56.5 23.5zM360 360q-33 0 -56.5 -23.5t-23.5 -56.5t23.5 -56.5
t56.5 -23.5t56.5 23.5t23.5 56.5t-23.5 56.5t-56.5 23.5zM730 360q-33 0 -56.5 -23.5t-23.5 -56.5t23.5 -56.5t56.5 -23.5t56.5 23.5t23.5 56.5t-23.5 56.5t-56.5 23.5z" />
    <glyph glyph-name="sosuathai" unicode="&#xe2a;" 
d="M325 -100h-17v9.5t-2 12.5q0 6 -4 16t-9 22t-10 23t-9 19q-4 9 -9 16.5t-10 12.5t-11 7t-14 -1q-10 -3 -15 -9t-7 -12t-3 -12t-1 -10v-37l6 2q7 1 16 1q12 -1 19 -9.5t7 -22.5q-2 -12 -11 -21t-25 -7q-10 0 -15.5 4t-8.5 10t-3.5 12t-0.5 10v62q0 4 1 12t5 16t12 16
t22 11q12 3 21 0t16 -9t12 -14.5t9 -16.5q4 -6 8 -14.5t7 -15.5t5 -12t2 -4v73q0 24 -17 35t-43 11q-19 0 -30.5 -5t-18 -11.5t-8.5 -11.5l-2 -6l-16 6q1 0 4 7t11.5 15t23 15t37.5 6q13 -1 22 -1t17 1t15 3t13 6q8 6 10.5 11.5t3.5 6.5l16 -9q0 -1 -4 -7.5t-14 -13.5
q-8 -6 -17 -8t-11 -2q2 0 7.5 -4t10.5 -14q7 -14 7 -29v-141zM220 -88q8 0 12.5 6t4.5 12t-4.5 11.5t-12.5 5.5t-13 -5.5t-5 -11.5t5 -12t13 -6zM360 800q-33 0 -56.5 -23.5t-23.5 -56.5t23.5 -56.5t56.5 -23.5t56.5 23.5t23.5 56.5t-23.5 56.5t-56.5 23.5zM140 580
q-33 0 -56.5 -23.5t-23.5 -56.5t23.5 -56.5t56.5 -23.5t56.5 23.5t23.5 56.5t-23.5 56.5t-56.5 23.5zM140 360q-33 0 -56.5 -23.5t-23.5 -56.5t23.5 -56.5t56.5 -23.5t56.5 23.5t23.5 56.5t-23.5 56.5t-56.5 23.5z" />
    <glyph glyph-name="hohipthai" unicode="&#xe2b;" 
d="M212 43q-4 -1 -7 -3q-3 0 -7 -0.5t-8 0.5q-12 2 -19 10t-7 22q2 12 11 21t25 7q10 0 15.5 -4t8.5 -10t3.5 -12t0.5 -10v-101q0 -1 2 4.5t6 14t10 19.5t14 20q8 10 15 15.5t11 7.5q6 3 10 4q-10 8 -10 22t8 22.5t24 7.5q16 0 24 -9t8 -21q-1 -12 -5.5 -17.5t-12.5 -9.5
q2 -1 4 -3t4 -6q3 -9 3 -16v-14v-104h-17v108q0 6 -1 16t-9 12q-4 2 -10 1t-13.5 -6t-16 -15t-18.5 -27q-6 -11 -11 -23t-9.5 -24t-7 -21t-2.5 -12v-9h-16v143zM196 88q-8 0 -13 -6t-5 -12t5 -11.5t13 -5.5t12.5 5.5t4.5 11.5t-4.5 12t-12.5 6zM318 88q-8 0 -13 -6t-5 -12
t5 -11.5t13 -5.5t12.5 5.5t4.5 11.5t-4.5 12t-12.5 6zM140 800q-33 0 -56.5 -23.5t-23.5 -56.5t23.5 -56.5t56.5 -23.5t56.5 23.5t23.5 56.5t-23.5 56.5t-56.5 23.5zM140 580q-33 0 -56.5 -23.5t-23.5 -56.5t23.5 -56.5t56.5 -23.5t56.5 23.5t23.5 56.5t-23.5 56.5
t-56.5 23.5zM360 580q-33 0 -56.5 -23.5t-23.5 -56.5t23.5 -56.5t56.5 -23.5t56.5 23.5t23.5 56.5t-23.5 56.5t-56.5 23.5z" />
    <glyph glyph-name="lochulathai" unicode="&#xe2c;" horiz-adv-x="1180" 
d="M698 66q-16 0 -28 7.5t-12 19.5q0 7 4 12.5t10.5 9t14.5 5.5t17 2q14 0 23 -4t13.5 -8t5.5 -7l2 -3l1 2q1 1 2 3.5t1 4.5q2 5 2.5 9t0.5 5h19q0 -1 -2 -10t-7 -18q-3 -4 -5 -7t-4 -5t-5 -4v-180h-21l-58 124l-53 -124h-21v142q-2 -1 -6 -2q-3 -1 -6.5 -1.5t-8.5 1.5
q-11 2 -18.5 10t-6.5 22q1 12 10 21t25 7q9 -1 15 -5t9 -9.5t4 -11.5t1 -10v-132l50 113h12l56 -113v140l-9 -3.5t-27 -2.5zM583 88q-9 0 -13 -6t-4 -12t4 -12t13 -6t13 6t4 12t-4 12t-13 6zM704 108q-12 0 -20 -3.5t-8 -10.5t7 -10t15 -4q16 -1 25.5 3.5t9.5 8.5
q0 2 -1.5 5t-4.5 5t-9 4t-14 2zM730 800q-33 0 -56.5 -23.5t-23.5 -56.5t23.5 -56.5t56.5 -23.5t56.5 23.5t23.5 56.5t-23.5 56.5t-56.5 23.5zM730 580q-33 0 -56.5 -23.5t-23.5 -56.5t23.5 -56.5t56.5 -23.5t56.5 23.5t23.5 56.5t-23.5 56.5t-56.5 23.5zM360 360
q-33 0 -56.5 -23.5t-23.5 -56.5t23.5 -56.5t56.5 -23.5t56.5 23.5t23.5 56.5t-23.5 56.5t-56.5 23.5zM730 360q-33 0 -56.5 -23.5t-23.5 -56.5t23.5 -56.5t56.5 -23.5t56.5 23.5t23.5 56.5t-23.5 56.5t-56.5 23.5z" />
    <glyph glyph-name="oangthai" unicode="&#xe2d;" 
d="M308 40q0 24 -16.5 36t-42.5 10q-18 0 -29 -5.5t-17 -12t-8 -11.5l-2 -5l-16 6l3 7t11 15t22 14.5t36 6.5q37 0 57 -16t20 -44v-103q0 -9 -1.5 -16.5t-7 -12.5t-12.5 -7t-14 -2h-71q-16 0 -24 9q-6 5 -7 12.5t-1 12.5v72q0 4 1 10t4 11.5t8.5 9.5t14.5 5q16 2 25.5 -7
t10.5 -21q1 -14 -6.5 -22t-19.5 -10q-4 -2 -8 -1.5t-7 1.5l-6 2v-46q0 -4 0.5 -9t3.5 -9t8 -4h7h62h10t8 4t4 8v10v102zM220.5 29q-8.5 0 -13 -5.5t-4.5 -11.5t4.5 -12t13 -6t13 6t4.5 12t-4.5 11.5t-13 5.5zM140 800q-33 0 -56.5 -23.5t-23.5 -56.5t23.5 -56.5t56.5 -23.5
t56.5 23.5t23.5 56.5t-23.5 56.5t-56.5 23.5zM360 580q-33 0 -56.5 -23.5t-23.5 -56.5t23.5 -56.5t56.5 -23.5t56.5 23.5t23.5 56.5t-23.5 56.5t-56.5 23.5zM140 360q-33 0 -56.5 -23.5t-23.5 -56.5t23.5 -56.5t56.5 -23.5t56.5 23.5t23.5 56.5t-23.5 56.5t-56.5 23.5z" />
    <glyph glyph-name="honokhukthai" unicode="&#xe2e;" 
d="M304 51q0 3 -0.5 4.5t-1.5 3.5l-2 4q-16 -9 -30 -11t-30 -4q-32 -1 -49 5.5t-17 18.5t16 20t47 9q18 1 30.5 -2t20.5 -6t12 -6l4 -3l4 4q5 3 8 8q4 5 6 9.5t2 5.5l16 -8q0 -1 -3 -7.5t-9 -13.5q-3 -2 -5.5 -4t-4.5 -4t-4 -3l4 -5q0 -2 1 -5t2 -7q1 -7 1 -11.5v-8.5v-96
q0 -9 -1 -16.5t-6.5 -12.5t-12.5 -7t-14 -2h-66q-16 0 -25 9q-5 5 -6 12.5t-1 12.5v62q0 4 0.5 10t3.5 12t8.5 10t15.5 4q16 2 25 -7t11 -21q0 -14 -7 -22t-19 -10q-4 -1 -8 -0.5t-8 0.5q-3 2 -6 3v-37q0 -4 1 -9t4 -9t7.5 -4h7.5h57h9t8 4q6 4 6 8v10v96q0 4 -0.5 8t-1.5 9
zM222 20q-8 0 -13 -6t-5 -12t5 -11.5t13 -5.5t12.5 5.5t4.5 11.5t-4.5 12t-12.5 6zM290 74l-3 2t-9 4t-15 4t-21 2q-8 0 -16.5 -1t-16 -2t-11.5 -4t-4 -7q0 -3 5 -4.5t12 -2.5t15 -1h14q14 0 23 1t15 3q8 2 12 6zM140 800q-33 0 -56.5 -23.5t-23.5 -56.5t23.5 -56.5
t56.5 -23.5t56.5 23.5t23.5 56.5t-23.5 56.5t-56.5 23.5zM360 800q-33 0 -56.5 -23.5t-23.5 -56.5t23.5 -56.5t56.5 -23.5t56.5 23.5t23.5 56.5t-23.5 56.5t-56.5 23.5zM140 580q-33 0 -56.5 -23.5t-23.5 -56.5t23.5 -56.5t56.5 -23.5t56.5 23.5t23.5 56.5t-23.5 56.5
t-56.5 23.5zM360 580q-33 0 -56.5 -23.5t-23.5 -56.5t23.5 -56.5t56.5 -23.5t56.5 23.5t23.5 56.5t-23.5 56.5t-56.5 23.5zM140 360q-33 0 -56.5 -23.5t-23.5 -56.5t23.5 -56.5t56.5 -23.5t56.5 23.5t23.5 56.5t-23.5 56.5t-56.5 23.5zM360 360q-33 0 -56.5 -23.5
t-23.5 -56.5t23.5 -56.5t56.5 -23.5t56.5 23.5t23.5 56.5t-23.5 56.5t-56.5 23.5z" />
    <glyph glyph-name="paiyannoithai" unicode="&#xe2f;" horiz-adv-x="1180" 
d="M624 28q13 0 23.5 3t20.5 12t13 21t3 20v16h18v-164q0 -4 -1 -11.5t-5 -12.5q-4 -6 -8 -10q-2 -2 -4 -2l-16 8l4 4q4 3 8 8t4 9v10v103q-4 -10 -12 -16t-21 -10t-31 -3q-26 1 -42.5 14t-19.5 33q-1 4 0 11t4.5 13.5t10 11t17.5 4.5q10 0 17.5 -4t11 -11.5t3.5 -16
t-4 -14.5q-3 -6 -7.5 -9t-8.5 -4t-7 -2l-3 -1l2 -1l5 -4l10 -3zM591 88q-9 0 -14 -6t-5 -13t5 -12t14 -5t13 5t4 12t-4 13t-13 6zM360 580q-33 0 -56.5 -23.5t-23.5 -56.5t23.5 -56.5t56.5 -23.5t56.5 23.5t23.5 56.5t-23.5 56.5t-56.5 23.5zM360 360q-33 0 -56.5 -23.5
t-23.5 -56.5t23.5 -56.5t56.5 -23.5t56.5 23.5t23.5 56.5t-23.5 56.5t-56.5 23.5zM730 580q-33 0 -56.5 -23.5t-23.5 -56.5t23.5 -56.5t56.5 -23.5t56.5 23.5t23.5 56.5t-23.5 56.5t-56.5 23.5zM730 360q-33 0 -56.5 -23.5t-23.5 -56.5t23.5 -56.5t56.5 -23.5t56.5 23.5
t23.5 56.5t-23.5 56.5t-56.5 23.5z" />
    <glyph glyph-name="saraathai" unicode="&#xe30;" 
d="M274 54q7 4 11.5 10t6.5 12t4 13h18q-2 -7 -5 -15t-8 -15t-13 -13q-16 -12 -30.5 -15t-33.5 -3q-8 0 -17 1t-16.5 5t-12 11t-4.5 19q1 13 10 21t23 8q13 0 22 -7.5t9 -19.5q1 -14 -6 -23q6 -1 13 1q6 0 13.5 2t15.5 8zM274 -62q7 4 11.5 10t6.5 12t4 13h18q-2 -7 -5 -15
t-8 -15t-13 -13q-16 -12 -30.5 -15t-33.5 -3q-8 0 -17 1t-16.5 5t-12 11t-4.5 19q1 13 10 21t23 8q13 0 22 -7.5t9 -19.5q1 -14 -6 -23q6 -1 13 1q6 0 13.5 2t15.5 8zM207 -36q-9 0 -14 -6t-5 -12t4.5 -12t13.5 -6t13.5 6t4.5 12t-4 12t-13 6zM207 80q-9 0 -14 -6t-5 -12
t4.5 -12t13.5 -6t13.5 6t4.5 12t-4 12t-13 6zM140 800q-33 0 -56.5 -23.5t-23.5 -56.5t23.5 -56.5t56.5 -23.5t56.5 23.5t23.5 56.5t-23.5 56.5t-56.5 23.5z" />
    <glyph glyph-name="maihanakatthai" unicode="&#xe31;" 
d="M268 64q14 3 23.5 8.5t16.5 15.5q8 10 9 21l1 11h17l-0.5 -4.5t-2 -11t-5 -14.5t-10.5 -16q-12 -12 -28.5 -18t-36.5 -7q-28 -1 -48 6t-22 26q-1 6 0.5 11.5t4.5 10.5t9 8t14 3q18 1 25.5 -8.5t6.5 -22.5q-1 -10 -5.5 -14.5l-4.5 -4.5q1 0 10 -1t26 1zM212 102
q-8 0 -12.5 -5t-4.5 -11.5t4.5 -12t12.5 -5.5t12.5 5.5t4.5 12t-4.5 11.5t-12.5 5zM360 800q-33 0 -56.5 -23.5t-23.5 -56.5t23.5 -56.5t56.5 -23.5t56.5 23.5t23.5 56.5t-23.5 56.5t-56.5 23.5zM360 580q-33 0 -56.5 -23.5t-23.5 -56.5t23.5 -56.5t56.5 -23.5t56.5 23.5
t23.5 56.5t-23.5 56.5t-56.5 23.5zM140 360q-33 0 -56.5 -23.5t-23.5 -56.5t23.5 -56.5t56.5 -23.5t56.5 23.5t23.5 56.5t-23.5 56.5t-56.5 23.5z" />
    <glyph glyph-name="saraaathai" unicode="&#xe32;" 
d="M272 46q0 18 -12 30t-39 10q-15 0 -24.5 -5t-15 -11t-7.5 -10l-2 -6l-14 9q0 1 3 7t10 12.5t19 12t31 6.5q33 1 50.5 -14t17.5 -41v-146h-17v146v0zM140 800q-33 0 -56.5 -23.5t-23.5 -56.5t23.5 -56.5t56.5 -23.5t56.5 23.5t23.5 56.5t-23.5 56.5t-56.5 23.5zM360 360
q-33 0 -56.5 -23.5t-23.5 -56.5t23.5 -56.5t56.5 -23.5t56.5 23.5t23.5 56.5t-23.5 56.5t-56.5 23.5z" />
    <glyph glyph-name="saraamthai" unicode="&#xe33;" 
d="M258 -18h-83v20h83v-20zM374 46q0 18 -12 30t-40 10q-14 0 -24 -5t-15 -11t-7 -10l-2 -6l-14 9q0 1 2.5 7t10 12.5t19.5 12t30 6.5q34 1 51 -14t17 -41v-146h-16v146zM209 137q-16 0 -24 10t-8 21.5t8 21.5t24 10t24 -10t8 -21.5t-8 -21.5t-24 -10zM209 186
q-9 0 -13 -5.5t-4 -12t4 -11.5t13 -5t13 5t4 11.5t-4 12t-13 5.5zM140 800q-33 0 -56.5 -23.5t-23.5 -56.5t23.5 -56.5t56.5 -23.5t56.5 23.5t23.5 56.5t-23.5 56.5t-56.5 23.5zM360 580q-33 0 -56.5 -23.5t-23.5 -56.5t23.5 -56.5t56.5 -23.5t56.5 23.5t23.5 56.5
t-23.5 56.5t-56.5 23.5zM140 360q-33 0 -56.5 -23.5t-23.5 -56.5t23.5 -56.5t56.5 -23.5t56.5 23.5t23.5 56.5t-23.5 56.5t-56.5 23.5zM360 360q-33 0 -56.5 -23.5t-23.5 -56.5t23.5 -56.5t56.5 -23.5t56.5 23.5t23.5 56.5t-23.5 56.5t-56.5 23.5z" />
    <glyph glyph-name="saraithai" unicode="&#xe34;" 
d="M250 142q16 0 28 -7t21 -16t13.5 -20t5.5 -21q-9 4 -20 7q-10 3 -23 5t-29 4q-12 0 -24 -0.5t-20.5 -1t-14 -1.5l-5.5 -1l2 9t9 18.5t20 17.5t37 7zM246 128q-13 0 -21.5 -3t-13.5 -8t-7 -9l-2 -4q6 1 13 2h13.5h17.5q12 0 21.5 -1t16.5 -3t13 -4q-4 8 -11 14
q-6 6 -16 11t-24 5zM140 800q-33 0 -56.5 -23.5t-23.5 -56.5t23.5 -56.5t56.5 -23.5t56.5 23.5t23.5 56.5t-23.5 56.5t-56.5 23.5zM140 580q-33 0 -56.5 -23.5t-23.5 -56.5t23.5 -56.5t56.5 -23.5t56.5 23.5t23.5 56.5t-23.5 56.5t-56.5 23.5z" />
    <glyph glyph-name="saraiithai" unicode="&#xe35;" 
d="M232 141q18 3 31 0t22 -8t13 -10t6 -7v52h16v-90q-8 4 -19 7q-9 3 -22.5 5t-29.5 4q-13 0 -24 -0.5t-20 -1t-14 -1.5t-6 -1l1.5 7t6.5 16t14 17t25 11zM248 128q-12 0 -20 -3t-13 -8t-7 -9l-2 -4q5 1 12 2h14h17q12 0 21.5 -1t15.5 -3q8 -2 14 -4q-4 8 -11 14
q-6 6 -16 11t-25 5zM140 580q-33 0 -56.5 -23.5t-23.5 -56.5t23.5 -56.5t56.5 -23.5t56.5 23.5t23.5 56.5t-23.5 56.5t-56.5 23.5zM140 360q-33 0 -56.5 -23.5t-23.5 -56.5t23.5 -56.5t56.5 -23.5t56.5 23.5t23.5 56.5t-23.5 56.5t-56.5 23.5z" />
    <glyph glyph-name="sarauethai" unicode="&#xe36;" 
d="M318 78q-9 4 -20 8q-10 2 -23 4.5t-29 3.5h-24t-20.5 -1t-14 -2l-5.5 -1q0 1 1 6t4 12.5t9.5 14.5t17.5 13q10 4 19.5 5.5t16.5 0.5q10 0 18 -2l-0.5 6t6.5 14q3 6 9 8t12.5 2.5t12.5 -1.5t10 -7q8 -8 9 -19.5t-7 -20.5q-4 -4 -9.5 -6.5t-6.5 -2.5q2 -1 3 -3l2.5 -5
l2.5 -5q4 -8 5 -15zM297 158q-9 0 -13 -5t-4 -11t4 -11.5t13 -5.5t13 5.5t4 11.5t-4 11t-13 5zM246 129q-13 0 -21.5 -3.5t-13.5 -8t-7 -8.5l-2 -4q6 1 13 1q6 0 13.5 0.5t17.5 0.5q12 -1 21.5 -2t16.5 -3t13 -4q-4 8 -11 15q-6 5 -16 10t-24 6zM360 800q-33 0 -56.5 -23.5
t-23.5 -56.5t23.5 -56.5t56.5 -23.5t56.5 23.5t23.5 56.5t-23.5 56.5t-56.5 23.5zM140 580q-33 0 -56.5 -23.5t-23.5 -56.5t23.5 -56.5t56.5 -23.5t56.5 23.5t23.5 56.5t-23.5 56.5t-56.5 23.5zM360 360q-33 0 -56.5 -23.5t-23.5 -56.5t23.5 -56.5t56.5 -23.5t56.5 23.5
t23.5 56.5t-23.5 56.5t-56.5 23.5z" />
    <glyph glyph-name="saraueethai" unicode="&#xe37;" 
d="M220 136q9 4 19.5 5t18.5 0.5t13 -1.5l5 -2v26h16v-34l14 -12v46h16v-76l2 -10q-9 4 -20 7q-10 3 -23 5t-29 4q-12 0 -24 -0.5t-20.5 -1t-14 -1.5l-5.5 -1l1 5t4 12t9 15t18 14zM252 128q-13 0 -21.5 -3t-13.5 -8t-7 -9l-2 -4q6 1 13 2h13.5h17.5q12 0 21.5 -1t16.5 -3
t13 -4q-4 8 -11 14q-6 6 -16 11t-24 5zM140 580q-33 0 -56.5 -23.5t-23.5 -56.5t23.5 -56.5t56.5 -23.5t56.5 23.5t23.5 56.5t-23.5 56.5t-56.5 23.5zM360 360q-33 0 -56.5 -23.5t-23.5 -56.5t23.5 -56.5t56.5 -23.5t56.5 23.5t23.5 56.5t-23.5 56.5t-56.5 23.5z" />
    <glyph glyph-name="sarauthai" unicode="&#xe38;" 
d="M304 -122q-3 -2 -6 -2q-6 -2 -14 -1q-10 2 -16.5 9.5t-5.5 19.5q0 11 8.5 18.5t23.5 7.5q8 -2 13 -5t8 -8t4 -11t1 -10v-60h-16v42zM290 -82q-8 0 -12 -5t-4 -11t4 -11t12 -5t12 5t4 11t-4 11t-12 5zM140 800q-33 0 -56.5 -23.5t-23.5 -56.5t23.5 -56.5t56.5 -23.5
t56.5 23.5t23.5 56.5t-23.5 56.5t-56.5 23.5zM360 800q-33 0 -56.5 -23.5t-23.5 -56.5t23.5 -56.5t56.5 -23.5t56.5 23.5t23.5 56.5t-23.5 56.5t-56.5 23.5z" />
    <glyph glyph-name="sarauuthai" unicode="&#xe39;" 
d="M255 -120q-3 -2 -5 -2q-7 -2 -14 -1q-10 2 -17 9.5t-6 19.5q1 11 9 18.5t23 7.5q9 -2 14 -5t8 -8t4 -11t1 -10v-40h31v74h17v-88h-65v36zM241.5 -80q-7.5 0 -11.5 -5t-4 -11t4 -11t11.5 -5t11.5 5t4 11t-4 11t-11.5 5zM140 580q-33 0 -56.5 -23.5t-23.5 -56.5t23.5 -56.5
t56.5 -23.5t56.5 23.5t23.5 56.5t-23.5 56.5t-56.5 23.5zM360 580q-33 0 -56.5 -23.5t-23.5 -56.5t23.5 -56.5t56.5 -23.5t56.5 23.5t23.5 56.5t-23.5 56.5t-56.5 23.5z" />
    <glyph glyph-name="phinthuthai" unicode="&#xe3a;" 
d="M306.5 -103q-7.5 0 -11 4.5t-3.5 10.5t3.5 10.5t11 4.5t11.5 -4.5t4 -10.5t-4 -10.5t-11.5 -4.5zM140 580q-33 0 -56.5 -23.5t-23.5 -56.5t23.5 -56.5t56.5 -23.5t56.5 23.5t23.5 56.5t-23.5 56.5t-56.5 23.5zM360 580q-33 0 -56.5 -23.5t-23.5 -56.5t23.5 -56.5
t56.5 -23.5t56.5 23.5t23.5 56.5t-23.5 56.5t-56.5 23.5zM360 360q-33 0 -56.5 -23.5t-23.5 -56.5t23.5 -56.5t56.5 -23.5t56.5 23.5t23.5 56.5t-23.5 56.5t-56.5 23.5z" />
    <glyph glyph-name="bahtthai" unicode="&#xe3f;" 
d="M260 100q16 0 30 -6q12 -4 21 -14t11 -30q0 -13 -4 -22.5t-11.5 -15.5t-17 -8t-19.5 -2q10 0 19 -2t16.5 -8t12 -14.5t4.5 -21.5q1 -16 -3.5 -26t-11.5 -16t-15 -9t-15.5 -4t-12 -1h-4.5v-27h-16v27h-53v200h53v28h16v-28zM244 -6h-36v-79h36v79zM208 85v-75h36v75h-36z
M260 11h7l16 4l15 11l6 24q0 14 -7 21t-15.5 10t-15.5 3h-6v-73zM260 -86h7t16 3t16 11t6 26q-1 16 -8 24t-15 11t-16 3h-6v-78z" />
    <glyph glyph-name="saraethai" unicode="&#xe40;" 
d="M198 -43q3 1 6 3q4 0 8 0.5t8 -0.5q12 -2 19 -10t6 -22q-1 -12 -10 -21t-25 -7q-10 0 -15.5 4t-8.5 10t-3.5 12t-0.5 10v164h16v-143zM214 -88q9 0 13.5 5.5t4.5 12t-4.5 12t-13.5 5.5t-13.5 -5.5t-4.5 -12t4.5 -12t13.5 -5.5zM140 800q-33 0 -56.5 -23.5t-23.5 -56.5
t23.5 -56.5t56.5 -23.5t56.5 23.5t23.5 56.5t-23.5 56.5t-56.5 23.5zM360 800q-33 0 -56.5 -23.5t-23.5 -56.5t23.5 -56.5t56.5 -23.5t56.5 23.5t23.5 56.5t-23.5 56.5t-56.5 23.5zM140 580q-33 0 -56.5 -23.5t-23.5 -56.5t23.5 -56.5t56.5 -23.5t56.5 23.5t23.5 56.5
t-23.5 56.5t-56.5 23.5z" />
    <glyph glyph-name="saraaethai" unicode="&#xe41;" 
d="M199 -42q3 2 6 2q3 2 7 2t8 -1q12 -3 19 -11t7 -22q-2 -12 -11 -20.5t-25 -7.5q-10 2 -15 6t-8 9t-4 11t-1 11v163h17v-142zM278 -43q3 1 6 3q4 0 8 0.5t8 -0.5q12 -2 19 -10t6 -22q-1 -12 -10 -21t-25 -7q-10 0 -15.5 4t-8.5 10t-3.5 12t-0.5 10v164h16v-143zM294 -88
q9 0 13.5 5.5t4.5 12t-4.5 12t-13.5 5.5t-13.5 -5.5t-4.5 -12t4.5 -12t13.5 -5.5zM215 -87q9 0 13 5.5t4 12t-4 12t-13 5.5t-13.5 -5.5t-4.5 -12t4.5 -12t13.5 -5.5zM140 800q-33 0 -56.5 -23.5t-23.5 -56.5t23.5 -56.5t56.5 -23.5t56.5 23.5t23.5 56.5t-23.5 56.5
t-56.5 23.5zM140 580q-33 0 -56.5 -23.5t-23.5 -56.5t23.5 -56.5t56.5 -23.5t56.5 23.5t23.5 56.5t-23.5 56.5t-56.5 23.5zM360 360q-33 0 -56.5 -23.5t-23.5 -56.5t23.5 -56.5t56.5 -23.5t56.5 23.5t23.5 56.5t-23.5 56.5t-56.5 23.5z" />
    <glyph glyph-name="saraothai" unicode="&#xe42;" 
d="M214 -43l6 3q2 0 6 0.5t9 -0.5q11 -2 18.5 -10t6.5 -22q-1 -12 -10 -21t-25 -7q-10 0 -15.5 4t-8.5 10t-4 12t-1 10v218q0 6 -0.5 12t-8.5 10q-6 4 -13.5 5.5t-13.5 2.5q-8 1 -14 2q0 8 4 16q2 8 8 14t17 8t19.5 1t16 -4t15.5 -5t18 -2q6 0 9.5 1.5t6.5 2.5l4 4l11 -12
q-1 0 -6 -5t-17 -5q-10 -2 -19 0t-17 5t-16 5t-17 1q-6 -1 -9.5 -3t-5.5 -4t-2.5 -4t-1.5 -3q6 0 11 -1q5 -2 11 -4t13 -5q11 -6 13 -15t2 -16v-199zM229 -88q9 0 13 5.5t4 12t-4 12t-13 5.5t-13 -5.5t-4 -12t4 -12t13 -5.5zM360 800q-33 0 -56.5 -23.5t-23.5 -56.5
t23.5 -56.5t56.5 -23.5t56.5 23.5t23.5 56.5t-23.5 56.5t-56.5 23.5zM140 580q-33 0 -56.5 -23.5t-23.5 -56.5t23.5 -56.5t56.5 -23.5t56.5 23.5t23.5 56.5t-23.5 56.5t-56.5 23.5z" />
    <glyph glyph-name="saraaimaimuanthai" unicode="&#xe43;" horiz-adv-x="1180" 
d="M614 -43l6 3q3 0 7 0.5t9 -0.5q11 -2 18.5 -10t5.5 -22q0 -12 -9 -21t-25 -7q-10 0 -16 4t-9 10t-3.5 12t-0.5 10v180q0 8 2.5 14.5t5.5 13.5q5 11 9 19.5t3 20.5q0 4 -1.5 8.5t-4.5 8.5t-8 7t-13 4q-10 1 -17 -1t-11 -4.5t-5 -5.5l-1 -3l8 0.5t17 -6.5q3 -4 5.5 -9
t3 -11t-2 -11.5t-7.5 -10.5q-4 -4 -10 -5.5t-12 -1t-11 3t-9 7.5q-6 8 -7 20t4.5 23.5t18 20t32.5 8.5q24 -1 36.5 -14t11.5 -31q0 -15 -3.5 -23t-10.5 -20q-4 -8 -5 -15.5t-1 -11.5v-154zM629 -88q9 0 13.5 5.5t4.5 12t-4.5 12t-13.5 5.5t-13 -5.5t-4 -12t4 -12t13 -5.5z
M560.5 186q-7.5 0 -11 -4.5t-3.5 -10t4 -10.5t11 -5t11 5t4 10.5t-4 10t-11.5 4.5zM140 800q-33 0 -56.5 -23.5t-23.5 -56.5t23.5 -56.5t56.5 -23.5t56.5 23.5t23.5 56.5t-23.5 56.5t-56.5 23.5zM360 580q-33 0 -56.5 -23.5t-23.5 -56.5t23.5 -56.5t56.5 -23.5t56.5 23.5
t23.5 56.5t-23.5 56.5t-56.5 23.5zM730 580q-33 0 -56.5 -23.5t-23.5 -56.5t23.5 -56.5t56.5 -23.5t56.5 23.5t23.5 56.5t-23.5 56.5t-56.5 23.5zM360 360q-33 0 -56.5 -23.5t-23.5 -56.5t23.5 -56.5t56.5 -23.5t56.5 23.5t23.5 56.5t-23.5 56.5t-56.5 23.5z" />
    <glyph glyph-name="saraaimaimalaithai" unicode="&#xe44;" 
d="M156 163v5t-1 10t-3 12t-4 10q-5 8 -10.5 9l-5.5 1l6 15q4 0 6 -1q3 -1 6.5 -2.5t6.5 -5.5q5 -6 7 -13t3 -13t1 -11v-4l1 3l4 9l7 11l8 11q8 10 16.5 14.5t19.5 1.5t13.5 -14t-1.5 -24q-4 -11 -6 -19t-3 -13t-2 -8t-1 -7v-183q3 1 6 3q4 0 8 0.5t8 -0.5q12 -2 19 -10
t6 -22q-1 -12 -10 -21t-25 -7q-10 0 -15.5 4t-8.5 10t-3.5 12t-0.5 10v202q0 5 0.5 14t5.5 22q6 14 8 24.5t-4 12.5q-7 2 -13.5 -5.5t-12.5 -15.5q-4 -3 -6 -7.5t-4.5 -9t-3.5 -7.5l-2 -3h-20zM240 -88q9 0 13.5 5.5t4.5 12t-4.5 12t-13.5 5.5t-13.5 -5.5t-4.5 -12t4.5 -12
t13.5 -5.5zM140 800q-33 0 -56.5 -23.5t-23.5 -56.5t23.5 -56.5t56.5 -23.5t56.5 23.5t23.5 56.5t-23.5 56.5t-56.5 23.5zM360 580q-33 0 -56.5 -23.5t-23.5 -56.5t23.5 -56.5t56.5 -23.5t56.5 23.5t23.5 56.5t-23.5 56.5t-56.5 23.5zM360 360q-33 0 -56.5 -23.5
t-23.5 -56.5t23.5 -56.5t56.5 -23.5t56.5 23.5t23.5 56.5t-23.5 56.5t-56.5 23.5z" />
    <glyph glyph-name="lakkhangyaothai" unicode="&#xe45;" 
d="M266 46q0 18 -12 30t-38 10q-16 0 -25 -5t-14.5 -11t-7.5 -10l-2 -6l-15 9q0 1 3 7t10 12.5t19 12t32 6.5q32 1 50 -14t18 -41v-224h-18v224v0zM140 800q-33 0 -56.5 -23.5t-23.5 -56.5t23.5 -56.5t56.5 -23.5t56.5 23.5t23.5 56.5t-23.5 56.5t-56.5 23.5zM360 360
q-33 0 -56.5 -23.5t-23.5 -56.5t23.5 -56.5t56.5 -23.5t56.5 23.5t23.5 56.5t-23.5 56.5t-56.5 23.5z" />
    <glyph glyph-name="maiyamokthai" unicode="&#xe46;" 
d="M254 72q12 3 24 -3q6 -3 10 -10t5 -14t-2 -14.5t-9 -12.5q-8 -5 -16 -5.5t-15.5 2.5t-13 8.5t-6.5 14.5q-2 10 -0.5 21.5t7.5 20.5t15 14.5t21 5.5q8 0 14 -2.5t9 -6t5 -5.5l2 -3l2 3l5 6l10 6l15 2q18 0 27 -12t9 -28v-160q0 -12 -3.5 -19.5t-13.5 -16.5q-11 -8 -22 -12
l-11 -4l-9 12q1 0 9 4t18 10q15 10 15 26v158q0 4 -0.5 9t-3 9t-7 7t-10.5 3t-12 -3t-10 -7.5t-6 -7.5l-3 -4l-2.5 4t-6.5 8t-10 7t-12 3t-9 -2t-5 -5t-3 -5zM261.5 60q-8.5 0 -13 -6t-4.5 -12t5 -11.5t13 -5.5t12.5 5.5t4.5 11.5t-4.5 12t-13 6zM140 580q-33 0 -56.5 -23.5
t-23.5 -56.5t23.5 -56.5t56.5 -23.5t56.5 23.5t23.5 56.5t-23.5 56.5t-56.5 23.5z" />
    <glyph glyph-name="maitaikhuthai" unicode="&#xe47;" 
d="M274 110l-1 5t3 13q6 8 17 10t20 -4t10 -18t-7 -21t-19.5 -8t-22.5 5q-5 2 -9.5 6t-8.5 6l-8 8q-1 0 -3 -3t-5 -7q-2 -5 -3 -9.5l-1 -4.5h-12l-3 1t-6.5 5t-7 10.5t-3.5 16.5q-2 16 6 28.5t19 16.5q9 4 17.5 4.5t17.5 0t18.5 -0.5t19.5 2q6 2 11 5t7 6l4 6l2 3l12 -10
l-1 -3t-4 -6.5t-9 -7t-14 -5.5q-10 -3 -20 -3.5t-19 0t-17 0t-14 -1.5q-9 -3 -14.5 -10t-5.5 -16q0 -7 1 -12t2 -8t3 -4l2 -1l1 4t5 11t10 9q2 2 5 4q1 -2 3 -4q1 -2 3.5 -5t4.5 -5q4 -4 8 -6t6 -2zM298 127q-7 0 -10.5 -4.5t-3.5 -9.5t3 -9t11 -4q6 0 9.5 4t4 9t-3.5 9.5
t-10 4.5zM140 360q-33 0 -56.5 -23.5t-23.5 -56.5t23.5 -56.5t56.5 -23.5t56.5 23.5t23.5 56.5t-23.5 56.5t-56.5 23.5z" />
    <glyph glyph-name="maiekthai" unicode="&#xe48;" 
d="M270 156v-70h-16v70h16zM360 580q-33 0 -56.5 -23.5t-23.5 -56.5t23.5 -56.5t56.5 -23.5t56.5 23.5t23.5 56.5t-23.5 56.5t-56.5 23.5zM140 360q-33 0 -56.5 -23.5t-23.5 -56.5t23.5 -56.5t56.5 -23.5t56.5 23.5t23.5 56.5t-23.5 56.5t-56.5 23.5z" />
    <glyph glyph-name="maithothai" unicode="&#xe49;" 
d="M218 123q-4 -1 -9 -1q-4 0 -8.5 1t-8.5 4q-6 3 -9 9t-3 13t2 13t8 10q5 5 11.5 6.5t13 0.5t12 -4t7.5 -7q7 -10 6.5 -21t-5.5 -23q-3 -8 -7 -13.5t-10 -10.5h4l9 1l11 3l12 4q10 4 19 10t15 20q2 6 3.5 12.5t2.5 11.5q0 6 -1 11h17q2 -13 -2 -29t-18 -30q-10 -10 -19 -15
t-23 -9q-12 -2 -22 -3t-18 -1h-12.5h-5.5v10q3 0 6 2q6 4 12 10t8 10t2 5zM210 167q-8 0 -12.5 -5.5t-4.5 -11.5t4.5 -11t12.5 -5t12.5 5t4.5 11t-4.5 11.5t-12.5 5.5zM140 580q-33 0 -56.5 -23.5t-23.5 -56.5t23.5 -56.5t56.5 -23.5t56.5 23.5t23.5 56.5t-23.5 56.5
t-56.5 23.5zM360 580q-33 0 -56.5 -23.5t-23.5 -56.5t23.5 -56.5t56.5 -23.5t56.5 23.5t23.5 56.5t-23.5 56.5t-56.5 23.5zM360 360q-33 0 -56.5 -23.5t-23.5 -56.5t23.5 -56.5t56.5 -23.5t56.5 23.5t23.5 56.5t-23.5 56.5t-56.5 23.5z" />
    <glyph glyph-name="maitrithai" unicode="&#xe4a;" 
d="M175 127q3 1 7 3h6t8 -2q6 -2 9.5 -7.5t4 -11.5t-1.5 -11.5t-8 -9.5q-4 -2 -10 -3t-11 0t-10 5t-7 10q-3 12 -1.5 21t3.5 18t10 15.5t15 6t12.5 -5.5t6.5 -9q1 4 7.5 9t13.5 5q9 0 15 -9t6 -20t-2 -18t-6 -11q4 0 8 2l6 4t6 6q4 9 5 16.5t3 16.5q2 11 5 17q2 2 3 4l13 -7
l-3 -3q-2 -3 -3 -6.5l-3 -10.5q-1 -11 -3.5 -22t-12.5 -20t-23.5 -11.5t-20.5 -1.5v9q3 1 5 5q2 2 4.5 7t3.5 12q2 11 -0.5 19t-8.5 10q-6 0 -9 -5.5t-3 -7.5h-10q0 1 -4 6t-10 7q-4 0 -7 -2.5t-5 -6t-2.5 -7.5t-0.5 -5zM186 120q-6 0 -9.5 -4t-3.5 -9t3.5 -9t9.5 -4t9 4
t3 9t-3 9t-9 4zM140 580q-33 0 -56.5 -23.5t-23.5 -56.5t23.5 -56.5t56.5 -23.5t56.5 23.5t23.5 56.5t-23.5 56.5t-56.5 23.5zM360 580q-33 0 -56.5 -23.5t-23.5 -56.5t23.5 -56.5t56.5 -23.5t56.5 23.5t23.5 56.5t-23.5 56.5t-56.5 23.5zM140 360q-33 0 -56.5 -23.5
t-23.5 -56.5t23.5 -56.5t56.5 -23.5t56.5 23.5t23.5 56.5t-23.5 56.5t-56.5 23.5zM360 360q-33 0 -56.5 -23.5t-23.5 -56.5t23.5 -56.5t56.5 -23.5t56.5 23.5t23.5 56.5t-23.5 56.5t-56.5 23.5z" />
    <glyph glyph-name="maichattawathai" unicode="&#xe4b;" 
d="M252 120h-33v14h33v36h18v-36h32v-14h-33v-34h-17v34zM140 580q-33 0 -56.5 -23.5t-23.5 -56.5t23.5 -56.5t56.5 -23.5t56.5 23.5t23.5 56.5t-23.5 56.5t-56.5 23.5zM140 360q-33 0 -56.5 -23.5t-23.5 -56.5t23.5 -56.5t56.5 -23.5t56.5 23.5t23.5 56.5t-23.5 56.5
t-56.5 23.5zM360 360q-33 0 -56.5 -23.5t-23.5 -56.5t23.5 -56.5t56.5 -23.5t56.5 23.5t23.5 56.5t-23.5 56.5t-56.5 23.5z" />
    <glyph glyph-name="thanthakhatthai" unicode="&#xe4c;" 
d="M244 144h4t9 -1.5t10 -5.5t7 -13q4 -14 -3 -26t-24 -13q-7 -1 -13.5 2t-11 8t-7 12t-1.5 15q0 14 9 24.5t20 15.5q7 4 13.5 5t12.5 2t11.5 1t10.5 3q9 5 10.5 10.5t1.5 6.5h17v-4l-2 -7l-4 -9l-10 -8q-10 -4 -20 -5t-23 -3q-5 0 -8.5 -2t-5.5 -4t-3 -4zM245 132
q-9 0 -13 -5t-4 -11.5t4 -12t13 -5.5t13 5.5t4 12t-4 11.5t-13 5zM360 580q-33 0 -56.5 -23.5t-23.5 -56.5t23.5 -56.5t56.5 -23.5t56.5 23.5t23.5 56.5t-23.5 56.5t-56.5 23.5zM140 360q-33 0 -56.5 -23.5t-23.5 -56.5t23.5 -56.5t56.5 -23.5t56.5 23.5t23.5 56.5
t-23.5 56.5t-56.5 23.5zM360 360q-33 0 -56.5 -23.5t-23.5 -56.5t23.5 -56.5t56.5 -23.5t56.5 23.5t23.5 56.5t-23.5 56.5t-56.5 23.5z" />
    <glyph glyph-name="nikhahitthai" unicode="&#xe4d;" 
d="M240 87q-16 0 -24 10t-8 21.5t8 21.5t24 10t24 -10t8 -21.5t-8 -21.5t-24 -10zM239.5 136q-8.5 0 -13 -5.5t-4.5 -12t4.5 -11.5t13 -5t12.5 5t4 11.5t-4 12t-12.5 5.5zM360 580q-33 0 -56.5 -23.5t-23.5 -56.5t23.5 -56.5t56.5 -23.5t56.5 23.5t23.5 56.5t-23.5 56.5
t-56.5 23.5zM140 360q-33 0 -56.5 -23.5t-23.5 -56.5t23.5 -56.5t56.5 -23.5t56.5 23.5t23.5 56.5t-23.5 56.5t-56.5 23.5zM360 360q-33 0 -56.5 -23.5t-23.5 -56.5t23.5 -56.5t56.5 -23.5t56.5 23.5t23.5 56.5t-23.5 56.5t-56.5 23.5z" />
    <glyph glyph-name="yamakkanthai" unicode="&#xe4e;" 
d="M248 187l-4 -11h-12q-25 0 -25 -21q0 -15 21 -16l-4 -8q-38 -3 -38 -29q0 -12 24 -12h12l-3 -12q-11 -2 -20 -2q-30 2 -30 24q0 33 36 38q-12 4 -13 20q0 31 34 31q11 0 22 -2z" />
    <glyph glyph-name="fongmanthai" unicode="&#xe4f;" 
d="M284 -100q-34 0 -56 15t-33 37t-11 48t11 48t33 37t56 15t56 -15t33 -37t11 -48t-11 -48t-33 -37t-56 -15zM284 86q-29 0 -48.5 -12.5t-28.5 -32t-9 -41.5t9 -41.5t28.5 -32t48.5 -12.5t48.5 12.5t28.5 32t9 41.5t-9 41.5t-28.5 32t-48.5 12.5zM284 -57q-19 0 -31.5 8.5
t-19 21t-6.5 27.5t6.5 27.5t19 21t31.5 8.5t31.5 -8.5t19 -21t6.5 -27.5t-6.5 -27.5t-19 -21t-31.5 -8.5z" />
    <glyph glyph-name="zerothai" unicode="&#xe50;" horiz-adv-x="1770" 
d="M360 360q-33 0 -56.5 -23.5t-23.5 -56.5t23.5 -56.5t56.5 -23.5t56.5 23.5t23.5 56.5t-23.5 56.5t-56.5 23.5zM950 800q-33 0 -56.5 -23.5t-23.5 -56.5t23.5 -56.5t56.5 -23.5t56.5 23.5t23.5 56.5t-23.5 56.5t-56.5 23.5zM950 580q-33 0 -56.5 -23.5t-23.5 -56.5
t23.5 -56.5t56.5 -23.5t56.5 23.5t23.5 56.5t-23.5 56.5t-56.5 23.5zM730 360q-33 0 -56.5 -23.5t-23.5 -56.5t23.5 -56.5t56.5 -23.5t56.5 23.5t23.5 56.5t-23.5 56.5t-56.5 23.5zM950 360q-33 0 -56.5 -23.5t-23.5 -56.5t23.5 -56.5t56.5 -23.5t56.5 23.5t23.5 56.5
t-23.5 56.5t-56.5 23.5zM758 -27q0 33 21 53.5t61 21.5q19 0 34.5 -6t25.5 -16t16 -23.5t6 -29.5q0 -33 -22 -53.5t-60 -20.5q-41 1 -61.5 21t-20.5 53zM839.5 32q-32.5 0 -49 -16.5t-16.5 -42.5q0 -25 16.5 -42t49 -16.5t48.5 16t16 41.5t-16 43t-48.5 17zM1540 800
q-33 0 -56.5 -23.5t-23.5 -56.5t23.5 -56.5t56.5 -23.5t56.5 23.5t23.5 56.5t-23.5 56.5t-56.5 23.5zM1320 580q-33 0 -56.5 -23.5t-23.5 -56.5t23.5 -56.5t56.5 -23.5t56.5 23.5t23.5 56.5t-23.5 56.5t-56.5 23.5zM1540 580q-33 0 -56.5 -23.5t-23.5 -56.5t23.5 -56.5
t56.5 -23.5t56.5 23.5t23.5 56.5t-23.5 56.5t-56.5 23.5z" />
    <glyph glyph-name="onethai" unicode="&#xe51;" horiz-adv-x="1770" 
d="M360 360q-33 0 -56.5 -23.5t-23.5 -56.5t23.5 -56.5t56.5 -23.5t56.5 23.5t23.5 56.5t-23.5 56.5t-56.5 23.5zM950 800q-33 0 -56.5 -23.5t-23.5 -56.5t23.5 -56.5t56.5 -23.5t56.5 23.5t23.5 56.5t-23.5 56.5t-56.5 23.5zM950 580q-33 0 -56.5 -23.5t-23.5 -56.5
t23.5 -56.5t56.5 -23.5t56.5 23.5t23.5 56.5t-23.5 56.5t-56.5 23.5zM730 360q-33 0 -56.5 -23.5t-23.5 -56.5t23.5 -56.5t56.5 -23.5t56.5 23.5t23.5 56.5t-23.5 56.5t-56.5 23.5zM950 360q-33 0 -56.5 -23.5t-23.5 -56.5t23.5 -56.5t56.5 -23.5t56.5 23.5t23.5 56.5
t-23.5 56.5t-56.5 23.5zM846 -76q-1 0 -3.5 -0.5t-6.5 -0.5t-10 1.5t-11 6t-8 12t-1.5 15.5t6.5 15t14 9q10 3 18 1.5t13 -6t7.5 -10t3.5 -11.5q2 -10 -1 -20.5t-9 -18.5t-15 -12.5t-21 -4.5q-32 0 -47 22t-13 55q2 32 23 52t59 19q39 0 57.5 -20t20.5 -52q0 -24 -6 -41
t-15 -29t-22 -20l-9 12l6 4q6 5 12.5 14.5t11.5 24.5t4 37q0 10 -3 20t-10.5 18t-19 13.5t-28.5 5.5q-29 0 -45.5 -16.5t-17.5 -42.5q-2 -26 6.5 -42.5t27.5 -20.5q9 -2 15 -0.5t9.5 4.5t5 5t2.5 2zM836 -29q-9 0 -13.5 -5.5t-4.5 -12t5 -12t14 -5.5t13 5.5t4 12t-4.5 12
t-13.5 5.5zM1320 800q-33 0 -56.5 -23.5t-23.5 -56.5t23.5 -56.5t56.5 -23.5t56.5 23.5t23.5 56.5t-23.5 56.5t-56.5 23.5z" />
    <glyph glyph-name="twothai" unicode="&#xe52;" horiz-adv-x="1770" 
d="M360 360q-33 0 -56.5 -23.5t-23.5 -56.5t23.5 -56.5t56.5 -23.5t56.5 23.5t23.5 56.5t-23.5 56.5t-56.5 23.5zM950 800q-33 0 -56.5 -23.5t-23.5 -56.5t23.5 -56.5t56.5 -23.5t56.5 23.5t23.5 56.5t-23.5 56.5t-56.5 23.5zM950 580q-33 0 -56.5 -23.5t-23.5 -56.5
t23.5 -56.5t56.5 -23.5t56.5 23.5t23.5 56.5t-23.5 56.5t-56.5 23.5zM730 360q-33 0 -56.5 -23.5t-23.5 -56.5t23.5 -56.5t56.5 -23.5t56.5 23.5t23.5 56.5t-23.5 56.5t-56.5 23.5zM950 360q-33 0 -56.5 -23.5t-23.5 -56.5t23.5 -56.5t56.5 -23.5t56.5 23.5t23.5 56.5
t-23.5 56.5t-56.5 23.5zM824 -8l6 4q6 3 18 0q7 -2 11.5 -6t7.5 -10t3 -13t-4 -14q-2 -6 -8 -9.5t-12 -4.5t-13 0.5t-11 4.5q-7 5 -10.5 12t-4.5 14t-1 14v12q0 8 2 17t6 16t11 12t15 5q10 2 17 -3.5t11 -13.5q2 7 9.5 12t16.5 5q18 0 24 -11t6 -25v-66q0 -8 -1.5 -15
t-7.5 -15q-7 -8 -15.5 -11t-19.5 -3h-68q-7 0 -15.5 2t-14.5 9q-7 7 -9 16t-2 17v127q0 9 -1.5 15t-5.5 12q-6 6 -15 7.5t-12 0.5l11 16l8 -2q6 -1 12 -6q13 -8 16.5 -19t3.5 -26v-124v-11l4 -10q4 -6 9 -7.5t12 -1.5h67q6 0 11 1.5t10 5.5t6 10t1 11v65q0 8 -2.5 16
t-11.5 9q-6 0 -10 -3.5t-6 -8.5q-3 -5 -5 -12h-11q0 1 -1 5t-4 8t-7 8t-9 3q-7 -1 -10.5 -6t-4.5 -11q-3 -10 -2 -17v-7zM840 -16q-8 0 -12 -5t-4 -11t4 -11t12 -5t12 5t4 11t-4 11t-12 5zM1320 800q-33 0 -56.5 -23.5t-23.5 -56.5t23.5 -56.5t56.5 -23.5t56.5 23.5
t23.5 56.5t-23.5 56.5t-56.5 23.5zM1320 580q-33 0 -56.5 -23.5t-23.5 -56.5t23.5 -56.5t56.5 -23.5t56.5 23.5t23.5 56.5t-23.5 56.5t-56.5 23.5z" />
    <glyph glyph-name="threethai" unicode="&#xe53;" horiz-adv-x="1770" 
d="M360 360q-33 0 -56.5 -23.5t-23.5 -56.5t23.5 -56.5t56.5 -23.5t56.5 23.5t23.5 56.5t-23.5 56.5t-56.5 23.5zM950 800q-33 0 -56.5 -23.5t-23.5 -56.5t23.5 -56.5t56.5 -23.5t56.5 23.5t23.5 56.5t-23.5 56.5t-56.5 23.5zM950 580q-33 0 -56.5 -23.5t-23.5 -56.5
t23.5 -56.5t56.5 -23.5t56.5 23.5t23.5 56.5t-23.5 56.5t-56.5 23.5zM730 360q-33 0 -56.5 -23.5t-23.5 -56.5t23.5 -56.5t56.5 -23.5t56.5 23.5t23.5 56.5t-23.5 56.5t-56.5 23.5zM950 360q-33 0 -56.5 -23.5t-23.5 -56.5t23.5 -56.5t56.5 -23.5t56.5 23.5t23.5 56.5
t-23.5 56.5t-56.5 23.5zM779 -54l1 3l5 4l8 4l13 2q14 0 22 -9t8 -22t-9 -21t-24 -8t-24 8.5t-14 21.5t-6 29t0 31q1 11 4 21t8 18t13 13t19 5q15 1 24 -7t13 -21q3 12 12.5 20.5t23.5 7.5q10 0 18 -4t12 -11t6 -16t2 -18v-97h-16v102q0 6 -1 11.5t-4 10t-7 6.5t-11 2
q-9 0 -15 -6t-9 -14t-3.5 -16t-0.5 -10v-16h-16v16q0 2 -1 10t-4 16t-8.5 14t-13.5 6t-13 -4t-8 -10t-4.5 -13t-2.5 -15q0 -20 2 -31q1 -12 1 -13zM805 -52q-9 0 -14 -6t-5 -13t4.5 -12t13.5 -5t13.5 5t4.5 12t-4 13t-13 6zM1320 800q-33 0 -56.5 -23.5t-23.5 -56.5
t23.5 -56.5t56.5 -23.5t56.5 23.5t23.5 56.5t-23.5 56.5t-56.5 23.5zM1540 800q-33 0 -56.5 -23.5t-23.5 -56.5t23.5 -56.5t56.5 -23.5t56.5 23.5t23.5 56.5t-23.5 56.5t-56.5 23.5z" />
    <glyph glyph-name="fourthai" unicode="&#xe54;" horiz-adv-x="1770" 
d="M360 360q-33 0 -56.5 -23.5t-23.5 -56.5t23.5 -56.5t56.5 -23.5t56.5 23.5t23.5 56.5t-23.5 56.5t-56.5 23.5zM950 800q-33 0 -56.5 -23.5t-23.5 -56.5t23.5 -56.5t56.5 -23.5t56.5 23.5t23.5 56.5t-23.5 56.5t-56.5 23.5zM950 580q-33 0 -56.5 -23.5t-23.5 -56.5
t23.5 -56.5t56.5 -23.5t56.5 23.5t23.5 56.5t-23.5 56.5t-56.5 23.5zM730 360q-33 0 -56.5 -23.5t-23.5 -56.5t23.5 -56.5t56.5 -23.5t56.5 23.5t23.5 56.5t-23.5 56.5t-56.5 23.5zM950 360q-33 0 -56.5 -23.5t-23.5 -56.5t23.5 -56.5t56.5 -23.5t56.5 23.5t23.5 56.5
t-23.5 56.5t-56.5 23.5zM868 -68q9 -5 17.5 -5.5t20.5 -3.5q10 -3 14.5 -8t5.5 -5l-10 -12q-4 4 -7 6t-7 4t-10 4q-10 1 -19.5 -1t-18 -5t-17.5 -5.5t-21 -1.5q-28 3 -41 22t-13 51q0 14 3 26t9.5 22t17 17t24.5 8q18 2 37 0.5t35.5 -1t30.5 5t23 16.5q5 6 7.5 14t3.5 14.5
t1 12v6.5l17 -10v-5l-1 -11l-4 -14l-8 -15q-8 -11 -19 -17.5t-27 -8.5q-14 -2 -25.5 -2t-22.5 1t-21.5 1t-20.5 -1q-23 -3 -32.5 -20t-9.5 -39q0 -10 1.5 -20t6 -18t11.5 -13.5t17 -6.5q6 -2 13 -0.5t12.5 3.5t9.5 4t5 2q-1 0 -7.5 4.5t-13.5 12.5t-11 20t2 26q2 8 8.5 12.5
t14 6t15.5 -0.5t14 -8q4 -4 6 -10t2 -12.5t-3 -12t-7 -9.5q-5 -4 -9.5 -5t-7.5 -1.5t-5.5 0t-3.5 0.5q1 -2 4.5 -6t13.5 -8zM855.5 -8q-8.5 0 -13 -5t-4.5 -12t4.5 -12t13 -5t12.5 5t4 12t-4 12t-12.5 5zM1320 800q-33 0 -56.5 -23.5t-23.5 -56.5t23.5 -56.5t56.5 -23.5
t56.5 23.5t23.5 56.5t-23.5 56.5t-56.5 23.5zM1540 800q-33 0 -56.5 -23.5t-23.5 -56.5t23.5 -56.5t56.5 -23.5t56.5 23.5t23.5 56.5t-23.5 56.5t-56.5 23.5zM1540 580q-33 0 -56.5 -23.5t-23.5 -56.5t23.5 -56.5t56.5 -23.5t56.5 23.5t23.5 56.5t-23.5 56.5t-56.5 23.5z
" />
    <glyph glyph-name="fivethai" unicode="&#xe55;" horiz-adv-x="1770" 
d="M360 360q-33 0 -56.5 -23.5t-23.5 -56.5t23.5 -56.5t56.5 -23.5t56.5 23.5t23.5 56.5t-23.5 56.5t-56.5 23.5zM950 800q-33 0 -56.5 -23.5t-23.5 -56.5t23.5 -56.5t56.5 -23.5t56.5 23.5t23.5 56.5t-23.5 56.5t-56.5 23.5zM950 580q-33 0 -56.5 -23.5t-23.5 -56.5
t23.5 -56.5t56.5 -23.5t56.5 23.5t23.5 56.5t-23.5 56.5t-56.5 23.5zM730 360q-33 0 -56.5 -23.5t-23.5 -56.5t23.5 -56.5t56.5 -23.5t56.5 23.5t23.5 56.5t-23.5 56.5t-56.5 23.5zM950 360q-33 0 -56.5 -23.5t-23.5 -56.5t23.5 -56.5t56.5 -23.5t56.5 23.5t23.5 56.5
t-23.5 56.5t-56.5 23.5zM942 67q5 4 8 13q2 7 3 14t1 12.5v6.5l17 -10v-5l-1 -11l-4 -14l-8 -15q-8 -11 -20.5 -17.5t-26.5 -7.5t-23.5 -1t-15.5 1t-9 2.5t-4 1.5t-9 -2t-28 -4q-12 -1 -20 -6.5t-13 -13.5t-7 -18t-2 -21q0 -10 1.5 -20t6 -18t11.5 -13.5t17 -6.5
q6 -2 13 -0.5t12.5 3.5t9.5 4t5 2q-1 0 -7.5 4.5t-13.5 12.5t-11 20t2 26q2 8 8.5 12.5t14 6t15.5 -0.5t14 -8q4 -4 6 -10t2 -12.5t-3 -12t-7 -9.5q-5 -4 -9.5 -5t-7.5 -1.5t-5.5 0t-3.5 0.5q1 -2 4.5 -6t13.5 -8q9 -5 17.5 -5.5t20.5 -3.5q10 -3 14.5 -8t5.5 -5l-10 -12
q-4 4 -7 6t-7 4t-10 4q-10 1 -19.5 -1t-18 -5t-17.5 -5.5t-21 -1.5q-28 3 -41 22t-13 51q0 14 3 26t9.5 22t17 16t24.5 9q7 1 12 1l4 1q0 1 -4 4.5t-4 11.5q-2 15 6 25.5t26 11.5q14 1 24 -6.5t11 -20.5t-3 -18l-4 -5l6 -1l14 -1l19 4zM858.5 87q-9.5 1 -14.5 -5t-5.5 -13
t4 -13t14 -6.5t14.5 5t5 12.5t-4 13t-13.5 7zM855.5 -8q-8.5 0 -13 -5t-4.5 -12t4.5 -12t13 -5t12.5 5t4 12t-4 12t-12.5 5zM1320 800q-33 0 -56.5 -23.5t-23.5 -56.5t23.5 -56.5t56.5 -23.5t56.5 23.5t23.5 56.5t-23.5 56.5t-56.5 23.5zM1540 580q-33 0 -56.5 -23.5
t-23.5 -56.5t23.5 -56.5t56.5 -23.5t56.5 23.5t23.5 56.5t-23.5 56.5t-56.5 23.5z" />
    <glyph glyph-name="sixthai" unicode="&#xe56;" horiz-adv-x="1770" 
d="M360 360q-33 0 -56.5 -23.5t-23.5 -56.5t23.5 -56.5t56.5 -23.5t56.5 23.5t23.5 56.5t-23.5 56.5t-56.5 23.5zM950 800q-33 0 -56.5 -23.5t-23.5 -56.5t23.5 -56.5t56.5 -23.5t56.5 23.5t23.5 56.5t-23.5 56.5t-56.5 23.5zM950 580q-33 0 -56.5 -23.5t-23.5 -56.5
t23.5 -56.5t56.5 -23.5t56.5 23.5t23.5 56.5t-23.5 56.5t-56.5 23.5zM730 360q-33 0 -56.5 -23.5t-23.5 -56.5t23.5 -56.5t56.5 -23.5t56.5 23.5t23.5 56.5t-23.5 56.5t-56.5 23.5zM950 360q-33 0 -56.5 -23.5t-23.5 -56.5t23.5 -56.5t56.5 -23.5t56.5 23.5t23.5 56.5
t-23.5 56.5t-56.5 23.5zM858 -86q28 0 44 16t14 49q-1 24 -16 39q-14 14 -45 14q-11 0 -20 -1t-16.5 -4t-13.5 -8t-12 -13h-15q0 11 -1 23q-1 10 -3 21.5t-8 21.5q-4 10 -9 15t-9 8t-6 5h-3l13 15q6 -3 12 -9q4 -6 10 -14t10 -20q4 -8 5 -16t2 -14.5t1 -11.5l1 -4l4 3l10 7
l19 7l30 3q36 0 56 -18t22 -47q0 -18 -3.5 -33t-13 -25.5t-24.5 -17t-35 -6.5q-36 0 -57 13q-18 12 -22 36q-1 6 1 13t6 12t11.5 8.5t18.5 2.5q8 -1 14 -6t9 -11.5t3 -14.5t-5 -14q-5 -8 -13 -11t-10 -3q1 0 3.5 -2t7.5 -3.5t13 -3t20 -1.5zM811 -28q-9 0 -13.5 -6t-4.5 -12
t4.5 -12t13.5 -6t13 6t4 12t-4 12t-13 6zM1320 800q-33 0 -56.5 -23.5t-23.5 -56.5t23.5 -56.5t56.5 -23.5t56.5 23.5t23.5 56.5t-23.5 56.5t-56.5 23.5zM1540 800q-33 0 -56.5 -23.5t-23.5 -56.5t23.5 -56.5t56.5 -23.5t56.5 23.5t23.5 56.5t-23.5 56.5t-56.5 23.5z
M1320 580q-33 0 -56.5 -23.5t-23.5 -56.5t23.5 -56.5t56.5 -23.5t56.5 23.5t23.5 56.5t-23.5 56.5t-56.5 23.5z" />
    <glyph glyph-name="seventhai" unicode="&#xe57;" horiz-adv-x="1770" 
d="M360 360q-33 0 -56.5 -23.5t-23.5 -56.5t23.5 -56.5t56.5 -23.5t56.5 23.5t23.5 56.5t-23.5 56.5t-56.5 23.5zM950 800q-33 0 -56.5 -23.5t-23.5 -56.5t23.5 -56.5t56.5 -23.5t56.5 23.5t23.5 56.5t-23.5 56.5t-56.5 23.5zM950 580q-33 0 -56.5 -23.5t-23.5 -56.5
t23.5 -56.5t56.5 -23.5t56.5 23.5t23.5 56.5t-23.5 56.5t-56.5 23.5zM730 360q-33 0 -56.5 -23.5t-23.5 -56.5t23.5 -56.5t56.5 -23.5t56.5 23.5t23.5 56.5t-23.5 56.5t-56.5 23.5zM950 360q-33 0 -56.5 -23.5t-23.5 -56.5t23.5 -56.5t56.5 -23.5t56.5 23.5t23.5 56.5
t-23.5 56.5t-56.5 23.5zM784 -56l1 3l4 5l8 6l12 2q15 1 24 -7.5t9 -22.5t-8 -22t-24 -9q-13 0 -22.5 7t-15 18.5t-8 25t-2.5 26.5q0 12 2 24t7.5 22.5t14 17t20.5 6.5q15 0 21 -7.5t10 -18.5q4 12 12.5 19.5t20.5 6.5q10 0 17 -6t11.5 -15t6.5 -19t2 -20q0 -15 -2.5 -27.5
t-6 -21.5t-6 -14.5t-2.5 -6.5l3 2l9 6l12 11l12 19q6 9 8 23q2 13 3 27t2 29t5 30q2 13 6 22t8 15q5 8 10 12l14 -11q0 -1 -2.5 -3t-6 -7t-7.5 -13t-6 -20q-4 -15 -4.5 -29.5t-2 -28.5t-4.5 -28.5t-10 -28.5q-11 -20 -24 -29.5t-24 -12.5t-19 -2l-8 1l4 7q4 7 9 17t8.5 24
t4.5 28q0 9 -0.5 19t-3 18.5t-6.5 13.5t-10 5q-10 0 -15 -7.5t-8 -16.5q-3 -11 -4 -17l-1 -8h-11q0 14 -3 25q-2 8 -7 16t-15 8q-6 0 -11 -4t-9 -11t-6 -15.5t-2 -16.5q0 -11 1 -18.5t2 -12.5q1 -6 3 -10zM810 -53q-8 0 -13 -5.5t-5 -11.5t5 -12t13 -6t12.5 6t4.5 12
t-4.5 11.5t-12.5 5.5zM1320 800q-33 0 -56.5 -23.5t-23.5 -56.5t23.5 -56.5t56.5 -23.5t56.5 23.5t23.5 56.5t-23.5 56.5t-56.5 23.5zM1540 800q-33 0 -56.5 -23.5t-23.5 -56.5t23.5 -56.5t56.5 -23.5t56.5 23.5t23.5 56.5t-23.5 56.5t-56.5 23.5zM1320 580
q-33 0 -56.5 -23.5t-23.5 -56.5t23.5 -56.5t56.5 -23.5t56.5 23.5t23.5 56.5t-23.5 56.5t-56.5 23.5zM1540 580q-33 0 -56.5 -23.5t-23.5 -56.5t23.5 -56.5t56.5 -23.5t56.5 23.5t23.5 56.5t-23.5 56.5t-56.5 23.5z" />
    <glyph glyph-name="eightthai" unicode="&#xe58;" horiz-adv-x="1770" 
d="M360 360q-33 0 -56.5 -23.5t-23.5 -56.5t23.5 -56.5t56.5 -23.5t56.5 23.5t23.5 56.5t-23.5 56.5t-56.5 23.5zM950 800q-33 0 -56.5 -23.5t-23.5 -56.5t23.5 -56.5t56.5 -23.5t56.5 23.5t23.5 56.5t-23.5 56.5t-56.5 23.5zM950 580q-33 0 -56.5 -23.5t-23.5 -56.5
t23.5 -56.5t56.5 -23.5t56.5 23.5t23.5 56.5t-23.5 56.5t-56.5 23.5zM730 360q-33 0 -56.5 -23.5t-23.5 -56.5t23.5 -56.5t56.5 -23.5t56.5 23.5t23.5 56.5t-23.5 56.5t-56.5 23.5zM950 360q-33 0 -56.5 -23.5t-23.5 -56.5t23.5 -56.5t56.5 -23.5t56.5 23.5t23.5 56.5
t-23.5 56.5t-56.5 23.5zM913 -73q-5 -3 -11 -3q-4 0 -10 1t-12 7q-6 3 -8 10.5t-1.5 15t5 14t12.5 10.5q10 3 19 1.5t15 -6.5t9 -13t3 -18q0 -19 -9.5 -32.5t-27.5 -14.5q-16 -1 -28.5 7.5t-21.5 18t-16.5 16t-13.5 3.5q-5 -2 -5 -10.5t2 -15.5q2 -8 4 -13l2 -5l-6 -1t-13 0
t-15 5t-15 12q-9 12 -13 26t-3 29t5 28t10 21q12 15 26.5 20.5t31 6t33.5 -1t33 0.5q18 0 27 11t13 23q4 14 4 31l18 -9l-2 -16q-2 -7 -4.5 -15t-6.5 -15q-9 -15 -22 -20t-29 -5.5t-35 1t-41 -1.5q-11 0 -18.5 -6t-13.5 -14t-8.5 -18.5t-2.5 -21.5q0 -18 4 -29t8.5 -16
t8.5 -7l4 -1q0 1 -1 6t-1 12t3 14t11 9q13 6 23 -1t25 -22q10 -11 19 -16t19 -5q6 -1 9 1.5t5 4.5q2 3 3 7zM902 -30q-8 0 -12.5 -5t-4.5 -11t3.5 -11.5t12.5 -5.5t13 5t4.5 11t-4 11.5t-12.5 5.5zM1320 800q-33 0 -56.5 -23.5t-23.5 -56.5t23.5 -56.5t56.5 -23.5t56.5 23.5
t23.5 56.5t-23.5 56.5t-56.5 23.5zM1320 580q-33 0 -56.5 -23.5t-23.5 -56.5t23.5 -56.5t56.5 -23.5t56.5 23.5t23.5 56.5t-23.5 56.5t-56.5 23.5zM1540 580q-33 0 -56.5 -23.5t-23.5 -56.5t23.5 -56.5t56.5 -23.5t56.5 23.5t23.5 56.5t-23.5 56.5t-56.5 23.5z" />
    <glyph glyph-name="ninethai" unicode="&#xe59;" horiz-adv-x="1770" 
d="M360 360q-33 0 -56.5 -23.5t-23.5 -56.5t23.5 -56.5t56.5 -23.5t56.5 23.5t23.5 56.5t-23.5 56.5t-56.5 23.5zM950 800q-33 0 -56.5 -23.5t-23.5 -56.5t23.5 -56.5t56.5 -23.5t56.5 23.5t23.5 56.5t-23.5 56.5t-56.5 23.5zM950 580q-33 0 -56.5 -23.5t-23.5 -56.5
t23.5 -56.5t56.5 -23.5t56.5 23.5t23.5 56.5t-23.5 56.5t-56.5 23.5zM730 360q-33 0 -56.5 -23.5t-23.5 -56.5t23.5 -56.5t56.5 -23.5t56.5 23.5t23.5 56.5t-23.5 56.5t-56.5 23.5zM950 360q-33 0 -56.5 -23.5t-23.5 -56.5t23.5 -56.5t56.5 -23.5t56.5 23.5t23.5 56.5
t-23.5 56.5t-56.5 23.5zM835 -71q-5 -1 -9 -1t-9 1t-11 5q-5 4 -7.5 11t-2.5 14t3.5 13t9.5 10q8 5 17 4.5t16 -4.5t11.5 -12t4.5 -19q-2 -21 -12 -36t-34 -15q-14 0 -25 6.5t-17 18t-9 26t-1 30.5q2 31 18 48t44 17q14 0 24 -4.5t16 -10t8 -10.5l2 -5q0 3 1 8.5t3 10.5
t6 8.5t10 3.5t10 -2.5t7.5 -6t7 -6t7.5 -2.5q6 0 10 12t6 32q2 6 2 13v13l2 15l16 -15l-2 -14q0 -6 -1 -13t-2 -12q-5 -20 -11 -33.5t-20 -13.5q-4 0 -9 3t-9 7t-7.5 6t-5.5 2q-3 -1 -5 -5.5t-2 -9.5v-12t1 -11q1 -16 7 -32t16 -28q6 -8 11 -12t9 -6l8 -4l-7 -12l-4 1
q-3 1 -8.5 4t-12 8.5t-12.5 15.5t-10 18.5t-6.5 17.5t-5 17.5t-8.5 17.5q-6 14 -15 24t-27 10q-10 0 -18 -4t-13 -10.5t-8 -14.5t-5 -16q-2 -13 -2 -26t4 -23.5t11.5 -17.5t19.5 -8q7 0 11.5 2t7 5t4.5 5zM826.5 -26q-8.5 0 -12.5 -5.5t-4 -12t4 -11.5t12 -5t12.5 5
t4.5 11.5t-4 12t-12.5 5.5zM1540 800q-33 0 -56.5 -23.5t-23.5 -56.5t23.5 -56.5t56.5 -23.5t56.5 23.5t23.5 56.5t-23.5 56.5t-56.5 23.5zM1320 580q-33 0 -56.5 -23.5t-23.5 -56.5t23.5 -56.5t56.5 -23.5t56.5 23.5t23.5 56.5t-23.5 56.5t-56.5 23.5z" />
    <glyph glyph-name="angkhankhuthai" unicode="&#xe5a;" 
d="M320 -100h-18v164q0 10 -5 14t-13 4q-8 -23 -21.5 -36.5t-35.5 -13.5q-9 0 -18 2t-16 7t-11 12t-4 17q0 14 9 23.5t23 9.5t23.5 -10t9.5 -23q0 -12 -9 -20q31 9 37 49h19q30 0 30 -31v-20q12 8 19.5 21t10.5 31h18q30 0 30 -32v-168h-18v165q0 10 -4.5 14t-13.5 4
q0 -9 -5 -17.5t-11 -16t-13 -13t-13 -9.5v-127zM224 70q0 6 -4 10t-10 4t-10 -4t-4 -10q0 -5 4 -9.5t10 -4.5t10 4t4 10z" />
    <glyph glyph-name="khomutthai" unicode="&#xe5b;" 
d="M161 61.5q0 -1.5 -1 -1.5h-2v3h2q1 0 1 -1.5zM162 62q0 2 -2 2h-3v-8h1v4h2q2 0 2 2zM176 61.5q0 -1.5 -2 -1.5h-2v3h2q2 0 2 -1.5zM156 58h-4v6v0v-8h4v2zM144 59h-2q0 -2 -2 -2t-2 3t2 3t2 -2h2q-2 3 -4 3t-2 -4t3 -4t3 3zM170 58q0 2 -4 4q0 1 2 1l1 -1h1q0 2 -2 2
t-2 -2t4 -4q0 -1 -2 -1t-2 2v0q0 -3 2 -3t2 2zM150 64h-1v-4h-3v4h-2v-8h2v4h3v-4h1v8zM180 60l3 4h-1l-3 -4v4h-1v-8h1v3l1 1l2 -4h1zM176 62q0 2 -2 2h-2v-8v0v4h2q2 0 2 2zM185 -8q0 14 -14 14t-14 -14t14 -14t14 14zM396 -10h2q-10 -6 -20 -6q-16 0 -29 12
q-3 -24 -14 -27q-5 0 -10 17q-7 20 -11 24q0 -46 -13 -46q-3 0 -9 18q-6 20 -10 26q-3 -50 -19 -50q-3 0 -9 20q-6 24 -10 30q0 -96 -74 -96q-32 0 -50 21.5t-18 58.5t16 57.5t44 20.5q22 0 35 -14t13 -38q0 -22 -8 -36q-10 -18 -31 -18q-11 0 -19 8.5t-8 19.5q0 12 8 20
t19 8q13 0 21 -10v0l2 12q0 32 -31 32q-21 0 -32 -17.5t-11 -47.5q0 -28 14 -44.5t36 -16.5q29 0 44.5 22t15.5 61q0 15 -1 23q27 -4 37 -52q5 14 5 28q0 10 -4 24q21 -6 37 -44q2 11 2 18q0 6 -2 19q21 -6 32 -42q4 7 4 17q0 6 -1 14q4 0 20.5 -13t36.5 -13z" />
    <glyph glyph-name="enspace" unicode="&#x2002;" 
 />
    <glyph glyph-name="emspace" unicode="&#x2003;" 
 />
    <glyph glyph-name="zerowidthspace" unicode="&#x200b;" 
 />
    <glyph glyph-name="afii61664" unicode="&#x200c;" 
 />
    <glyph glyph-name="afii301" unicode="&#x200d;" 
 />
    <glyph glyph-name="afii299" unicode="&#x200e;" 
 />
    <glyph glyph-name="afii300" unicode="&#x200f;" 
 />
    <glyph glyph-name="quoteleft" unicode="&#x2018;" horiz-adv-x="1180" 
d="M573 106q1 0 3 0.5t5 0t6 -2t5 -4.5q3 -4 3.5 -9t-2 -9.5t-7 -7.5t-10.5 -3q-8 0 -13 4t-7 9.5t-1.5 12.5t1.5 13q4 14 10 21t14 10t16 4v-11q-2 0 -5 -1l-6 -2t-5 -4q-4 -3 -5 -6t-1.5 -6t-0.5 -6v-3zM360 360q-33 0 -56.5 -23.5t-23.5 -56.5t23.5 -56.5t56.5 -23.5
t56.5 23.5t23.5 56.5t-23.5 56.5t-56.5 23.5zM730 580q-33 0 -56.5 -23.5t-23.5 -56.5t23.5 -56.5t56.5 -23.5t56.5 23.5t23.5 56.5t-23.5 56.5t-56.5 23.5zM730 360q-33 0 -56.5 -23.5t-23.5 -56.5t23.5 -56.5t56.5 -23.5t56.5 23.5t23.5 56.5t-23.5 56.5t-56.5 23.5z
M950 360q-33 0 -56.5 -23.5t-23.5 -56.5t23.5 -56.5t56.5 -23.5t56.5 23.5t23.5 56.5t-23.5 56.5t-56.5 23.5z" />
    <glyph glyph-name="quoteright" unicode="&#x2019;" horiz-adv-x="1180" 
d="M578 114h-2.5h-5.5t-6.5 2t-5.5 5q-2 4 -2 9t2 9.5t6 7.5t10 3q10 0 14 -4t6 -10t2 -13t-2 -13q-2 -14 -9 -21t-13 -9q-8 -4 -18 -4v10q3 0 6 2q2 0 5 1.5t6 4t5 6t2 6.5v5v3zM360 360q-33 0 -56.5 -23.5t-23.5 -56.5t23.5 -56.5t56.5 -23.5t56.5 23.5t23.5 56.5
t-23.5 56.5t-56.5 23.5zM950 580q-33 0 -56.5 -23.5t-23.5 -56.5t23.5 -56.5t56.5 -23.5t56.5 23.5t23.5 56.5t-23.5 56.5t-56.5 23.5zM730 360q-33 0 -56.5 -23.5t-23.5 -56.5t23.5 -56.5t56.5 -23.5t56.5 23.5t23.5 56.5t-23.5 56.5t-56.5 23.5zM950 360
q-33 0 -56.5 -23.5t-23.5 -56.5t23.5 -56.5t56.5 -23.5t56.5 23.5t23.5 56.5t-23.5 56.5t-56.5 23.5z" />
    <glyph glyph-name="quotedblleft" unicode="&#x201c;" horiz-adv-x="1180" 
d="M625 106q1 0 3 0.5t5 0t6 -2t5 -4.5q3 -4 3.5 -9t-2 -9.5t-7 -7.5t-10.5 -3q-8 0 -13 4t-7 9.5t-1.5 12.5t1.5 13q4 14 10 21t14 10t16 4v-11q-2 0 -5 -1l-6 -2t-5 -4q-4 -3 -5 -6t-1.5 -6t-0.5 -6v-3zM573 106q1 0 3 0.5t5 0t6 -2t5 -4.5q3 -4 3.5 -9t-2 -9.5t-7 -7.5
t-10.5 -3q-8 0 -13 4t-7 9.5t-1.5 12.5t1.5 13q4 14 10 21t14 10t16 4v-11q-2 0 -5 -1l-6 -2t-5 -4q-4 -3 -5 -6t-1.5 -6t-0.5 -6v-3zM360 800q-33 0 -56.5 -23.5t-23.5 -56.5t23.5 -56.5t56.5 -23.5t56.5 23.5t23.5 56.5t-23.5 56.5t-56.5 23.5zM360 580q-33 0 -56.5 -23.5
t-23.5 -56.5t23.5 -56.5t56.5 -23.5t56.5 23.5t23.5 56.5t-23.5 56.5t-56.5 23.5zM730 580q-33 0 -56.5 -23.5t-23.5 -56.5t23.5 -56.5t56.5 -23.5t56.5 23.5t23.5 56.5t-23.5 56.5t-56.5 23.5zM730 360q-33 0 -56.5 -23.5t-23.5 -56.5t23.5 -56.5t56.5 -23.5t56.5 23.5
t23.5 56.5t-23.5 56.5t-56.5 23.5zM950 360q-33 0 -56.5 -23.5t-23.5 -56.5t23.5 -56.5t56.5 -23.5t56.5 23.5t23.5 56.5t-23.5 56.5t-56.5 23.5z" />
    <glyph glyph-name="quotedblright" unicode="&#x201d;" horiz-adv-x="1180" 
d="M580 114h-3.5h-5.5t-6 2t-5 5q-2 4 -2.5 9t2 9.5t6.5 7.5t10 3q9 0 13.5 -4t6.5 -10t2 -13t-2 -13q-3 -14 -9.5 -21t-13.5 -9q-8 -4 -17 -4v10q2 0 6 2q2 0 5 1.5t6 4t4.5 6t2 6.5t0.5 5v3zM632 114h-2h-5t-6.5 2t-5.5 5q-3 4 -3 9t2 9.5t6.5 7.5t10.5 3q9 0 13.5 -4
t6.5 -10t1.5 -13t-1.5 -13q-3 -14 -9.5 -21t-13.5 -9q-8 -4 -17 -4v10q3 0 5 2q3 0 6 1.5t6 4t4.5 6t1.5 6.5v5v3zM360 800q-33 0 -56.5 -23.5t-23.5 -56.5t23.5 -56.5t56.5 -23.5t56.5 23.5t23.5 56.5t-23.5 56.5t-56.5 23.5zM360 580q-33 0 -56.5 -23.5t-23.5 -56.5
t23.5 -56.5t56.5 -23.5t56.5 23.5t23.5 56.5t-23.5 56.5t-56.5 23.5zM950 580q-33 0 -56.5 -23.5t-23.5 -56.5t23.5 -56.5t56.5 -23.5t56.5 23.5t23.5 56.5t-23.5 56.5t-56.5 23.5zM730 360q-33 0 -56.5 -23.5t-23.5 -56.5t23.5 -56.5t56.5 -23.5t56.5 23.5t23.5 56.5
t-23.5 56.5t-56.5 23.5zM950 360q-33 0 -56.5 -23.5t-23.5 -56.5t23.5 -56.5t56.5 -23.5t56.5 23.5t23.5 56.5t-23.5 56.5t-56.5 23.5z" />
    <glyph glyph-name="blank" unicode="&#x2423;" 
d="M77 376v-99q0 -17 5 -28t14 -15t14.5 -5t14.5 -1h293q58 0 58 53v95h27v-176h-453v176h27z" />
    <glyph glyph-name="dottedcircle" unicode="&#x25cc;" 
d="M57 526q5 0 9 -4.5t4 -9.5q0 -6 -4 -10t-9 -4t-9 4t-4 10q0 5 4 9.5t9 4.5zM130 590q14 0 14 -14q0 -4 -4.5 -8t-10 -4t-9.5 4t-4 8q0 6 4 10t10 4zM123 257q5 0 9 -4t4 -9q0 -6 -4 -10t-9 -4q-6 0 -10 4t-4 10q0 5 4.5 9t9.5 4zM52 322q12 0 12 -13.5t-12 -13.5
q-6 0 -10 4.5t-4 9.5t4 9t10 4zM322 264q6 0 9.5 -4t3.5 -10q0 -4 -4 -8t-9.5 -4t-9 4t-3.5 8q0 6 3.5 10t9.5 4zM381 330q13 0 13 -12q0 -14 -13 -14t-13 14q0 12 13 12zM381 521q13 0 13 -13t-13 -13t-13 13t13 13zM313 586q6 0 10.5 -4.5t4.5 -10.5q0 -5 -4.5 -9
t-10.5 -4q-5 0 -9 4t-4 9t4 10t9 5zM406 424q6 0 10.5 -4t4.5 -9t-4.5 -9t-10.5 -4q-5 0 -9 4t-4 9t4 9t9 4zM26 429q12 0 12 -14q0 -5 -3.5 -9t-8.5 -4q-14 0 -14 13q0 14 14 14zM230 230q6 0 9.5 -4t3.5 -10t-3.5 -9.5t-9.5 -3.5t-9.5 4t-3.5 9.5t3.5 9.5t9.5 4zM229 616
q5 0 9 -4.5t4 -9.5q0 -13 -13 -13q-5 0 -9.5 4t-4.5 9t4.5 9.5t9.5 4.5z" />
    <glyph glyph-name="uni0E10.descless" unicode="&#xf700;" 
d="M238 64q20 -3 33 -8.5t19 -13t8.5 -18t2.5 -22.5v-68q0 -19 -8.5 -27.5t-18.5 -7.5q-6 1 -11 1.5t-9 5t-8 13.5t-8 27q-2 11 -4 20l-3 10q-4 -2 -9 -4q-4 -1 -8 -1.5t-9 -0.5q-11 3 -19 11t-6 22q0 12 9.5 20.5t25.5 7.5q14 -1 20 -10t9 -18q2 -9 3 -15t2 -11.5t2 -12
t3 -14.5q4 -18 7.5 -26.5t10.5 -9.5q12 -2 12 19v69q0 10 -2 18t-8 14t-15.5 10t-24.5 6q-10 2 -21 2.5t-21 1t-16 0.5h-7q0 4 2.5 10t7.5 13t12.5 13t18.5 8q12 3 21.5 2.5t18 -2.5t16.5 -4t18 -4q6 0 10 1t6 3q4 2 6 4l10 -12l-6 -5l-20 -6q-7 0 -14.5 1.5t-16.5 4t-18 4
t-19 1.5q-8 -1 -14 -3.5t-9 -5.5t-5 -6t-3 -3q1 0 14 -0.5t33 -3.5zM210 18q-8 0 -12.5 -5.5t-4.5 -12t4.5 -11.5t12.5 -5q9 0 13.5 5t4.5 11.5t-4.5 12t-13.5 5.5z" />
    <glyph glyph-name="uni0E34.left" unicode="&#xf701;" 
d="M188 142q16 0 28 -7t21 -16t13.5 -20t5.5 -21q-9 4 -20 7q-10 3 -23 5t-29 4q-12 0 -24 -0.5t-20.5 -1t-14 -1.5l-5.5 -1l2 9t9 18.5t20 17.5t37 7zM184 128q-13 0 -21.5 -3t-13.5 -8t-7 -9l-2 -4q6 1 13 2h13.5h17.5q12 0 21.5 -1t16.5 -3t13 -4q-4 8 -11 14
q-6 6 -16 11t-24 5zM78 800q-33 0 -56.5 -23.5t-23.5 -56.5t23.5 -56.5t56.5 -23.5t56.5 23.5t23.5 56.5t-23.5 56.5t-56.5 23.5zM78 580q-33 0 -56.5 -23.5t-23.5 -56.5t23.5 -56.5t56.5 -23.5t56.5 23.5t23.5 56.5t-23.5 56.5t-56.5 23.5z" />
    <glyph glyph-name="uni0E35.left" unicode="&#xf702;" 
d="M170 141q18 3 31 0t22 -8t13 -10t6 -7v52h16v-90q-8 4 -19 7q-9 3 -22.5 5t-29.5 4q-13 0 -24 -0.5t-20 -1t-14 -1.5t-6 -1l1.5 7t6.5 16t14 17t25 11zM186 128q-12 0 -20 -3t-13 -8t-7 -9l-2 -4q5 1 12 2h14h17q12 0 21.5 -1t15.5 -3q8 -2 14 -4q-4 8 -11 14
q-6 6 -16 11t-25 5zM78 580q-33 0 -56.5 -23.5t-23.5 -56.5t23.5 -56.5t56.5 -23.5t56.5 23.5t23.5 56.5t-23.5 56.5t-56.5 23.5zM78 360q-33 0 -56.5 -23.5t-23.5 -56.5t23.5 -56.5t56.5 -23.5t56.5 23.5t23.5 56.5t-23.5 56.5t-56.5 23.5z" />
    <glyph glyph-name="uni0E36.left" unicode="&#xf703;" 
d="M256 78q-9 4 -20 8q-10 2 -23 4.5t-29 3.5h-24t-20.5 -1t-14 -2l-5.5 -1q0 1 1 6t4 12.5t9.5 14.5t17.5 13q10 4 19.5 5.5t16.5 0.5q10 0 18 -2l-0.5 6t6.5 14q3 6 9 8t12.5 2.5t12.5 -1.5t10 -7q8 -8 9 -19.5t-7 -20.5q-4 -4 -9.5 -6.5t-6.5 -2.5q2 -1 3 -3l2.5 -5
l2.5 -5q4 -8 5 -15zM235 158q-9 0 -13 -5t-4 -11t4 -11.5t13 -5.5t13 5.5t4 11.5t-4 11t-13 5zM184 129q-13 0 -21.5 -3.5t-13.5 -8t-7 -8.5l-2 -4q6 1 13 1q6 0 13.5 0.5t17.5 0.5q12 -1 21.5 -2t16.5 -3t13 -4q-4 8 -11 15q-6 5 -16 10t-24 6zM298 800q-33 0 -56.5 -23.5
t-23.5 -56.5t23.5 -56.5t56.5 -23.5t56.5 23.5t23.5 56.5t-23.5 56.5t-56.5 23.5zM78 580q-33 0 -56.5 -23.5t-23.5 -56.5t23.5 -56.5t56.5 -23.5t56.5 23.5t23.5 56.5t-23.5 56.5t-56.5 23.5zM298 360q-33 0 -56.5 -23.5t-23.5 -56.5t23.5 -56.5t56.5 -23.5t56.5 23.5
t23.5 56.5t-23.5 56.5t-56.5 23.5z" />
    <glyph glyph-name="uni0E37.left" unicode="&#xf704;" 
d="M158 136q9 4 19.5 5t18.5 0.5t13 -1.5l5 -2v26h16v-34l14 -12v46h16v-76l2 -10q-9 4 -20 7q-10 3 -23 5t-29 4q-12 0 -24 -0.5t-20.5 -1t-14 -1.5l-5.5 -1l1 5t4 12t9 15t18 14zM190 128q-13 0 -21.5 -3t-13.5 -8t-7 -9l-2 -4q6 1 13 2h13.5h17.5q12 0 21.5 -1t16.5 -3
t13 -4q-4 8 -11 14q-6 6 -16 11t-24 5zM78 580q-33 0 -56.5 -23.5t-23.5 -56.5t23.5 -56.5t56.5 -23.5t56.5 23.5t23.5 56.5t-23.5 56.5t-56.5 23.5zM298 360q-33 0 -56.5 -23.5t-23.5 -56.5t23.5 -56.5t56.5 -23.5t56.5 23.5t23.5 56.5t-23.5 56.5t-56.5 23.5z" />
    <glyph glyph-name="uni0E48.low_left" unicode="&#xf705;" 
d="M182 156v-70h-16v70h16z" />
    <glyph glyph-name="uni0E49.low_left" unicode="&#xf706;" 
d="M100 122q-4 -1 -9 -1q-4 0 -8.5 1t-8.5 4q-6 3 -9 9t-3 13t2 13t8 10q5 5 11.5 6.5t13 0.5t12 -4t7.5 -7q7 -10 6.5 -21t-5.5 -23q-3 -8 -7 -13.5t-10 -10.5h4l9 1l11 3l12 4q10 4 19 10t15 20q2 6 3.5 12.5t2.5 11.5q0 6 -1 11h17q2 -13 -2 -29t-18 -30q-10 -10 -19 -15
t-23 -9q-12 -2 -22 -3t-18 -1h-12.5h-5.5v10q3 0 6 2q6 4 12 10t8 10t2 5zM92 166q-8 0 -12.5 -5.5t-4.5 -11.5t4.5 -11t12.5 -5t12.5 5t4.5 11t-4.5 11.5t-12.5 5.5z" />
    <glyph glyph-name="uni0E4A.low_left" unicode="&#xf707;" 
d="M52 127q3 1 7 3h6t8 -2q6 -2 9.5 -7.5t4 -11.5t-1.5 -11.5t-8 -9.5q-4 -2 -10 -3t-11 0t-10 5t-7 10q-3 12 -1.5 21t3.5 18t10 15.5t15 6t12.5 -5.5t6.5 -9q1 4 7.5 9t13.5 5q9 0 15 -9t6 -20t-2 -18t-6 -11q4 0 8 2l6 4t6 6q4 9 5 16.5t3 16.5q2 11 5 17q2 2 3 4l13 -7
l-3 -3q-2 -3 -3 -6.5l-3 -10.5q-1 -11 -3.5 -22t-12.5 -20t-23.5 -11.5t-20.5 -1.5v9q3 1 5 5q2 2 4.5 7t3.5 12q2 11 -0.5 19t-8.5 10q-6 0 -9 -5.5t-3 -7.5h-10q0 1 -4 6t-10 7q-4 0 -7 -2.5t-5 -6t-2.5 -7.5t-0.5 -5zM63 120q-6 0 -9.5 -4t-3.5 -9t3.5 -9t9.5 -4t9 4t3 9
t-3 9t-9 4z" />
    <glyph glyph-name="uni0E4B.low_left" unicode="&#xf708;" 
d="M140 76h-33v14h33v36h18v-36h32v-14h-33v-34h-17v34z" />
    <glyph glyph-name="uni0E4C.low_left" unicode="&#xf709;" 
d="M205 144h4t9 -1.5t10 -5.5t7 -13q4 -14 -3 -26t-24 -13q-7 -1 -13.5 2t-11 8t-7 12t-1.5 15q0 14 9 24.5t20 15.5q7 4 13.5 5t12.5 2t11.5 1t10.5 3q9 5 10.5 10.5t1.5 6.5h17v-4l-2 -7l-4 -9l-10 -8q-10 -4 -20 -5t-23 -3q-5 0 -8.5 -2t-5.5 -4t-3 -4zM206 132
q-9 0 -13 -5t-4 -11.5t4 -12t13 -5.5t13 5.5t4 12t-4 11.5t-13 5z" />
    <glyph glyph-name="uni0E48.low" unicode="&#xf70a;" 
d="M270 156v-70h-16v70h16z" />
    <glyph glyph-name="uni0E49.low" unicode="&#xf70b;" 
d="M218 123q-4 -1 -9 -1q-4 0 -8.5 1t-8.5 4q-6 3 -9 9t-3 13t2 13t8 10q5 5 11.5 6.5t13 0.5t12 -4t7.5 -7q7 -10 6.5 -21t-5.5 -23q-3 -8 -7 -13.5t-10 -10.5h4l9 1l11 3l12 4q10 4 19 10t15 20q2 6 3.5 12.5t2.5 11.5q0 6 -1 11h17q2 -13 -2 -29t-18 -30q-10 -10 -19 -15
t-23 -9q-12 -2 -22 -3t-18 -1h-12.5h-5.5v10q3 0 6 2q6 4 12 10t8 10t2 5zM210 167q-8 0 -12.5 -5.5t-4.5 -11.5t4.5 -11t12.5 -5t12.5 5t4.5 11t-4.5 11.5t-12.5 5.5z" />
    <glyph glyph-name="uni0E4A.low" unicode="&#xf70c;" 
d="M175 127q3 1 7 3h6t8 -2q6 -2 9.5 -7.5t4 -11.5t-1.5 -11.5t-8 -9.5q-4 -2 -10 -3t-11 0t-10 5t-7 10q-3 12 -1.5 21t3.5 18t10 15.5t15 6t12.5 -5.5t6.5 -9q1 4 7.5 9t13.5 5q9 0 15 -9t6 -20t-2 -18t-6 -11q4 0 8 2l6 4t6 6q4 9 5 16.5t3 16.5q2 11 5 17q2 2 3 4l13 -7
l-3 -3q-2 -3 -3 -6.5l-3 -10.5q-1 -11 -3.5 -22t-12.5 -20t-23.5 -11.5t-20.5 -1.5v9q3 1 5 5q2 2 4.5 7t3.5 12q2 11 -0.5 19t-8.5 10q-6 0 -9 -5.5t-3 -7.5h-10q0 1 -4 6t-10 7q-4 0 -7 -2.5t-5 -6t-2.5 -7.5t-0.5 -5zM186 120q-6 0 -9.5 -4t-3.5 -9t3.5 -9t9.5 -4t9 4
t3 9t-3 9t-9 4z" />
    <glyph glyph-name="uni0E4B.low" unicode="&#xf70d;" 
d="M252 120h-33v14h33v36h18v-36h32v-14h-33v-34h-17v34z" />
    <glyph glyph-name="uni0E4C.low" unicode="&#xf70e;" 
d="M244 144h4t9 -1.5t10 -5.5t7 -13q4 -14 -3 -26t-24 -13q-7 -1 -13.5 2t-11 8t-7 12t-1.5 15q0 14 9 24.5t20 15.5q7 4 13.5 5t12.5 2t11.5 1t10.5 3q9 5 10.5 10.5t1.5 6.5h17v-4l-2 -7l-4 -9l-10 -8q-10 -4 -20 -5t-23 -3q-5 0 -8.5 -2t-5.5 -4t-3 -4zM245 132
q-9 0 -13 -5t-4 -11.5t4 -12t13 -5.5t13 5.5t4 12t-4 11.5t-13 5z" />
    <glyph glyph-name="uni0E0D.descless" unicode="&#xf70f;" 
d="M335 -84q4 0 7 0.5t7 3.5q3 2 3.5 5.5t0.5 7.5v167h16v-167q0 -7 -1 -13.5t-7 -11.5q-10 -8 -22 -8h-68v16h13v124q0 19 -13.5 32.5t-44.5 13.5q-13 0 -23 -2t-16 -5t-10 -8l5 -3l11 -6l11 -10q3 -2 5 -4l-3 -1l-7 -2l-9 -5l-8 -8q-3 -6 -4 -12t-1 -10v-52q2 1 6 2
q2 1 6 1.5t8 -0.5q12 -2 19 -10.5t7 -22.5q0 -12 -10 -21t-25 -7q-9 1 -15 5.5t-9 9.5t-4 11t-1 11v75q0 7 1 11.5t5 10.5q2 6 5 9t7 5q2 2 6 2l-4 4l-5 3l-8 3q-7 4 -13 5t-7 1q7 10 18 18q9 6 24 11.5t37 5.5q37 0 56.5 -16.5t19.5 -43.5v-125h34zM192 -86q9 0 13 5t4 12
t-4 12t-13 5t-13 -5t-4 -12t4 -12t13 -5z" />
    <glyph glyph-name="uni0E31.left" unicode="&#xf710;" 
d="M206 64q14 3 23.5 8.5t16.5 15.5q8 10 9 21l1 11h17l-0.5 -4.5t-2 -11t-5 -14.5t-10.5 -16q-12 -12 -28.5 -18t-36.5 -7q-28 -1 -48 6t-22 26q-1 6 0.5 11.5t4.5 10.5t9 8t14 3q18 1 25.5 -8.5t6.5 -22.5q-1 -10 -5.5 -14.5l-4.5 -4.5q1 0 10 -1t26 1zM150 102
q-8 0 -12.5 -5t-4.5 -11.5t4.5 -12t12.5 -5.5t12.5 5.5t4.5 12t-4.5 11.5t-12.5 5zM298 800q-33 0 -56.5 -23.5t-23.5 -56.5t23.5 -56.5t56.5 -23.5t56.5 23.5t23.5 56.5t-23.5 56.5t-56.5 23.5zM298 580q-33 0 -56.5 -23.5t-23.5 -56.5t23.5 -56.5t56.5 -23.5t56.5 23.5
t23.5 56.5t-23.5 56.5t-56.5 23.5zM78 360q-33 0 -56.5 -23.5t-23.5 -56.5t23.5 -56.5t56.5 -23.5t56.5 23.5t23.5 56.5t-23.5 56.5t-56.5 23.5z" />
    <glyph glyph-name="uni0E4D.left" unicode="&#xf711;" 
d="M140 84q-16 0 -24 10t-8 21.5t8 21.5t24 10t24 -10t8 -21.5t-8 -21.5t-24 -10zM139.5 133q-8.5 0 -13 -5.5t-4.5 -12t4.5 -11.5t13 -5t12.5 5t4 11.5t-4 12t-12.5 5.5zM260 577q-33 0 -56.5 -23.5t-23.5 -56.5t23.5 -56.5t56.5 -23.5t56.5 23.5t23.5 56.5t-23.5 56.5
t-56.5 23.5zM40 357q-33 0 -56.5 -23.5t-23.5 -56.5t23.5 -56.5t56.5 -23.5t56.5 23.5t23.5 56.5t-23.5 56.5t-56.5 23.5zM260 357q-33 0 -56.5 -23.5t-23.5 -56.5t23.5 -56.5t56.5 -23.5t56.5 23.5t23.5 56.5t-23.5 56.5t-56.5 23.5z" />
    <glyph glyph-name="uni0E47.left" unicode="&#xf712;" 
d="M223 109l-1 5t3 13q6 8 17 10t20 -4t10 -18t-7 -21t-19.5 -8t-22.5 5q-5 2 -9.5 6t-8.5 6l-8 8q-1 0 -3 -3t-5 -7q-2 -5 -3 -9.5l-1 -4.5h-12l-3 1t-6.5 5t-7 10.5t-3.5 16.5q-2 16 6 28.5t19 16.5q9 4 17.5 4.5t17.5 0t18.5 -0.5t19.5 2q6 2 11 5t7 6l4 6l2 3l12 -10
l-1 -3t-4 -6.5t-9 -7t-14 -5.5q-10 -3 -20 -3.5t-19 0t-17 0t-14 -1.5q-9 -3 -14.5 -10t-5.5 -16q0 -7 1 -12t2 -8t3 -4l2 -1l1 4t5 11t10 9q2 2 5 4q1 -2 3 -4q1 -2 3.5 -5t4.5 -5q4 -4 8 -6t6 -2zM247 126q-7 0 -10.5 -4.5t-3.5 -9.5t3 -9t11 -4q6 0 9.5 4t4 9t-3.5 9.5
t-10 4.5zM89 359q-33 0 -56.5 -23.5t-23.5 -56.5t23.5 -56.5t56.5 -23.5t56.5 23.5t23.5 56.5t-23.5 56.5t-56.5 23.5z" />
    <glyph glyph-name="uni0E48.left" unicode="&#xf713;" 
d="M209 155v-70h-16v70h16zM299 579q-33 0 -56.5 -23.5t-23.5 -56.5t23.5 -56.5t56.5 -23.5t56.5 23.5t23.5 56.5t-23.5 56.5t-56.5 23.5zM79 359q-33 0 -56.5 -23.5t-23.5 -56.5t23.5 -56.5t56.5 -23.5t56.5 23.5t23.5 56.5t-23.5 56.5t-56.5 23.5z" />
    <glyph glyph-name="uni0E49.left" unicode="&#xf714;" 
d="M208 112q-4 -1 -9 -1q-4 0 -8.5 1t-8.5 4q-6 3 -9 9t-3 13t2 13t8 10q5 5 11.5 6.5t13 0.5t12 -4t7.5 -7q7 -10 6.5 -21t-5.5 -23q-3 -8 -7 -13.5t-10 -10.5h4l9 1l11 3l12 4q10 4 19 10t15 20q2 6 3.5 12.5t2.5 11.5q0 6 -1 11h17q2 -13 -2 -29t-18 -30q-10 -10 -19 -15
t-23 -9q-12 -2 -22 -3t-18 -1h-12.5h-5.5v10q3 0 6 2q6 4 12 10t8 10t2 5zM200 156q-8 0 -12.5 -5.5t-4.5 -11.5t4.5 -11t12.5 -5t12.5 5t4.5 11t-4.5 11.5t-12.5 5.5zM130 569q-33 0 -56.5 -23.5t-23.5 -56.5t23.5 -56.5t56.5 -23.5t56.5 23.5t23.5 56.5t-23.5 56.5
t-56.5 23.5zM350 569q-33 0 -56.5 -23.5t-23.5 -56.5t23.5 -56.5t56.5 -23.5t56.5 23.5t23.5 56.5t-23.5 56.5t-56.5 23.5zM350 349q-33 0 -56.5 -23.5t-23.5 -56.5t23.5 -56.5t56.5 -23.5t56.5 23.5t23.5 56.5t-23.5 56.5t-56.5 23.5z" />
    <glyph glyph-name="uni0E4A.left" unicode="&#xf715;" 
d="M179 116q3 1 7 3h6t8 -2q6 -2 9.5 -7.5t4 -11.5t-1.5 -11.5t-8 -9.5q-4 -2 -10 -3t-11 0t-10 5t-7 10q-3 12 -1.5 21t3.5 18t10 15.5t15 6t12.5 -5.5t6.5 -9q1 4 7.5 9t13.5 5q9 0 15 -9t6 -20t-2 -18t-6 -11q4 0 8 2l6 4t6 6q4 9 5 16.5t3 16.5q2 11 5 17q2 2 3 4l13 -7
l-3 -3q-2 -3 -3 -6.5l-3 -10.5q-1 -11 -3.5 -22t-12.5 -20t-23.5 -11.5t-20.5 -1.5v9q3 1 5 5q2 2 4.5 7t3.5 12q2 11 -0.5 19t-8.5 10q-6 0 -9 -5.5t-3 -7.5h-10q0 1 -4 6t-10 7q-4 0 -7 -2.5t-5 -6t-2.5 -7.5t-0.5 -5zM190 109q-6 0 -9.5 -4t-3.5 -9t3.5 -9t9.5 -4t9 4
t3 9t-3 9t-9 4zM144 569q-33 0 -56.5 -23.5t-23.5 -56.5t23.5 -56.5t56.5 -23.5t56.5 23.5t23.5 56.5t-23.5 56.5t-56.5 23.5zM364 569q-33 0 -56.5 -23.5t-23.5 -56.5t23.5 -56.5t56.5 -23.5t56.5 23.5t23.5 56.5t-23.5 56.5t-56.5 23.5zM144 349q-33 0 -56.5 -23.5
t-23.5 -56.5t23.5 -56.5t56.5 -23.5t56.5 23.5t23.5 56.5t-23.5 56.5t-56.5 23.5zM364 349q-33 0 -56.5 -23.5t-23.5 -56.5t23.5 -56.5t56.5 -23.5t56.5 23.5t23.5 56.5t-23.5 56.5t-56.5 23.5z" />
    <glyph glyph-name="uni0E4B.left" unicode="&#xf716;" 
d="M188 109h-33v14h33v36h18v-36h32v-14h-33v-34h-17v34zM76 569q-33 0 -56.5 -23.5t-23.5 -56.5t23.5 -56.5t56.5 -23.5t56.5 23.5t23.5 56.5t-23.5 56.5t-56.5 23.5zM76 349q-33 0 -56.5 -23.5t-23.5 -56.5t23.5 -56.5t56.5 -23.5t56.5 23.5t23.5 56.5t-23.5 56.5
t-56.5 23.5zM296 349q-33 0 -56.5 -23.5t-23.5 -56.5t23.5 -56.5t56.5 -23.5t56.5 23.5t23.5 56.5t-23.5 56.5t-56.5 23.5z" />
    <glyph glyph-name="uni0E4C.left" unicode="&#xf717;" 
d="M263 146h4t9 -1.5t10 -5.5t7 -13q4 -14 -3 -26t-24 -13q-7 -1 -13.5 2t-11 8t-7 12t-1.5 15q0 14 9 24.5t20 15.5q7 4 13.5 5t12.5 2t11.5 1t10.5 3q9 5 10.5 10.5t1.5 6.5h17v-4l-2 -7l-4 -9l-10 -8q-10 -4 -20 -5t-23 -3q-5 0 -8.5 -2t-5.5 -4t-3 -4zM264 134
q-9 0 -13 -5t-4 -11.5t4 -12t13 -5.5t13 5.5t4 12t-4 11.5t-13 5zM379 582q-33 0 -56.5 -23.5t-23.5 -56.5t23.5 -56.5t56.5 -23.5t56.5 23.5t23.5 56.5t-23.5 56.5t-56.5 23.5zM159 362q-33 0 -56.5 -23.5t-23.5 -56.5t23.5 -56.5t56.5 -23.5t56.5 23.5t23.5 56.5
t-23.5 56.5t-56.5 23.5zM379 362q-33 0 -56.5 -23.5t-23.5 -56.5t23.5 -56.5t56.5 -23.5t56.5 23.5t23.5 56.5t-23.5 56.5t-56.5 23.5z" />
    <glyph glyph-name="uni0E38.low" unicode="&#xf718;" 
d="M306 -268q-3 -2 -6 -2q-6 -2 -14 -1q-10 2 -16.5 9.5t-5.5 19.5q0 11 8.5 18.5t23.5 7.5q8 -2 13 -5t8 -8t4 -11t1 -10v-60h-16v42zM292 -228q-8 0 -12 -5t-4 -11t4 -11t12 -5t12 5t4 11t-4 11t-12 5zM142 654q-33 0 -56.5 -23.5t-23.5 -56.5t23.5 -56.5t56.5 -23.5
t56.5 23.5t23.5 56.5t-23.5 56.5t-56.5 23.5zM362 654q-33 0 -56.5 -23.5t-23.5 -56.5t23.5 -56.5t56.5 -23.5t56.5 23.5t23.5 56.5t-23.5 56.5t-56.5 23.5z" />
    <glyph glyph-name="uni0E39.low" unicode="&#xf719;" 
d="M257 -266q-3 -2 -5 -2q-7 -2 -14 -1q-10 2 -17 9.5t-6 19.5q1 11 9 18.5t23 7.5q9 -2 14 -5t8 -8t4 -11t1 -10v-40h31v74h17v-88h-65v36zM243.5 -226q-7.5 0 -11.5 -5t-4 -11t4 -11t11.5 -5t11.5 5t4 11t-4 11t-11.5 5zM142 434q-33 0 -56.5 -23.5t-23.5 -56.5
t23.5 -56.5t56.5 -23.5t56.5 23.5t23.5 56.5t-23.5 56.5t-56.5 23.5zM362 434q-33 0 -56.5 -23.5t-23.5 -56.5t23.5 -56.5t56.5 -23.5t56.5 23.5t23.5 56.5t-23.5 56.5t-56.5 23.5z" />
    <glyph glyph-name="uni0E3A.low" unicode="&#xf71a;" 
d="M308.5 -249q-7.5 0 -11 4.5t-3.5 10.5t3.5 10.5t11 4.5t11.5 -4.5t4 -10.5t-4 -10.5t-11.5 -4.5zM142 434q-33 0 -56.5 -23.5t-23.5 -56.5t23.5 -56.5t56.5 -23.5t56.5 23.5t23.5 56.5t-23.5 56.5t-56.5 23.5zM362 434q-33 0 -56.5 -23.5t-23.5 -56.5t23.5 -56.5
t56.5 -23.5t56.5 23.5t23.5 56.5t-23.5 56.5t-56.5 23.5zM362 214q-33 0 -56.5 -23.5t-23.5 -56.5t23.5 -56.5t56.5 -23.5t56.5 23.5t23.5 56.5t-23.5 56.5t-56.5 23.5z" />
    <glyph glyph-name="uniF71B" unicode="&#xf71b;" 
d="M16 606v-390h242v390h-242zM274 200h-274v423h274v-423z" />
    <glyph glyph-name="uni0E4D.high" unicode="&#xf71e;" horiz-adv-x="90" 
d="M-250 1040q-29 0 -49.5 -20.5t-20.5 -49.5t20.5 -49.5t49.5 -20.5t49.5 20.5t20.5 49.5t-20.5 49.5t-49.5 20.5zM-250 1000q13 0 21.5 -8.5t8.5 -21.5t-8.5 -21.5t-21.5 -8.5t-21.5 8.5t-8.5 21.5t8.5 21.5t21.5 8.5z" />
    <glyph glyph-name="uni0E47.high" unicode="&#xf71f;" 
d="M229.199 384.043l-0.910156 4.54785q-0.90918 4.54785 2.72852 11.8232q5.45703 7.27539 15.4619 9.09473q10.0039 1.81934 18.1895 -3.6377t9.09473 -16.3711t-6.36621 -19.0986q-7.27637 -8.18555 -17.7354 -7.27637q-10.459 0.910156 -20.4629 4.54785
q-4.54785 1.81836 -8.64062 5.45703q-4.09277 3.6377 -7.73047 5.45605q-3.6377 3.63867 -7.27539 7.27637q-0.910156 0 -2.72852 -2.72852q-1.81934 -2.72852 -4.54785 -6.36621q-1.81934 -4.54785 -2.72852 -8.64062l-0.90918 -4.0918h-10.9141l-2.72852 0.90918
t-5.91113 4.54688q-3.18359 3.63867 -6.36719 9.5498q-3.18262 5.91211 -3.18262 15.0068q-1.81934 14.5518 5.45703 25.9199q7.27539 11.3691 17.2803 15.0068q8.18457 3.6377 15.916 4.09277q7.73047 0.454102 15.915 0q8.18555 -0.455078 16.8262 -0.455078
q8.63965 0 17.7344 1.81934q5.45703 1.81836 10.0049 4.54688q4.54688 2.72852 6.36621 5.45703t3.6377 5.45703l1.81934 2.72852l10.9141 -9.09473l-0.910156 -2.72852q-0.90918 -2.72852 -3.6377 -5.91211q-2.72852 -3.18262 -8.18555 -6.36621
q-5.45703 -3.18262 -12.7324 -5.00195q-9.09473 -2.72852 -18.1895 -3.18359q-9.09473 -0.454102 -17.2803 0q-8.18555 0.455078 -15.4619 0q-7.27539 -0.454102 -12.7324 -1.36426q-8.18555 -2.72754 -13.1875 -9.09473q-5.00195 -6.36621 -5.00195 -14.5518
q0 -6.36621 0.90918 -10.9131q0.90918 -4.54785 1.81934 -7.27637q0.90918 -2.72852 2.72852 -3.6377l1.81836 -0.910156l0.910156 3.63867q0.90918 3.6377 4.54688 10.0039t9.09473 8.18555q1.81934 1.81934 4.54785 3.6377q0.90918 -1.81836 2.72852 -3.6377
q0.90918 -1.81934 3.18262 -4.54785q2.27441 -2.72754 4.09277 -4.54688q3.6377 -3.6377 7.27637 -5.45703q3.6377 -1.81934 5.45703 -1.81934zM251.026 399.505q-6.36621 0 -9.5498 -4.09277q-3.18262 -4.09277 -3.18262 -8.64062q0 -4.54688 2.72852 -8.18555
q2.72852 -3.6377 10.0039 -3.6377q5.45703 0 8.64062 3.6377q3.18262 3.63867 3.6377 8.18555q0.455078 4.54785 -3.18359 8.64062q-3.6377 4.09277 -9.09473 4.09277zM107.328 611.414q-30.0137 0 -51.3857 -21.3721q-21.373 -21.373 -21.373 -51.3857
q0 -30.0137 21.373 -51.3867q21.3721 -21.373 51.3857 -21.373q30.0127 0 51.3857 21.373t21.373 51.3867q0 30.0127 -21.373 51.3857q-21.373 21.3721 -51.3857 21.3721z" />
    <glyph glyph-name="uniF721" unicode="&#xf721;" 
d="M379 -100h-27l-30 78h-114l-31 -78h-25l100 250h27zM266 126l-51 -128h101zM140 800q-33 0 -56.5 -23.5t-23.5 -56.5t23.5 -56.5t56.5 -23.5t56.5 23.5t23.5 56.5t-23.5 56.5t-56.5 23.5z" />
    <glyph glyph-name="uniF722" unicode="&#xf722;" 
d="M274 150q20 0 32 -2t22 -8q15 -8 23.5 -22t8.5 -30q0 -21 -12 -36t-32 -20q8 -2 14 -4t11 -4q13 -9 21 -22.5t8 -29.5q0 -22 -11 -38t-30 -26q-18 -8 -49 -8h-106v250h100zM198 39h66q16 0 26 1t18 4q12 5 20 15.5t8 24.5q0 29 -26 40q-7 3 -16.5 4t-23.5 1h-72v-90z
M198 -80h74q20 0 32 2.5t20 7.5q22 14 22 42q0 25 -18.5 36.5t-57.5 11.5h-72v-100zM140 800q-33 0 -56.5 -23.5t-23.5 -56.5t23.5 -56.5t56.5 -23.5t56.5 23.5t23.5 56.5t-23.5 56.5t-56.5 23.5zM140 580q-33 0 -56.5 -23.5t-23.5 -56.5t23.5 -56.5t56.5 -23.5t56.5 23.5
t23.5 56.5t-23.5 56.5t-56.5 23.5z" />
    <glyph glyph-name="uniF723" unicode="&#xf723;" 
d="M386 -4q-3 -24 -11.5 -42t-22.5 -31.5t-33 -21t-41 -7.5q-26 0 -47 9.5t-36 26.5t-23.5 41t-8.5 53.5t8.5 53.5t23.5 41t37 27t48 10q50 0 80 -33q10 -11 15 -23t7 -25h-24q-6 28 -27 44.5t-52 16.5q-21 0 -38 -8t-29 -23t-18.5 -35t-6.5 -45t6.5 -45.5t18.5 -35t29 -22
t37 -7.5q36 0 57.5 21t26.5 60h24zM140 800q-33 0 -56.5 -23.5t-23.5 -56.5t23.5 -56.5t56.5 -23.5t56.5 23.5t23.5 56.5t-23.5 56.5t-56.5 23.5zM360 800q-33 0 -56.5 -23.5t-23.5 -56.5t23.5 -56.5t56.5 -23.5t56.5 23.5t23.5 56.5t-23.5 56.5t-56.5 23.5z" />
    <glyph glyph-name="uniF724" unicode="&#xf724;" 
d="M260 150q30 0 52 -9t36 -24.5t21 -38t7 -48.5q0 -29 -7 -53t-21 -41t-35 -26.5t-51 -9.5h-88v250h86zM198 -80h59q27 0 45 8t29 22t16 34t5 44q0 48 -22 74.5t-70 26.5h-62v-209zM140 800q-33 0 -56.5 -23.5t-23.5 -56.5t23.5 -56.5t56.5 -23.5t56.5 23.5t23.5 56.5
t-23.5 56.5t-56.5 23.5zM360 800q-33 0 -56.5 -23.5t-23.5 -56.5t23.5 -56.5t56.5 -23.5t56.5 23.5t23.5 56.5t-23.5 56.5t-56.5 23.5zM360 580q-33 0 -56.5 -23.5t-23.5 -56.5t23.5 -56.5t56.5 -23.5t56.5 23.5t23.5 56.5t-23.5 56.5t-56.5 23.5z" />
    <glyph glyph-name="uniF725" unicode="&#xf725;" 
d="M348 129h-150v-89h140v-20h-140v-100h151v-20h-175v250h174v-21zM140 800q-33 0 -56.5 -23.5t-23.5 -56.5t23.5 -56.5t56.5 -23.5t56.5 23.5t23.5 56.5t-23.5 56.5t-56.5 23.5zM360 580q-33 0 -56.5 -23.5t-23.5 -56.5t23.5 -56.5t56.5 -23.5t56.5 23.5t23.5 56.5
t-23.5 56.5t-56.5 23.5z" />
    <glyph glyph-name="uniF726" unicode="&#xf726;" 
d="M334 129h-136v-89h120v-20h-120v-120h-24v250h160v-21zM140 800q-33 0 -56.5 -23.5t-23.5 -56.5t23.5 -56.5t56.5 -23.5t56.5 23.5t23.5 56.5t-23.5 56.5t-56.5 23.5zM360 800q-33 0 -56.5 -23.5t-23.5 -56.5t23.5 -56.5t56.5 -23.5t56.5 23.5t23.5 56.5t-23.5 56.5
t-56.5 23.5zM140 580q-33 0 -56.5 -23.5t-23.5 -56.5t23.5 -56.5t56.5 -23.5t56.5 23.5t23.5 56.5t-23.5 56.5t-56.5 23.5z" />
    <glyph glyph-name="uniF727" unicode="&#xf727;" 
d="M390 -100h-16l-5 46q-11 -24 -34 -38t-55 -14q-26 0 -47.5 9.5t-37 26.5t-24 40.5t-8.5 52.5t8.5 54t24.5 42t38 27t48 10q50 0 79 -32q11 -11 17 -23t8 -28h-24q-2 14 -9 25.5t-17.5 19.5t-24 13t-29.5 5q-22 0 -39 -8t-30 -23t-19.5 -36t-6.5 -45q0 -25 6.5 -45
t19.5 -34.5t30 -22t39 -7.5q26 0 46.5 12t30.5 33q5 11 7 22t2 26h-85v19h107v-127zM140 800q-33 0 -56.5 -23.5t-23.5 -56.5t23.5 -56.5t56.5 -23.5t56.5 23.5t23.5 56.5t-23.5 56.5t-56.5 23.5zM360 800q-33 0 -56.5 -23.5t-23.5 -56.5t23.5 -56.5t56.5 -23.5t56.5 23.5
t23.5 56.5t-23.5 56.5t-56.5 23.5zM140 580q-33 0 -56.5 -23.5t-23.5 -56.5t23.5 -56.5t56.5 -23.5t56.5 23.5t23.5 56.5t-23.5 56.5t-56.5 23.5zM360 580q-33 0 -56.5 -23.5t-23.5 -56.5t23.5 -56.5t56.5 -23.5t56.5 23.5t23.5 56.5t-23.5 56.5t-56.5 23.5z" />
    <glyph glyph-name="uniF728" unicode="&#xf728;" 
d="M371 -100h-23v120h-150v-120h-24v250h24v-108h150v108h23v-250zM140 800q-33 0 -56.5 -23.5t-23.5 -56.5t23.5 -56.5t56.5 -23.5t56.5 23.5t23.5 56.5t-23.5 56.5t-56.5 23.5zM140 580q-33 0 -56.5 -23.5t-23.5 -56.5t23.5 -56.5t56.5 -23.5t56.5 23.5t23.5 56.5
t-23.5 56.5t-56.5 23.5zM360 580q-33 0 -56.5 -23.5t-23.5 -56.5t23.5 -56.5t56.5 -23.5t56.5 23.5t23.5 56.5t-23.5 56.5t-56.5 23.5z" />
    <glyph glyph-name="uniF729" unicode="&#xf729;" 
d="M248 -100h-24v250h24v-250zM360 800q-33 0 -56.5 -23.5t-23.5 -56.5t23.5 -56.5t56.5 -23.5t56.5 23.5t23.5 56.5t-23.5 56.5t-56.5 23.5zM140 580q-33 0 -56.5 -23.5t-23.5 -56.5t23.5 -56.5t56.5 -23.5t56.5 23.5t23.5 56.5t-23.5 56.5t-56.5 23.5z" />
    <glyph glyph-name="uniF72A" unicode="&#xf72a;" 
d="M293 -26q0 -20 -2.5 -32t-8.5 -22q-6 -9 -12 -13.5t-18 -6.5q-8 -2 -16 -3t-16 -1q-22 0 -39 9t-24 25q-7 15 -7 44v9h24v-14v-7v-6l2 -5q6 -35 46 -35q28 0 39 18q4 6 6.5 16t2.5 26v176h23v-178zM360 800q-33 0 -56.5 -23.5t-23.5 -56.5t23.5 -56.5t56.5 -23.5
t56.5 23.5t23.5 56.5t-23.5 56.5t-56.5 23.5zM140 580q-33 0 -56.5 -23.5t-23.5 -56.5t23.5 -56.5t56.5 -23.5t56.5 23.5t23.5 56.5t-23.5 56.5t-56.5 23.5zM360 580q-33 0 -56.5 -23.5t-23.5 -56.5t23.5 -56.5t56.5 -23.5t56.5 23.5t23.5 56.5t-23.5 56.5t-56.5 23.5z" />
    <glyph glyph-name="uniF72B" unicode="&#xf72b;" 
d="M262 48l118 -148h-30l-104 132l-48 -44v-88h-24v250h24v-134l144 134h32zM140 800q-33 0 -56.5 -23.5t-23.5 -56.5t23.5 -56.5t56.5 -23.5t56.5 23.5t23.5 56.5t-23.5 56.5t-56.5 23.5zM140 360q-33 0 -56.5 -23.5t-23.5 -56.5t23.5 -56.5t56.5 -23.5t56.5 23.5
t23.5 56.5t-23.5 56.5t-56.5 23.5z" />
    <glyph glyph-name="uniF72C" unicode="&#xf72c;" 
d="M338 -100h-164v250h24v-230h140v-20zM140 800q-33 0 -56.5 -23.5t-23.5 -56.5t23.5 -56.5t56.5 -23.5t56.5 23.5t23.5 56.5t-23.5 56.5t-56.5 23.5zM140 580q-33 0 -56.5 -23.5t-23.5 -56.5t23.5 -56.5t56.5 -23.5t56.5 23.5t23.5 56.5t-23.5 56.5t-56.5 23.5zM140 360
q-33 0 -56.5 -23.5t-23.5 -56.5t23.5 -56.5t56.5 -23.5t56.5 23.5t23.5 56.5t-23.5 56.5t-56.5 23.5z" />
    <glyph glyph-name="uniF72D" unicode="&#xf72d;" 
d="M366 -100h-22v219l-87 -219h-21l-90 215v-215h-22v250h32l90 -220l88 220h32v-250zM140 800q-33 0 -56.5 -23.5t-23.5 -56.5t23.5 -56.5t56.5 -23.5t56.5 23.5t23.5 56.5t-23.5 56.5t-56.5 23.5zM360 800q-33 0 -56.5 -23.5t-23.5 -56.5t23.5 -56.5t56.5 -23.5t56.5 23.5
t23.5 56.5t-23.5 56.5t-56.5 23.5zM140 360q-33 0 -56.5 -23.5t-23.5 -56.5t23.5 -56.5t56.5 -23.5t56.5 23.5t23.5 56.5t-23.5 56.5t-56.5 23.5z" />
    <glyph glyph-name="uniF72E" unicode="&#xf72e;" 
d="M371 -100h-27l-148 213v-213h-22v250h26l148 -214v214h23v-250zM140 800q-33 0 -56.5 -23.5t-23.5 -56.5t23.5 -56.5t56.5 -23.5t56.5 23.5t23.5 56.5t-23.5 56.5t-56.5 23.5zM360 800q-33 0 -56.5 -23.5t-23.5 -56.5t23.5 -56.5t56.5 -23.5t56.5 23.5t23.5 56.5
t-23.5 56.5t-56.5 23.5zM360 580q-33 0 -56.5 -23.5t-23.5 -56.5t23.5 -56.5t56.5 -23.5t56.5 23.5t23.5 56.5t-23.5 56.5t-56.5 23.5zM140 360q-33 0 -56.5 -23.5t-23.5 -56.5t23.5 -56.5t56.5 -23.5t56.5 23.5t23.5 56.5t-23.5 56.5t-56.5 23.5z" />
    <glyph glyph-name="uniF72F" unicode="&#xf72f;" 
d="M282 156q26 0 47 -10t37 -27t24 -41t8 -54q0 -29 -8 -52.5t-24 -41t-37.5 -27t-48 -9.5t-48 9.5t-37 27t-24 41.5t-8.5 53t8.5 53t24.5 41.5t38 27t48 9.5zM280 136q-20 0 -37 -8t-30 -23q-26 -29 -26 -79q0 -25 6.5 -45.5t19 -35t30 -22.5t38.5 -8t38 8t30 22.5
t19.5 34.5t6.5 44q0 26 -6.5 46t-19.5 35t-30.5 23t-38.5 8zM140 800q-33 0 -56.5 -23.5t-23.5 -56.5t23.5 -56.5t56.5 -23.5t56.5 23.5t23.5 56.5t-23.5 56.5t-56.5 23.5zM360 580q-33 0 -56.5 -23.5t-23.5 -56.5t23.5 -56.5t56.5 -23.5t56.5 23.5t23.5 56.5t-23.5 56.5
t-56.5 23.5zM140 360q-33 0 -56.5 -23.5t-23.5 -56.5t23.5 -56.5t56.5 -23.5t56.5 23.5t23.5 56.5t-23.5 56.5t-56.5 23.5z" />
    <glyph glyph-name="uniF730" unicode="&#xf730;" 
d="M274 150q24 0 40 -5t26 -14.5t14.5 -22.5t4.5 -28q0 -34 -20 -53.5t-63 -19.5h-78v-107h-24v250h100zM198 27h72q36 0 51 14.5t15 36.5q0 24 -14.5 37.5t-53.5 13.5h-70v-102zM140 800q-33 0 -56.5 -23.5t-23.5 -56.5t23.5 -56.5t56.5 -23.5t56.5 23.5t23.5 56.5
t-23.5 56.5t-56.5 23.5zM360 800q-33 0 -56.5 -23.5t-23.5 -56.5t23.5 -56.5t56.5 -23.5t56.5 23.5t23.5 56.5t-23.5 56.5t-56.5 23.5zM140 580q-33 0 -56.5 -23.5t-23.5 -56.5t23.5 -56.5t56.5 -23.5t56.5 23.5t23.5 56.5t-23.5 56.5t-56.5 23.5zM140 360
q-33 0 -56.5 -23.5t-23.5 -56.5t23.5 -56.5t56.5 -23.5t56.5 23.5t23.5 56.5t-23.5 56.5t-56.5 23.5z" />
    <glyph glyph-name="uniF731" unicode="&#xf731;" 
d="M386 -116l-40 30q-12 -10 -29.5 -15t-35.5 -5q-27 0 -48 9.5t-37 27t-24.5 41t-8.5 52.5q0 30 8.5 54t24 41t37 27t47.5 10t48 -10t38 -27t24 -41t8 -52q0 -30 -9 -56t-27 -44l35 -27zM344 -61q16 17 23.5 38t7.5 49q0 24 -6.5 44t-19.5 35t-30 23t-38 8t-38.5 -8
t-30 -23t-19 -35t-6.5 -45t6.5 -45.5t19.5 -35t30 -22t39 -7.5q14 0 25 3.5t21 9.5l-34 25l13 15zM140 800q-33 0 -56.5 -23.5t-23.5 -56.5t23.5 -56.5t56.5 -23.5t56.5 23.5t23.5 56.5t-23.5 56.5t-56.5 23.5zM360 800q-33 0 -56.5 -23.5t-23.5 -56.5t23.5 -56.5
t56.5 -23.5t56.5 23.5t23.5 56.5t-23.5 56.5t-56.5 23.5zM140 580q-33 0 -56.5 -23.5t-23.5 -56.5t23.5 -56.5t56.5 -23.5t56.5 23.5t23.5 56.5t-23.5 56.5t-56.5 23.5zM360 580q-33 0 -56.5 -23.5t-23.5 -56.5t23.5 -56.5t56.5 -23.5t56.5 23.5t23.5 56.5t-23.5 56.5
t-56.5 23.5zM140 360q-33 0 -56.5 -23.5t-23.5 -56.5t23.5 -56.5t56.5 -23.5t56.5 23.5t23.5 56.5t-23.5 56.5t-56.5 23.5z" />
    <glyph glyph-name="uniF732" unicode="&#xf732;" 
d="M284 150q17 0 29.5 -2.5t22.5 -8.5q28 -19 28 -55q0 -26 -12.5 -42t-35.5 -22q11 -2 18.5 -5.5t13.5 -10.5q4 -6 6 -10t3 -10t2 -15.5t2 -26.5q1 -19 3 -27.5t8 -14.5h-28q-4 6 -6 34q0 16 -1 26.5t-3 17.5t-4.5 11.5t-6.5 8.5q-7 8 -19 11t-34 3h-72v-112h-24v250h110z
M198 30h70q18 0 30.5 2.5t21.5 7.5q20 12 20 41t-24 41q-6 4 -16 5.5t-24 1.5h-78v-99zM140 800q-33 0 -56.5 -23.5t-23.5 -56.5t23.5 -56.5t56.5 -23.5t56.5 23.5t23.5 56.5t-23.5 56.5t-56.5 23.5zM140 580q-33 0 -56.5 -23.5t-23.5 -56.5t23.5 -56.5t56.5 -23.5
t56.5 23.5t23.5 56.5t-23.5 56.5t-56.5 23.5zM360 580q-33 0 -56.5 -23.5t-23.5 -56.5t23.5 -56.5t56.5 -23.5t56.5 23.5t23.5 56.5t-23.5 56.5t-56.5 23.5zM140 360q-33 0 -56.5 -23.5t-23.5 -56.5t23.5 -56.5t56.5 -23.5t56.5 23.5t23.5 56.5t-23.5 56.5t-56.5 23.5z" />
    <glyph glyph-name="uniF733" unicode="&#xf733;" 
d="M317 78q-5 58 -69 58q-30 0 -46 -13t-16 -35t14 -30q4 -3 8 -4.5t10 -3.5t14.5 -4.5t19.5 -5.5q16 -3 26 -5.5t17 -4.5t12.5 -4.5t10.5 -5.5q30 -18 30 -52q0 -17 -7 -31.5t-21 -24.5q-24 -18 -66 -18q-47 0 -73.5 23t-26.5 63v3h22q2 -16 5 -26.5t11 -18.5
q20 -24 64 -24q32 0 50.5 14t18.5 38q0 27 -29 40q-4 2 -8 3t-10.5 3t-15 4t-22.5 4q-12 4 -20.5 6t-15 4.5t-11.5 5t-9 5.5q-22 15 -22 46t23 50t64 19q43 0 66 -20.5t25 -57.5h-23zM360 800q-33 0 -56.5 -23.5t-23.5 -56.5t23.5 -56.5t56.5 -23.5t56.5 23.5t23.5 56.5
t-23.5 56.5t-56.5 23.5zM140 580q-33 0 -56.5 -23.5t-23.5 -56.5t23.5 -56.5t56.5 -23.5t56.5 23.5t23.5 56.5t-23.5 56.5t-56.5 23.5zM140 360q-33 0 -56.5 -23.5t-23.5 -56.5t23.5 -56.5t56.5 -23.5t56.5 23.5t23.5 56.5t-23.5 56.5t-56.5 23.5z" />
    <glyph glyph-name="uniF734" unicode="&#xf734;" 
d="M348 129h-88v-229h-24v229h-88v21h200v-21zM360 800q-33 0 -56.5 -23.5t-23.5 -56.5t23.5 -56.5t56.5 -23.5t56.5 23.5t23.5 56.5t-23.5 56.5t-56.5 23.5zM140 580q-33 0 -56.5 -23.5t-23.5 -56.5t23.5 -56.5t56.5 -23.5t56.5 23.5t23.5 56.5t-23.5 56.5t-56.5 23.5z
M360 580q-33 0 -56.5 -23.5t-23.5 -56.5t23.5 -56.5t56.5 -23.5t56.5 23.5t23.5 56.5t-23.5 56.5t-56.5 23.5zM140 360q-33 0 -56.5 -23.5t-23.5 -56.5t23.5 -56.5t56.5 -23.5t56.5 23.5t23.5 56.5t-23.5 56.5t-56.5 23.5z" />
    <glyph glyph-name="uniF735" unicode="&#xf735;" 
d="M364 0q0 -14 -1 -24t-2.5 -18t-5 -15t-7.5 -14q-25 -35 -80 -35q-62 0 -86 42q-6 12 -9 26.5t-3 37.5v150h23v-150q0 -22 2.5 -35t9.5 -23q18 -28 64 -28q43 0 61 27q6 10 8 23.5t2 35.5v150h24v-150zM140 800q-33 0 -56.5 -23.5t-23.5 -56.5t23.5 -56.5t56.5 -23.5
t56.5 23.5t23.5 56.5t-23.5 56.5t-56.5 23.5zM140 360q-33 0 -56.5 -23.5t-23.5 -56.5t23.5 -56.5t56.5 -23.5t56.5 23.5t23.5 56.5t-23.5 56.5t-56.5 23.5zM360 360q-33 0 -56.5 -23.5t-23.5 -56.5t23.5 -56.5t56.5 -23.5t56.5 23.5t23.5 56.5t-23.5 56.5t-56.5 23.5z" />
    <glyph glyph-name="uniF736" unicode="&#xf736;" 
d="M274 -100h-28l-94 250h26l82 -224l80 224h26zM140 800q-33 0 -56.5 -23.5t-23.5 -56.5t23.5 -56.5t56.5 -23.5t56.5 23.5t23.5 56.5t-23.5 56.5t-56.5 23.5zM140 580q-33 0 -56.5 -23.5t-23.5 -56.5t23.5 -56.5t56.5 -23.5t56.5 23.5t23.5 56.5t-23.5 56.5t-56.5 23.5z
M140 360q-33 0 -56.5 -23.5t-23.5 -56.5t23.5 -56.5t56.5 -23.5t56.5 23.5t23.5 56.5t-23.5 56.5t-56.5 23.5zM360 360q-33 0 -56.5 -23.5t-23.5 -56.5t23.5 -56.5t56.5 -23.5t56.5 23.5t23.5 56.5t-23.5 56.5t-56.5 23.5z" />
    <glyph glyph-name="uniF737" unicode="&#xf737;" 
d="M352 -100h-26l-64 222l-64 -222h-25l-69 250h25l58 -217l62 217h27l63 -217l58 217h24zM360 800q-33 0 -56.5 -23.5t-23.5 -56.5t23.5 -56.5t56.5 -23.5t56.5 23.5t23.5 56.5t-23.5 56.5t-56.5 23.5zM140 580q-33 0 -56.5 -23.5t-23.5 -56.5t23.5 -56.5t56.5 -23.5
t56.5 23.5t23.5 56.5t-23.5 56.5t-56.5 23.5zM360 580q-33 0 -56.5 -23.5t-23.5 -56.5t23.5 -56.5t56.5 -23.5t56.5 23.5t23.5 56.5t-23.5 56.5t-56.5 23.5zM360 360q-33 0 -56.5 -23.5t-23.5 -56.5t23.5 -56.5t56.5 -23.5t56.5 23.5t23.5 56.5t-23.5 56.5t-56.5 23.5z" />
    <glyph glyph-name="uniF738" unicode="&#xf738;" 
d="M268 28l90 -128h-28l-78 110l-76 -110h-27l91 128l-86 122h29l71 -102l72 102h28zM140 800q-33 0 -56.5 -23.5t-23.5 -56.5t23.5 -56.5t56.5 -23.5t56.5 23.5t23.5 56.5t-23.5 56.5t-56.5 23.5zM360 800q-33 0 -56.5 -23.5t-23.5 -56.5t23.5 -56.5t56.5 -23.5t56.5 23.5
t23.5 56.5t-23.5 56.5t-56.5 23.5zM140 360q-33 0 -56.5 -23.5t-23.5 -56.5t23.5 -56.5t56.5 -23.5t56.5 23.5t23.5 56.5t-23.5 56.5t-56.5 23.5zM360 360q-33 0 -56.5 -23.5t-23.5 -56.5t23.5 -56.5t56.5 -23.5t56.5 23.5t23.5 56.5t-23.5 56.5t-56.5 23.5z" />
    <glyph glyph-name="uniF739" unicode="&#xf739;" 
d="M268 4v-104h-24v104l-99 146h29l83 -124l82 124h28zM140 800q-33 0 -56.5 -23.5t-23.5 -56.5t23.5 -56.5t56.5 -23.5t56.5 23.5t23.5 56.5t-23.5 56.5t-56.5 23.5zM360 800q-33 0 -56.5 -23.5t-23.5 -56.5t23.5 -56.5t56.5 -23.5t56.5 23.5t23.5 56.5t-23.5 56.5
t-56.5 23.5zM360 580q-33 0 -56.5 -23.5t-23.5 -56.5t23.5 -56.5t56.5 -23.5t56.5 23.5t23.5 56.5t-23.5 56.5t-56.5 23.5zM140 360q-33 0 -56.5 -23.5t-23.5 -56.5t23.5 -56.5t56.5 -23.5t56.5 23.5t23.5 56.5t-23.5 56.5t-56.5 23.5zM360 360q-33 0 -56.5 -23.5
t-23.5 -56.5t23.5 -56.5t56.5 -23.5t56.5 23.5t23.5 56.5t-23.5 56.5t-56.5 23.5z" />
    <glyph glyph-name="uniF73A" unicode="&#xf73a;" 
d="M349 129l-165 -209h168v-20h-195v22l163 207h-152v21h181v-21zM140 800q-33 0 -56.5 -23.5t-23.5 -56.5t23.5 -56.5t56.5 -23.5t56.5 23.5t23.5 56.5t-23.5 56.5t-56.5 23.5zM360 580q-33 0 -56.5 -23.5t-23.5 -56.5t23.5 -56.5t56.5 -23.5t56.5 23.5t23.5 56.5
t-23.5 56.5t-56.5 23.5zM140 360q-33 0 -56.5 -23.5t-23.5 -56.5t23.5 -56.5t56.5 -23.5t56.5 23.5t23.5 56.5t-23.5 56.5t-56.5 23.5zM360 360q-33 0 -56.5 -23.5t-23.5 -56.5t23.5 -56.5t56.5 -23.5t56.5 23.5t23.5 56.5t-23.5 56.5t-56.5 23.5z" />
    <glyph glyph-name="zero.alt1" unicode="&#xf740;" 
d="M257 148q23 0 41 -11t28 -32q9 -15 12.5 -36t3.5 -49q0 -27 -3.5 -46.5t-10.5 -35.5q-12 -21 -30 -32t-42 -11q-86 0 -86 123q0 56 16 88q10 20 28 31t43 11zM256 128q-63 0 -63 -112q0 -19 2.5 -36t8.5 -30q6 -18 20 -27t32 -9q63 0 63 106q0 108 -63 108zM360 800
q-33 0 -56.5 -23.5t-23.5 -56.5t23.5 -56.5t56.5 -23.5t56.5 23.5t23.5 56.5t-23.5 56.5t-56.5 23.5zM140 580q-33 0 -56.5 -23.5t-23.5 -56.5t23.5 -56.5t56.5 -23.5t56.5 23.5t23.5 56.5t-23.5 56.5t-56.5 23.5zM360 580q-33 0 -56.5 -23.5t-23.5 -56.5t23.5 -56.5
t56.5 -23.5t56.5 23.5t23.5 56.5t-23.5 56.5t-56.5 23.5z" />
    <glyph glyph-name="one.alt1" unicode="&#xf741;" 
d="M299 -100h-23v183h-63v17q19 0 31 2t19 7t11 13.5t8 22.5h17v-245zM140 800q-33 0 -56.5 -23.5t-23.5 -56.5t23.5 -56.5t56.5 -23.5t56.5 23.5t23.5 56.5t-23.5 56.5t-56.5 23.5z" />
    <glyph glyph-name="two.alt1" unicode="&#xf742;" 
d="M338 -100h-163q1 16 5 29t13 24t23 22.5t36 25.5q18 12 30 21.5t19 18.5t10 17.5t3 19.5q0 23 -15 36.5t-40 13.5q-15 0 -28 -6t-19 -19q-4 -9 -6 -18t-3 -24h-22q0 41 20.5 64t58.5 23q35 0 55.5 -19t20.5 -51q0 -16 -5.5 -29.5t-17.5 -25.5l-9.5 -9.5t-11 -9t-15 -10.5
t-21.5 -14q-14 -10 -24 -17t-16.5 -14t-10 -14t-5.5 -15h138v-20zM140 800q-33 0 -56.5 -23.5t-23.5 -56.5t23.5 -56.5t56.5 -23.5t56.5 23.5t23.5 56.5t-23.5 56.5t-56.5 23.5zM140 580q-33 0 -56.5 -23.5t-23.5 -56.5t23.5 -56.5t56.5 -23.5t56.5 23.5t23.5 56.5
t-23.5 56.5t-56.5 23.5z" />
    <glyph glyph-name="three.alt1" unicode="&#xf743;" 
d="M178 67q2 39 22 60t58 21q33 0 53.5 -17.5t20.5 -46.5q0 -20 -11 -34t-31 -20q24 -4 37 -19.5t13 -39.5q0 -17 -6 -31t-17 -24t-27 -15.5t-34 -5.5q-26 0 -45 9.5t-29 29.5q-6 8 -8 19t-2 25h22q0 -11 2 -19.5t6 -16.5q8 -14 22 -21t32 -7q27 0 44.5 15t17.5 39
q0 28 -22 42q-8 6 -18 8t-25 2h-6h-5v18h2h7q27 0 42.5 12t15.5 34q0 20 -14.5 32t-38.5 12q-26 0 -41 -15.5t-16 -45.5h-21zM140 800q-33 0 -56.5 -23.5t-23.5 -56.5t23.5 -56.5t56.5 -23.5t56.5 23.5t23.5 56.5t-23.5 56.5t-56.5 23.5zM360 800q-33 0 -56.5 -23.5
t-23.5 -56.5t23.5 -56.5t56.5 -23.5t56.5 23.5t23.5 56.5t-23.5 56.5t-56.5 23.5z" />
    <glyph glyph-name="four.alt1" unicode="&#xf744;" 
d="M342 -40h-37v-60h-21v60h-114v20l116 165h19v-167h37v-18zM284 112l-94 -134h94v134zM140 800q-33 0 -56.5 -23.5t-23.5 -56.5t23.5 -56.5t56.5 -23.5t56.5 23.5t23.5 56.5t-23.5 56.5t-56.5 23.5zM360 800q-33 0 -56.5 -23.5t-23.5 -56.5t23.5 -56.5t56.5 -23.5
t56.5 23.5t23.5 56.5t-23.5 56.5t-56.5 23.5zM360 580q-33 0 -56.5 -23.5t-23.5 -56.5t23.5 -56.5t56.5 -23.5t56.5 23.5t23.5 56.5t-23.5 56.5t-56.5 23.5z" />
    <glyph glyph-name="five.alt1" unicode="&#xf745;" 
d="M328 123h-107l-18 -85q20 25 56 25q17 0 32 -6.5t25.5 -17.5t16.5 -26t6 -33t-6.5 -34t-17.5 -27t-26.5 -17.5t-33.5 -6.5q-19 0 -34 5.5t-25.5 15.5t-16 24t-5.5 31h21q3 -27 18 -42.5t42 -15.5q13 0 24 5t19.5 13.5t13 20.5t4.5 26t-4.5 26.5t-12.5 21t-19.5 13.5
t-25.5 5q-34 0 -54 -28h-23l27 126h124v-19zM140 800q-33 0 -56.5 -23.5t-23.5 -56.5t23.5 -56.5t56.5 -23.5t56.5 23.5t23.5 56.5t-23.5 56.5t-56.5 23.5zM360 580q-33 0 -56.5 -23.5t-23.5 -56.5t23.5 -56.5t56.5 -23.5t56.5 23.5t23.5 56.5t-23.5 56.5t-56.5 23.5z" />
    <glyph glyph-name="six.alt1" unicode="&#xf746;" 
d="M312 84q-4 20 -17 32t-35 12q-45 0 -60 -54q-4 -12 -5 -25t-2 -33q10 22 27.5 33t40.5 11q17 0 31.5 -6t25 -17t16.5 -26t6 -32q0 -18 -6 -33.5t-17 -26.5t-26 -17.5t-33 -6.5q-22 0 -40 9.5t-29 27.5q-9 15 -13 34.5t-4 49.5q0 64 22.5 98t66.5 34q31 0 50 -17t23 -47
h-22zM256 40q-12 0 -23 -5t-19 -13t-12 -19t-4 -25t4 -26t12.5 -20t19 -13t24.5 -5q26 0 43 18t17 45q0 29 -17 46t-45 17zM140 800q-33 0 -56.5 -23.5t-23.5 -56.5t23.5 -56.5t56.5 -23.5t56.5 23.5t23.5 56.5t-23.5 56.5t-56.5 23.5zM360 800q-33 0 -56.5 -23.5
t-23.5 -56.5t23.5 -56.5t56.5 -23.5t56.5 23.5t23.5 56.5t-23.5 56.5t-56.5 23.5zM140 580q-33 0 -56.5 -23.5t-23.5 -56.5t23.5 -56.5t56.5 -23.5t56.5 23.5t23.5 56.5t-23.5 56.5t-56.5 23.5z" />
    <glyph glyph-name="seven.alt1" unicode="&#xf747;" 
d="M335 123q-43 -44 -69 -102t-30 -121h-24q2 28 10 59t21 60t31 56t40 47h-136v20h157v-19zM140 800q-33 0 -56.5 -23.5t-23.5 -56.5t23.5 -56.5t56.5 -23.5t56.5 23.5t23.5 56.5t-23.5 56.5t-56.5 23.5zM360 800q-33 0 -56.5 -23.5t-23.5 -56.5t23.5 -56.5t56.5 -23.5
t56.5 23.5t23.5 56.5t-23.5 56.5t-56.5 23.5zM140 580q-33 0 -56.5 -23.5t-23.5 -56.5t23.5 -56.5t56.5 -23.5t56.5 23.5t23.5 56.5t-23.5 56.5t-56.5 23.5zM360 580q-33 0 -56.5 -23.5t-23.5 -56.5t23.5 -56.5t56.5 -23.5t56.5 23.5t23.5 56.5t-23.5 56.5t-56.5 23.5z" />
    <glyph glyph-name="eight.alt1" unicode="&#xf748;" 
d="M222 32q-20 6 -30 20t-10 34q0 28 20 45t54 17t54 -17t20 -45q0 -20 -10 -33.5t-30 -20.5q26 -6 38 -21.5t12 -39.5q0 -35 -22.5 -55.5t-61.5 -20.5t-61.5 20t-22.5 55q0 24 13 40.5t37 21.5zM256 128q-24 0 -38 -12t-14 -32t14 -32t38 -12t38 12t14 33t-13.5 32
t-38.5 11zM254 23q-26 0 -42.5 -14.5t-16.5 -38.5q0 -26 16.5 -41t44.5 -15t44.5 15t16.5 41q0 24 -16.5 38.5t-46.5 14.5zM140 800q-33 0 -56.5 -23.5t-23.5 -56.5t23.5 -56.5t56.5 -23.5t56.5 23.5t23.5 56.5t-23.5 56.5t-56.5 23.5zM140 580q-33 0 -56.5 -23.5
t-23.5 -56.5t23.5 -56.5t56.5 -23.5t56.5 23.5t23.5 56.5t-23.5 56.5t-56.5 23.5zM360 580q-33 0 -56.5 -23.5t-23.5 -56.5t23.5 -56.5t56.5 -23.5t56.5 23.5t23.5 56.5t-23.5 56.5t-56.5 23.5z" />
    <glyph glyph-name="nine.alt1" unicode="&#xf749;" 
d="M200 -41q3 -21 17.5 -33t36.5 -12q24 0 40 17t21 50q1 10 2 20.5t1 26.5l-6.5 -13t-7.5 -10q-10 -11 -23.5 -16.5t-29.5 -5.5q-17 0 -32 6t-25 16.5t-16 25.5t-6 33t6 34t17 27t26 17t33 6q28 0 47 -11.5t29 -34.5q6 -16 8 -33t2 -41q0 -52 -13 -82q-23 -51 -74 -51
q-31 0 -51 17.5t-24 46.5h22zM253 128q-25 0 -41 -17.5t-16 -44.5q0 -29 16 -46.5t42 -17.5t43 17.5t17 45.5t-17 45.5t-44 17.5zM360 800q-33 0 -56.5 -23.5t-23.5 -56.5t23.5 -56.5t56.5 -23.5t56.5 23.5t23.5 56.5t-23.5 56.5t-56.5 23.5zM140 580q-33 0 -56.5 -23.5
t-23.5 -56.5t23.5 -56.5t56.5 -23.5t56.5 23.5t23.5 56.5t-23.5 56.5t-56.5 23.5z" />
    <glyph glyph-name="comma.alt1" unicode="&#xf74c;" 
d="M250 -100l-2.5 -0.5t-5.5 0t-6.5 2t-5.5 4.5q-2 4 -2 9t2 9.5t6 7.5t10 3q10 0 14 -4t6 -9.5t2 -12.5t-2 -13q-2 -14 -9 -21t-13 -10q-8 -3 -18 -4v11q3 0 6 1q2 1 5 2t6 4t5 6t2 6v6v3zM140 580q-33 0 -56.5 -23.5t-23.5 -56.5t23.5 -56.5t56.5 -23.5t56.5 23.5
t23.5 56.5t-23.5 56.5t-56.5 23.5z" />
    <glyph glyph-name="period.alt1" unicode="&#xf74e;" 
d="M231 -100q-9 0 -13.5 5t-4.5 12t4.5 13t13.5 6t13 -6t4 -13t-4 -12t-13 -5zM140 580q-33 0 -56.5 -23.5t-23.5 -56.5t23.5 -56.5t56.5 -23.5t56.5 23.5t23.5 56.5t-23.5 56.5t-56.5 23.5zM360 580q-33 0 -56.5 -23.5t-23.5 -56.5t23.5 -56.5t56.5 -23.5t56.5 23.5
t23.5 56.5t-23.5 56.5t-56.5 23.5zM360 360q-33 0 -56.5 -23.5t-23.5 -56.5t23.5 -56.5t56.5 -23.5t56.5 23.5t23.5 56.5t-23.5 56.5t-56.5 23.5z" />
    <glyph glyph-name="uniF761" unicode="&#xf761;" horiz-adv-x="1180" 
d="M722 54q7 4 11.5 10t6.5 12t4 13h18q-2 -7 -5 -15t-8 -15t-13 -13q-16 -12 -30.5 -15t-33.5 -3q-8 0 -17 1t-16.5 5t-12 11t-4.5 19q1 13 10 21t23 8q13 0 22 -7.5t9 -19.5q1 -14 -6 -23q6 -1 13 1q6 0 13.5 2t15.5 8zM722 -62q7 4 11.5 10t6.5 12t4 13h18q-2 -7 -5 -15
t-8 -15t-13 -13q-16 -12 -30.5 -15t-33.5 -3q-8 0 -17 1t-16.5 5t-12 11t-4.5 19q1 13 10 21t23 8q13 0 22 -7.5t9 -19.5q1 -14 -6 -23q6 -1 13 1q6 0 13.5 2t15.5 8zM655 -36q-9 0 -14 -6t-5 -12t4.5 -12t13.5 -6t13.5 6t4.5 12t-4 12t-13 6zM655 80q-9 0 -14 -6t-5 -12
t4.5 -12t13.5 -6t13.5 6t4.5 12t-4 12t-13 6zM396 -43q3 1 6 3q4 0 8 0.5t8 -0.5q12 -2 19 -10t6 -22q-1 -12 -10 -21t-25 -7q-10 0 -15.5 4t-8.5 10t-3.5 12t-0.5 10v164h16v-143zM412 -88q9 0 13.5 5.5t4.5 12t-4.5 12t-13.5 5.5t-13.5 -5.5t-4.5 -12t4.5 -12t13.5 -5.5z
M574 -18h-83v20h83v-20zM140 800q-33 0 -56.5 -23.5t-23.5 -56.5t23.5 -56.5t56.5 -23.5t56.5 23.5t23.5 56.5t-23.5 56.5t-56.5 23.5zM360 800q-33 0 -56.5 -23.5t-23.5 -56.5t23.5 -56.5t56.5 -23.5t56.5 23.5t23.5 56.5t-23.5 56.5t-56.5 23.5zM730 800
q-33 0 -56.5 -23.5t-23.5 -56.5t23.5 -56.5t56.5 -23.5t56.5 23.5t23.5 56.5t-23.5 56.5t-56.5 23.5zM140 580q-33 0 -56.5 -23.5t-23.5 -56.5t23.5 -56.5t56.5 -23.5t56.5 23.5t23.5 56.5t-23.5 56.5t-56.5 23.5z" />
    <glyph glyph-name="uniF762" unicode="&#xf762;" horiz-adv-x="1180" 
d="M322 -42q3 2 6 2q3 2 7 2t8 -1q12 -3 19 -11t7 -22q-2 -12 -11 -20.5t-25 -7.5q-10 2 -15 6t-8 9t-4 11t-1 11v163h17v-142zM401 -43q3 1 6 3q4 0 8 0.5t8 -0.5q12 -2 19 -10t6 -22q-1 -12 -10 -21t-25 -7q-10 0 -15.5 4t-8.5 10t-3.5 12t-0.5 10v164h16v-143zM417 -88
q9 0 13.5 5.5t4.5 12t-4.5 12t-13.5 5.5t-13.5 -5.5t-4.5 -12t4.5 -12t13.5 -5.5zM338 -87q9 0 13 5.5t4 12t-4 12t-13 5.5t-13.5 -5.5t-4.5 -12t4.5 -12t13.5 -5.5zM722 54q7 4 11.5 10t6.5 12t4 13h18q-2 -7 -5 -15t-8 -15t-13 -13q-16 -12 -30.5 -15t-33.5 -3q-8 0 -17 1
t-16.5 5t-12 11t-4.5 19q1 13 10 21t23 8q13 0 22 -7.5t9 -19.5q1 -14 -6 -23q6 -1 13 1q6 0 13.5 2t15.5 8zM722 -62q7 4 11.5 10t6.5 12t4 13h18q-2 -7 -5 -15t-8 -15t-13 -13q-16 -12 -30.5 -15t-33.5 -3q-8 0 -17 1t-16.5 5t-12 11t-4.5 19q1 13 10 21t23 8
q13 0 22 -7.5t9 -19.5q1 -14 -6 -23q6 -1 13 1q6 0 13.5 2t15.5 8zM655 -36q-9 0 -14 -6t-5 -12t4.5 -12t13.5 -6t13.5 6t4.5 12t-4 12t-13 6zM655 80q-9 0 -14 -6t-5 -12t4.5 -12t13.5 -6t13.5 6t4.5 12t-4 12t-13 6zM574 -18h-83v20h83v-20zM140 800q-33 0 -56.5 -23.5
t-23.5 -56.5t23.5 -56.5t56.5 -23.5t56.5 23.5t23.5 56.5t-23.5 56.5t-56.5 23.5zM730 800q-33 0 -56.5 -23.5t-23.5 -56.5t23.5 -56.5t56.5 -23.5t56.5 23.5t23.5 56.5t-23.5 56.5t-56.5 23.5zM140 580q-33 0 -56.5 -23.5t-23.5 -56.5t23.5 -56.5t56.5 -23.5t56.5 23.5
t23.5 56.5t-23.5 56.5t-56.5 23.5zM360 360q-33 0 -56.5 -23.5t-23.5 -56.5t23.5 -56.5t56.5 -23.5t56.5 23.5t23.5 56.5t-23.5 56.5t-56.5 23.5z" />
    <glyph glyph-name="uniF763" unicode="&#xf763;" horiz-adv-x="1180" 
d="M391 -43l6 3q2 0 6 0.5t9 -0.5q11 -2 18.5 -10t6.5 -22q-1 -12 -10 -21t-25 -7q-10 0 -15.5 4t-8.5 10t-4 12t-1 10v218q0 6 -0.5 12t-8.5 10q-6 4 -13.5 5.5t-13.5 2.5q-8 1 -14 2q0 8 4 16q2 8 8 14t17 8t19.5 1t16 -4t15.5 -5t18 -2q6 0 9.5 1.5t6.5 2.5l4 4l11 -12
q-1 0 -6 -5t-17 -5q-10 -2 -19 0t-17 5t-16 5t-17 1q-6 -1 -9.5 -3t-5.5 -4t-2.5 -4t-1.5 -3q6 0 11 -1q5 -2 11 -4t13 -5q11 -6 13 -15t2 -16v-199zM406 -88q9 0 13 5.5t4 12t-4 12t-13 5.5t-13 -5.5t-4 -12t4 -12t13 -5.5zM722 54q7 4 11.5 10t6.5 12t4 13h18
q-2 -7 -5 -15t-8 -15t-13 -13q-16 -12 -30.5 -15t-33.5 -3q-8 0 -17 1t-16.5 5t-12 11t-4.5 19q1 13 10 21t23 8q13 0 22 -7.5t9 -19.5q1 -14 -6 -23q6 -1 13 1q6 0 13.5 2t15.5 8zM722 -62q7 4 11.5 10t6.5 12t4 13h18q-2 -7 -5 -15t-8 -15t-13 -13q-16 -12 -30.5 -15
t-33.5 -3q-8 0 -17 1t-16.5 5t-12 11t-4.5 19q1 13 10 21t23 8q13 0 22 -7.5t9 -19.5q1 -14 -6 -23q6 -1 13 1q6 0 13.5 2t15.5 8zM655 -36q-9 0 -14 -6t-5 -12t4.5 -12t13.5 -6t13.5 6t4.5 12t-4 12t-13 6zM655 80q-9 0 -14 -6t-5 -12t4.5 -12t13.5 -6t13.5 6t4.5 12t-4 12
t-13 6zM574 -18h-83v20h83v-20zM360 800q-33 0 -56.5 -23.5t-23.5 -56.5t23.5 -56.5t56.5 -23.5t56.5 23.5t23.5 56.5t-23.5 56.5t-56.5 23.5zM730 800q-33 0 -56.5 -23.5t-23.5 -56.5t23.5 -56.5t56.5 -23.5t56.5 23.5t23.5 56.5t-23.5 56.5t-56.5 23.5zM140 580
q-33 0 -56.5 -23.5t-23.5 -56.5t23.5 -56.5t56.5 -23.5t56.5 23.5t23.5 56.5t-23.5 56.5t-56.5 23.5z" />
    <glyph glyph-name="uniF764" unicode="&#xf764;" horiz-adv-x="1180" 
d="M804 54q7 4 11.5 10t6.5 12t4 13h18q-2 -7 -5 -15t-8 -15t-13 -13q-16 -12 -30.5 -15t-33.5 -3q-8 0 -17 1t-16.5 5t-12 11t-4.5 19q1 13 10 21t23 8q13 0 22 -7.5t9 -19.5q1 -14 -6 -23q6 -1 13 1q6 0 13.5 2t15.5 8zM804 -62q7 4 11.5 10t6.5 12t4 13h18q-2 -7 -5 -15
t-8 -15t-13 -13q-16 -12 -30.5 -15t-33.5 -3q-8 0 -17 1t-16.5 5t-12 11t-4.5 19q1 13 10 21t23 8q13 0 22 -7.5t9 -19.5q1 -14 -6 -23q6 -1 13 1q6 0 13.5 2t15.5 8zM737 -36q-9 0 -14 -6t-5 -12t4.5 -12t13.5 -6t13.5 6t4.5 12t-4 12t-13 6zM737 80q-9 0 -14 -6t-5 -12
t4.5 -12t13.5 -6t13.5 6t4.5 12t-4 12t-13 6zM652 46q0 18 -12 30t-39 10q-15 0 -24.5 -5t-15 -11t-7.5 -10l-2 -6l-14 9q0 1 3 7t10 12.5t19 12t31 6.5q33 1 50.5 -14t17.5 -41v-146h-17v146v0zM328 -43q3 1 6 3q4 0 8 0.5t8 -0.5q12 -2 19 -10t6 -22q-1 -12 -10 -21
t-25 -7q-10 0 -15.5 4t-8.5 10t-3.5 12t-0.5 10v164h16v-143zM344 -88q9 0 13.5 5.5t4.5 12t-4.5 12t-13.5 5.5t-13.5 -5.5t-4.5 -12t4.5 -12t13.5 -5.5zM513 -18h-83v20h83v-20zM140 800q-33 0 -56.5 -23.5t-23.5 -56.5t23.5 -56.5t56.5 -23.5t56.5 23.5t23.5 56.5
t-23.5 56.5t-56.5 23.5zM730 800q-33 0 -56.5 -23.5t-23.5 -56.5t23.5 -56.5t56.5 -23.5t56.5 23.5t23.5 56.5t-23.5 56.5t-56.5 23.5zM359.5 580q-32.5 0 -56 -23.5t-23.5 -56t23.5 -56.5t56 -24t56.5 24t24 56.5t-24 56t-56.5 23.5zM139.5 360q-32.5 0 -56 -23.5
t-23.5 -56t23.5 -56t56 -24t56.5 23.5t24 56.5t-24 56t-56.5 23.5z" />
    <glyph glyph-name="uniF765" unicode="&#xf765;" horiz-adv-x="1180" 
d="M854 54q7 4 11.5 10t6.5 12t4 13h18q-2 -7 -5 -15t-8 -15t-13 -13q-16 -12 -30.5 -15t-33.5 -3q-8 0 -17 1t-16.5 5t-12 11t-4.5 19q1 13 10 21t23 8q13 0 22 -7.5t9 -19.5q1 -14 -6 -23q6 -1 13 1q6 0 13.5 2t15.5 8zM854 -62q7 4 11.5 10t6.5 12t4 13h18q-2 -7 -5 -15
t-8 -15t-13 -13q-16 -12 -30.5 -15t-33.5 -3q-8 0 -17 1t-16.5 5t-12 11t-4.5 19q1 13 10 21t23 8q13 0 22 -7.5t9 -19.5q1 -14 -6 -23q6 -1 13 1q6 0 13.5 2t15.5 8zM787 -36q-9 0 -14 -6t-5 -12t4.5 -12t13.5 -6t13.5 6t4.5 12t-4 12t-13 6zM787 80q-9 0 -14 -6t-5 -12
t4.5 -12t13.5 -6t13.5 6t4.5 12t-4 12t-13 6zM632 40q0 24 -16.5 36t-42.5 10q-18 0 -29 -5.5t-17 -12t-8 -11.5l-2 -5l-16 6l3 7t11 15t22 14.5t36 6.5q37 0 57 -16t20 -44v-103q0 -9 -1.5 -16.5t-7 -12.5t-12.5 -7t-14 -2h-71q-16 0 -24 9q-6 5 -7 12.5t-1 12.5v72
q0 4 1 10t4 11.5t8.5 9.5t14.5 5q16 2 25.5 -7t10.5 -21q1 -14 -6.5 -22t-19.5 -10q-4 -2 -8 -1.5t-7 1.5l-6 2v-46q0 -4 0.5 -9t3.5 -9t8 -4h7h62h10t8 4t4 8v10v102zM544.5 29q-8.5 0 -13 -5.5t-4.5 -11.5t4.5 -12t13 -6t13 6t4.5 12t-4.5 11.5t-13 5.5zM228 -43q3 1 6 3
q4 0 8 0.5t8 -0.5q12 -2 19 -10t6 -22q-1 -12 -10 -21t-25 -7q-10 0 -15.5 4t-8.5 10t-3.5 12t-0.5 10v164h16v-143zM244 -88q9 0 13.5 5.5t4.5 12t-4.5 12t-13.5 5.5t-13.5 -5.5t-4.5 -12t4.5 -12t13.5 -5.5zM430 -18h-83v20h83v-20zM140 800q-33 0 -56.5 -23.5
t-23.5 -56.5t23.5 -56.5t56.5 -23.5t56.5 23.5t23.5 56.5t-23.5 56.5t-56.5 23.5zM360 800q-33 0 -56.5 -23.5t-23.5 -56.5t23.5 -56.5t56.5 -23.5t56.5 23.5t23.5 56.5t-23.5 56.5t-56.5 23.5zM730 800q-33 0 -56.5 -23.5t-23.5 -56.5t23.5 -56.5t56.5 -23.5t56.5 23.5
t23.5 56.5t-23.5 56.5t-56.5 23.5zM360 360q-33 0 -56.5 -23.5t-23.5 -56.5t23.5 -56.5t56.5 -23.5t56.5 23.5t23.5 56.5t-23.5 56.5t-56.5 23.5z" />
    <glyph glyph-name="uniF766" unicode="&#xf766;" 
d="M452 40q0 24 -16.5 36t-42.5 10q-18 0 -29 -5.5t-17 -12t-8 -11.5l-2 -5l-16 6l3 7t11 15t22 14.5t36 6.5q37 0 57 -16t20 -44v-103q0 -9 -1.5 -16.5t-7 -12.5t-12.5 -7t-14 -2h-71q-16 0 -24 9q-6 5 -7 12.5t-1 12.5v72q0 4 1 10t4 11.5t8.5 9.5t14.5 5q16 2 25.5 -7
t10.5 -21q1 -14 -6.5 -22t-19.5 -10q-4 -2 -8 -1.5t-7 1.5l-6 2v-46q0 -4 0.5 -9t3.5 -9t8 -4h7h62h10t8 4t4 8v10v102zM364.5 29q-8.5 0 -13 -5.5t-4.5 -11.5t4.5 -12t13 -6t13 6t4.5 12t-4.5 11.5t-13 5.5zM48 -43q3 1 6 3q4 0 8 0.5t8 -0.5q12 -2 19 -10t6 -22
q-1 -12 -10 -21t-25 -7q-10 0 -15.5 4t-8.5 10t-3.5 12t-0.5 10v164h16v-143zM64 -88q9 0 13.5 5.5t4.5 12t-4.5 12t-13.5 5.5t-13.5 -5.5t-4.5 -12t4.5 -12t13.5 -5.5zM250 -18h-83v20h83v-20zM140 800q-33 0 -56.5 -23.5t-23.5 -56.5t23.5 -56.5t56.5 -23.5t56.5 23.5
t23.5 56.5t-23.5 56.5t-56.5 23.5zM360 800q-33 0 -56.5 -23.5t-23.5 -56.5t23.5 -56.5t56.5 -23.5t56.5 23.5t23.5 56.5t-23.5 56.5t-56.5 23.5zM360 360q-33 0 -56.5 -23.5t-23.5 -56.5t23.5 -56.5t56.5 -23.5t56.5 23.5t23.5 56.5t-23.5 56.5t-56.5 23.5z" />
    </font>
</defs>
</svg>
